<svg xmlns="http://www.w3.org/2000/svg" width="284.58" height="93" viewBox="0 0 284.58 93">
  <g id="Grupo_89413" data-name="Grupo 89413" transform="translate(-209.902 -596.326)">
    <path id="Trazado_129148" data-name="Trazado 129148" d="M27.323,241.826h-18a1.5,1.5,0,0,0,0,3h18a1.5,1.5,0,1,0,0-3Z" transform="translate(273.18 354.5)" fill="#0d66bf"/>
    <path id="Trazado_129149" data-name="Trazado 129149" d="M27.323,241.826h-18a1.5,1.5,0,0,0,0,3h18a1.5,1.5,0,1,0,0-3Z" transform="translate(415.18 444.5)" fill="#e0ffef"/>
    <path id="Trazado_134160" data-name="Trazado 134160" d="M5.879-7.014V0h-4.1V-19.906H9.543a8.984,8.984,0,0,1,3.944.82,6.045,6.045,0,0,1,2.618,2.331,6.5,6.5,0,0,1,.916,3.438,5.716,5.716,0,0,1-2,4.614A8.342,8.342,0,0,1,9.475-7.014Zm0-3.322H9.543a3.6,3.6,0,0,0,2.481-.766,2.785,2.785,0,0,0,.854-2.187,3.283,3.283,0,0,0-.861-2.365,3.217,3.217,0,0,0-2.379-.93H5.879Zm22.012-.752a10.735,10.735,0,0,0-1.422-.109A2.894,2.894,0,0,0,23.529-9.68V0H19.578V-14.793h3.732l.109,1.764a3.661,3.661,0,0,1,3.295-2.037,4.14,4.14,0,0,1,1.23.178Zm.793,3.555a8.773,8.773,0,0,1,.848-3.924,6.205,6.205,0,0,1,2.44-2.666,7.12,7.12,0,0,1,3.7-.943,6.736,6.736,0,0,1,4.888,1.832A7.353,7.353,0,0,1,42.67-8.258L42.7-7.246a7.732,7.732,0,0,1-1.9,5.462A6.606,6.606,0,0,1,35.7.273a6.639,6.639,0,0,1-5.106-2.051,7.868,7.868,0,0,1-1.907-5.578Zm3.951.28a5.53,5.53,0,0,0,.793,3.225A2.616,2.616,0,0,0,35.7-2.912a2.622,2.622,0,0,0,2.242-1.1,6.051,6.051,0,0,0,.807-3.526,5.474,5.474,0,0,0-.807-3.2,2.622,2.622,0,0,0-2.27-1.136,2.579,2.579,0,0,0-2.242,1.13A6.153,6.153,0,0,0,32.635-7.253Zm16.2-7.54.123,1.654a5.2,5.2,0,0,1,4.252-1.928,3.945,3.945,0,0,1,3.924,2.256,5.079,5.079,0,0,1,4.443-2.256,4.412,4.412,0,0,1,3.582,1.4,6.441,6.441,0,0,1,1.176,4.218V0H62.371V-9.455a2.828,2.828,0,0,0-.492-1.843,2.178,2.178,0,0,0-1.736-.582,2.466,2.466,0,0,0-2.461,1.7L57.7,0H53.744V-9.442a2.793,2.793,0,0,0-.506-1.864,2.2,2.2,0,0,0-1.723-.576,2.56,2.56,0,0,0-2.434,1.4V0H45.131V-14.793Zm19.92,7.26a8.773,8.773,0,0,1,.848-3.924,6.205,6.205,0,0,1,2.44-2.666,7.12,7.12,0,0,1,3.7-.943,6.736,6.736,0,0,1,4.888,1.832,7.353,7.353,0,0,1,2.112,4.977l.027,1.012a7.732,7.732,0,0,1-1.9,5.462A6.606,6.606,0,0,1,75.77.273a6.639,6.639,0,0,1-5.106-2.051,7.868,7.868,0,0,1-1.907-5.578Zm3.951.28A5.53,5.53,0,0,0,73.5-4.028a2.616,2.616,0,0,0,2.27,1.116,2.622,2.622,0,0,0,2.242-1.1,6.051,6.051,0,0,0,.807-3.526,5.474,5.474,0,0,0-.807-3.2,2.622,2.622,0,0,0-2.27-1.136,2.579,2.579,0,0,0-2.242,1.13A6.153,6.153,0,0,0,72.707-7.253ZM90.535-4.826l2.748-9.967h4.129L92.422,0H88.648l-4.99-14.793h4.129Zm15.244,5.1a7.262,7.262,0,0,1-5.3-2,7.1,7.1,0,0,1-2.044-5.318v-.383a8.936,8.936,0,0,1,.861-3.985,6.321,6.321,0,0,1,2.44-2.707,6.85,6.85,0,0,1,3.6-.95,6.139,6.139,0,0,1,4.778,1.914,7.778,7.778,0,0,1,1.743,5.428v1.613h-9.42A3.67,3.67,0,0,0,103.6-3.787a3.492,3.492,0,0,0,2.44.875,4.265,4.265,0,0,0,3.568-1.654l1.941,2.174a5.931,5.931,0,0,1-2.406,1.962A7.9,7.9,0,0,1,105.779.273Zm-.451-12.154a2.469,2.469,0,0,0-1.907.8,4.124,4.124,0,0,0-.937,2.28h5.5v-.316a2.942,2.942,0,0,0-.711-2.039A2.547,2.547,0,0,0,105.328-11.881Zm15.928,3.787a20.982,20.982,0,0,1,.834-5.961,15.731,15.731,0,0,1,2.461-5.011,9.189,9.189,0,0,1,3.527-3.028l.766,2.133a9.517,9.517,0,0,0-3.117,4.566,21.143,21.143,0,0,0-1.121,7.219v.424a21.548,21.548,0,0,0,1.107,7.246,9.7,9.7,0,0,0,3.131,4.635l-.766,2.092a9.193,9.193,0,0,1-3.466-2.946A15.467,15.467,0,0,1,122.158-1.6a20.857,20.857,0,0,1-.9-5.77ZM144.389,0H130.744V-2.707l6.439-6.863a15.886,15.886,0,0,0,1.962-2.529,4.064,4.064,0,0,0,.636-2.051,3.041,3.041,0,0,0-.67-2.085,2.418,2.418,0,0,0-1.914-.759,2.608,2.608,0,0,0-2.112.923,3.656,3.656,0,0,0-.772,2.427h-3.965a6.526,6.526,0,0,1,.868-3.322,6.119,6.119,0,0,1,2.454-2.358,7.459,7.459,0,0,1,3.6-.854,7.063,7.063,0,0,1,4.778,1.477,5.224,5.224,0,0,1,1.7,4.17,6.693,6.693,0,0,1-.766,3.008,16.715,16.715,0,0,1-2.625,3.568L135.83-3.186h8.559Zm15.818-8.23A10.084,10.084,0,0,1,158.5-1.914a5.965,5.965,0,0,1-5,2.188,6.007,6.007,0,0,1-4.977-2.146,9.789,9.789,0,0,1-1.764-6.152v-3.664q0-4.17,1.729-6.33a6.01,6.01,0,0,1,4.983-2.16,6.016,6.016,0,0,1,4.977,2.14,9.759,9.759,0,0,1,1.764,6.146Zm-3.951-4.029a7.289,7.289,0,0,0-.677-3.606,2.287,2.287,0,0,0-2.112-1.129,2.246,2.246,0,0,0-2.058,1.074,6.822,6.822,0,0,0-.7,3.36v4.845a7.652,7.652,0,0,0,.663,3.62,2.257,2.257,0,0,0,2.126,1.184,2.219,2.219,0,0,0,2.092-1.136,7.469,7.469,0,0,0,.67-3.476ZM172.471,0H168.52V-15.251L163.8-13.795V-16.98l8.244-2.953h.424Zm20.111,0H178.938V-2.707l6.439-6.863a15.886,15.886,0,0,0,1.962-2.529,4.064,4.064,0,0,0,.636-2.051,3.041,3.041,0,0,0-.67-2.085,2.418,2.418,0,0,0-1.914-.759,2.608,2.608,0,0,0-2.112.923,3.656,3.656,0,0,0-.772,2.427h-3.965a6.526,6.526,0,0,1,.868-3.322,6.119,6.119,0,0,1,2.454-2.358,7.459,7.459,0,0,1,3.6-.854,7.063,7.063,0,0,1,4.778,1.477,5.224,5.224,0,0,1,1.7,4.17,6.693,6.693,0,0,1-.766,3.008,16.715,16.715,0,0,1-2.625,3.568l-4.525,4.771h8.559Zm9.393-7.779a19.91,19.91,0,0,1-.889,5.947,16.144,16.144,0,0,1-2.557,5.045,9.211,9.211,0,0,1-3.568,3.008L194.2,4.129a9.614,9.614,0,0,0,3.063-4.512A20.893,20.893,0,0,0,198.42-7.4v-.725a21.365,21.365,0,0,0-1.114-7.205A10.021,10.021,0,0,0,194.2-20l.766-2.092a9.214,9.214,0,0,1,3.507,2.926,15.936,15.936,0,0,1,2.557,4.936,19.768,19.768,0,0,1,.95,5.838ZM216.18,0h-3.965V-14.793h3.965Zm-4.2-18.621a1.946,1.946,0,0,1,.595-1.463,2.234,2.234,0,0,1,1.62-.574,2.239,2.239,0,0,1,1.613.574,1.934,1.934,0,0,1,.6,1.463,1.94,1.94,0,0,1-.608,1.477,2.245,2.245,0,0,1-1.606.574,2.245,2.245,0,0,1-1.606-.574A1.94,1.94,0,0,1,211.982-18.621Zm11.088,3.828.123,1.709a5.165,5.165,0,0,1,4.252-1.982,4.292,4.292,0,0,1,3.5,1.381,6.443,6.443,0,0,1,1.176,4.129V0H228.17V-9.483a2.573,2.573,0,0,0-.547-1.829,2.445,2.445,0,0,0-1.818-.569,2.717,2.717,0,0,0-2.5,1.425V0h-3.951V-14.793ZM234.5-7.506a8.915,8.915,0,0,1,1.552-5.51,5.035,5.035,0,0,1,4.245-2.051,4.531,4.531,0,0,1,3.568,1.613V-21h3.965V0h-3.568l-.191-1.572a4.65,4.65,0,0,1-3.8,1.846,5.021,5.021,0,0,1-4.19-2.058A9.2,9.2,0,0,1,234.5-7.506Zm3.951.281a5.872,5.872,0,0,0,.725,3.2,2.359,2.359,0,0,0,2.105,1.113,2.643,2.643,0,0,0,2.584-1.552v-5.865a2.605,2.605,0,0,0-2.557-1.552Q238.451-11.881,238.451-7.225ZM255.063,0H251.1V-14.793h3.965Zm-4.2-18.621a1.946,1.946,0,0,1,.595-1.463,2.234,2.234,0,0,1,1.62-.574,2.239,2.239,0,0,1,1.613.574,1.934,1.934,0,0,1,.6,1.463,1.94,1.94,0,0,1-.608,1.477,2.245,2.245,0,0,1-1.606.574,2.245,2.245,0,0,1-1.606-.574A1.94,1.94,0,0,1,250.865-18.621Zm13.6,15.709a2.591,2.591,0,0,0,1.777-.6,2.108,2.108,0,0,0,.711-1.6h3.705a5.068,5.068,0,0,1-.82,2.755,5.413,5.413,0,0,1-2.208,1.941,6.91,6.91,0,0,1-3.1.69,6.422,6.422,0,0,1-5-2.017A7.98,7.98,0,0,1,257.7-7.314v-.26a7.889,7.889,0,0,1,1.818-5.455,6.347,6.347,0,0,1,4.99-2.037,6.222,6.222,0,0,1,4.45,1.579,5.591,5.591,0,0,1,1.7,4.2h-3.705a2.715,2.715,0,0,0-.711-1.876,2.37,2.37,0,0,0-1.8-.722,2.38,2.38,0,0,0-2.085,1.006,5.833,5.833,0,0,0-.7,3.266V-7.2a5.907,5.907,0,0,0,.7,3.286A2.41,2.41,0,0,0,264.469-2.912ZM281.49,0a4.388,4.388,0,0,1-.4-1.326,4.781,4.781,0,0,1-3.732,1.6,5.252,5.252,0,0,1-3.6-1.258,4.045,4.045,0,0,1-1.429-3.172,4.18,4.18,0,0,1,1.743-3.609,8.6,8.6,0,0,1,5.038-1.271h1.818v-.848a2.438,2.438,0,0,0-.526-1.641,2.071,2.071,0,0,0-1.661-.615,2.354,2.354,0,0,0-1.565.479,1.626,1.626,0,0,0-.567,1.313h-3.951a3.969,3.969,0,0,1,.793-2.379,5.242,5.242,0,0,1,2.242-1.716,8.172,8.172,0,0,1,3.254-.622,6.456,6.456,0,0,1,4.341,1.374,4.807,4.807,0,0,1,1.606,3.862v6.412a7.072,7.072,0,0,0,.588,3.186V0Zm-3.268-2.748a3.4,3.4,0,0,0,1.613-.39,2.559,2.559,0,0,0,1.094-1.046V-6.727h-1.477q-2.967,0-3.158,2.051l-.014.232a1.582,1.582,0,0,0,.52,1.217A2.018,2.018,0,0,0,278.223-2.748ZM.9,22.467a8.842,8.842,0,0,1,1.552-5.51,5.073,5.073,0,0,1,4.259-2.023A4.542,4.542,0,0,1,10.5,16.752l.26-1.545h3.473v20.48H10.268V28.729a4.555,4.555,0,0,1-3.582,1.545,5.036,5.036,0,0,1-4.211-2.051A9.276,9.276,0,0,1,.9,22.467Zm3.951.28A5.8,5.8,0,0,0,5.6,25.979a2.385,2.385,0,0,0,2.1,1.109,2.657,2.657,0,0,0,2.57-1.451V19.516a2.635,2.635,0,0,0-2.543-1.4,2.414,2.414,0,0,0-2.119,1.109A6.406,6.406,0,0,0,4.854,22.747ZM26.2,28.5a4.955,4.955,0,0,1-4.047,1.777,4.673,4.673,0,0,1-3.63-1.367A5.836,5.836,0,0,1,17.24,24.9V15.207h3.951v9.568q0,2.313,2.105,2.313a2.853,2.853,0,0,0,2.762-1.4V15.207h3.965V30H26.3Zm13.617,1.777a7.262,7.262,0,0,1-5.3-2,7.1,7.1,0,0,1-2.044-5.318v-.383a8.936,8.936,0,0,1,.861-3.985,6.321,6.321,0,0,1,2.44-2.707,6.85,6.85,0,0,1,3.6-.95,6.139,6.139,0,0,1,4.778,1.914A7.778,7.778,0,0,1,45.9,22.275v1.613h-9.42a3.671,3.671,0,0,0,1.155,2.324,3.492,3.492,0,0,0,2.44.875,4.265,4.265,0,0,0,3.568-1.654l1.941,2.174a5.931,5.931,0,0,1-2.406,1.962A7.9,7.9,0,0,1,39.813,30.273Zm-.451-12.154a2.469,2.469,0,0,0-1.907.8,4.124,4.124,0,0,0-.937,2.28h5.5v-.316A2.942,2.942,0,0,0,41.3,18.84,2.547,2.547,0,0,0,39.361,18.119ZM59.281,30H55.316V9h3.965Zm11.826,0a4.388,4.388,0,0,1-.4-1.326,4.781,4.781,0,0,1-3.732,1.6,5.252,5.252,0,0,1-3.6-1.258,4.045,4.045,0,0,1-1.429-3.172,4.18,4.18,0,0,1,1.743-3.609,8.6,8.6,0,0,1,5.038-1.271h1.818v-.848a2.438,2.438,0,0,0-.526-1.641,2.071,2.071,0,0,0-1.661-.615,2.354,2.354,0,0,0-1.565.479,1.626,1.626,0,0,0-.567,1.313H62.275a3.969,3.969,0,0,1,.793-2.379,5.242,5.242,0,0,1,2.242-1.716,8.172,8.172,0,0,1,3.254-.622,6.456,6.456,0,0,1,4.341,1.374,4.807,4.807,0,0,1,1.606,3.862v6.412a7.072,7.072,0,0,0,.588,3.186V30ZM67.84,27.252a3.4,3.4,0,0,0,1.613-.39,2.559,2.559,0,0,0,1.094-1.046V23.273H69.07q-2.967,0-3.158,2.051l-.014.232a1.582,1.582,0,0,0,.52,1.217A2.018,2.018,0,0,0,67.84,27.252ZM85.477,30V18.105h-2.2v-2.9h2.2v-.684a5.548,5.548,0,0,1,1.716-4.3,6.9,6.9,0,0,1,4.765-1.511,15.8,15.8,0,0,1,4.484.807l-.574,3.268a17.5,17.5,0,0,0-2.078-.513,10.211,10.211,0,0,0-1.586-.116q-2.762,0-2.762,2.447v.6h2.912v2.9H89.441V30Zm12.811,0H94.322V15.207h3.965Zm2.652-7.506a8.915,8.915,0,0,1,1.552-5.51,5.035,5.035,0,0,1,4.245-2.051,4.531,4.531,0,0,1,3.568,1.613V9h3.965V30H110.7l-.191-1.572a4.65,4.65,0,0,1-3.8,1.846,5.021,5.021,0,0,1-4.19-2.058A9.2,9.2,0,0,1,100.939,22.494Zm3.951.281a5.872,5.872,0,0,0,.725,3.2,2.359,2.359,0,0,0,2.105,1.113,2.643,2.643,0,0,0,2.584-1.552V19.671a2.605,2.605,0,0,0-2.557-1.552Q104.891,18.119,104.891,22.775Zm19.25,7.5a7.262,7.262,0,0,1-5.3-2,7.1,7.1,0,0,1-2.044-5.318v-.383a8.936,8.936,0,0,1,.861-3.985,6.321,6.321,0,0,1,2.44-2.707,6.85,6.85,0,0,1,3.6-.95,6.139,6.139,0,0,1,4.778,1.914,7.778,7.778,0,0,1,1.743,5.428v1.613H120.8a3.67,3.67,0,0,0,1.155,2.324,3.492,3.492,0,0,0,2.44.875,4.265,4.265,0,0,0,3.568-1.654l1.941,2.174a5.931,5.931,0,0,1-2.406,1.962A7.9,7.9,0,0,1,124.141,30.273Zm-.451-12.154a2.469,2.469,0,0,0-1.907.8,4.124,4.124,0,0,0-.937,2.28h5.5v-.316a2.942,2.942,0,0,0-.711-2.039A2.547,2.547,0,0,0,123.689,18.119ZM136.637,30h-3.965V9h3.965Zm7.424,0H140.1V15.207h3.965Zm-4.2-18.621a1.946,1.946,0,0,1,.595-1.463,2.563,2.563,0,0,1,3.233,0,1.934,1.934,0,0,1,.6,1.463,1.94,1.94,0,0,1-.608,1.477,2.534,2.534,0,0,1-3.213,0A1.94,1.94,0,0,1,139.863,11.379Zm11.99,15.436h7.232V30H146.809V27.594l6.959-9.2h-6.754V15.207h11.854v2.328ZM170.133,30a4.388,4.388,0,0,1-.4-1.326,4.781,4.781,0,0,1-3.732,1.6,5.252,5.252,0,0,1-3.6-1.258,4.045,4.045,0,0,1-1.429-3.172,4.18,4.18,0,0,1,1.743-3.609,8.6,8.6,0,0,1,5.038-1.271h1.818v-.848a2.438,2.438,0,0,0-.526-1.641,2.071,2.071,0,0,0-1.661-.615,2.354,2.354,0,0,0-1.565.479,1.626,1.626,0,0,0-.567,1.313H161.3a3.969,3.969,0,0,1,.793-2.379,5.242,5.242,0,0,1,2.242-1.716,8.172,8.172,0,0,1,3.254-.622,6.456,6.456,0,0,1,4.341,1.374,4.807,4.807,0,0,1,1.606,3.862v6.412a7.072,7.072,0,0,0,.588,3.186V30Zm-3.268-2.748a3.4,3.4,0,0,0,1.613-.39,2.559,2.559,0,0,0,1.094-1.046V23.273H168.1q-2.967,0-3.158,2.051l-.014.232a1.582,1.582,0,0,0,.52,1.217A2.018,2.018,0,0,0,166.865,27.252Zm15.859-.164a2.592,2.592,0,0,0,1.777-.6,2.108,2.108,0,0,0,.711-1.6h3.705a5.068,5.068,0,0,1-.82,2.755,5.413,5.413,0,0,1-2.208,1.941,6.91,6.91,0,0,1-3.1.69,6.422,6.422,0,0,1-5-2.017,7.98,7.98,0,0,1-1.832-5.571v-.26a7.889,7.889,0,0,1,1.818-5.455,6.347,6.347,0,0,1,4.99-2.037,6.222,6.222,0,0,1,4.45,1.579,5.591,5.591,0,0,1,1.7,4.2h-3.705a2.715,2.715,0,0,0-.711-1.876,2.642,2.642,0,0,0-3.89.285,5.832,5.832,0,0,0-.7,3.266V22.8a5.907,5.907,0,0,0,.7,3.286A2.41,2.41,0,0,0,182.725,27.088ZM195.344,30h-3.965V15.207h3.965Zm-4.2-18.621a1.946,1.946,0,0,1,.595-1.463,2.563,2.563,0,0,1,3.233,0,1.934,1.934,0,0,1,.6,1.463,1.94,1.94,0,0,1-.608,1.477,2.534,2.534,0,0,1-3.213,0A1.94,1.94,0,0,1,191.146,11.379Zm6.836,11.088a8.773,8.773,0,0,1,.848-3.924,6.205,6.205,0,0,1,2.44-2.666,7.12,7.12,0,0,1,3.7-.943,6.736,6.736,0,0,1,4.888,1.832,7.353,7.353,0,0,1,2.112,4.977L212,22.754a7.732,7.732,0,0,1-1.9,5.462,7.366,7.366,0,0,1-10.206.007,7.868,7.868,0,0,1-1.907-5.578Zm3.951.28a5.53,5.53,0,0,0,.793,3.225,2.849,2.849,0,0,0,4.512.014,6.051,6.051,0,0,0,.807-3.526,5.474,5.474,0,0,0-.807-3.2,2.622,2.622,0,0,0-2.27-1.136,2.579,2.579,0,0,0-2.242,1.13A6.153,6.153,0,0,0,201.934,22.747ZM205.748,9h4.307l-3.787,4.238h-3.213Zm12.318,6.207.123,1.709a5.165,5.165,0,0,1,4.252-1.982,4.292,4.292,0,0,1,3.5,1.381,6.443,6.443,0,0,1,1.176,4.129V30h-3.951V20.517a2.573,2.573,0,0,0-.547-1.829,2.445,2.445,0,0,0-1.818-.569,2.717,2.717,0,0,0-2.5,1.425V30h-3.951V15.207Z" transform="translate(209 639)" fill="#093e74"/>
  </g>
</svg>
