<svg id="habla" xmlns="http://www.w3.org/2000/svg" width="64.949" height="64.949" viewBox="0 0 64.949 64.949">
  <path id="Trazado_128606" data-name="Trazado 128606" d="M173.167,7.5V49.531a21.015,21.015,0,1,0,0-42.031Z" transform="translate(-151.2 -6.549)" fill="#fff8d8"/>
  <path id="Trazado_128607" data-name="Trazado 128607" d="M45.725,28.516C45.725,16.909,38.02,7.5,28.516,7.5A21.014,21.014,0,0,0,13.209,42.914,10.18,10.18,0,0,1,7.5,48.793a10.156,10.156,0,0,0,10.7-1.964,20.918,20.918,0,0,0,10.315,2.7c9.5,0,17.21-9.409,17.21-21.016Z" transform="translate(-6.549 -6.549)" fill="#dbbe36"/>
  <path id="Trazado_128608" data-name="Trazado 128608" d="M354.139,208.58a21.014,21.014,0,0,0-15.306-35.414l.457,42.023a20.909,20.909,0,0,0,9.858-2.7,10.156,10.156,0,0,0,10.7,1.964A10.179,10.179,0,0,1,354.139,208.58Z" transform="translate(-295.851 -151.199)" fill="#cbeeff"/>
  <path id="Trazado_128609" data-name="Trazado 128609" d="M211.392,194.182c0-11.607-7.705-21.016-17.21-21.016a21.016,21.016,0,0,0,0,42.031c.153,0,.3,0,.457-.007C203.933,214.894,211.392,205.6,211.392,194.182Z" transform="translate(-151.2 -151.199)" fill="#fff"/>
  <path id="Trazado_128610" data-name="Trazado 128610" d="M121.84,135.667H106.617a.951.951,0,1,0,0,1.9H121.84a.951.951,0,0,0,0-1.9Z" transform="translate(-92.262 -118.457)"/>
  <path id="Trazado_128611" data-name="Trazado 128611" d="M18.337,41.7a19.881,19.881,0,0,1-6.217-2.249.952.952,0,0,0-1.114.131,9.167,9.167,0,0,1-6.248,2.449,9.29,9.29,0,0,1-1.27-.087A11.134,11.134,0,0,0,7.553,36.7a.951.951,0,0,0-.2-.983A20.065,20.065,0,1,1,41.7,18.337a.951.951,0,0,0,1.872-.342A21.968,21.968,0,1,0,5.553,36.564a9.227,9.227,0,0,1-4.959,4.8.952.952,0,0,0,0,1.764,11.109,11.109,0,0,0,11.183-1.695,21.774,21.774,0,0,0,6.217,2.141.951.951,0,1,0,.342-1.872Z"/>
  <path id="Trazado_128612" data-name="Trazado 128612" d="M106.617,195.667a.951.951,0,1,0,0,1.9h10.759a.951.951,0,0,0,0-1.9Z" transform="translate(-92.262 -170.846)"/>
  <path id="Trazado_128613" data-name="Trazado 128613" d="M122.791,166.618a.951.951,0,0,0-.951-.951H106.617a.951.951,0,1,0,0,1.9H121.84A.951.951,0,0,0,122.791,166.618Z" transform="translate(-92.262 -144.652)"/>
  <path id="Trazado_128614" data-name="Trazado 128614" d="M287.507,331.333H272.284a.951.951,0,1,0,0,1.9h15.222a.951.951,0,1,0,0-1.9Z" transform="translate(-236.913 -289.302)"/>
  <path id="Trazado_128615" data-name="Trazado 128615" d="M287.507,361.333H272.284a.951.951,0,1,0,0,1.9h15.222a.951.951,0,1,0,0-1.9Z" transform="translate(-236.913 -315.496)"/>
  <path id="Trazado_128616" data-name="Trazado 128616" d="M287.507,301.333H272.284a.951.951,0,1,0,0,1.9h15.222a.951.951,0,1,0,0-1.9Z" transform="translate(-236.913 -263.108)"/>
  <path id="Trazado_128617" data-name="Trazado 128617" d="M209.006,207.029a9.228,9.228,0,0,1-4.959-4.8,21.932,21.932,0,1,0-6.225,4.866,11.109,11.109,0,0,0,11.183,1.695.951.951,0,0,0,0-1.764Zm-4.163.669a9.167,9.167,0,0,1-6.248-2.449.951.951,0,0,0-1.114-.131,20.087,20.087,0,1,1,4.766-3.737.951.951,0,0,0-.2.983,11.134,11.134,0,0,0,4.066,5.247A9.289,9.289,0,0,1,204.844,207.7Z" transform="translate(-144.651 -144.652)"/>
</svg>
