<svg xmlns="http://www.w3.org/2000/svg" width="66.77" height="66.771" viewBox="0 0 66.77 66.771">
  <g id="Layer_1" transform="translate(-5.5 -5.586)">
    <g id="Grupo_88764" data-name="Grupo 88764" transform="translate(5.5 5.586)">
      <path id="Trazado_128595" data-name="Trazado 128595" d="M106.86,99.965a2.18,2.18,0,0,1-2.18-2.18,7.686,7.686,0,0,1,4.061-6.879,3.928,3.928,0,0,0,2.063-3.733,4.006,4.006,0,0,0-3.57-3.679,3.957,3.957,0,0,0-4.079,2.552,2.177,2.177,0,0,1-4.079-1.524,8.331,8.331,0,0,1,2.092-3.151c5.289-4.969,13.575-1.108,13.988,5.531a8.355,8.355,0,0,1-4.336,7.836,3.336,3.336,0,0,0-1.779,3.046A2.18,2.18,0,0,1,106.86,99.965Z" transform="translate(-73.475 -59.076)" fill="#db6e5f"/>
      <circle id="Elipse_4390" data-name="Elipse 4390" cx="1.908" cy="1.908" r="1.908" transform="translate(31.477 43.787)" fill="#fc5d3d"/>
      <path id="Trazado_128596" data-name="Trazado 128596" d="M73.407,43.787v-6a1.363,1.363,0,0,0-1.363-1.363H66.5a25.926,25.926,0,0,0-4.472-10.8l3.92-3.92a1.362,1.362,0,0,0,0-1.927l-4.24-4.24a1.362,1.362,0,0,0-1.927,0l-3.92,3.92a25.926,25.926,0,0,0-10.8-4.472V9.449A1.363,1.363,0,0,0,43.7,8.086h-6a1.363,1.363,0,0,0-1.363,1.363v5.543a25.926,25.926,0,0,0-10.8,4.472l-3.92-3.92a1.362,1.362,0,0,0-1.927,0l-4.24,4.24a1.362,1.362,0,0,0,0,1.927l3.92,3.92a25.926,25.926,0,0,0-4.472,10.8H9.363A1.363,1.363,0,0,0,8,37.792v6A1.363,1.363,0,0,0,9.363,45.15h5.543a25.926,25.926,0,0,0,4.472,10.8l-3.92,3.92a1.362,1.362,0,0,0,0,1.927l4.24,4.24a1.362,1.362,0,0,0,1.927,0l3.92-3.92a25.926,25.926,0,0,0,10.8,4.472v5.543a1.363,1.363,0,0,0,1.363,1.363h6a1.363,1.363,0,0,0,1.363-1.363V66.587a25.926,25.926,0,0,0,10.8-4.472l3.92,3.92a1.362,1.362,0,0,0,1.927,0l4.24-4.24a1.362,1.362,0,0,0,0-1.927l-3.92-3.92A25.926,25.926,0,0,0,66.5,45.15h5.543a1.363,1.363,0,0,0,1.363-1.363ZM40.7,60.412A19.622,19.622,0,1,1,60.326,40.789,19.622,19.622,0,0,1,40.7,60.412Z" transform="translate(-7.319 -7.405)" fill="#dbbe36"/>
      <path id="Trazado_128597" data-name="Trazado 128597" d="M82.972,106.632a23.465,23.465,0,0,1-12.994-3.9.681.681,0,0,1,.752-1.136,22.109,22.109,0,0,0,12.242,3.673c19.591,0,29.759-23.863,15.706-37.917a.681.681,0,0,1,.963-.963C114.542,81.29,103.785,106.632,82.972,106.632Zm-15.237-5.584c-.491-.417-.973-.861-1.432-1.32a.681.681,0,0,1,.963-.964c.433.433.888.852,1.351,1.245a.681.681,0,1,1-.882,1.039Z" transform="translate(-49.587 -49.673)" fill="#12263f"/>
      <g id="Grupo_88763" data-name="Grupo 88763">
        <path id="Trazado_128598" data-name="Trazado 128598" d="M37.553,163.239a.682.682,0,0,0,.373-.888,0,0,0,0,0,0,0,.691.691,0,0,0-.886-.371.68.68,0,0,0-.373.886v0a.677.677,0,0,0,.888.373Z" transform="translate(-28.134 -119.321)"/>
        <path id="Trazado_128599" data-name="Trazado 128599" d="M70.226,33.929H65.252A26.437,26.437,0,0,0,61.1,23.892l3.516-3.518a2.045,2.045,0,0,0,0-2.892l-4.241-4.238a2.04,2.04,0,0,0-2.889,0L53.964,16.76A26.457,26.457,0,0,0,43.927,12.6V7.63a2.046,2.046,0,0,0-2.044-2.044h-6A2.046,2.046,0,0,0,33.843,7.63V12.6A26.457,26.457,0,0,0,23.806,16.76l-3.518-3.516a2.04,2.04,0,0,0-2.889,0l-4.241,4.241a2.043,2.043,0,0,0,0,2.889l3.516,3.518a26.437,26.437,0,0,0-4.156,10.037H7.544A2.046,2.046,0,0,0,5.5,35.973v6a2.045,2.045,0,0,0,2.044,2.044h4.974c.155.831.354,1.665.591,2.48a.7.7,0,0,0,.845.463.683.683,0,0,0,.463-.845,25.521,25.521,0,0,1-.657-2.892.682.682,0,0,0-.673-.57H7.544a.682.682,0,0,1-.681-.681v-6a.682.682,0,0,1,.681-.681h5.543a.682.682,0,0,0,.673-.57,25.36,25.36,0,0,1,4.355-10.514.683.683,0,0,0-.074-.878L14.12,19.411a.683.683,0,0,1,0-.965l4.241-4.241a.683.683,0,0,1,.965,0l3.919,3.922a.693.693,0,0,0,.878.071,25.4,25.4,0,0,1,10.514-4.353.682.682,0,0,0,.57-.673V7.63a.682.682,0,0,1,.681-.681h6a.682.682,0,0,1,.681.681v5.543a.682.682,0,0,0,.57.673A25.391,25.391,0,0,1,53.648,18.2a.693.693,0,0,0,.878-.071l3.919-3.922a.683.683,0,0,1,.965,0l4.241,4.241a.683.683,0,0,1,0,.965L59.728,23.33a.683.683,0,0,0-.074.878,25.36,25.36,0,0,1,4.355,10.514.682.682,0,0,0,.673.57h5.543a.682.682,0,0,1,.681.681v6a.682.682,0,0,1-.681.681H64.682a.682.682,0,0,0-.673.57,25.363,25.363,0,0,1-4.355,10.514.683.683,0,0,0,.074.878l3.922,3.919a.683.683,0,0,1,0,.965l-4.241,4.241a.683.683,0,0,1-.965,0l-3.919-3.922a.7.7,0,0,0-.878-.074,25.393,25.393,0,0,1-10.514,4.355.68.68,0,0,0-.57.673v5.543a.682.682,0,0,1-.681.681h-6a.682.682,0,0,1-.681-.681V64.768a.68.68,0,0,0-.57-.673A25.393,25.393,0,0,1,24.122,59.74a.7.7,0,0,0-.878.074l-3.919,3.922a.683.683,0,0,1-.965,0L14.12,59.495a.683.683,0,0,1,0-.965l3.922-3.919a.683.683,0,0,0,.074-.878,25.109,25.109,0,0,1-1.692-2.72.681.681,0,1,0-1.2.646,26.349,26.349,0,0,0,1.45,2.39l-3.516,3.518a2.043,2.043,0,0,0,0,2.889L17.4,64.7a2.043,2.043,0,0,0,2.889,0l3.518-3.518a26.439,26.439,0,0,0,10.037,4.156v4.974a2.048,2.048,0,0,0,2.044,2.044h6a2.048,2.048,0,0,0,2.044-2.044V65.338a26.439,26.439,0,0,0,10.037-4.156L57.482,64.7a2.043,2.043,0,0,0,2.889,0l4.241-4.243a2.045,2.045,0,0,0,0-2.892L61.1,54.051a26.439,26.439,0,0,0,4.156-10.037h4.974a2.045,2.045,0,0,0,2.044-2.044v-6a2.047,2.047,0,0,0-2.044-2.045Z" transform="translate(-5.5 -5.586)"/>
        <path id="Trazado_128600" data-name="Trazado 128600" d="M194.483,103.42a.68.68,0,1,0,.858.436v0A.692.692,0,0,0,194.483,103.42Z" transform="translate(-142.637 -76.734)"/>
        <path id="Trazado_128601" data-name="Trazado 128601" d="M73.8,53.586a20.3,20.3,0,1,0,20.3,20.3,20.632,20.632,0,0,0-.305-3.527.682.682,0,0,0-1.344.235,18.923,18.923,0,1,1-1.613-4.987.7.7,0,0,0,.91.316.684.684,0,0,0,.316-.911A20.308,20.308,0,0,0,73.8,53.586Z" transform="translate(-40.419 -40.505)"/>
        <path id="Trazado_128602" data-name="Trazado 128602" d="M135.426,78.8a.681.681,0,0,0-.447-.853.692.692,0,0,0-.853.45.681.681,0,1,0,1.3.4Z" transform="translate(-99.049 -58.206)"/>
        <path id="Trazado_128603" data-name="Trazado 128603" d="M109.322,93.54a8.924,8.924,0,0,0,.88-15.2.7.7,0,0,0-.951.153.681.681,0,0,0,.153.951,7.757,7.757,0,0,1,3.251,5.7,7.645,7.645,0,0,1-3.982,7.195,4.008,4.008,0,0,0-2.137,3.646,1.5,1.5,0,1,1-3,0,7.01,7.01,0,0,1,3.7-6.282,4.623,4.623,0,0,0,2.42-4.371,4.683,4.683,0,0,0-4.189-4.317,4.634,4.634,0,0,0-4.78,2.992,1.471,1.471,0,0,1-1.387.94,1.5,1.5,0,0,1-1.414-1.987,7.6,7.6,0,0,1,6.827-4.957.684.684,0,0,0,.654-.709.677.677,0,0,0-.709-.654,8.963,8.963,0,0,0-8.05,5.841,2.86,2.86,0,0,0,5.358,2,3.275,3.275,0,0,1,3.379-2.112,3.328,3.328,0,0,1,2.951,3.041,3.258,3.258,0,0,1-1.709,3.093,8.363,8.363,0,0,0-4.418,7.478,2.862,2.862,0,1,0,5.723,0,2.654,2.654,0,0,1,1.423-2.448Z" transform="translate(-71.653 -57.277)"/>
        <path id="Trazado_128604" data-name="Trazado 128604" d="M121.089,163.756a2.589,2.589,0,1,0,2.589,2.589A2.591,2.591,0,0,0,121.089,163.756Zm0,3.815a1.226,1.226,0,1,1,1.226-1.226A1.234,1.234,0,0,1,121.089,167.571Z" transform="translate(-87.704 -120.65)"/>
      </g>
    </g>
  </g>
</svg>
