<svg xmlns="http://www.w3.org/2000/svg" width="150" height="150" viewBox="0 0 150 150">
  <g id="Grupo_89021" data-name="Grupo 89021" transform="translate(-371 -918)">
    <circle id="Elipse_4462" data-name="Elipse 4462" cx="75" cy="75" r="75" transform="translate(371 918)" fill="#cbeeff"/>
    <g id="Layer_76" transform="translate(381.158 943.69)">
      <g id="Grupo_89011" data-name="Grupo 89011" transform="translate(22 0)">
        <g id="Grupo_88958" data-name="Grupo 88958" transform="translate(24.16 6.13)">
          <g id="Grupo_88957" data-name="Grupo 88957">
            <path id="Trazado_132841" data-name="Trazado 132841" d="M115.029,15.867h-27.4a3.09,3.09,0,0,0-3.09,3.09v8.216a3.091,3.091,0,0,0,3.09,3.091h27.4a3.09,3.09,0,0,0,3.09-3.09V18.957A3.09,3.09,0,0,0,115.029,15.867Z" transform="translate(-84.535 -15.867)" fill="#fc657e"/>
          </g>
        </g>
        <g id="Grupo_88960" data-name="Grupo 88960" transform="translate(23.194 5.164)">
          <g id="Grupo_88959" data-name="Grupo 88959">
            <path id="Trazado_132842" data-name="Trazado 132842" d="M113.5,29.7h-27.4a4.061,4.061,0,0,1-4.057-4.057V17.423a4.061,4.061,0,0,1,4.056-4.056h27.4a4.061,4.061,0,0,1,4.057,4.056V25.64A4.061,4.061,0,0,1,113.5,29.7Zm-27.4-14.4a2.127,2.127,0,0,0-2.125,2.125V25.64a2.127,2.127,0,0,0,2.125,2.125h27.4a2.127,2.127,0,0,0,2.124-2.125V17.423a2.127,2.127,0,0,0-2.125-2.125Z" transform="translate(-82.035 -13.367)"/>
          </g>
        </g>
        <g id="Grupo_88962" data-name="Grupo 88962" transform="translate(30.822 10.438)">
          <g id="Grupo_88961" data-name="Grupo 88961">
            <path id="Trazado_132843" data-name="Trazado 132843" d="M113.488,28.95H102.745a.966.966,0,0,1,0-1.932h10.743a.966.966,0,0,1,0,1.932Z" transform="translate(-101.779 -27.018)"/>
          </g>
        </g>
        <g id="Grupo_88964" data-name="Grupo 88964" transform="translate(30.822 14.302)">
          <g id="Grupo_88963" data-name="Grupo 88963">
            <path id="Trazado_132844" data-name="Trazado 132844" d="M121.215,38.95h-18.47a.966.966,0,0,1,0-1.932h18.47a.966.966,0,0,1,0,1.932Z" transform="translate(-101.779 -37.018)"/>
          </g>
        </g>
        <g id="Grupo_88966" data-name="Grupo 88966" transform="translate(24.16 30.212)">
          <g id="Grupo_88965" data-name="Grupo 88965">
            <path id="Trazado_132845" data-name="Trazado 132845" d="M115.029,78.2h-27.4a3.09,3.09,0,0,0-3.09,3.09v8.216a3.091,3.091,0,0,0,3.09,3.091h27.4a3.09,3.09,0,0,0,3.09-3.09V81.291A3.09,3.09,0,0,0,115.029,78.2Z" transform="translate(-84.535 -78.201)" fill="#fcdd86"/>
          </g>
        </g>
        <g id="Grupo_88968" data-name="Grupo 88968" transform="translate(23.194 29.246)">
          <g id="Grupo_88967" data-name="Grupo 88967">
            <path id="Trazado_132846" data-name="Trazado 132846" d="M113.5,92.029h-27.4a4.061,4.061,0,0,1-4.057-4.056V79.756A4.061,4.061,0,0,1,86.091,75.7h27.4a4.061,4.061,0,0,1,4.057,4.056v8.217A4.061,4.061,0,0,1,113.5,92.029Zm-27.4-14.4a2.127,2.127,0,0,0-2.125,2.125v8.217A2.127,2.127,0,0,0,86.092,90.1h27.4a2.127,2.127,0,0,0,2.124-2.125V79.756a2.127,2.127,0,0,0-2.125-2.125Z" transform="translate(-82.035 -75.7)"/>
          </g>
        </g>
        <g id="Grupo_88970" data-name="Grupo 88970" transform="translate(30.822 34.52)">
          <g id="Grupo_88969" data-name="Grupo 88969">
            <path id="Trazado_132847" data-name="Trazado 132847" d="M113.488,91.283H102.745a.966.966,0,0,1,0-1.932h10.743a.966.966,0,0,1,0,1.932Z" transform="translate(-101.779 -89.351)"/>
          </g>
        </g>
        <g id="Grupo_88972" data-name="Grupo 88972" transform="translate(30.822 38.384)">
          <g id="Grupo_88971" data-name="Grupo 88971">
            <path id="Trazado_132848" data-name="Trazado 132848" d="M121.215,101.283h-18.47a.966.966,0,0,1,0-1.932h18.47a.966.966,0,1,1,0,1.932Z" transform="translate(-101.779 -99.351)"/>
          </g>
        </g>
        <g id="Grupo_88974" data-name="Grupo 88974" transform="translate(24.16 54.294)">
          <g id="Grupo_88973" data-name="Grupo 88973">
            <path id="Trazado_132849" data-name="Trazado 132849" d="M115.029,140.534h-27.4a3.09,3.09,0,0,0-3.09,3.09v8.216a3.091,3.091,0,0,0,3.09,3.091h27.4a3.09,3.09,0,0,0,3.09-3.09v-8.217A3.09,3.09,0,0,0,115.029,140.534Z" transform="translate(-84.535 -140.534)" fill="#70d6f9"/>
          </g>
        </g>
        <g id="Grupo_88976" data-name="Grupo 88976" transform="translate(23.194 53.329)">
          <g id="Grupo_88975" data-name="Grupo 88975">
            <path id="Trazado_132850" data-name="Trazado 132850" d="M113.5,154.363h-27.4a4.061,4.061,0,0,1-4.057-4.057V142.09a4.061,4.061,0,0,1,4.056-4.056h27.4a4.061,4.061,0,0,1,4.057,4.056v8.217A4.061,4.061,0,0,1,113.5,154.363Zm-27.4-14.4a2.127,2.127,0,0,0-2.125,2.125v8.216a2.127,2.127,0,0,0,2.125,2.125h27.4a2.127,2.127,0,0,0,2.124-2.124V142.09a2.127,2.127,0,0,0-2.125-2.125Z" transform="translate(-82.035 -138.034)"/>
          </g>
        </g>
        <g id="Grupo_88978" data-name="Grupo 88978" transform="translate(30.822 58.602)">
          <g id="Grupo_88977" data-name="Grupo 88977">
            <path id="Trazado_132851" data-name="Trazado 132851" d="M113.488,153.616H102.745a.966.966,0,0,1,0-1.932h10.743a.966.966,0,0,1,0,1.932Z" transform="translate(-101.779 -151.684)"/>
          </g>
        </g>
        <g id="Grupo_88980" data-name="Grupo 88980" transform="translate(30.822 62.466)">
          <g id="Grupo_88979" data-name="Grupo 88979">
            <path id="Trazado_132852" data-name="Trazado 132852" d="M121.215,163.616h-18.47a.966.966,0,0,1,0-1.932h18.47a.966.966,0,1,1,0,1.932Z" transform="translate(-101.779 -161.684)"/>
          </g>
        </g>
        <g id="Grupo_88982" data-name="Grupo 88982" transform="translate(24.16 78.376)">
          <g id="Grupo_88981" data-name="Grupo 88981">
            <path id="Trazado_132853" data-name="Trazado 132853" d="M115.029,202.867h-27.4a3.09,3.09,0,0,0-3.09,3.09v8.216a3.091,3.091,0,0,0,3.09,3.091h27.4a3.09,3.09,0,0,0,3.09-3.09v-8.217A3.09,3.09,0,0,0,115.029,202.867Z" transform="translate(-84.535 -202.867)" fill="#87d147"/>
          </g>
        </g>
        <g id="Grupo_88984" data-name="Grupo 88984" transform="translate(23.194 77.411)">
          <g id="Grupo_88983" data-name="Grupo 88983">
            <path id="Trazado_132854" data-name="Trazado 132854" d="M113.5,216.7h-27.4a4.061,4.061,0,0,1-4.057-4.057v-8.216a4.061,4.061,0,0,1,4.056-4.056h27.4a4.061,4.061,0,0,1,4.057,4.056v8.217A4.061,4.061,0,0,1,113.5,216.7Zm-27.4-14.4a2.127,2.127,0,0,0-2.125,2.125v8.216a2.127,2.127,0,0,0,2.125,2.125h27.4a2.127,2.127,0,0,0,2.124-2.124v-8.217a2.127,2.127,0,0,0-2.125-2.125Z" transform="translate(-82.035 -200.367)"/>
          </g>
        </g>
        <g id="Grupo_88986" data-name="Grupo 88986" transform="translate(30.822 82.684)">
          <g id="Grupo_88985" data-name="Grupo 88985">
            <path id="Trazado_132855" data-name="Trazado 132855" d="M113.488,215.95H102.745a.966.966,0,0,1,0-1.932h10.743a.966.966,0,0,1,0,1.932Z" transform="translate(-101.779 -214.018)"/>
          </g>
        </g>
        <g id="Grupo_88988" data-name="Grupo 88988" transform="translate(30.822 86.548)">
          <g id="Grupo_88987" data-name="Grupo 88987">
            <path id="Trazado_132856" data-name="Trazado 132856" d="M121.215,225.95h-18.47a.966.966,0,0,1,0-1.932h18.47a.966.966,0,1,1,0,1.932Z" transform="translate(-101.779 -224.018)"/>
          </g>
        </g>
        <g id="Grupo_88990" data-name="Grupo 88990" transform="translate(11.723 5.795)">
          <g id="Grupo_88989" data-name="Grupo 88989">
            <path id="Trazado_132857" data-name="Trazado 132857" d="M59.438,18.432A4.288,4.288,0,0,1,56,15.064a.077.077,0,0,0-.153,0,4.288,4.288,0,0,1-3.438,3.367.075.075,0,0,0,0,.15,4.288,4.288,0,0,1,3.438,3.368.077.077,0,0,0,.153,0,4.289,4.289,0,0,1,3.438-3.368A.075.075,0,0,0,59.438,18.432Z" transform="translate(-52.345 -15)" fill="#f5c84c"/>
          </g>
        </g>
        <g id="Grupo_88992" data-name="Grupo 88992" transform="translate(60.789 47.433)">
          <g id="Grupo_88991" data-name="Grupo 88991">
            <path id="Trazado_132858" data-name="Trazado 132858" d="M184.189,125.118a2.929,2.929,0,0,1-2.348-2.3.053.053,0,0,0-.1,0,2.929,2.929,0,0,1-2.348,2.3.051.051,0,0,0,0,.1,2.929,2.929,0,0,1,2.348,2.3.053.053,0,0,0,.1,0,2.929,2.929,0,0,1,2.348-2.3A.051.051,0,0,0,184.189,125.118Z" transform="translate(-179.344 -122.775)" fill="#87d147"/>
          </g>
        </g>
        <g id="Grupo_88994" data-name="Grupo 88994" transform="translate(15.564 92.224)">
          <g id="Grupo_88993" data-name="Grupo 88993">
            <path id="Trazado_132859" data-name="Trazado 132859" d="M63.5,240.831h.9v-.9a1.22,1.22,0,0,1,2.439,0v.9h.9a1.22,1.22,0,0,1,0,2.439h-.9v.9a1.22,1.22,0,1,1-2.439,0v-.9h-.9a1.22,1.22,0,0,1,0-2.439Z" transform="translate(-62.285 -238.711)" fill="#70d6f9"/>
          </g>
        </g>
        <g id="Grupo_88996" data-name="Grupo 88996" transform="translate(21.382)">
          <g id="Grupo_88995" data-name="Grupo 88995">
            <circle id="Elipse_4463" data-name="Elipse 4463" cx="1.305" cy="1.305" r="1.305" fill="#fc657e"/>
          </g>
        </g>
        <g id="Grupo_88998" data-name="Grupo 88998" transform="translate(29.495 96.295)">
          <g id="Grupo_88997" data-name="Grupo 88997">
            <circle id="Elipse_4464" data-name="Elipse 4464" cx="1.305" cy="1.305" r="1.305" fill="#f5c84c"/>
          </g>
        </g>
        <g id="Grupo_89000" data-name="Grupo 89000" transform="translate(61.622 12.17)">
          <g id="Grupo_88999" data-name="Grupo 88999">
            <path id="Trazado_132860" data-name="Trazado 132860" d="M188.454,57.771h-5.988a.966.966,0,0,1,0-1.932h5.988a11.2,11.2,0,1,0,0-22.408h-5.988a.966.966,0,0,1,0-1.932h5.988a13.136,13.136,0,1,1,0,26.271Z" transform="translate(-181.5 -31.5)"/>
          </g>
        </g>
        <g id="Grupo_89002" data-name="Grupo 89002" transform="translate(60.397 34.072)">
          <g id="Grupo_89001" data-name="Grupo 89001">
            <path id="Trazado_132861" data-name="Trazado 132861" d="M181.792,95.116a.963.963,0,0,1-.683-.283l-2.5-2.5a.966.966,0,0,1,0-1.366l2.5-2.5a.966.966,0,1,1,1.366,1.366l-1.814,1.813,1.814,1.814a.966.966,0,0,1-.683,1.649Z" transform="translate(-178.329 -88.19)"/>
          </g>
        </g>
        <g id="Grupo_89004" data-name="Grupo 89004" transform="translate(0 36.703)">
          <g id="Grupo_89003" data-name="Grupo 89003">
            <path id="Trazado_132862" data-name="Trazado 132862" d="M41.124,121.271H35.136a13.136,13.136,0,0,1,0-26.271h5.988a.966.966,0,0,1,0,1.932H35.136a11.2,11.2,0,1,0,0,22.408h5.988a.966.966,0,0,1,0,1.932Z" transform="translate(-22 -95)"/>
          </g>
        </g>
        <g id="Grupo_89006" data-name="Grupo 89006" transform="translate(16.886 58.605)">
          <g id="Grupo_89005" data-name="Grupo 89005" transform="translate(0)">
            <path id="Trazado_132863" data-name="Trazado 132863" d="M66.673,158.617a.966.966,0,0,1-.683-1.649l1.814-1.814-1.814-1.814a.966.966,0,0,1,1.366-1.366l2.5,2.5a.966.966,0,0,1,0,1.366l-2.5,2.5A.965.965,0,0,1,66.673,158.617Z" transform="translate(-65.707 -151.692)"/>
          </g>
        </g>
        <g id="Grupo_89008" data-name="Grupo 89008" transform="translate(61.622 60.656)">
          <g id="Grupo_89007" data-name="Grupo 89007">
            <path id="Trazado_132864" data-name="Trazado 132864" d="M188.454,183.271h-5.988a.966.966,0,0,1,0-1.932h5.988a11.2,11.2,0,1,0,0-22.408h-5.988a.966.966,0,0,1,0-1.932h5.988a13.136,13.136,0,1,1,0,26.271Z" transform="translate(-181.5 -157)"/>
          </g>
        </g>
        <g id="Grupo_89010" data-name="Grupo 89010" transform="translate(60.397 82.558)">
          <g id="Grupo_89009" data-name="Grupo 89009">
            <path id="Trazado_132865" data-name="Trazado 132865" d="M181.792,220.616a.963.963,0,0,1-.683-.283l-2.5-2.5a.966.966,0,0,1,0-1.366l2.5-2.5a.966.966,0,1,1,1.366,1.366l-1.814,1.813,1.814,1.814a.966.966,0,0,1-.683,1.649Z" transform="translate(-178.329 -213.69)"/>
          </g>
        </g>
      </g>
    </g>
  </g>
</svg>
