<svg xmlns="http://www.w3.org/2000/svg" width="112" height="112" viewBox="0 0 112 112">
  <g id="Grupo_88919" data-name="Grupo 88919" transform="translate(-1176 -1304)">
    <rect id="Rectángulo_26216" data-name="Rectángulo 26216" width="112" height="112" rx="17" transform="translate(1176 1304)" fill="#dbbe36"/>
    <g id="manual" transform="translate(1200.5 1319.839)">
      <path id="Trazado_132723" data-name="Trazado 132723" d="M68.225,374.258v14.3a6.117,6.117,0,0,1-6.117,6.117H15.255a7.142,7.142,0,0,1-7.15-7.149c0-1.974.8-9.062,2.093-10.356a7.133,7.133,0,0,1,5.056-2.093H62.108a6.094,6.094,0,0,0,2.252-.428C66.623,373.75,68.225,376.842,68.225,374.258Zm0,0" transform="translate(-6.412 -315.544)" fill="#ffea8d"/>
      <path id="Trazado_132724" data-name="Trazado 132724" d="M64.36,371.835v13.592a2.686,2.686,0,0,1-2.687,2.685H8.814A7.12,7.12,0,0,1,8.105,385V371.266Zm0,0" transform="translate(-6.412 -313.022)" fill="#e6e6e6"/>
      <path id="Trazado_132725" data-name="Trazado 132725" d="M68.225,13.723v51.4a6.113,6.113,0,0,1-6.117,6.119H15.255a7.146,7.146,0,0,0-7.15,7.148V14.755a7.148,7.148,0,0,1,7.15-7.149H62.108A6.117,6.117,0,0,1,68.225,13.723Zm0,0" transform="translate(-6.412 -6.412)" fill="#fff8d8"/>
      <path id="Trazado_132726" data-name="Trazado 132726" d="M13.306,9.332a7.149,7.149,0,0,0-5.2,6.878V79.848a7.143,7.143,0,0,1,5.2-6.877Zm0,0" transform="translate(-6.412 -7.868)" fill="#ffd422"/>
      <path id="Trazado_132727" data-name="Trazado 132727" d="M133.631,103.149A18.727,18.727,0,1,1,114.9,84.422,18.727,18.727,0,0,1,133.631,103.149Zm0,0" transform="translate(-80.666 -71.178)" fill="#ffd422"/>
      <path id="Trazado_132728" data-name="Trazado 132728" d="M61.812,145.4a1.193,1.193,0,0,0-1.193,1.193v7.02a4.919,4.919,0,0,1-4.924,4.926H8.843a8.3,8.3,0,0,0-5.9,2.443l-.056.059V113.748a1.193,1.193,0,1,0-2.386,0v53.129a8.261,8.261,0,0,0,.829,3.628,8.394,8.394,0,0,0,7.514,4.714H55.7a7.319,7.319,0,0,0,7.31-7.31v-6.034a1.193,1.193,0,1,0-2.386,0v6.034a4.93,4.93,0,0,1-4.924,4.925H8.843a6,6,0,0,1-5.366-3.367,5.956,5.956,0,0,1,5.366-8.545H55.7a7.3,7.3,0,0,0,7.31-7.312v-7.02A1.193,1.193,0,0,0,61.812,145.4Zm0,0" transform="translate(0 -94.897)"/>
      <path id="Trazado_132729" data-name="Trazado 132729" d="M55.7,0H8.843A8.352,8.352,0,0,0,.5,8.342v5.737a1.193,1.193,0,0,0,2.386,0V8.342A5.964,5.964,0,0,1,8.843,2.386H55.7A4.93,4.93,0,0,1,60.619,7.31V47.716a1.193,1.193,0,1,0,2.386,0V7.31A7.319,7.319,0,0,0,55.7,0Zm0,0" transform="translate(0)"/>
      <path id="Trazado_132730" data-name="Trazado 132730" d="M38.189,440.092H86.032a3.883,3.883,0,0,0,3.878-3.878V432.7a1.193,1.193,0,1,0-2.386,0v3.518a1.494,1.494,0,0,1-1.493,1.492H38.189a1.193,1.193,0,1,0,0,2.386Zm0,0" transform="translate(-30.771 -363.81)"/>
      <path id="Trazado_132731" data-name="Trazado 132731" d="M38.189,441.663H84.538a1.193,1.193,0,1,0,0-2.386H38.189a1.193,1.193,0,1,0,0,2.386Zm0,0" transform="translate(-30.771 -370.364)"/>
      <path id="Trazado_132732" data-name="Trazado 132732" d="M128.412,96.737a19.921,19.921,0,1,0-19.921,19.921A19.943,19.943,0,0,0,128.412,96.737Zm-37.456,0a17.535,17.535,0,1,1,17.535,17.535A17.555,17.555,0,0,1,90.956,96.737Zm0,0" transform="translate(-74.254 -64.765)"/>
      <path id="Trazado_132733" data-name="Trazado 132733" d="M197.833,258.41a2.963,2.963,0,1,0-.854,2.055A2.963,2.963,0,0,0,197.833,258.41Zm0,0" transform="translate(-161.454 -215.394)" fill="#ffd348"/>
      <path id="Trazado_132734" data-name="Trazado 132734" d="M173.284,119.031c1.639,0,3.39.672,3.39,2.557,0,1.664-1.389,2.731-2.614,3.671-.269.207-.523.4-.751.6a6.973,6.973,0,0,0-2.545,5.774c0,1.937.511,2.558,2.1,2.558,1.029,0,2.255-.273,2.255-1.573,0-1.913,0-3.068,2.114-4.72a14.4,14.4,0,0,0,2.508-2.433,7.3,7.3,0,0,0,1.743-4.516,5.638,5.638,0,0,0-2.224-4.477,9.33,9.33,0,0,0-5.866-1.794,8.623,8.623,0,0,0-5.662,1.776,4.554,4.554,0,0,0-1.821,3.321,2.037,2.037,0,0,0,.76,1.649,2.477,2.477,0,0,0,1.533.531c.872,0,1.226-.522,1.635-1.126A3.487,3.487,0,0,1,173.284,119.031Zm0,0" transform="translate(-139.464 -96.682)" fill="#ffd348"/>
      <path id="Trazado_132735" data-name="Trazado 132735" d="M188.487,256.131a4.12,4.12,0,1,1,4.13-4.13,4.164,4.164,0,0,1-1.195,2.891A4.088,4.088,0,0,1,188.487,256.131Zm0-5.874a1.744,1.744,0,1,0,1.233,2.964,1.761,1.761,0,0,0,.511-1.219,1.771,1.771,0,0,0-1.744-1.744Zm0,0" transform="translate(-155.045 -208.985)"/>
      <path id="Trazado_132736" data-name="Trazado 132736" d="M166.459,128.97c-2.922,0-3.3-2-3.3-3.752a8.174,8.174,0,0,1,2.96-6.677c.256-.217.519-.42.8-.634,1.3-1,2.152-1.727,2.152-2.729,0-1.231-1.536-1.364-2.2-1.364a2.343,2.343,0,0,0-2.454,1.269,3.022,3.022,0,0,1-2.623,1.649,3.693,3.693,0,0,1-2.281-.795,3.241,3.241,0,0,1-1.2-2.577,5.745,5.745,0,0,1,2.254-4.241,9.793,9.793,0,0,1,6.423-2.049,10.5,10.5,0,0,1,6.607,2.052,6.808,6.808,0,0,1,2.676,5.412,8.463,8.463,0,0,1-2,5.253,15.534,15.534,0,0,1-2.715,2.638c-1.653,1.292-1.653,1.97-1.653,3.779C169.907,127.541,169,128.97,166.459,128.97Zm.417-17.541c2.741,0,4.583,1.507,4.583,3.749s-1.78,3.619-3.081,4.618c-.26.2-.5.385-.705.558a5.8,5.8,0,0,0-2.124,4.864c0,.976.153,1.211.183,1.248s.21.118.728.118a2.1,2.1,0,0,0,.954-.16c.085-.045.108-.058.108-.221,0-2.039,0-3.649,2.572-5.661a13.229,13.229,0,0,0,2.305-2.229,6.152,6.152,0,0,0,1.488-3.78,4.468,4.468,0,0,0-1.772-3.542,8.166,8.166,0,0,0-5.126-1.536,7.461,7.461,0,0,0-4.9,1.5,3.425,3.425,0,0,0-1.388,2.4.854.854,0,0,0,.316.721,1.283,1.283,0,0,0,.784.266c.2,0,.24,0,.648-.6A4.637,4.637,0,0,1,166.875,111.429Zm0,0" transform="translate(-133.055 -90.273)"/>
    </g>
  </g>
</svg>
