<svg xmlns="http://www.w3.org/2000/svg" width="112" height="112" viewBox="0 0 112 112">
  <g id="Grupo_88917" data-name="Grupo 88917" transform="translate(-760 -1304)">
    <rect id="Rectángulo_26215" data-name="Rectángulo 26215" width="112" height="112" rx="17" transform="translate(760 1304)" fill="#53bced"/>
    <g id="customer_service-call_center-man-headset-headphone" data-name="customer service-call center-man-headset-headphone" transform="translate(779.822 1320.822)">
      <path id="Trazado_132700" data-name="Trazado 132700" d="M53.178,25.471V47.178A14.23,14.23,0,0,1,52.346,52a14.453,14.453,0,0,1-13.639,9.647H31.471A14.453,14.453,0,0,1,17.832,52,14.23,14.23,0,0,1,17,47.178V25.471A14.471,14.471,0,0,1,31.471,11h7.236A14.471,14.471,0,0,1,53.178,25.471Z" transform="translate(3.089 1.853)" fill="#ffc477"/>
      <path id="Trazado_132701" data-name="Trazado 132701" d="M50.295,25.471V47.178A14.23,14.23,0,0,1,49.463,52a14.453,14.453,0,0,1-13.639,9.647H31A14.453,14.453,0,0,0,44.639,52a14.23,14.23,0,0,0,.832-4.824V25.471A14.471,14.471,0,0,0,31,11h4.824A14.471,14.471,0,0,1,50.295,25.471Z" transform="translate(5.972 1.853)" fill="#ffa733"/>
      <path id="Trazado_132702" data-name="Trazado 132702" d="M62.262,34.412v7.236a2.419,2.419,0,0,1-2.412,2.412H54.87a4.41,4.41,0,0,0,.157-1.206V33.206A4.41,4.41,0,0,0,54.87,32h4.98A2.419,2.419,0,0,1,62.262,34.412Z" transform="translate(10.887 6.178)" fill="#a78966"/>
      <path id="Trazado_132703" data-name="Trazado 132703" d="M62.236,34.412v7.236a2.419,2.419,0,0,1-2.412,2.412H55a2.419,2.419,0,0,0,2.412-2.412V34.412A2.419,2.419,0,0,0,55,32h4.824A2.419,2.419,0,0,1,62.236,34.412Z" transform="translate(10.914 6.178)" fill="#806749"/>
      <path id="Trazado_132704" data-name="Trazado 132704" d="M70.12,27.118V37.972H65.3V27.118A19.3,19.3,0,0,0,46,7.824H29.118A19.3,19.3,0,0,0,9.824,27.118V37.972H5V27.118A24.111,24.111,0,0,1,29.118,3H46A24.111,24.111,0,0,1,70.12,27.118Z" transform="translate(0.618 0.206)" fill="#898890"/>
      <path id="Trazado_132705" data-name="Trazado 132705" d="M26.295,7h2.412A19.3,19.3,0,0,0,9.412,26.295V37.148H7V26.295A19.3,19.3,0,0,1,26.295,7Z" transform="translate(1.03 1.03)" fill="#787680"/>
      <path id="Trazado_132706" data-name="Trazado 132706" d="M63.53,27.118V37.972H61.118V27.118A24.111,24.111,0,0,0,37,3h2.412A24.111,24.111,0,0,1,63.53,27.118Z" transform="translate(7.207 0.206)" fill="#787680"/>
      <path id="Trazado_132707" data-name="Trazado 132707" d="M56.789,33.824v9.647a4.41,4.41,0,0,1-.157,1.206,4.814,4.814,0,0,1-4.667,3.618H46.31a14.23,14.23,0,0,0,.832-4.824V29h4.824a4.814,4.814,0,0,1,4.667,3.618,4.41,4.41,0,0,1,.157,1.206Z" transform="translate(9.125 5.56)" fill="#ff7956"/>
      <path id="Trazado_132708" data-name="Trazado 132708" d="M56.647,33.824v9.647a4.41,4.41,0,0,1-.157,1.206,4.814,4.814,0,0,1-4.667,3.618H47a4.814,4.814,0,0,0,4.667-3.618,4.41,4.41,0,0,0,.157-1.206V33.824a4.41,4.41,0,0,0-.157-1.206A4.814,4.814,0,0,0,47,29h4.824a4.814,4.814,0,0,1,4.667,3.618,4.41,4.41,0,0,1,.157,1.206Z" transform="translate(9.267 5.56)" fill="#ff5023"/>
      <path id="Trazado_132709" data-name="Trazado 132709" d="M53.178,25.471v7.236H43.53l2.412-4.824L33.883,32.707l2.412-6.03L17,32.707V25.471A14.471,14.471,0,0,1,31.471,11h7.236A14.471,14.471,0,0,1,53.178,25.471Z" transform="translate(3.089 1.853)" fill="#806749"/>
      <path id="Trazado_132710" data-name="Trazado 132710" d="M50.295,25.471v7.236H45.471V25.471A14.471,14.471,0,0,0,31,11h4.824A14.471,14.471,0,0,1,50.295,25.471Z" transform="translate(5.972 1.853)" fill="#6a563d"/>
      <circle id="Elipse_4442" data-name="Elipse 4442" cx="2.375" cy="2.375" r="2.375" transform="translate(43.965 39.517)" fill="#e0e0e2"/>
      <path id="Trazado_132711" data-name="Trazado 132711" d="M41.618,35.411A2.412,2.412,0,0,1,38,37.5a2.412,2.412,0,0,0,0-4.172,2.412,2.412,0,0,1,3.618,2.086Z" transform="translate(7.413 6.384)" fill="#c6c5ca"/>
      <path id="Trazado_132712" data-name="Trazado 132712" d="M38.059,57a2.412,2.412,0,0,1,0,4.824H28.412a2.412,2.412,0,1,1,0-4.824Z" transform="translate(4.942 11.326)" fill="#a78966"/>
      <path id="Trazado_132713" data-name="Trazado 132713" d="M39.236,59.412a2.43,2.43,0,0,1-2.412,2.412H32A2.412,2.412,0,1,0,32,57h4.824A2.419,2.419,0,0,1,39.236,59.412Z" transform="translate(6.178 11.326)" fill="#806749"/>
      <circle id="Elipse_4443" data-name="Elipse 4443" cx="2.375" cy="2.375" r="2.375" transform="translate(27.337 39.517)" fill="#e0e0e2"/>
      <path id="Trazado_132714" data-name="Trazado 132714" d="M19.48,48.295H13.824a4.814,4.814,0,0,1-4.667-3.618A4.41,4.41,0,0,1,9,43.471V33.824a4.41,4.41,0,0,1,.157-1.206A4.814,4.814,0,0,1,13.824,29h4.824V43.471A14.23,14.23,0,0,0,19.48,48.295Z" transform="translate(1.441 5.56)" fill="#ff7956"/>
      <path id="Trazado_132715" data-name="Trazado 132715" d="M18.656,48.295H13.832A14.23,14.23,0,0,1,13,43.471V29h4.824V43.471A14.23,14.23,0,0,0,18.656,48.295Z" transform="translate(2.265 5.56)" fill="#ff5023"/>
      <path id="Trazado_132716" data-name="Trazado 132716" d="M10.236,32h.157a4.41,4.41,0,0,0-.157,1.206v9.647a4.41,4.41,0,0,0,.157,1.206H5.412A2.419,2.419,0,0,1,3,41.647V34.412A2.419,2.419,0,0,1,5.412,32Z" transform="translate(0.206 6.178)" fill="#a78966"/>
      <path id="Trazado_132717" data-name="Trazado 132717" d="M9.618,42.853a4.41,4.41,0,0,0,.157,1.206H6.157A4.41,4.41,0,0,1,6,42.853V33.206A4.41,4.41,0,0,1,6.157,32H9.775a4.41,4.41,0,0,0-.157,1.206Z" transform="translate(0.824 6.178)" fill="#806749"/>
      <path id="Trazado_132718" data-name="Trazado 132718" d="M27.618,35.411A2.412,2.412,0,0,1,24,37.5a2.412,2.412,0,0,0,0-4.172,2.412,2.412,0,0,1,3.618,2.086Z" transform="translate(4.53 6.384)" fill="#c6c5ca"/>
      <path id="Trazado_132719" data-name="Trazado 132719" d="M71.944,37.189V27.324A25.352,25.352,0,0,0,46.619,2H29.736A25.352,25.352,0,0,0,4.412,27.324v9.864A3.63,3.63,0,0,0,2,40.59v7.236a3.629,3.629,0,0,0,3.618,3.618V61.09A10.87,10.87,0,0,0,16.471,71.944H29.953a3.63,3.63,0,0,0,3.4,2.412H43a3.618,3.618,0,1,0,0-7.236H33.354a3.63,3.63,0,0,0-3.4,2.412H16.471A8.451,8.451,0,0,1,8.03,61.09V51.443H9.742a6.047,6.047,0,0,0,5.523,3.618h4.824A15.714,15.714,0,0,0,34.56,64.708H41.8a15.714,15.714,0,0,0,14.471-9.647H61.09a6.047,6.047,0,0,0,5.523-3.618h4.124a3.629,3.629,0,0,0,3.618-3.618V40.59a3.63,3.63,0,0,0-2.412-3.4ZM33.354,69.532H43a1.206,1.206,0,0,1,0,2.412H33.354a1.206,1.206,0,0,1,0-2.412ZM9.236,49.031H5.618a1.206,1.206,0,0,1-1.206-1.206V40.59a1.206,1.206,0,0,1,1.206-1.206H9.236Zm6.03,3.618a3.629,3.629,0,0,1-3.618-3.618V39.384a3.629,3.629,0,0,1,3.618-3.618h3.618V49.031a15.556,15.556,0,0,0,.434,3.618Zm39.8-3.618A13.274,13.274,0,0,1,41.8,62.3H34.56A13.274,13.274,0,0,1,21.295,49.031V35.44l16.027-5L35.85,34.114a1.206,1.206,0,0,0,1.122,1.652,1.171,1.171,0,0,0,.446-.084l9.117-3.642-.989,1.978a1.206,1.206,0,0,0,1.073,1.749h8.441Zm0-15.677H48.573L50.1,30.279a1.206,1.206,0,0,0-.181-1.363,1.229,1.229,0,0,0-1.339-.3L39.13,32.4l1.375-3.425a1.206,1.206,0,0,0-1.483-1.592L21.295,32.92v-5.6A13.274,13.274,0,0,1,34.56,14.059H41.8A13.274,13.274,0,0,1,55.061,27.324Zm9.647,15.677a3.629,3.629,0,0,1-3.618,3.618H57.038a15.556,15.556,0,0,0,.434-3.618V35.766H61.09a3.629,3.629,0,0,1,3.618,3.618Zm0-14.435a5.938,5.938,0,0,0-3.618-1.242H57.473v-6.03A15.691,15.691,0,0,0,41.8,11.647H34.56A15.691,15.691,0,0,0,18.883,27.324v6.03H15.265A5.938,5.938,0,0,0,11.647,34.6V27.324A18.111,18.111,0,0,1,29.736,9.236H46.619A18.111,18.111,0,0,1,64.708,27.324ZM46.619,6.824H29.736a20.53,20.53,0,0,0-20.5,20.5v9.647H6.824V27.324A22.933,22.933,0,0,1,29.736,4.412H46.619A22.933,22.933,0,0,1,69.532,27.324v9.647H67.12V27.324A20.53,20.53,0,0,0,46.619,6.824Zm25.324,41a1.206,1.206,0,0,1-1.206,1.206H67.12V39.384h3.618a1.206,1.206,0,0,1,1.206,1.206Z"/>
      <path id="Trazado_132720" data-name="Trazado 132720" d="M33.03,46.412c-1.961,0-3.618-1.1-3.618-2.412H27c0,2.66,2.7,4.824,6.03,4.824s6.03-2.163,6.03-4.824H36.647C36.647,45.307,34.99,46.412,33.03,46.412Z" transform="translate(5.148 8.649)"/>
      <path id="Trazado_132721" data-name="Trazado 132721" d="M29.236,35.618a3.618,3.618,0,1,0-3.618,3.618A3.618,3.618,0,0,0,29.236,35.618Zm-3.618,1.206a1.206,1.206,0,1,1,1.206-1.206A1.206,1.206,0,0,1,25.618,36.824Z" transform="translate(4.118 6.178)"/>
      <path id="Trazado_132722" data-name="Trazado 132722" d="M39.618,32a3.618,3.618,0,1,0,3.618,3.618A3.618,3.618,0,0,0,39.618,32Zm0,4.824a1.206,1.206,0,1,1,1.206-1.206A1.206,1.206,0,0,1,39.618,36.824Z" transform="translate(7.001 6.178)"/>
    </g>
  </g>
</svg>
