<svg xmlns="http://www.w3.org/2000/svg" width="202" height="202" viewBox="0 0 202 202">
  <g id="Grupo_89367" data-name="Grupo 89367" transform="translate(-4388 9499)">
    <path id="Rectángulo_26299" data-name="Rectángulo 26299" d="M45,0H202a0,0,0,0,1,0,0V157a45,45,0,0,1-45,45H0a0,0,0,0,1,0,0V45A45,45,0,0,1,45,0Z" transform="translate(4388 -9499)" fill="#fff"/>
    <g id="servicio-al-cliente_1_" data-name="servicio-al-cliente (1)" transform="translate(4413.016 -9473.237)">
      <path id="Trazado_133764" data-name="Trazado 133764" d="M151.428,134.374V117.289A29.29,29.29,0,0,1,180.717,88h0a29.29,29.29,0,0,1,29.289,29.289v17.085Z" transform="translate(-104.831 -61.152)" fill="#d3a06c"/>
      <path id="Trazado_133765" data-name="Trazado 133765" d="M241.869,88c-.825,0-1.633.056-2.441.122a29.278,29.278,0,0,1,26.848,29.167v17.085h4.882V117.289A29.29,29.29,0,0,0,241.869,88Z" transform="translate(-165.982 -61.152)" fill="#b27946"/>
      <path id="Trazado_133766" data-name="Trazado 133766" d="M143.158,362.848h53.7l-4.581-13.741A14.647,14.647,0,0,0,181,339.329L162.684,336H143.158l-18.318,3.329a14.646,14.646,0,0,0-11.274,9.778l-2.138,9.717v4.025Z" transform="translate(-77.034 -233.488)" fill="#92e0c0"/>
      <g id="Grupo_89176" data-name="Grupo 89176" transform="translate(46.597 53.697)">
        <path id="Trazado_133767" data-name="Trazado 133767" d="M215.428,312v7.322l9.763,9.763,9.763-9.763V312Z" transform="translate(-195.902 -270.507)" fill="#f9e0a6"/>
        <path id="Trazado_133768" data-name="Trazado 133768" d="M311.428,216h2.441a7.322,7.322,0,0,1,7.322,7.322h0a7.322,7.322,0,0,1-7.322,7.322h-2.441Z" transform="translate(-262.613 -203.796)" fill="#f9e0a6"/>
        <path id="Trazado_133769" data-name="Trazado 133769" d="M161.191,216H158.75a7.322,7.322,0,0,0-7.322,7.322h0a7.322,7.322,0,0,0,7.322,7.322h2.441Z" transform="translate(-151.428 -203.796)" fill="#f9e0a6"/>
        <path id="Trazado_133770" data-name="Trazado 133770" d="M175.428,185.763v14.645a21.965,21.965,0,0,0,21.967,21.967h0a21.965,21.965,0,0,0,21.967-21.967V185.763h0a29.467,29.467,0,0,1-20.834-8.631L197.395,176l-1.133,1.133a29.467,29.467,0,0,1-20.834,8.631Z" transform="translate(-168.106 -176)" fill="#f9e0a6"/>
      </g>
      <path id="Trazado_133771" data-name="Trazado 133771" d="M258.954,221.649a21.964,21.964,0,0,1-19.526,21.823,21.9,21.9,0,0,0,24.408-21.823V207a29.559,29.559,0,0,1-4.882-.437Z" transform="translate(-165.982 -143.545)" fill="#eabd8c"/>
      <path id="Trazado_133772" data-name="Trazado 133772" d="M348.31,8H382.48a4.88,4.88,0,0,1,4.882,4.882V32.408a4.88,4.88,0,0,1-4.882,4.882h-7.322l-19.526,12.2,2.092-12.2H348.31a4.88,4.88,0,0,1-4.882-4.882V12.882A4.88,4.88,0,0,1,348.31,8Z" transform="translate(-238.252 -5.559)" fill="#ececec"/>
      <path id="Trazado_133773" data-name="Trazado 133773" d="M303.023,362.848H313.6l-4.581-13.741a14.647,14.647,0,0,0-11.274-9.778L279.428,336l17.561,9.756a9.763,9.763,0,0,1,4.962,7.457Z" transform="translate(-193.778 -233.488)" fill="#48c397"/>
      <path id="Trazado_133774" data-name="Trazado 133774" d="M61.918,306.932l-8.753,7.915a4.88,4.88,0,0,1-6.9,0L28.758,297.342a4.881,4.881,0,0,1,0-6.9l7.915-7.915L22.029,267.88l-9.17,9.17a14.644,14.644,0,0,0,0,20.71l32.987,32.987a14.644,14.644,0,0,0,20.71,0l10.007-9.17Z" transform="translate(-5.558 -186.151)" fill="#fb5968"/>
      <path id="Trazado_133775" data-name="Trazado 133775" d="M117.561,170.44a17.086,17.086,0,0,0-13.153-11.406L88.1,156.066V154.8a24.564,24.564,0,0,0,7.276-6.461H100.3a7.331,7.331,0,0,0,7.322-7.322V111.73a31.73,31.73,0,1,0-63.46,0v17.085a9.779,9.779,0,0,0,7.784,9.56A24.453,24.453,0,0,0,63.688,154.8v1.264l-16.314,2.968A17.082,17.082,0,0,0,34.223,170.44l-.976,2.931-8.313-8.313a2.445,2.445,0,0,1,0-3.454l9.641-9.639-18.1-18.1-10.9,10.9a17.085,17.085,0,0,0,0,24.161L38.57,201.914a17.077,17.077,0,0,0,24.085.073l11.889-10.893-3.708-3.7h52.374Zm-41.669-6.024-7.322-7.322v-.115a24.388,24.388,0,0,0,14.645,0v.115ZM100.3,143.46H98.247a24.243,24.243,0,0,0,1.591-5.084,9.669,9.669,0,0,0,2.9-1.154v3.8A2.443,2.443,0,0,1,100.3,143.46Zm0-18.848a4.839,4.839,0,0,1,0,8.406Zm-51.256,4.2a4.866,4.866,0,0,1,2.441-4.2v8.406A4.866,4.866,0,0,1,49.044,128.815Zm2.441-12.2V119.4a9.681,9.681,0,0,0-2.441,1.01V111.73a26.848,26.848,0,1,1,53.7,0v8.679a9.592,9.592,0,0,0-2.441-1.01v-2.787H97.859A26.854,26.854,0,0,1,78.75,108.7l-2.858-2.858L73.034,108.7a26.854,26.854,0,0,1-19.109,7.915ZM56.366,133.7V121.4a31.644,31.644,0,0,0,19.526-8.674A31.631,31.631,0,0,0,95.418,121.4v12.3a19.379,19.379,0,0,1-2.641,9.763H75.892v4.882H88.765a19.5,19.5,0,0,1-32.4-14.645Zm-28.7,18.269-2.651,2.651L13.826,143.423l2.651-2.651Zm22.977,50.072a12.137,12.137,0,0,1-8.631-3.576L9.03,165.478a12.206,12.206,0,0,1,0-17.259l1.342-1.342L21.566,158.07l-.088.088a7.335,7.335,0,0,0,0,10.356l17.5,17.5a7.284,7.284,0,0,0,5.179,2.145,7.187,7.187,0,0,0,5.089-2.06l.183-.164,11.245,11.245-1.4,1.284A12.142,12.142,0,0,1,50.647,202.038Zm13.632-8.159-11.22-11.22,3.224-2.914,11.2,11.2Zm1.677-11.367-9.507-9.507-10.564,9.556a2.493,2.493,0,0,1-3.451,0L37.1,177.23l1.748-5.248a12.208,12.208,0,0,1,9.394-8.15l17.061-3.1,10.586,10.586,10.583-10.583,17.058,3.1a12.2,12.2,0,0,1,9.394,8.15l3.512,10.527Z" transform="translate(-0.006 -55.592)"/>
      <path id="Trazado_133776" data-name="Trazado 133776" d="M376.921,0H342.75a7.331,7.331,0,0,0-7.322,7.322V26.848a7.331,7.331,0,0,0,7.322,7.322h6.519l-2.524,14.72L370.3,34.171h6.622a7.331,7.331,0,0,0,7.322-7.322V7.322A7.331,7.331,0,0,0,376.921,0Zm2.441,26.848a2.445,2.445,0,0,1-2.441,2.441H368.9l-15.5,9.687,1.662-9.687H342.75a2.445,2.445,0,0,1-2.441-2.441V7.322a2.445,2.445,0,0,1,2.441-2.441h34.171a2.445,2.445,0,0,1,2.441,2.441Z" transform="translate(-232.693)"/>
      <rect id="Rectángulo_26254" data-name="Rectángulo 26254" width="29.289" height="4.882" transform="translate(112.498 9.763)"/>
      <rect id="Rectángulo_26255" data-name="Rectángulo 26255" width="19.526" height="4.882" transform="translate(112.498 19.526)"/>
      <rect id="Rectángulo_26256" data-name="Rectángulo 26256" width="4.882" height="4.882" transform="translate(136.906 19.526)"/>
      <path id="Trazado_133777" data-name="Trazado 133777" d="M23.447,77.348l-2.512-4.186L14.321,77.13A63.477,63.477,0,0,1,94.69,31.713l1.445-4.662A68.344,68.344,0,0,0,9.383,76.83L4.758,69.12.572,71.631l8.579,14.3Z" transform="translate(0 -16.678)"/>
      <path id="Trazado_133778" data-name="Trazado 133778" d="M411.335,163.314l4.186,2.512,4.271-7.12a63.514,63.514,0,0,1-10.756,60.465l3.79,3.075a68.35,68.35,0,0,0,11.7-64.768l7.173,4.3,2.512-4.186-14.3-8.579Z" transform="translate(-283.844 -103.552)"/>
    </g>
  </g>
</svg>
