<svg xmlns="http://www.w3.org/2000/svg" width="202" height="202" viewBox="0 0 202 202">
  <g id="Grupo_89365" data-name="Grupo 89365" transform="translate(-4388 8548)">
    <path id="Rectángulo_26301" data-name="Rectángulo 26301" d="M45,0H202a0,0,0,0,1,0,0V157a45,45,0,0,1-45,45H0a0,0,0,0,1,0,0V45A45,45,0,0,1,45,0Z" transform="translate(4388 -8548)" fill="#fff"/>
    <g id="Layer_35" transform="translate(4401.005 -8527.86)">
      <g id="Grupo_89271" data-name="Grupo 89271" transform="translate(27.192 0.001)">
        <g id="Grupo_89184" data-name="Grupo 89184" transform="translate(44.961)">
          <g id="Grupo_89183" data-name="Grupo 89183">
            <path id="Trazado_133779" data-name="Trazado 133779" d="M109.5,3.746A4.7,4.7,0,0,1,105.734.064c0-.084-.169-.084-.169,0A4.7,4.7,0,0,1,101.8,3.746c-.084,0-.084.127,0,.169A4.7,4.7,0,0,1,105.564,7.6c0,.084.169.084.169,0A4.7,4.7,0,0,1,109.5,3.916C109.585,3.873,109.585,3.746,109.5,3.746Z" transform="translate(-101.734 -0.001)" fill="#70d6f9"/>
          </g>
        </g>
        <g id="Grupo_89186" data-name="Grupo 89186" transform="translate(102.09 77.156)">
          <g id="Grupo_89185" data-name="Grupo 89185">
            <path id="Trazado_133780" data-name="Trazado 133780" d="M207.518,133.258a6.693,6.693,0,0,1-5.368-5.247c0-.121-.241-.121-.241,0a6.693,6.693,0,0,1-5.368,5.247c-.121,0-.121.181,0,.241a6.693,6.693,0,0,1,5.368,5.247c0,.121.241.121.241,0a6.693,6.693,0,0,1,5.368-5.247C207.639,133.439,207.639,133.258,207.518,133.258Z" transform="translate(-196.45 -127.92)" fill="#f5c84c"/>
          </g>
        </g>
        <g id="Grupo_89188" data-name="Grupo 89188" transform="translate(97.837 66.299)">
          <g id="Grupo_89187" data-name="Grupo 89187">
            <path id="Trazado_133781" data-name="Trazado 133781" d="M191.451,109.92a2.051,2.051,0,1,0,2.051,2.051A2.051,2.051,0,0,0,191.451,109.92Z" transform="translate(-189.4 -109.92)" fill="#87d147"/>
          </g>
        </g>
        <g id="Grupo_89190" data-name="Grupo 89190" transform="translate(12.249 104.056)">
          <g id="Grupo_89189" data-name="Grupo 89189">
            <path id="Trazado_133782" data-name="Trazado 133782" d="M56.065,175.837H54.678V174.45a1.943,1.943,0,0,0-1.93-1.93,1.905,1.905,0,0,0-1.93,1.93v1.387H49.43a1.943,1.943,0,0,0-1.93,1.93,1.905,1.905,0,0,0,1.93,1.93h1.387v1.387a1.943,1.943,0,0,0,1.93,1.93,1.905,1.905,0,0,0,1.93-1.93V179.7h1.387a1.943,1.943,0,0,0,1.93-1.93A1.905,1.905,0,0,0,56.065,175.837Z" transform="translate(-47.5 -172.52)" fill="#fc657e"/>
          </g>
        </g>
        <g id="Grupo_89192" data-name="Grupo 89192" transform="translate(7.967 126.615)">
          <g id="Grupo_89191" data-name="Grupo 89191">
            <path id="Trazado_133783" data-name="Trazado 133783" d="M42.451,209.92a2.051,2.051,0,1,0,2.051,2.051A2.051,2.051,0,0,0,42.451,209.92Z" transform="translate(-40.4 -209.92)" fill="#f5c84c"/>
          </g>
        </g>
        <g id="Grupo_89194" data-name="Grupo 89194" transform="translate(44.723 109.966)">
          <g id="Grupo_89193" data-name="Grupo 89193" transform="translate(0)">
            <path id="Trazado_133784" data-name="Trazado 133784" d="M115.023,190.473l-7.727-7.727a1.464,1.464,0,0,0-2.069,0l-3.458,3.458a1.464,1.464,0,0,0,0,2.069L109.495,196a1.464,1.464,0,0,0,2.069,0l3.458-3.458A1.463,1.463,0,0,0,115.023,190.473Z" transform="translate(-101.34 -182.318)" fill="#9be5f9"/>
          </g>
        </g>
        <g id="Grupo_89196" data-name="Grupo 89196" transform="translate(62.772 109.966)">
          <g id="Grupo_89195" data-name="Grupo 89195">
            <path id="Trazado_133785" data-name="Trazado 133785" d="M144.947,186.2l-3.458-3.458a1.464,1.464,0,0,0-2.069,0l-7.727,7.727a1.464,1.464,0,0,0,0,2.069L135.15,196a1.464,1.464,0,0,0,2.069,0l7.726-7.726A1.463,1.463,0,0,0,144.947,186.2Z" transform="translate(-131.264 -182.318)" fill="#9be5f9"/>
          </g>
        </g>
        <g id="Grupo_89198" data-name="Grupo 89198" transform="translate(51.041 104.27)">
          <g id="Grupo_89197" data-name="Grupo 89197">
            <path id="Trazado_133786" data-name="Trazado 133786" d="M130.419,176v-3.123a19.04,19.04,0,0,1-17.683,0V176a6.607,6.607,0,0,1-.92,3.364l7.364,7.364a1.447,1.447,0,0,1,.414.889h3.966a1.45,1.45,0,0,1,.414-.889l7.371-7.371A6.607,6.607,0,0,1,130.419,176Z" transform="translate(-111.815 -172.874)" fill="#f9d0b4"/>
          </g>
        </g>
        <g id="Grupo_89200" data-name="Grupo 89200" transform="translate(21.018 115.01)">
          <g id="Grupo_89199" data-name="Grupo 89199">
            <path id="Trazado_133787" data-name="Trazado 133787" d="M140.249,202.281a7.574,7.574,0,0,0-5.713-6.923l-11.017-2.773a37.619,37.619,0,0,1-5.627-1.905,1.447,1.447,0,0,1-.417.912l-7.727,7.726a1.463,1.463,0,0,1-2.069,0l-3.458-3.458a1.454,1.454,0,0,1-.414-1.18H99.84a1.453,1.453,0,0,1-.415,1.18l-3.458,3.458a1.463,1.463,0,0,1-2.069,0l-7.727-7.726a1.449,1.449,0,0,1-.416-.907,37.6,37.6,0,0,1-5.615,1.9L69.11,195.359a7.574,7.574,0,0,0-5.713,6.923l-1.353,23.336a2.791,2.791,0,0,0,2.787,2.953h73.985a2.791,2.791,0,0,0,2.787-2.953Z" transform="translate(-62.039 -190.68)" fill="#70d6f9"/>
          </g>
        </g>
        <g id="Grupo_89202" data-name="Grupo 89202" transform="translate(41.611 63.578)">
          <g id="Grupo_89201" data-name="Grupo 89201" transform="translate(0)">
            <path id="Trazado_133788" data-name="Trazado 133788" d="M134.561,111.691a1.029,1.029,0,0,0-.991-1.009c-7.973-.234-12.174-3.393-13.788-4.976a1.033,1.033,0,0,0-1.536.1c-7.01,8.815-17.35,7.571-20.827,6.843a1.024,1.024,0,0,0-1.238.99v15.451a19.191,19.191,0,0,0,38.383,0v-17.1C134.564,111.89,134.564,111.79,134.561,111.691Z" transform="translate(-96.181 -105.409)" fill="#f9d0b4"/>
          </g>
        </g>
        <g id="Grupo_89204" data-name="Grupo 89204" transform="translate(35.381 45.7)">
          <g id="Grupo_89203" data-name="Grupo 89203">
            <path id="Trazado_133789" data-name="Trazado 133789" d="M126.292,79.571a10.854,10.854,0,0,0-5.6,1.563,10.973,10.973,0,0,0-9.4-5.366h-5.629a19.868,19.868,0,0,0-19.81,19.81v8.876a7.957,7.957,0,0,1,6.231-1.659v-.922a1.025,1.025,0,0,1,1.239-.99c3.477.727,13.817,1.972,20.827-6.843a1.033,1.033,0,0,1,1.536-.1c1.614,1.582,5.815,4.742,13.788,4.976a1.028,1.028,0,0,1,.991,1.008c0,.1,0,.2,0,.3V102.8a7.963,7.963,0,0,1,6.789,2.151V90.534a11,11,0,0,0-10.963-10.962Z" transform="translate(-85.851 -75.769)" fill="#754e34"/>
          </g>
        </g>
        <g id="Grupo_89206" data-name="Grupo 89206" transform="translate(79.946 72.629)">
          <g id="Grupo_89205" data-name="Grupo 89205">
            <path id="Trazado_133790" data-name="Trazado 133790" d="M161.018,120.415a8.049,8.049,0,0,0-1.232.1v14.529c0,.433-.02.861-.048,1.287a8.009,8.009,0,1,0,1.28-15.914Z" transform="translate(-159.738 -120.415)" fill="#f9d0b4"/>
          </g>
        </g>
        <g id="Grupo_89208" data-name="Grupo 89208" transform="translate(32.367 72.629)">
          <g id="Grupo_89207" data-name="Grupo 89207">
            <path id="Trazado_133791" data-name="Trazado 133791" d="M90.1,135.042V120.513a8.016,8.016,0,1,0,.048,15.816C90.119,135.9,90.1,135.475,90.1,135.042Z" transform="translate(-80.855 -120.415)" fill="#f9d0b4"/>
          </g>
        </g>
        <g id="Grupo_89210" data-name="Grupo 89210" transform="translate(87.524 142.732)">
          <g id="Grupo_89209" data-name="Grupo 89209">
            <path id="Trazado_133792" data-name="Trazado 133792" d="M184.941,236.642H172.3V246.81h10.271a2.791,2.791,0,0,0,2.787-2.953Z" transform="translate(-172.302 -236.642)" fill="#f9d0b4"/>
          </g>
        </g>
        <g id="Grupo_89212" data-name="Grupo 89212" transform="translate(21.02 142.732)">
          <g id="Grupo_89211" data-name="Grupo 89211">
            <path id="Trazado_133793" data-name="Trazado 133793" d="M62.465,236.642l-.419,7.215a2.791,2.791,0,0,0,2.787,2.953h10.55V236.642Z" transform="translate(-62.042 -236.642)" fill="#f9d0b4"/>
          </g>
        </g>
        <g id="Grupo_89214" data-name="Grupo 89214" transform="translate(54.636 90.301)">
          <g id="Grupo_89213" data-name="Grupo 89213">
            <path id="Trazado_133794" data-name="Trazado 133794" d="M130.65,150.066a1.508,1.508,0,0,0-2.124.186,5.686,5.686,0,0,1-8.088,0,1.508,1.508,0,0,0-2.311,1.937,8.682,8.682,0,0,0,12.711,0A1.509,1.509,0,0,0,130.65,150.066Z" transform="translate(-117.774 -149.714)"/>
          </g>
        </g>
        <g id="Grupo_89216" data-name="Grupo 89216" transform="translate(66.857 79.208)">
          <g id="Grupo_89215" data-name="Grupo 89215">
            <circle id="Elipse_4528" data-name="Elipse 4528" cx="2.449" cy="2.449" r="2.449"/>
          </g>
        </g>
        <g id="Grupo_89218" data-name="Grupo 89218" transform="translate(50.41 79.208)">
          <g id="Grupo_89217" data-name="Grupo 89217">
            <circle id="Elipse_4529" data-name="Elipse 4529" cx="2.449" cy="2.449" r="2.449"/>
          </g>
        </g>
        <g id="Grupo_89220" data-name="Grupo 89220" transform="translate(86.017 131.461)">
          <g id="Grupo_89219" data-name="Grupo 89219">
            <path id="Trazado_133795" data-name="Trazado 133795" d="M171.31,217.955a1.508,1.508,0,0,0-1.508,1.508v18.682a1.508,1.508,0,1,0,3.016,0V219.463A1.508,1.508,0,0,0,171.31,217.955Z" transform="translate(-169.802 -217.955)"/>
          </g>
        </g>
        <g id="Grupo_89222" data-name="Grupo 89222" transform="translate(32.853 131.461)">
          <g id="Grupo_89221" data-name="Grupo 89221" transform="translate(0)">
            <path id="Trazado_133796" data-name="Trazado 133796" d="M83.169,217.955a1.508,1.508,0,0,0-1.508,1.508v18.682a1.508,1.508,0,1,0,3.016,0V219.463A1.508,1.508,0,0,0,83.169,217.955Z" transform="translate(-81.661 -217.955)"/>
          </g>
        </g>
        <g id="Grupo_89225" data-name="Grupo 89225" transform="translate(43.217 108.459)">
          <g id="Grupo_89224" data-name="Grupo 89224">
            <g id="Grupo_89223" data-name="Grupo 89223">
              <path id="Trazado_133797" data-name="Trazado 133797" d="M115.1,188.415l-7.727-7.727a2.974,2.974,0,0,0-4.2,0l-3.457,3.458a2.974,2.974,0,0,0,0,4.2l7.727,7.727a2.974,2.974,0,0,0,4.2,0l3.457-3.458A2.973,2.973,0,0,0,115.1,188.415Zm-5.558,5.5-7.664-7.664,3.395-3.395,7.663,7.664Z" transform="translate(-98.842 -179.819)"/>
            </g>
          </g>
        </g>
        <g id="Grupo_89228" data-name="Grupo 89228" transform="translate(61.266 108.46)">
          <g id="Grupo_89227" data-name="Grupo 89227">
            <g id="Grupo_89226" data-name="Grupo 89226">
              <path id="Trazado_133798" data-name="Trazado 133798" d="M145.022,184.147l-3.457-3.458a2.974,2.974,0,0,0-4.2,0l-7.727,7.727a2.974,2.974,0,0,0,0,4.2l3.457,3.458a2.974,2.974,0,0,0,4.2,0l7.727-7.727A2.973,2.973,0,0,0,145.022,184.147Zm-9.827,9.764-3.395-3.395,7.663-7.664,3.395,3.395Z" transform="translate(-128.767 -179.82)"/>
            </g>
          </g>
        </g>
        <g id="Grupo_89230" data-name="Grupo 89230" transform="translate(68.137 103.079)">
          <g id="Grupo_89229" data-name="Grupo 89229">
            <path id="Trazado_133799" data-name="Trazado 133799" d="M143.785,177.616a5.105,5.105,0,0,1-.61-2.4v-2.806a1.508,1.508,0,1,0-3.016,0v2.806a8.132,8.132,0,0,0,.968,3.827,1.508,1.508,0,0,0,2.658-1.425Z" transform="translate(-140.159 -170.9)"/>
          </g>
        </g>
        <g id="Grupo_89232" data-name="Grupo 89232" transform="translate(57.572 117.503)">
          <g id="Grupo_89231" data-name="Grupo 89231">
            <path id="Trazado_133800" data-name="Trazado 133800" d="M127.408,194.813H124.15a1.508,1.508,0,1,0,0,3.016h3.258a1.508,1.508,0,1,0,0-3.016Z" transform="translate(-122.642 -194.813)"/>
          </g>
        </g>
        <g id="Grupo_89234" data-name="Grupo 89234" transform="translate(49.705 103.247)">
          <g id="Grupo_89233" data-name="Grupo 89233">
            <path id="Trazado_133801" data-name="Trazado 133801" d="M111.857,171.178a1.508,1.508,0,0,0-1.508,1.508v2.638a5.126,5.126,0,0,1-.578,2.359,1.508,1.508,0,1,0,2.674,1.395,8.153,8.153,0,0,0,.92-3.753v-2.638A1.508,1.508,0,0,0,111.857,171.178Z" transform="translate(-109.599 -171.178)"/>
          </g>
        </g>
        <g id="Grupo_89236" data-name="Grupo 89236" transform="translate(19.514 113.619)">
          <g id="Grupo_89235" data-name="Grupo 89235">
            <path id="Trazado_133802" data-name="Trazado 133802" d="M142.117,224.615l-1.353-23.333a9.042,9.042,0,0,0-6.85-8.3L122.9,190.208a36.022,36.022,0,0,1-4.933-1.633,1.508,1.508,0,1,0-1.15,2.788,39.112,39.112,0,0,0,5.346,1.769l11.017,2.773a6.04,6.04,0,0,1,4.576,5.548l1.353,23.336a1.282,1.282,0,0,1-1.281,1.357H63.843a1.282,1.282,0,0,1-1.281-1.358l1.353-23.339A6.039,6.039,0,0,1,68.49,195.9l11.029-2.776a39.256,39.256,0,0,0,5.561-1.855,1.508,1.508,0,0,0-1.165-2.782,36.123,36.123,0,0,1-5.132,1.712L67.754,192.98a9.041,9.041,0,0,0-6.85,8.3l-1.353,23.336a4.3,4.3,0,0,0,4.291,4.55h73.982a4.3,4.3,0,0,0,4.292-4.548Z" transform="translate(-59.544 -188.374)"/>
          </g>
        </g>
        <g id="Grupo_89239" data-name="Grupo 89239" transform="translate(40.103 62.07)">
          <g id="Grupo_89238" data-name="Grupo 89238">
            <g id="Grupo_89237" data-name="Grupo 89237">
              <path id="Trazado_133803" data-name="Trazado 133803" d="M135.077,110.669a2.532,2.532,0,0,0-2.454-2.487c-7.574-.222-11.458-3.253-12.777-4.546a2.542,2.542,0,0,0-3.772.235c-6.371,8.012-15.644,7.078-19.338,6.307a2.532,2.532,0,0,0-3.056,2.478v15.438a20.7,20.7,0,1,0,41.4,0V111Zm-3.013,17.425a17.683,17.683,0,1,1-35.367,0V113.243c3.844.7,14.2,1.57,21.415-7.1,2.085,1.9,6.412,4.705,13.953,5.034v16.915Z" transform="translate(-93.68 -102.909)"/>
            </g>
          </g>
        </g>
        <g id="Grupo_89241" data-name="Grupo 89241" transform="translate(33.873 44.192)">
          <g id="Grupo_89240" data-name="Grupo 89240" transform="translate(0)">
            <path id="Trazado_133804" data-name="Trazado 133804" d="M125.3,77.071a12.349,12.349,0,0,0-5.111,1.113,12.54,12.54,0,0,0-9.891-4.916h-5.629A21.342,21.342,0,0,0,83.351,94.586v8.465a1.508,1.508,0,1,0,3.016,0V94.586a18.322,18.322,0,0,1,18.3-18.3H110.3a9.518,9.518,0,0,1,8.108,4.633,1.508,1.508,0,0,0,2.069.518,9.422,9.422,0,0,1,14.279,8.106v14.035a1.508,1.508,0,1,0,3.016,0V89.542A12.485,12.485,0,0,0,125.3,77.071Z" transform="translate(-83.351 -73.269)"/>
          </g>
        </g>
        <g id="Grupo_89243" data-name="Grupo 89243" transform="translate(78.974 71.122)">
          <g id="Grupo_89242" data-name="Grupo 89242">
            <path id="Trazado_133805" data-name="Trazado 133805" d="M160.378,117.916c-.264,0-.527.011-.787.034a1.508,1.508,0,1,0,.257,3c.174-.014.351-.023.53-.023a6.5,6.5,0,0,1,0,13.01,5.776,5.776,0,0,1-.589-.032,1.508,1.508,0,0,0-.31,3,8.606,8.606,0,0,0,.9.048,9.521,9.521,0,0,0,0-19.041Z" transform="translate(-158.126 -117.916)"/>
          </g>
        </g>
        <g id="Grupo_89245" data-name="Grupo 89245" transform="translate(30.86 71.122)">
          <g id="Grupo_89244" data-name="Grupo 89244">
            <path id="Trazado_133806" data-name="Trazado 133806" d="M88.371,133.918c-.163.014-.328.024-.5.024a6.5,6.5,0,0,1,0-13.01c.17,0,.34.007.506.021a1.508,1.508,0,0,0,.247-3.006c-.249-.021-.5-.031-.753-.031a9.521,9.521,0,0,0,0,19.041c.258,0,.513-.013.764-.035a1.508,1.508,0,0,0-.269-3Z" transform="translate(-78.356 -117.917)"/>
          </g>
        </g>
        <g id="Grupo_89247" data-name="Grupo 89247" transform="translate(86.543 141.224)">
          <g id="Grupo_89246" data-name="Grupo 89246">
            <path id="Trazado_133807" data-name="Trazado 133807" d="M183.675,234.142H172.182a1.508,1.508,0,1,0,0,3.016h11.493a1.508,1.508,0,1,0,0-3.016Z" transform="translate(-170.674 -234.142)"/>
          </g>
        </g>
        <g id="Grupo_89249" data-name="Grupo 89249" transform="translate(20.358 141.224)">
          <g id="Grupo_89248" data-name="Grupo 89248">
            <path id="Trazado_133808" data-name="Trazado 133808" d="M74.366,234.142H62.453a1.508,1.508,0,0,0,0,3.016H74.366a1.508,1.508,0,1,0,0-3.016Z" transform="translate(-60.945 -234.142)"/>
          </g>
        </g>
        <g id="Grupo_89251" data-name="Grupo 89251" transform="translate(1.509 6.333)">
          <g id="Grupo_89250" data-name="Grupo 89250">
            <circle id="Elipse_4530" data-name="Elipse 4530" cx="20.843" cy="20.843" r="20.843" fill="#b2e26d"/>
          </g>
        </g>
        <g id="Grupo_89254" data-name="Grupo 89254" transform="translate(0 4.825)">
          <g id="Grupo_89253" data-name="Grupo 89253">
            <g id="Grupo_89252" data-name="Grupo 89252">
              <path id="Trazado_133809" data-name="Trazado 133809" d="M49.544,8A22.352,22.352,0,1,0,71.9,30.351,22.377,22.377,0,0,0,49.544,8Zm0,41.687A19.336,19.336,0,1,1,68.88,30.351,19.358,19.358,0,0,1,49.544,49.687Z" transform="translate(-27.192 -8)"/>
            </g>
          </g>
        </g>
        <g id="Grupo_89256" data-name="Grupo 89256" transform="translate(78.411 6.333)">
          <g id="Grupo_89255" data-name="Grupo 89255">
            <circle id="Elipse_4531" data-name="Elipse 4531" cx="20.843" cy="20.843" r="20.843" fill="#fc657e"/>
          </g>
        </g>
        <g id="Grupo_89259" data-name="Grupo 89259" transform="translate(76.903 4.825)">
          <g id="Grupo_89258" data-name="Grupo 89258">
            <g id="Grupo_89257" data-name="Grupo 89257">
              <path id="Trazado_133810" data-name="Trazado 133810" d="M177.044,8A22.352,22.352,0,1,0,199.4,30.351,22.377,22.377,0,0,0,177.044,8Zm0,41.687A19.336,19.336,0,1,1,196.38,30.351,19.358,19.358,0,0,1,177.044,49.687Z" transform="translate(-154.692 -8)"/>
            </g>
          </g>
        </g>
        <g id="Grupo_89261" data-name="Grupo 89261" transform="translate(13.372 21.539)">
          <g id="Grupo_89260" data-name="Grupo 89260">
            <path id="Trazado_133811" data-name="Trazado 133811" d="M65.784,36.581a2.971,2.971,0,0,0-4.2,0L56.82,41.345l-2.389-2.389a2.97,2.97,0,0,0-4.2,4.2l4.488,4.488a2.969,2.969,0,0,0,4.2,0l6.865-6.865A2.968,2.968,0,0,0,65.784,36.581Z" transform="translate(-49.362 -35.711)" fill="#edf4fc"/>
          </g>
        </g>
        <g id="Grupo_89263" data-name="Grupo 89263" transform="translate(90.507 18.429)">
          <g id="Grupo_89262" data-name="Grupo 89262">
            <path id="Trazado_133812" data-name="Trazado 133812" d="M193.872,42.981,190.194,39.3l3.678-3.678a2.97,2.97,0,1,0-4.2-4.2L185.995,35.1l-3.678-3.678a2.97,2.97,0,0,0-4.2,4.2l3.678,3.678-3.678,3.678a2.97,2.97,0,0,0,4.2,4.2l3.678-3.678,3.678,3.678a2.97,2.97,0,1,0,4.2-4.2Z" transform="translate(-177.247 -30.555)" fill="#edf4fc"/>
          </g>
        </g>
        <g id="Grupo_89267" data-name="Grupo 89267" transform="translate(11.866 20.033)">
          <g id="Grupo_89266" data-name="Grupo 89266">
            <g id="Grupo_89265" data-name="Grupo 89265">
              <g id="Grupo_89264" data-name="Grupo 89264">
                <path id="Trazado_133813" data-name="Trazado 133813" d="M65.859,34.524a4.483,4.483,0,0,0-6.332,0l-3.7,3.7L54.507,36.9a4.477,4.477,0,0,0-6.331,6.333l4.488,4.488a4.478,4.478,0,0,0,6.332,0l6.864-6.864a4.476,4.476,0,0,0,0-6.332Zm-2.132,4.2-6.863,6.864a1.5,1.5,0,0,1-2.068,0L50.308,41.1a1.462,1.462,0,0,1,2.068-2.068l2.389,2.389a1.551,1.551,0,0,0,2.132,0l4.763-4.764a1.462,1.462,0,1,1,2.068,2.066Z" transform="translate(-46.866 -33.215)"/>
              </g>
            </g>
          </g>
        </g>
        <g id="Grupo_89270" data-name="Grupo 89270" transform="translate(89.001 16.922)">
          <g id="Grupo_89269" data-name="Grupo 89269">
            <g id="Grupo_89268" data-name="Grupo 89268">
              <path id="Trazado_133814" data-name="Trazado 133814" d="M193.948,40.923l-2.612-2.612,2.612-2.612a4.478,4.478,0,0,0-6.332-6.333L185,31.978l-2.612-2.612A4.478,4.478,0,0,0,176.06,35.7l2.612,2.612-2.612,2.612a4.478,4.478,0,1,0,6.333,6.333L185,44.643l2.612,2.612a4.478,4.478,0,1,0,6.332-6.333Zm-2.132,4.2a1.463,1.463,0,0,1-2.067,0l-3.679-3.678a1.509,1.509,0,0,0-2.133,0l-3.678,3.677a1.462,1.462,0,1,1-2.068-2.067l3.678-3.678a1.507,1.507,0,0,0,0-2.132l-3.678-3.678a1.462,1.462,0,0,1,2.068-2.067l3.678,3.678a1.551,1.551,0,0,0,2.132,0l3.678-3.678a1.462,1.462,0,1,1,2.068,2.068l-3.678,3.678a1.507,1.507,0,0,0,0,2.132l3.678,3.678a1.462,1.462,0,0,1,0,2.067Z" transform="translate(-174.751 -28.057)"/>
            </g>
          </g>
        </g>
      </g>
    </g>
  </g>
</svg>
