<svg xmlns="http://www.w3.org/2000/svg" width="157" height="157.006" viewBox="0 0 157 157.006">
  <g id="peticion" transform="translate(-7.82 -7.815)">
    <path id="Trazado_133565" data-name="Trazado 133565" d="M73.354,150.227h71.388v55.838H73.354Z" transform="translate(-22.728 -49.391)" fill="#cecece"/>
    <path id="Trazado_133566" data-name="Trazado 133566" d="M153.376,163.9l-5.144-23.591a21.193,21.193,0,0,0-20.707-16.678H70.654a21.193,21.193,0,0,0-20.707,16.678L44.8,163.9a6.93,6.93,0,0,0,6.771,8.406h95.031A6.93,6.93,0,0,0,153.376,163.9Z" transform="translate(-12.77 -40.169)" fill="#cecece"/>
    <g id="Grupo_89099" data-name="Grupo 89099" transform="translate(31.871 83.467)">
      <path id="Trazado_133567" data-name="Trazado 133567" d="M54.383,163.9l5.144-23.591a21.192,21.192,0,0,1,20.707-16.678h-9.58a21.193,21.193,0,0,0-20.707,16.678L44.8,163.9a6.93,6.93,0,0,0,6.771,8.406h9.58A6.93,6.93,0,0,1,54.383,163.9Z" transform="translate(-44.641 -123.636)" fill="#afafaf"/>
    </g>
    <g id="Grupo_89100" data-name="Grupo 89100" transform="translate(105.175 83.467)">
      <path id="Trazado_133568" data-name="Trazado 133568" d="M192.3,163.9l-5.144-23.591a21.192,21.192,0,0,0-20.707-16.678h-9.58a21.193,21.193,0,0,1,20.707,16.678l5.144,23.591a6.93,6.93,0,0,1-6.771,8.406h9.58A6.93,6.93,0,0,0,192.3,163.9Z" transform="translate(-156.867 -123.636)" fill="#e2e2e2"/>
    </g>
    <path id="Trazado_133569" data-name="Trazado 133569" d="M123.84,123.446A7.835,7.835,0,0,1,116,115.611V103.119a7.835,7.835,0,1,1,15.67,0v12.492a7.835,7.835,0,0,1-7.835,7.835Z" transform="translate(-37.521 -30.336)" fill="#f8af23"/>
    <path id="Trazado_133570" data-name="Trazado 133570" d="M116,103.188V115.68a7.832,7.832,0,0,0,6.45,7.706v-27.9A7.832,7.832,0,0,0,116,103.188Z" transform="translate(-37.521 -30.405)" fill="#f87023"/>
    <g id="Grupo_89101" data-name="Grupo 89101" transform="translate(55.194 41.442)">
      <circle id="Elipse_4495" data-name="Elipse 4495" cx="5.211" cy="5.211" r="5.211" fill="#dbbe36"/>
      <circle id="Elipse_4496" data-name="Elipse 4496" cx="5.211" cy="5.211" r="5.211" transform="translate(51.829)" fill="#dbbe36"/>
    </g>
    <path id="Trazado_133571" data-name="Trazado 133571" d="M115.361,82.925h-2.242A24.794,24.794,0,0,1,88.325,58.132v-11.8a24.794,24.794,0,0,1,24.793-24.793h2.242a24.794,24.794,0,0,1,24.793,24.793v11.8A24.793,24.793,0,0,1,115.361,82.925Z" transform="translate(-27.921 -4.76)" fill="#dbbe36"/>
    <path id="Trazado_133572" data-name="Trazado 133572" d="M97.906,58.132v-11.8a24.8,24.8,0,0,1,21.125-24.521,24.979,24.979,0,0,0-3.669-.272h-2.242A24.794,24.794,0,0,0,88.326,46.334v11.8a24.794,24.794,0,0,0,24.793,24.793h2.242a24.98,24.98,0,0,0,3.669-.272A24.8,24.8,0,0,1,97.906,58.132Z" transform="translate(-27.921 -4.76)" fill="#e3d595"/>
    <g id="Grupo_89102" data-name="Grupo 89102" transform="translate(73.506 52.365)">
      <circle id="Elipse_4497" data-name="Elipse 4497" cx="2.51" cy="2.51" r="2.51" fill="#3f3679"/>
      <circle id="Elipse_4498" data-name="Elipse 4498" cx="2.51" cy="2.51" r="2.51" transform="translate(20.608)" fill="#3f3679"/>
    </g>
    <path id="Trazado_133573" data-name="Trazado 133573" d="M88.326,47.993h3.951s9.467-.833,7.822-11.284c0,0,13.606,12.52,40.055,6.641V35.228a25.914,25.914,0,1,0-51.829,0Z" transform="translate(-27.921 -0.52)" fill="#9e9e9e"/>
    <g id="Grupo_89103" data-name="Grupo 89103" transform="translate(60.405 8.794)">
      <path id="Trazado_133574" data-name="Trazado 133574" d="M119.03,9.763a25.9,25.9,0,0,0-30.7,25.465V47.993h3.951a10.083,10.083,0,0,0,5.629-2.647V35.228A25.917,25.917,0,0,1,119.03,9.763Z" transform="translate(-88.326 -9.314)" fill="#707070"/>
    </g>
    <path id="Trazado_133575" data-name="Trazado 133575" d="M89.663,131.5h50.082v68.07H89.663Z" transform="translate(-28.385 -42.896)" fill="#63bce7"/>
    <g id="Grupo_89104" data-name="Grupo 89104" transform="translate(107.072 100.844)">
      <path id="Trazado_133576" data-name="Trazado 133576" d="M166.275,187.491h8.437V167.406h-8.437a6.5,6.5,0,0,0-6.5,6.5v7.076A6.5,6.5,0,0,0,166.275,187.491Z" transform="translate(-159.771 -156.193)" fill="#dbbe36"/>
      <path id="Trazado_133577" data-name="Trazado 133577" d="M176.333,150.239A3.062,3.062,0,0,1,179.4,153.3v8.151h-6.124V153.3A3.062,3.062,0,0,1,176.333,150.239Z" transform="translate(-164.453 -150.239)" fill="#dbbe36"/>
      <path id="Trazado_133578" data-name="Trazado 133578" d="M186.688,189.616a4.041,4.041,0,0,1-4.041-4.041V164.509a4.041,4.041,0,1,1,8.082,0v21.066A4.041,4.041,0,0,1,186.688,189.616Z" transform="translate(-167.705 -153.787)" fill="#cecece"/>
    </g>
    <g id="Grupo_89105" data-name="Grupo 89105" transform="translate(42.542 100.844)">
      <path id="Trazado_133579" data-name="Trazado 133579" d="M81.791,187.491H73.354V167.406h8.437a6.5,6.5,0,0,1,6.5,6.5v7.076A6.5,6.5,0,0,1,81.791,187.491Z" transform="translate(-65.271 -156.193)" fill="#dbbe36"/>
      <path id="Trazado_133580" data-name="Trazado 133580" d="M76.415,150.239a3.062,3.062,0,0,0-3.062,3.062v8.151h6.124V153.3A3.062,3.062,0,0,0,76.415,150.239Z" transform="translate(-65.271 -150.239)" fill="#dbbe36"/>
      <path id="Trazado_133581" data-name="Trazado 133581" d="M65.02,189.616a4.041,4.041,0,0,0,4.041-4.041V164.509a4.041,4.041,0,1,0-8.082,0v21.066A4.041,4.041,0,0,0,65.02,189.616Z" transform="translate(-60.979 -153.787)" fill="#cecece"/>
    </g>
    <path id="Trazado_133582" data-name="Trazado 133582" d="M100.125,145.75H136.54v7.838H100.125Z" transform="translate(-32.013 -47.838)" fill="#f46275"/>
    <g id="Grupo_89106" data-name="Grupo 89106" transform="translate(69.772 114.622)">
      <path id="Trazado_133583" data-name="Trazado 133583" d="M102.667,171.333h33.095v4.572H102.667Z" transform="translate(-102.667 -171.333)" fill="#cecece"/>
      <path id="Trazado_133584" data-name="Trazado 133584" d="M102.667,185.781h33.095v4.572H102.667Z" transform="translate(-102.667 -176.344)" fill="#cecece"/>
      <path id="Trazado_133585" data-name="Trazado 133585" d="M102.667,200.228h33.095V204.8H102.667Z" transform="translate(-102.667 -181.354)" fill="#cecece"/>
      <path id="Trazado_133586" data-name="Trazado 133586" d="M102.667,214.676h33.095v4.572H102.667Z" transform="translate(-102.667 -186.365)" fill="#cecece"/>
    </g>
    <g id="Grupo_89107" data-name="Grupo 89107" transform="translate(7.82 7.815)">
      <path id="Trazado_133587" data-name="Trazado 133587" d="M20.559,245.186H8.8a.98.98,0,0,0,0,1.96H20.559a.98.98,0,0,0,0-1.96Z" transform="translate(-7.82 -90.14)" fill="#12263f"/>
      <path id="Trazado_133588" data-name="Trazado 133588" d="M239.916,245.186H228.157a.98.98,0,0,0,0,1.96h11.759a.98.98,0,1,0,0-1.96Z" transform="translate(-83.897 -90.14)" fill="#12263f"/>
      <path id="Trazado_133589" data-name="Trazado 133589" d="M155.2,245.186H37a.98.98,0,1,0,0,1.96H155.2a.98.98,0,1,0,0-1.96Z" transform="translate(-17.601 -90.14)" fill="#12263f"/>
      <path id="Trazado_133590" data-name="Trazado 133590" d="M8.8,157.654H163.84a.98.98,0,0,0,0-1.96H122.994V136.6a5.011,5.011,0,0,0,8.058-3.481h2.784a7.91,7.91,0,0,0,7.728-9.6l-5.145-23.59a22.3,22.3,0,0,0-21.664-17.449H95.133V77.971a25.819,25.819,0,0,0,18.079-24.6v-.606a6.19,6.19,0,0,0,0-12.225V34.709a26.894,26.894,0,0,0-53.788,0v5.834a6.189,6.189,0,0,0,0,12.223v.606A25.817,25.817,0,0,0,77.5,77.97v4.517H57.884A22.3,22.3,0,0,0,36.22,99.936l-5.144,23.591a7.91,7.91,0,0,0,7.728,9.6h2.784a5.011,5.011,0,0,0,8.058,3.481v19.091H8.8a.98.98,0,0,0,0,1.96Zm53.458-1.96V132.4a7.488,7.488,0,0,0,4.289-6.758v-7.076a7.487,7.487,0,0,0-4.289-6.758V89.584h48.122V111.8a7.487,7.487,0,0,0-4.289,6.758v7.076a7.487,7.487,0,0,0,4.289,6.758v23.3Zm-6.489-44.617H51.605v-7.171a2.082,2.082,0,0,1,4.165,0v7.171Zm-4.164,1.96h7.457a5.531,5.531,0,0,1,5.525,5.525v7.076a5.531,5.531,0,0,1-5.525,5.525H51.605Zm69.428-1.96h-4.164v-7.171a2.082,2.082,0,1,1,4.165,0v7.171Zm-5.144,1.96h5.144v18.126h-7.457a5.531,5.531,0,0,1-5.525-5.525v-7.076a5.531,5.531,0,0,1,5.525-5.525Zm-3.549,42.657V133.011a7.482,7.482,0,0,0,1.236.111h7.457v22.572Zm16.776-23.062a3.062,3.062,0,1,1-6.124,0V111.566a3.055,3.055,0,0,1,2.082-2.886v13.909a.98.98,0,1,0,1.96,0V108.681a3.055,3.055,0,0,1,2.082,2.886ZM114.755,84.447a20.332,20.332,0,0,1,19.75,15.907l5.144,23.591a5.951,5.951,0,0,1-5.814,7.218h-2.759V113.037h2.939a.98.98,0,0,0,0-1.96h-2.964a5.011,5.011,0,0,0-8.058-3.481v-3.69a4.042,4.042,0,1,0-8.084,0v7.171h-1.334a7.482,7.482,0,0,0-1.236.111V88.6a.98.98,0,0,0-.98-.98H94.809a8.8,8.8,0,0,0,.325-2.349v-.829h19.622Zm1.71-37.794a4.237,4.237,0,0,1-3.252,4.114V42.54a4.239,4.239,0,0,1,3.252,4.113ZM61.385,34.708a24.935,24.935,0,0,1,49.869,0v7.331c-25.085,5.28-38.281-6.452-38.412-6.571a.98.98,0,0,0-1.632.873c.47,2.989.016,5.4-1.349,7.153a8.846,8.846,0,0,1-5.557,3H61.385V34.708ZM56.174,46.653a4.244,4.244,0,0,1,3.252-4.113v8.226A4.24,4.24,0,0,1,56.174,46.653Zm5.211,6.719V48.453h2.971c.029,0,.057,0,.086,0a10.739,10.739,0,0,0,6.951-3.732,9.848,9.848,0,0,0,1.956-6.379c4.5,3.135,17.17,9.943,37.9,5.7v9.338A23.84,23.84,0,0,1,87.44,77.184H85.2A23.839,23.839,0,0,1,61.385,53.372ZM85.2,79.144h2.242a25.732,25.732,0,0,0,5.734-.651v6.782a6.825,6.825,0,0,1-.421,2.349H79.887a6.82,6.82,0,0,1-.422-2.349V78.493A25.718,25.718,0,0,0,85.2,79.144Zm-51.028,49.8a5.924,5.924,0,0,1-1.18-5l5.144-23.591a20.332,20.332,0,0,1,19.75-15.907H77.505v.829a8.774,8.774,0,0,0,.326,2.349H61.278a.98.98,0,0,0-.98.98v22.584a7.482,7.482,0,0,0-1.236-.111H57.729v-7.171a4.042,4.042,0,1,0-8.084,0v3.69a5.011,5.011,0,0,0-8.058,3.481H38.623a.98.98,0,1,0,0,1.96h2.939v18.126H38.8a5.928,5.928,0,0,1-4.633-2.219Zm12.414,6.749a3.066,3.066,0,0,1-3.062-3.062V111.566a3.055,3.055,0,0,1,2.082-2.886v13.909a.98.98,0,0,0,1.96,0V108.681a3.055,3.055,0,0,1,2.082,2.886v21.066a3.065,3.065,0,0,1-3.061,3.062Zm5.021-2.572h7.457a7.482,7.482,0,0,0,1.236-.111v22.683H51.6V133.122Z" transform="translate(-7.82 -7.815)" fill="#12263f"/>
      <path id="Trazado_133591" data-name="Trazado 133591" d="M127.48,87.48a.98.98,0,0,0,.98-.98V82.3a.98.98,0,0,0-1.96,0v4.2A.98.98,0,0,0,127.48,87.48Z" transform="translate(-48.98 -33.308)" fill="#12263f"/>
      <path id="Trazado_133592" data-name="Trazado 133592" d="M113.5,70.077h-7.674a.98.98,0,0,0,0,1.96H113.5a.98.98,0,0,0,0-1.96Z" transform="translate(-41.472 -29.409)" fill="#12263f"/>
      <path id="Trazado_133593" data-name="Trazado 133593" d="M137.381,72.037h7.674a.98.98,0,0,0,0-1.96h-7.674a.98.98,0,0,0,0,1.96Z" transform="translate(-52.414 -29.409)" fill="#12263f"/>
      <path id="Trazado_133594" data-name="Trazado 133594" d="M129.994,100.322a.979.979,0,1,0-1.528-1.226,3.795,3.795,0,0,1-5.932,0,.979.979,0,1,0-1.528,1.226,5.752,5.752,0,0,0,8.988,0Z" transform="translate(-47 -39.346)" fill="#12263f"/>
      <path id="Trazado_133595" data-name="Trazado 133595" d="M188.313,187.781a.98.98,0,0,0-.98.98v4.572a.98.98,0,0,0,1.96,0v-4.572A.98.98,0,0,0,188.313,187.781Z" transform="translate(-70.078 -70.231)" fill="#12263f"/>
      <path id="Trazado_133596" data-name="Trazado 133596" d="M66.647,187.781a.98.98,0,0,0-.98.98v4.572a.98.98,0,0,0,1.96,0v-4.572A.98.98,0,0,0,66.647,187.781Z" transform="translate(-27.882 -70.231)" fill="#12263f"/>
      <path id="Trazado_133597" data-name="Trazado 133597" d="M136.02,144.25H99.6a.98.98,0,0,0-.98.98v7.838a.98.98,0,0,0,.98.98H136.02a.98.98,0,0,0,.98-.98V145.23A.98.98,0,0,0,136.02,144.25Zm-.98,7.838H100.585V146.21H135.04Z" transform="translate(-39.313 -55.133)" fill="#12263f"/>
      <path id="Trazado_133598" data-name="Trazado 133598" d="M135.241,169.833H102.146a.98.98,0,0,0-.98.98v4.572a.98.98,0,0,0,.98.98h33.095a.98.98,0,0,0,.98-.98v-4.572A.98.98,0,0,0,135.241,169.833Zm-.98,4.572H103.126v-2.613h31.135Z" transform="translate(-40.194 -64.006)" fill="#12263f"/>
      <path id="Trazado_133599" data-name="Trazado 133599" d="M135.241,184.281H102.146a.98.98,0,0,0-.98.98v4.572a.98.98,0,0,0,.98.98h33.095a.98.98,0,0,0,.98-.98v-4.572A.98.98,0,0,0,135.241,184.281Zm-.98,4.572H103.126v-2.613h31.135Z" transform="translate(-40.194 -69.017)" fill="#12263f"/>
      <path id="Trazado_133600" data-name="Trazado 133600" d="M135.241,198.729H102.146a.98.98,0,0,0-.98.98v4.572a.98.98,0,0,0,.98.98h33.095a.98.98,0,0,0,.98-.98v-4.572A.979.979,0,0,0,135.241,198.729Zm-.98,4.572H103.126v-2.613h31.135Z" transform="translate(-40.194 -74.028)" fill="#12263f"/>
      <path id="Trazado_133601" data-name="Trazado 133601" d="M135.241,213.176H102.146a.98.98,0,0,0-.98.98v4.572a.98.98,0,0,0,.98.98h33.095a.98.98,0,0,0,.98-.98v-4.572A.98.98,0,0,0,135.241,213.176Zm-.98,4.572H103.126v-2.613h31.135Z" transform="translate(-40.194 -79.038)" fill="#12263f"/>
    </g>
  </g>
</svg>
