<svg xmlns="http://www.w3.org/2000/svg" width="130.216" height="139.288" viewBox="0 0 130.216 139.288">
  <g id="Layer_1" transform="translate(-11.004 -2.854)">
    <g id="Grupo_89115" data-name="Grupo 89115" transform="translate(11.004 2.854)">
      <g id="Grupo_89114" data-name="Grupo 89114" transform="translate(1.392 1.387)">
        <g id="Grupo_89108" data-name="Grupo 89108" transform="translate(3.368 39.178)">
          <path id="Trazado_133602" data-name="Trazado 133602" d="M96.909,100.723v9.861H28.777l-4.263-4.318A17.226,17.226,0,0,1,27.04,79.971l6.172-4.224a11.688,11.688,0,0,0,11.481,9.516c39.21,0,36.9-.009,37.408.017a15.225,15.225,0,0,1,3.884.668L81.9,98.3l13.406-4.435a15.072,15.072,0,0,1,1.274,3.678,15.325,15.325,0,0,1,.328,3.183Z" transform="translate(-19.557 -75.747)" fill="#9e9e9e"/>
        </g>
        <g id="Grupo_89109" data-name="Grupo 89109" transform="translate(60.533 48.711)">
          <path id="Trazado_133603" data-name="Trazado 133603" d="M142.138,105.137l-.011.006-17.65,5.841a1.67,1.67,0,0,1-2.11-2.109l5.291-16a15.226,15.226,0,0,1,3.884.668l-4.085,12.349,13.406-4.435a15.071,15.071,0,0,1,1.274,3.678Z" transform="translate(-122.28 -92.877)" fill="#f0ab20"/>
        </g>
        <path id="Trazado_133604" data-name="Trazado 133604" d="M96.3,144.655H94.225v-6.311H26.095v6.311H24.022a10.515,10.515,0,1,0,0,21.03h2.072v1.083a34.065,34.065,0,1,0,68.131,0v-1.083H96.3a10.515,10.515,0,0,0,0-21.03Z" transform="translate(-13.505 -64.331)" fill="#dbbe36"/>
        <g id="Grupo_89110" data-name="Grupo 89110" transform="translate(65.711)">
          <path id="Trazado_133605" data-name="Trazado 133605" d="M132.6,32.509a30.444,30.444,0,0,0,3.183,17.2,4.87,4.87,0,0,1,.306,3.767l-.417,1.252-4.085,12.349,13.406-4.435a4.865,4.865,0,0,1,3.962.239A30.448,30.448,0,1,0,132.6,32.509Z" transform="translate(-131.584 -5.346)" fill="#72c1e8"/>
        </g>
        <g id="Grupo_89111" data-name="Grupo 89111" transform="translate(73.078 12.024)">
          <path id="Trazado_133606" data-name="Trazado 133606" d="M156.732,68.748a8.862,8.862,0,0,0-1.742-.689,1.391,1.391,0,0,1,.743-2.682,11.6,11.6,0,0,1,2.281.9,23.236,23.236,0,0,0,10.306,2.578A23.483,23.483,0,0,0,185.86,29.3a1.391,1.391,0,0,1,2.028-1.905,26.276,26.276,0,0,1-31.156,41.356Zm-11.838-.415a1.391,1.391,0,0,1,.884-1.758c3.026-1,3.173-1.062,3.729-1.209a1.391,1.391,0,1,1,.71,2.691c-.471.124-.642.193-3.564,1.16A1.391,1.391,0,0,1,144.894,68.333Z" transform="translate(-144.823 -26.953)" fill="#c5e5ff"/>
        </g>
        <g id="Grupo_89112" data-name="Grupo 89112" transform="translate(16.801 101.048)">
          <path id="Trazado_133607" data-name="Trazado 133607" d="M73.569,218.175a29.447,29.447,0,0,1-3.117-.166,1.391,1.391,0,1,1,.3-2.767,26.518,26.518,0,0,0,2.82.151,1.391,1.391,0,0,1,0,2.783Zm-8.82-1.355a29.83,29.83,0,0,1-21.055-28.5,1.391,1.391,0,0,1,2.782,0,27.049,27.049,0,0,0,19.1,25.848,1.392,1.392,0,0,1-.833,2.656Z" transform="translate(-43.695 -186.925)" fill="#fbe0e2"/>
        </g>
        <g id="Grupo_89113" data-name="Grupo 89113" transform="translate(9.215 48.314)">
          <path id="Trazado_133608" data-name="Trazado 133608" d="M95.976,112.016H94.764a1.391,1.391,0,1,1,0-2.782h1.211a1.391,1.391,0,0,1,0,2.782Zm-6.776,0H39.509c-8.98,0-13.308-13.185-5.032-19.564a1.391,1.391,0,0,1,1.7,2.2c-6.2,4.783-2.948,14.577,3.334,14.577H89.2a1.391,1.391,0,1,1,0,2.782Z" transform="translate(-30.064 -92.163)" fill="#f9e5af"/>
        </g>
      </g>
      <path id="Trazado_133609" data-name="Trazado 133609" d="M147.815,221.309a1.392,1.392,0,1,0-.462-1.914A1.4,1.4,0,0,0,147.815,221.309Z" transform="translate(-71.385 -98.594)"/>
      <path id="Trazado_133610" data-name="Trazado 133610" d="M78.561,216.763a1.4,1.4,0,0,0,1.853-.657.017.017,0,0,1,.006-.011,9.2,9.2,0,0,1,16.6.011,1.421,1.421,0,0,0,1.853.657,1.4,1.4,0,0,0,.657-1.853,11.98,11.98,0,0,0-21.626,0A1.385,1.385,0,0,0,78.561,216.763Z" transform="translate(-40.613 -93.875)"/>
      <path id="Trazado_133611" data-name="Trazado 133611" d="M97.625,184.136v-9.29a1.391,1.391,0,1,0-2.782,0v9.29a1.391,1.391,0,1,0,2.782,0Z" transform="translate(-48.187 -78.516)"/>
      <path id="Trazado_133612" data-name="Trazado 133612" d="M22.913,106.987H23.6a35.45,35.45,0,0,0,62.348,22.8,1.387,1.387,0,0,0-.15-1.964,1.428,1.428,0,0,0-1.959.15,32.673,32.673,0,0,1-57.464-21.292V79.647h65.35v27.029a32.578,32.578,0,0,1-2.36,12.221,1.392,1.392,0,0,0,2.582,1.041,35.307,35.307,0,0,0,2.553-12.95h.692a11.906,11.906,0,0,0,0-23.813h-.684V68.394a17.015,17.015,0,0,0-.356-3.473,16.619,16.619,0,0,0-.662-2.29A3.547,3.547,0,0,1,94.829,63a31.456,31.456,0,0,0,14.141,3.514A31.833,31.833,0,1,0,83,16.93a1.387,1.387,0,0,0,.367,1.931,1.433,1.433,0,0,0,1.937-.373A29.043,29.043,0,1,1,108.97,63.734a28.667,28.667,0,0,1-12.861-3.2,6.267,6.267,0,0,0-5.031-.328l-.006.006L80.294,63.782l3.634-10.974a6.242,6.242,0,0,0-.4-4.853V47.95a28.94,28.94,0,0,1-3.027-16.4,27.964,27.964,0,0,1,.568-3.389,1.39,1.39,0,1,0-2.71-.623,31.807,31.807,0,0,0,2.7,21.7l.006.011a3.467,3.467,0,0,1,.211,2.688l0,.013a16.887,16.887,0,0,0-2.917-.386c-.534-.026,1.583-.017-36.172-.017a1.391,1.391,0,0,0,0,2.782H42.2c37.862,0,35.6-.009,36.039.017A14.021,14.021,0,0,1,80.4,54.6c-2.816,8.526-2.025,6.133-3.612,10.93a1.394,1.394,0,0,0,1.759,1.759l12.21-4.04a14.148,14.148,0,0,1,.968,5.147v8.47H25.562l-3.851-3.907A15.831,15.831,0,0,1,24.032,48.8l4.563-3.128a12.836,12.836,0,0,0,2.554,4.291,1.433,1.433,0,0,0,1.964.111,1.389,1.389,0,0,0,.106-1.964,10.269,10.269,0,0,1-2.432-4.942,1.392,1.392,0,0,0-2.154-.89L22.462,46.5a18.613,18.613,0,0,0-2.732,28.42l3.862,3.912v4.345h-.679a11.906,11.906,0,1,0,0,23.811ZM95.191,85.958a9.124,9.124,0,1,1,0,18.248h-.684V85.958Zm-72.279,0h.679V104.2h-.679a9.124,9.124,0,1,1,0-18.247Z" transform="translate(-11.004 -2.854)"/>
      <path id="Trazado_133613" data-name="Trazado 133613" d="M135.233,36.627a1.393,1.393,0,1,0,1.836-.718A1.422,1.422,0,0,0,135.233,36.627Z" transform="translate(-66.049 -17.465)"/>
      <path id="Trazado_133614" data-name="Trazado 133614" d="M56.607,89.058a1.421,1.421,0,0,0-1.8.8,1.394,1.394,0,0,0,.8,1.8h.011a1.391,1.391,0,0,0,.991-2.6Z" transform="translate(-30.39 -41.047)"/>
      <path id="Trazado_133615" data-name="Trazado 133615" d="M69.9,168.555v3.061a1.391,1.391,0,0,0,2.782,0v-3.061a1.391,1.391,0,0,0-2.782,0Z" transform="translate(-37.125 -75.726)"/>
      <path id="Trazado_133616" data-name="Trazado 133616" d="M119.781,168.555v3.061a1.391,1.391,0,0,0,2.782,0v-3.061a1.391,1.391,0,0,0-2.782,0Z" transform="translate(-59.247 -75.726)"/>
      <path id="Trazado_133617" data-name="Trazado 133617" d="M68.307,150.775a1.392,1.392,0,0,0-1.643-1.083l-10.852,2.226a1.392,1.392,0,0,0,.559,2.726l10.852-2.226A1.392,1.392,0,0,0,68.307,150.775Z" transform="translate(-30.384 -67.964)"/>
      <path id="Trazado_133618" data-name="Trazado 133618" d="M129.087,153.56A1.392,1.392,0,0,0,128,151.917l-10.852-2.226a1.392,1.392,0,0,0-.559,2.726l10.852,2.226a1.392,1.392,0,0,0,1.643-1.083Z" transform="translate(-57.34 -67.964)"/>
      <path id="Trazado_133619" data-name="Trazado 133619" d="M170.025,53.523a1.4,1.4,0,0,0,1.391-1.391V37.718a1.391,1.391,0,1,0-2.782,0V52.132A1.4,1.4,0,0,0,170.025,53.523Z" transform="translate(-80.913 -17.699)"/>
      <path id="Trazado_133620" data-name="Trazado 133620" d="M168.634,76.229a1.391,1.391,0,1,0,2.782,0V74.7a1.391,1.391,0,1,0-2.782,0Z" transform="translate(-80.913 -34.1)"/>
      <path id="Trazado_133621" data-name="Trazado 133621" d="M185.935,53.523a1.4,1.4,0,0,0,1.391-1.391V37.718a1.391,1.391,0,1,0-2.782,0V52.132A1.4,1.4,0,0,0,185.935,53.523Z" transform="translate(-87.969 -17.699)"/>
      <path id="Trazado_133622" data-name="Trazado 133622" d="M184.544,76.229a1.391,1.391,0,1,0,2.782,0V74.7a1.391,1.391,0,1,0-2.782,0Z" transform="translate(-87.969 -34.1)"/>
      <path id="Trazado_133623" data-name="Trazado 133623" d="M201.845,53.523a1.4,1.4,0,0,0,1.391-1.391V37.718a1.391,1.391,0,1,0-2.783,0V52.132A1.4,1.4,0,0,0,201.845,53.523Z" transform="translate(-95.025 -17.699)"/>
      <path id="Trazado_133624" data-name="Trazado 133624" d="M200.454,76.229a1.391,1.391,0,0,0,2.783,0V74.7a1.391,1.391,0,0,0-2.783,0Z" transform="translate(-95.025 -34.1)"/>
    </g>
  </g>
</svg>
