<svg xmlns="http://www.w3.org/2000/svg" width="134.711" height="149.124" viewBox="0 0 134.711 149.124">
  <g id="mejoramiento" transform="translate(-8.847 -3)">
    <g id="Grupo_89130" data-name="Grupo 89130" transform="translate(13.778 7.93)">
      <path id="Trazado_133659" data-name="Trazado 133659" d="M35.492,56.185h4.68a33.679,33.679,0,0,0,4.2,10.123l-3.314,3.313a3.587,3.587,0,0,0,0,5.062l5.959,5.959a3.58,3.58,0,0,0,5.06,0l3.314-3.314a33.625,33.625,0,0,0,10.122,4.2v4.68a3.583,3.583,0,0,0,3.579,3.579h8.427A3.583,3.583,0,0,0,81.1,86.207v-4.68a33.657,33.657,0,0,0,10.122-4.2l3.314,3.314a3.58,3.58,0,0,0,5.06,0l5.96-5.959a3.587,3.587,0,0,0,0-5.062l-3.313-3.313a33.648,33.648,0,0,0,4.2-10.123h4.68a3.583,3.583,0,0,0,3.579-3.579V44.18a3.583,3.583,0,0,0-3.579-3.579h-4.68a33.679,33.679,0,0,0-4.2-10.123l3.314-3.313a3.587,3.587,0,0,0,0-5.062L99.6,16.146a3.664,3.664,0,0,0-5.062,0L91.22,19.459a33.649,33.649,0,0,0-10.122-4.2v-4.68A3.582,3.582,0,0,0,77.52,7H69.093a3.582,3.582,0,0,0-3.579,3.578v4.68a33.681,33.681,0,0,0-10.122,4.2l-3.313-3.313a3.663,3.663,0,0,0-5.062,0L41.057,22.1a3.587,3.587,0,0,0,0,5.062l3.313,3.313a33.648,33.648,0,0,0-4.2,10.123h-4.68a3.583,3.583,0,0,0-3.579,3.579V52.6a3.581,3.581,0,0,0,3.578,3.58Z" transform="translate(-8.416 -7)" fill="#e6e7e8"/>
      <path id="Trazado_133660" data-name="Trazado 133660" d="M142.357,60.217a1.227,1.227,0,0,0-.875-.458l-22.365-1.586a1.232,1.232,0,0,0-1.049,2l4.73,5.906L85.23,96.522,63.773,78.584A7.479,7.479,0,0,0,54.3,78.5L13.306,111.6a1.232,1.232,0,0,0-.185,1.733l7.828,9.7a1.229,1.229,0,0,0,.828.451,1.177,1.177,0,0,0,.131.007,1.233,1.233,0,0,0,.774-.274l9.162-7.4V135.6a3.7,3.7,0,0,0,3.7,3.7H124.29a3.7,3.7,0,0,0,3.7-3.7V81.087l4.143-3.358,4.965,6.2a1.232,1.232,0,0,0,2.18-.587l3.339-22.171a1.238,1.238,0,0,0-.259-.954Z" transform="translate(-12.848 4.893)" fill="#e6e7e8"/>
    </g>
    <g id="Grupo_89134" data-name="Grupo 89134" transform="translate(8.847 3)">
      <g id="Grupo_89131" data-name="Grupo 89131" transform="translate(20.228 85.393)">
        <path id="Trazado_133661" data-name="Trazado 133661" d="M81.263,102.818a6.227,6.227,0,0,1-7.918-.06L51.1,84.164,25.26,105.025v22.367a2.464,2.464,0,0,0,2.465,2.465h88.749a2.464,2.464,0,0,0,2.465-2.465v-55.1Z" transform="translate(-25.26 -72.288)" fill="#6dc9f7"/>
      </g>
      <g id="Grupo_89132" data-name="Grupo 89132" transform="translate(33.176 95.884)">
        <path id="Trazado_133662" data-name="Trazado 133662" d="M79.766,127.879H93.323V80.8L79.766,91.787Z" transform="translate(-25.539 -80.801)" fill="#d4fbff"/>
        <path id="Trazado_133663" data-name="Trazado 133663" d="M57.766,125.376H71.323V99.512a6.207,6.207,0,0,1-5.534-1.236l-8.023-6.707Z" transform="translate(-30.653 -78.298)" fill="#d4fbff"/>
        <path id="Trazado_133664" data-name="Trazado 133664" d="M35.766,92.333v35.284H49.323V82.477l-.663-.553Z" transform="translate(-35.766 -80.54)" fill="#d4fbff"/>
      </g>
      <path id="Trazado_133672" data-name="Trazado 133672" d="M18.261,0A18.261,18.261,0,1,1,0,18.261,18.261,18.261,0,0,1,18.261,0Z" transform="translate(46.63 23.133)" fill="#ffe4e0"/>
      <path id="Trazado_133665" data-name="Trazado 133665" d="M64.944,51.5A18.262,18.262,0,0,1,46.777,35.087a18.261,18.261,0,1,0,36.335,0A18.264,18.264,0,0,1,64.944,51.5Z" transform="translate(-0.053 4.458)" fill="#fff"/>
      <path id="Trazado_133666" data-name="Trazado 133666" d="M31.26,50.721h5.672a32.607,32.607,0,0,0,4.782,11.524L37.7,66.261a2.346,2.346,0,0,0,0,3.319l5.959,5.959a2.346,2.346,0,0,0,3.319,0l4.015-4.015a32.606,32.606,0,0,0,11.524,4.782v5.67a2.346,2.346,0,0,0,2.347,2.347h8.427a2.346,2.346,0,0,0,2.347-2.347v-5.67A32.606,32.606,0,0,0,87.16,71.524l4.015,4.015a2.346,2.346,0,0,0,3.319,0l5.959-5.959a2.346,2.346,0,0,0,0-3.319l-4.015-4.015a32.616,32.616,0,0,0,4.782-11.524h5.672a2.346,2.346,0,0,0,2.347-2.347V39.948a2.347,2.347,0,0,0-2.347-2.347H101.22a32.627,32.627,0,0,0-4.781-11.524l4.015-4.015a2.346,2.346,0,0,0,0-3.319L94.5,12.784a2.346,2.346,0,0,0-3.319,0L87.162,16.8a32.606,32.606,0,0,0-11.524-4.782V6.347A2.35,2.35,0,0,0,73.288,4H64.861a2.346,2.346,0,0,0-2.347,2.347v5.67A32.606,32.606,0,0,0,50.99,16.8l-4.015-4.015a2.346,2.346,0,0,0-3.319,0L37.7,18.742a2.346,2.346,0,0,0,0,3.319l4.015,4.015A32.606,32.606,0,0,0,36.93,37.6H31.259a2.347,2.347,0,0,0-2.347,2.347v8.427a2.348,2.348,0,0,0,2.348,2.347Zm19.554-6.56A18.261,18.261,0,1,1,69.074,62.422,18.261,18.261,0,0,1,50.814,44.161Z" transform="translate(-4.183 -2.768)" fill="#db6e5f"/>
      <path id="Trazado_133667" data-name="Trazado 133667" d="M137.163,56.755,114.8,55.169l5.5,6.863L80.985,93.886,58.75,75.3a6.231,6.231,0,0,0-7.91-.068L9.848,108.322l7.827,9.7L54.684,88.141l22.243,18.594a6.227,6.227,0,0,0,7.918.06l43.239-35.038,5.741,7.169Z" transform="translate(-8.614 9.126)" fill="#0089ef"/>
      <g id="Grupo_89133" data-name="Grupo 89133">
        <path id="Trazado_133668" data-name="Trazado 133668" d="M65.176,59.755A19.493,19.493,0,1,0,45.683,40.263,19.513,19.513,0,0,0,65.176,59.755Zm0-36.521A17.028,17.028,0,1,1,48.148,40.263,17.047,17.047,0,0,1,65.176,23.235Z" transform="translate(-0.285 1.13)" fill="#3a2c60"/>
        <path id="Trazado_133669" data-name="Trazado 133669" d="M31.492,52.185H36.17a33.675,33.675,0,0,0,4.2,10.123l-3.313,3.313a3.582,3.582,0,0,0,0,5.062l5.959,5.959a3.58,3.58,0,0,0,5.06,0l3.314-3.314a33.618,33.618,0,0,0,10.122,4.2v4.68a3.583,3.583,0,0,0,3.579,3.579h8.427A3.582,3.582,0,0,0,77.1,82.207v-4.68a33.656,33.656,0,0,0,10.123-4.2l3.313,3.315a3.588,3.588,0,0,0,5.062,0l5.96-5.959a3.587,3.587,0,0,0,0-5.062l-3.314-3.313a33.624,33.624,0,0,0,4.2-10.123h4.68a3.582,3.582,0,0,0,3.579-3.578V40.18a3.583,3.583,0,0,0-3.579-3.579h-4.68a33.649,33.649,0,0,0-4.2-10.122l3.314-3.314a3.582,3.582,0,0,0,0-5.06l-5.959-5.959a3.582,3.582,0,0,0-5.062,0L87.22,15.459A33.635,33.635,0,0,0,77.1,11.26V6.579A3.581,3.581,0,0,0,73.52,3H65.093a3.583,3.583,0,0,0-3.579,3.579v4.68a33.646,33.646,0,0,0-10.122,4.2l-3.313-3.313a3.663,3.663,0,0,0-5.062,0L37.059,18.1a3.576,3.576,0,0,0,0,5.063l3.313,3.314a33.615,33.615,0,0,0-4.2,10.122h-4.68a3.583,3.583,0,0,0-3.579,3.579v8.427a3.581,3.581,0,0,0,3.578,3.578ZM30.378,40.18a1.115,1.115,0,0,1,1.114-1.114h5.672a1.231,1.231,0,0,0,1.208-.987,31.249,31.249,0,0,1,4.6-11.089,1.232,1.232,0,0,0-.157-1.552L38.8,21.42a1.11,1.11,0,0,1,0-1.575l5.96-5.959a1.137,1.137,0,0,1,1.574,0L50.349,17.9a1.232,1.232,0,0,0,1.552.157,31.249,31.249,0,0,1,11.089-4.6,1.233,1.233,0,0,0,.987-1.208V6.579a1.116,1.116,0,0,1,1.115-1.114H73.52a1.114,1.114,0,0,1,1.113,1.114v5.672a1.231,1.231,0,0,0,.987,1.208,31.246,31.246,0,0,1,11.091,4.6,1.232,1.232,0,0,0,1.552-.157l4.015-4.015a1.117,1.117,0,0,1,1.576,0l5.959,5.959a1.114,1.114,0,0,1,0,1.576L95.8,25.438a1.233,1.233,0,0,0-.157,1.553,31.2,31.2,0,0,1,4.6,11.088,1.233,1.233,0,0,0,1.208.987h5.672a1.115,1.115,0,0,1,1.114,1.114v8.427a1.114,1.114,0,0,1-1.114,1.113h-5.672a1.231,1.231,0,0,0-1.208.987A31.21,31.21,0,0,1,95.64,61.8,1.234,1.234,0,0,0,95.8,63.35l4.015,4.015a1.116,1.116,0,0,1,0,1.576L93.854,74.9a1.115,1.115,0,0,1-1.576,0l-4.015-4.016a1.235,1.235,0,0,0-1.553-.157,31.21,31.21,0,0,1-11.089,4.6,1.233,1.233,0,0,0-.987,1.208v5.672a1.114,1.114,0,0,1-1.113,1.114H65.093a1.115,1.115,0,0,1-1.114-1.114V76.535a1.231,1.231,0,0,0-.987-1.208,31.2,31.2,0,0,1-11.088-4.6,1.234,1.234,0,0,0-1.553.157L46.334,74.9a1.14,1.14,0,0,1-1.575,0L38.8,68.941a1.115,1.115,0,0,1,0-1.576l4.015-4.015a1.232,1.232,0,0,0,.157-1.552,31.3,31.3,0,0,1-4.6-11.091,1.231,1.231,0,0,0-1.207-.987h-5.67a1.114,1.114,0,0,1-1.114-1.113V40.18Z" transform="translate(-4.415 -3)" fill="#3a2c60"/>
        <path id="Trazado_133670" data-name="Trazado 133670" d="M138.358,56.217a1.227,1.227,0,0,0-.875-.458l-22.366-1.586a1.232,1.232,0,0,0-1.049,2l4.731,5.907L81.23,92.522,59.772,74.584A7.485,7.485,0,0,0,50.3,74.5L38.184,84.283A1.232,1.232,0,0,0,39.732,86.2L51.846,76.42a5.009,5.009,0,0,1,6.345.055L80.427,95.063a1.237,1.237,0,0,0,1.566.012L121.3,63.222a1.233,1.233,0,0,0,.185-1.728l-3.735-4.665,18.225,1.293-2.72,18.067-3.98-4.969a1.233,1.233,0,0,0-1.738-.187L84.3,106.073a5,5,0,0,1-6.352-.051L55.708,87.428a1.235,1.235,0,0,0-1.565-.014l-36.049,29.1-6.28-7.779L25.355,97.807a1.232,1.232,0,0,0-1.548-1.918L9.305,107.6a1.232,1.232,0,0,0-.185,1.733l7.828,9.7a1.232,1.232,0,0,0,1.733.185l9.162-7.4V131.6a3.7,3.7,0,0,0,3.7,3.7h88.748a3.7,3.7,0,0,0,3.7-3.7V77.087l4.143-3.358,4.965,6.2a1.232,1.232,0,0,0,2.18-.587l3.339-22.171a1.232,1.232,0,0,0-.256-.954ZM108.574,89.577v43.26H97.482V98.565Zm-22.72,18.411,9.163-7.425v32.274H83.925V109.093A7.389,7.389,0,0,0,85.854,107.988Zm-4.394,1.632v23.217H70.369V102.9l6,5.016A7.426,7.426,0,0,0,81.461,109.62ZM56.812,91.564,67.9,100.837v32H56.812ZM54.347,90.42v42.417H43.255V99.373ZM30.309,131.6V109.825l10.482-8.462v31.473H31.541A1.233,1.233,0,0,1,30.309,131.6Zm91.212,0a1.233,1.233,0,0,1-1.232,1.232h-9.251V87.579l10.483-8.5Z" transform="translate(-8.847 8.893)" fill="#3a2c60"/>
        <path id="Trazado_133671" data-name="Trazado 133671" d="M24.637,89.13a1.222,1.222,0,0,0,.773-.274l7.334-5.922A1.232,1.232,0,1,0,31.2,81.017l-7.334,5.922a1.232,1.232,0,0,0,.775,2.191Z" transform="translate(-5.464 15.07)" fill="#3a2c60"/>
      </g>
    </g>
  </g>
</svg>
