<svg xmlns="http://www.w3.org/2000/svg" width="150.785" height="138.063" viewBox="0 0 150.785 138.063">
  <g id="intimidacion" transform="translate(-7.82 -17.939)">
    <path id="Trazado_133625" data-name="Trazado 133625" d="M94.833,40.3a20.8,20.8,0,1,1,16.488,20.355l-6.152,3.81a2.53,2.53,0,0,1-3.862-2.15v-6.94A20.741,20.741,0,0,1,94.833,40.3Z" transform="translate(-32.427 -0.583)" fill="#63bce7"/>
    <path id="Trazado_133626" data-name="Trazado 133626" d="M106.439,40.287a20.81,20.81,0,0,1,15-19.978,20.438,20.438,0,0,0-4.32-.777,20.8,20.8,0,0,0-15.809,35.83V62.3a2.53,2.53,0,0,0,3.862,2.15l6.152-3.81c.523.11,1.055.194,1.592.265V55.361a20.741,20.741,0,0,1-6.474-15.074Z" transform="translate(-32.427 -0.574)" fill="#6377e7"/>
    <path id="Trazado_133627" data-name="Trazado 133627" d="M129.166,35.777,128.7,46.552a2.414,2.414,0,0,1-4.823,0l-.463-10.775a2.414,2.414,0,0,1,2.411-2.517h.925a2.414,2.414,0,0,1,2.412,2.518Zm-.019,18.116v.627a2.414,2.414,0,0,1-2.416,2.415h-.851a2.414,2.414,0,0,1-2.414-2.414v-.627a2.414,2.414,0,0,1,2.414-2.414h.851A2.414,2.414,0,0,1,129.146,53.893Z" transform="translate(-43.079 -5.709)" fill="#3f3679"/>
    <rect id="Rectángulo_26242" data-name="Rectángulo 26242" width="10.932" height="20.706" rx="5.466" transform="translate(30.883 65.047)" fill="#dbbe36"/>
    <rect id="Rectángulo_26243" data-name="Rectángulo 26243" width="29.405" height="33.556" rx="14.702" transform="translate(25.946 41.584)" fill="#dbbe36"/>
    <path id="Trazado_133628" data-name="Trazado 133628" d="M48.32,74.793V70.026a14.4,14.4,0,0,1,8.9-13.308,14.346,14.346,0,0,0-5.5-1.087h-.619A14.393,14.393,0,0,0,36.714,70.023v4.768A14.393,14.393,0,0,0,51.107,89.185h.619A14.346,14.346,0,0,0,57.22,88.1a14.4,14.4,0,0,1-8.9-13.3Z" transform="translate(-10.768 -14.047)" fill="#e3d595"/>
    <path id="Trazado_133629" data-name="Trazado 133629" d="M36.139,117.513h7.818a16.99,16.99,0,0,1,16.99,16.992v50.782h-41.8V134.505a16.991,16.991,0,0,1,16.992-16.992Z" transform="translate(-4.222 -37.108)" fill="#707070"/>
    <path id="Trazado_133630" data-name="Trazado 133630" d="M45.851,117.62a17.161,17.161,0,0,0-1.894-.108H36.139a16.99,16.99,0,0,0-16.99,16.993v50.782H30.755V134.505a16.991,16.991,0,0,1,15.1-16.885Z" transform="translate(-4.222 -37.108)" fill="#5b5b5b"/>
    <path id="Trazado_133631" data-name="Trazado 133631" d="M93.281,161.581H65.856a7.716,7.716,0,0,1-4.427-1.4l-19-13.311a7.717,7.717,0,0,1,8.855-12.641L68.29,146.148H93.281a7.716,7.716,0,0,1,0,15.432Z" transform="translate(-11.67 -42.819)" fill="#cecece"/>
    <path id="Trazado_133632" data-name="Trazado 133632" d="M136.1,154.056h-16.21v15.432h3.487a7.7,7.7,0,0,0,7.519-9.43H136.1a3,3,0,1,0,0-6Z" transform="translate(-41.765 -50.726)" fill="#dbbe36"/>
    <rect id="Rectángulo_26244" data-name="Rectángulo 26244" width="10.932" height="20.706" rx="5.466" transform="translate(135.542 85.753) rotate(180)" fill="#f8d323"/>
    <rect id="Rectángulo_26245" data-name="Rectángulo 26245" width="29.405" height="33.556" rx="14.702" transform="matrix(-0.979, 0.201, -0.201, -0.979, 142.648, 72.582)" fill="#dbbe36"/>
    <path id="Trazado_133633" data-name="Trazado 133633" d="M192.546,75.36l-.961-4.672a14.4,14.4,0,0,0-11.4-11.239,14.347,14.347,0,0,1,5.162-2.172l.606-.125a14.393,14.393,0,0,1,17,11.2l.961,4.672a14.393,14.393,0,0,1-11.2,17l-.606.125a14.346,14.346,0,0,1-5.6.041,14.4,14.4,0,0,0,6.034-14.829Z" transform="translate(-64.236 -14.502)" fill="#f8d323"/>
    <path id="Trazado_133634" data-name="Trazado 133634" d="M0,0H41.8V50.782a16.99,16.99,0,0,1-16.99,16.99H16.99A16.99,16.99,0,0,1,0,50.782V0Z" transform="translate(151.498 148.177) rotate(180)" fill="#707070"/>
    <path id="Trazado_133635" data-name="Trazado 133635" d="M194.287,117.62a17.16,17.16,0,0,1,1.894-.108H204a16.99,16.99,0,0,1,16.99,16.993v50.782H209.383V134.505a16.991,16.991,0,0,0-15.1-16.885Z" transform="translate(-69.49 -37.108)" fill="#9e9e9e"/>
    <path id="Trazado_133636" data-name="Trazado 133636" d="M170.78,183.268,187.7,161.685a7.716,7.716,0,0,0,1.631-4.346l1.248-23.167a7.717,7.717,0,0,0-15.411-.831l-1.118,20.738-15.419,19.668a7.717,7.717,0,0,0,12.146,9.522Z" transform="translate(-55.591 -40.286)" fill="#cecece"/>
    <path id="Trazado_133637" data-name="Trazado 133637" d="M158.635,200.456l2.151-2.744,12.144,9.522-2.151,2.744a7.717,7.717,0,0,1-12.146-9.522Z" transform="translate(-55.591 -66.996)" fill="#dbbe36"/>
    <g id="Grupo_89116" data-name="Grupo 89116" transform="translate(7.82 17.939)">
      <path id="Trazado_133638" data-name="Trazado 133638" d="M20.056,235.019H8.764a.941.941,0,1,0,0,1.882H20.056a.941.941,0,1,0,0-1.882Z" transform="translate(-7.821 -98.839)" fill="#12263f"/>
      <path id="Trazado_133639" data-name="Trazado 133639" d="M239.413,235.019H228.121a.941.941,0,1,0,0,1.882h11.292a.941.941,0,1,0,0-1.882Z" transform="translate(-89.569 -98.839)" fill="#12263f"/>
      <path id="Trazado_133640" data-name="Trazado 133640" d="M150.482,235.019H36.962a.941.941,0,1,0,0,1.882h113.52a.941.941,0,1,0,0-1.882Z" transform="translate(-18.33 -98.839)" fill="#12263f"/>
      <path id="Trazado_133641" data-name="Trazado 133641" d="M8.761,162.605h148.9a.941.941,0,1,0,0-1.882H152.44V110.885a17.955,17.955,0,0,0-15.957-17.82V85.7a15.5,15.5,0,0,0,1.9-2.353A15.233,15.233,0,0,0,140.6,71.817l-.96-4.671a15.333,15.333,0,0,0-18.11-11.931l-.605.125A15.333,15.333,0,0,0,109,73.45l.961,4.672a15.361,15.361,0,0,0,13.712,12.187v2.9a17.957,17.957,0,0,0-14.91,17.676v27.25l-6.456,8.232a8.651,8.651,0,0,0,6.456,13.989v.37H57.666V133.19H81.611a8.667,8.667,0,0,0,8.657-8.657q0-.383-.037-.773h4.1a3.942,3.942,0,0,0,0-7.884H57.666v-4.992a17.957,17.957,0,0,0-14.91-17.674V89.46A15.354,15.354,0,0,0,56.293,74.234V69.466A15.351,15.351,0,0,0,40.959,54.13H40.34A15.351,15.351,0,0,0,25.006,69.464v4.768A15.294,15.294,0,0,0,29.942,85.49v7.572a17.955,17.955,0,0,0-15.957,17.822v49.841H8.761a.941.941,0,1,0,0,1.882ZM111.8,77.742l-.96-4.671A13.452,13.452,0,0,1,121.3,57.185l.605-.125A13.428,13.428,0,0,1,137.8,67.526l.961,4.672A13.452,13.452,0,0,1,128.29,88.084l-.606.125A13.466,13.466,0,0,1,111.8,77.742Zm13.754,12.609a15.363,15.363,0,0,0,2.509-.3l.606-.125A15.269,15.269,0,0,0,134.6,87.3v5.657H126.69c-.383,0-.762.016-1.139.04Zm-8.37,62.051-10.665-8.36L119.2,127.857a.941.941,0,0,0,.2-.53l1.117-20.738a6.775,6.775,0,0,1,6.757-6.412c.125,0,.251,0,.373.011a6.775,6.775,0,0,1,6.4,7.13L132.8,130.485a6.736,6.736,0,0,1-1.433,3.816Zm-14.791.119a6.731,6.731,0,0,1,1.395-4.995l1.568-2,10.665,8.36-1.568,2a6.775,6.775,0,0,1-12.059-3.366Zm8.251,7.7a8.589,8.589,0,0,0,5.29-3.171l16.92-21.583a8.615,8.615,0,0,0,1.832-4.876l1.248-23.167a8.658,8.658,0,1,0-17.29-.932l-1.1,20.442-6.9,8.8V110.885a16.067,16.067,0,0,1,16.049-16.049H134.5a16.067,16.067,0,0,1,16.053,16.049v49.841H110.641ZM56.08,117.588a.941.941,0,0,0,.54.17H77.183v13.55h-23a6.746,6.746,0,0,1-3.889-1.226l-19-13.311a6.776,6.776,0,1,1,7.775-11.1Zm22.986.17H94.334a2.06,2.06,0,1,1,0,4.12H89.128a.941.941,0,0,0-.918,1.15,6.754,6.754,0,0,1-6.6,8.281H79.066ZM26.888,74.234V69.466A13.468,13.468,0,0,1,40.34,56.012h.619A13.468,13.468,0,0,1,54.411,69.464v4.768A13.468,13.468,0,0,1,40.959,87.685H40.34A13.467,13.467,0,0,1,26.888,74.234ZM31.824,86.98a15.244,15.244,0,0,0,8.515,2.589h.534v3.422c-.376-.024-.756-.04-1.139-.04H31.824ZM15.867,110.885a16.067,16.067,0,0,1,16.05-16.049h7.818a16.067,16.067,0,0,1,16.049,16.049v4.2L40.149,104.131a8.657,8.657,0,0,0-9.934,14.181l19,13.311a8.618,8.618,0,0,0,4.967,1.568h1.6v27.533H15.867Z" transform="translate(-7.82 -31.427)" fill="#12263f"/>
      <path id="Trazado_133642" data-name="Trazado 133642" d="M99.807,61.727a3.471,3.471,0,0,0,5.3,2.951l5.834-3.615A21.75,21.75,0,1,0,93.333,39.713a21.542,21.542,0,0,0,6.474,15.473ZM95.215,39.713a19.937,19.937,0,0,1,6.315-14.525,19.673,19.673,0,0,1,13.536-5.341q.71,0,1.426.049a19.866,19.866,0,1,1-5.535,39.251.947.947,0,0,0-.69.12l-6.152,3.81a1.59,1.59,0,0,1-2.426-1.351V54.788a.941.941,0,0,0-.293-.682,19.688,19.688,0,0,1-6.182-14.393Z" transform="translate(-39.688 -17.939)" fill="#12263f"/>
    </g>
  </g>
</svg>
