<svg xmlns="http://www.w3.org/2000/svg" width="88.787" height="79.733" viewBox="0 0 88.787 79.733">
  <g id="peligro" transform="translate(-10.085 -34.163)">
    <path id="Trazado_133859" data-name="Trazado 133859" d="M101.433,104.449a9.519,9.519,0,0,1-8.243,14.278H25.606a9.519,9.519,0,0,1-8.243-14.278L51.156,45.92a9.516,9.516,0,0,1,16.485,0Z" transform="translate(-4.92 -5.733)" fill="#4689d3"/>
    <path id="Trazado_133860" data-name="Trazado 133860" d="M122,132.67a3.918,3.918,0,0,1-3.394,5.878H51.019a3.918,3.918,0,0,1-3.394-5.878L81.418,74.139a3.92,3.92,0,0,1,6.788,0Z" transform="translate(-30.334 -31.154)" fill="#dbbe36"/>
    <path id="Trazado_133861" data-name="Trazado 133861" d="M246.416,346.708v1.805a2.708,2.708,0,0,1-5.416,0v-1.805a2.708,2.708,0,1,1,5.416,0Z" transform="translate(-189.23 -253.904)" fill="#4689d3"/>
    <path id="Trazado_133862" data-name="Trazado 133862" d="M246.416,177.708v20.76a2.708,2.708,0,1,1-5.416,0v-20.76a2.708,2.708,0,0,1,5.416,0Z" transform="translate(-189.23 -115.413)" fill="#4689d3"/>
    <path id="Trazado_133863" data-name="Trazado 133863" d="M53.042,136.589a3.874,3.874,0,0,1,0-3.919L86.834,74.138a3.966,3.966,0,0,1,.686-.876,3.923,3.923,0,0,0-6.1.876L47.626,132.67a3.918,3.918,0,0,0,3.394,5.878h5.416A3.879,3.879,0,0,1,53.042,136.589Z" transform="translate(-30.334 -31.154)" fill="#fff3bc"/>
    <g id="Grupo_89290" data-name="Grupo 89290" transform="translate(10.085 34.163)">
      <path id="Trazado_133864" data-name="Trazado 133864" d="M238.791,196.342a3.8,3.8,0,0,0,3.791-3.791v-20.76a3.791,3.791,0,0,0-7.582,0v20.76A3.8,3.8,0,0,0,238.791,196.342Zm-1.625-24.551a1.625,1.625,0,0,1,3.249,0v20.76a1.625,1.625,0,1,1-3.249,0Z" transform="translate(-194.397 -143.839)" fill="#284268"/>
      <path id="Trazado_133865" data-name="Trazado 133865" d="M235,342.6a3.791,3.791,0,1,0,7.582,0v-1.805a3.791,3.791,0,0,0-7.582,0Zm2.166-1.805a1.625,1.625,0,0,1,3.249,0V342.6a1.625,1.625,0,1,1-3.249,0Z" transform="translate(-194.397 -282.331)" fill="#284268"/>
      <path id="Trazado_133866" data-name="Trazado 133866" d="M63.659,39.464a10.6,10.6,0,0,0-18.362,0L11.5,97.994a10.6,10.6,0,0,0,9.181,15.9H88.27a10.6,10.6,0,0,0,9.181-15.9Zm31.917,68.048a8.349,8.349,0,0,1-7.3,4.217H20.686a8.435,8.435,0,0,1-7.3-12.652l33.792-58.53a8.435,8.435,0,0,1,14.61,0l33.792,58.53a8.349,8.349,0,0,1,0,8.435Z" transform="translate(-10.085 -34.163)" fill="#284268"/>
      <path id="Trazado_133867" data-name="Trazado 133867" d="M166.373,185.9a1.083,1.083,0,0,0-1.481.39l-6.307,10.809a1.083,1.083,0,0,0,1.871,1.092l6.307-10.808A1.083,1.083,0,0,0,166.373,185.9Z" transform="translate(-131.655 -158.384)" fill="#284268"/>
      <path id="Trazado_133868" data-name="Trazado 133868" d="M204.667,164.9a1.083,1.083,0,0,0,1.481-.39l.57-.977a1.083,1.083,0,0,0-1.871-1.092l-.57.977A1.083,1.083,0,0,0,204.667,164.9Z" transform="translate(-169.1 -138.843)" fill="#284268"/>
      <path id="Trazado_133869" data-name="Trazado 133869" d="M84.19,67.676a5,5,0,0,0-8.665,0l-33.792,58.53a4.953,4.953,0,0,0,.031,5.055,5.1,5.1,0,0,0,4.4,2.449H57.8a1.083,1.083,0,0,0,0-2.166H46.142a2.912,2.912,0,0,1-2.525-1.4,2.808,2.808,0,0,1-.008-2.851L77.4,68.759a2.836,2.836,0,0,1,4.912,0l33.792,58.53a2.807,2.807,0,0,1-.008,2.851,2.912,2.912,0,0,1-2.524,1.4H66.822a1.083,1.083,0,0,0,0,2.166h46.725a5.1,5.1,0,0,0,4.4-2.449,4.953,4.953,0,0,0,.031-5.055Z" transform="translate(-35.464 -59.576)" fill="#284268"/>
    </g>
  </g>
</svg>
