<svg xmlns="http://www.w3.org/2000/svg" width="92.34" height="90.942" viewBox="0 0 92.34 90.942">
  <g id="objetivo" transform="translate(-0.001 -0.5)">
    <path id="Trazado_133937" data-name="Trazado 133937" d="M152.642,248.042,164.812,236c4.545-4.545,13.288,1.189,8.565,6.746L158.64,260.082a10.338,10.338,0,0,1-1.971,1.789,14.7,14.7,0,0,1-7.993,2.024H126.808a41.042,41.042,0,0,0-4.734.274l-6.29.707-13.046-12.66s7.4-13.976,21.918-9.959a31.261,31.261,0,0,0,8.342,1.11h14.372c6.766,0,6.82,10.751-.056,10.751H134.8" transform="translate(-84.208 -191.678)" fill="#ffcdac"/>
    <path id="Trazado_133938" data-name="Trazado 133938" d="M31.26,344.117l12.411-12.733a.009.009,0,0,0,0-.013l-21.06-20.437a.01.01,0,0,0-.013,0L10.07,323.941Zm0,0" transform="translate(-8.253 -254.445)" fill="#6bd5e1"/>
    <path id="Trazado_133939" data-name="Trazado 133939" d="M60.778,100.317a7.753,7.753,0,0,0-7.012,7.717v8.254a2.581,2.581,0,0,0,2.581,2.581h17.7a2.581,2.581,0,0,0,2.581-2.581v-8.254a7.752,7.752,0,0,0-7.021-7.718" transform="translate(-44.068 -81.814)" fill="#ffb677"/>
    <path id="Trazado_133940" data-name="Trazado 133940" d="M86.447,19.494a8.661,8.661,0,1,1-8.661-8.662A8.661,8.661,0,0,1,86.447,19.494Zm0,0" transform="translate(-56.657 -8.469)" fill="#ffcdac"/>
    <path id="Trazado_133941" data-name="Trazado 133941" d="M187.544,100.317a7.754,7.754,0,0,0-7.013,7.717v8.254a2.582,2.582,0,0,0,2.582,2.581h17.7a2.581,2.581,0,0,0,2.581-2.581v-8.254a7.753,7.753,0,0,0-7.021-7.718" transform="translate(-147.971 -81.814)" fill="#ff8364"/>
    <path id="Trazado_133942" data-name="Trazado 133942" d="M213.214,19.494a8.661,8.661,0,1,1-8.661-8.662A8.661,8.661,0,0,1,213.214,19.494Zm0,0" transform="translate(-160.56 -8.469)" fill="#ffcdac"/>
    <path id="Trazado_133943" data-name="Trazado 133943" d="M314.313,100.317a7.753,7.753,0,0,0-7.013,7.717v8.254a2.582,2.582,0,0,0,2.581,2.581h17.7a2.582,2.582,0,0,0,2.582-2.581v-8.254a7.753,7.753,0,0,0-7.022-7.718" transform="translate(-251.877 -81.814)" fill="#ffd98e"/>
    <path id="Trazado_133944" data-name="Trazado 133944" d="M339.983,19.494a8.661,8.661,0,1,1-8.662-8.662A8.662,8.662,0,0,1,339.983,19.494Zm0,0" transform="translate(-264.467 -8.469)" fill="#ffcdac"/>
    <path id="Trazado_133945" data-name="Trazado 133945" d="M90.16,226.2A8.364,8.364,0,0,0,85,224.034a7.385,7.385,0,0,0-5.674,2.16l-10.267,10.16a6.814,6.814,0,0,0-.695-.991,6.656,6.656,0,0,0-5.2-2.326H48.791a29.479,29.479,0,0,1-7.858-1.044A19.335,19.335,0,0,0,22.9,235.809a26.232,26.232,0,0,0-4.7,5.041l-2.577-2.5a1.832,1.832,0,0,0-1.271-.516H14.34a1.836,1.836,0,0,0-1.3.559L.509,251.4a1.818,1.818,0,0,0,.056,2.576l21.189,20.176a1.816,1.816,0,0,0,2.554-.047L36.719,261.37a1.827,1.827,0,0,0-.036-2.585L35.6,257.737l2.473-.278A39.319,39.319,0,0,1,42.6,257.2H64.469a16.417,16.417,0,0,0,8.971-2.31l.059-.039a12.106,12.106,0,0,0,2.317-2.1l14.737-17.337C93.075,232.44,92.917,228.738,90.16,226.2Zm-67.2,44.087L4.393,252.6l10-10.384,18.458,17.912Zm64.825-37.229L73.048,250.391a8.492,8.492,0,0,1-1.595,1.453,12.918,12.918,0,0,1-6.984,1.72H42.6a42.891,42.891,0,0,0-4.936.286l-5.437.61L20.841,243.413a22.656,22.656,0,0,1,4.353-4.789,15.636,15.636,0,0,1,14.77-3.129,33.108,33.108,0,0,0,8.827,1.176H63.164a3.282,3.282,0,0,1,3.27,3.557,3.934,3.934,0,0,1-.85,2.521,3.087,3.087,0,0,1-2.477,1.039H50.595a1.817,1.817,0,0,0,0,3.633H63.107a6.736,6.736,0,0,0,5.246-2.321,7.46,7.46,0,0,0,1.711-4.629l11.825-11.7a4.252,4.252,0,0,1,5.808.1C88.46,229.571,89.487,231.051,87.785,233.054Zm0,0" transform="translate(0 -183.21)"/>
    <path id="Trazado_133946" data-name="Trazado 133946" d="M232.824,334.624a1.816,1.816,0,1,0-3.537.829l.017.074a1.818,1.818,0,0,0,1.767,1.4,1.84,1.84,0,0,0,.416-.048,1.817,1.817,0,0,0,1.354-2.183Zm0,0" transform="translate(-187.894 -272.714)"/>
    <path id="Trazado_133947" data-name="Trazado 133947" d="M48.09,38.825h17.7a4.371,4.371,0,0,0,2.581-.841,4.371,4.371,0,0,0,2.581.841h17.7a4.371,4.371,0,0,0,2.581-.841,4.371,4.371,0,0,0,2.581.841h17.7a4.4,4.4,0,0,0,4.4-4.4V26.173a9.524,9.524,0,0,0-5.18-8.516,10.478,10.478,0,1,0-16.134,0,9.515,9.515,0,0,0-3.364,2.884,9.5,9.5,0,0,0-3.365-2.884,10.478,10.478,0,1,0-16.134,0,9.5,9.5,0,0,0-3.365,2.884,9.506,9.506,0,0,0-3.365-2.885,10.477,10.477,0,1,0-16.134,0,9.526,9.526,0,0,0-5.181,8.516v8.253A4.4,4.4,0,0,0,48.09,38.825ZM102.666,4.133a6.845,6.845,0,1,1-6.845,6.845A6.853,6.853,0,0,1,102.666,4.133Zm-4.719,16.2a10.441,10.441,0,0,0,9.437,0,5.9,5.9,0,0,1,4.9,5.844v8.254a.766.766,0,0,1-.765.765h-17.7a.766.766,0,0,1-.764-.765V26.173A5.9,5.9,0,0,1,97.946,20.329ZM79.8,4.133a6.845,6.845,0,1,1-6.845,6.845A6.853,6.853,0,0,1,79.8,4.133Zm-4.719,16.2a10.441,10.441,0,0,0,9.437,0,5.9,5.9,0,0,1,4.9,5.844v8.254a.766.766,0,0,1-.765.765h-17.7a.766.766,0,0,1-.765-.765V26.173A5.9,5.9,0,0,1,75.084,20.329ZM56.94,4.133a6.845,6.845,0,1,1-6.845,6.845A6.853,6.853,0,0,1,56.94,4.133Zm-9.615,22.04a5.9,5.9,0,0,1,4.9-5.844,10.441,10.441,0,0,0,9.437,0,5.9,5.9,0,0,1,4.9,5.844v8.254a.766.766,0,0,1-.765.765H48.09a.766.766,0,0,1-.765-.765Zm0,0" transform="translate(-35.81)"/>
  </g>
</svg>
