<svg xmlns="http://www.w3.org/2000/svg" width="493.707" height="427.415" viewBox="0 0 493.707 427.415">
  <g id="Grupo_89150" data-name="Grupo 89150" transform="translate(-24.135 -55.612)">
    <g id="Grupo_89136" data-name="Grupo 89136" transform="translate(24.842 71.04)">
      <path id="Trazado_133673" data-name="Trazado 133673" d="M471.569,298.623c-4.906,105.984-99.193,136.156-216.63,138.426C75.856,440.511,55.013,383.616,55.013,277.516S94.052,61.869,197.569,69.946c49.182,3.838,105,85.351,146.8,112.4C402.094,219.707,475.254,219.009,471.569,298.623Z" transform="translate(-21.557 -69.525)" fill="#eddf9b"/>
      <path id="Trazado_133674" data-name="Trazado 133674" d="M54.555,338.028s37.3-16.275,54.452-69.343,48.241-97.756,107.149-100.757,122.626.688,143.677-30.939-23.939-32.349-24.572,23.14,96.314,157.247,101.384,236.265-60.387,63.334-141.715,31.573-166.223,31.1-219.14,7.589S25.169,361.762,54.555,338.028Z" transform="translate(-23.857 -64.537)" fill="none" stroke="#4570b4" stroke-miterlimit="10" stroke-width="1" opacity="0.42"/>
      <circle id="Elipse_4499" data-name="Elipse 4499" cx="21.391" cy="21.391" r="21.391" transform="translate(17.225 169.21)" fill="#4570b4"/>
      <circle id="Elipse_4500" data-name="Elipse 4500" cx="27.306" cy="27.306" r="27.306" transform="translate(0 190.6) rotate(-45)" fill="none" stroke="#4570b4" stroke-miterlimit="10" stroke-width="1" opacity="0.42"/>
      <circle id="Elipse_4501" data-name="Elipse 4501" cx="24.949" cy="24.949" r="24.949" transform="translate(419.94 179.2)" fill="#4570b4"/>
      <path id="Trazado_133675" data-name="Trazado 133675" d="M269.567,192.944l-6.735,10.693h14.339Z" transform="translate(1.07 -56.087)" fill="none" stroke="#4570b4" stroke-miterlimit="10" stroke-width="1" opacity="0.42"/>
      <path id="Trazado_133676" data-name="Trazado 133676" d="M184.134,103.152l-9,14.284h19.154Z" transform="translate(-8.478 -65.864)" fill="#4570b4" opacity="0.42"/>
      <g id="Grupo_89135" data-name="Grupo 89135" transform="translate(217.07 14.113)">
        <circle id="Elipse_4502" data-name="Elipse 4502" cx="26.016" cy="26.016" r="26.016" fill="#dbbe36"/>
        <path id="Trazado_133677" data-name="Trazado 133677" d="M244.755,104.445l-1.463-2.8a3.674,3.674,0,0,1,1.554-4.957h0a2.5,2.5,0,0,0,1.059-3.378l-2.189-4.187a2.5,2.5,0,0,0-3.378-1.059l-1.905,1a9.856,9.856,0,0,0-4.19,4.207l-.557,1.076a6.409,6.409,0,0,0,.012,5.915l4.091,7.826,2.73,5.225,4.091,7.826a6.409,6.409,0,0,0,4.849,3.387l1.2.157a9.865,9.865,0,0,0,5.846-1.038l1.905-1a2.5,2.5,0,0,0,1.059-3.378l-2.189-4.188a2.5,2.5,0,0,0-3.378-1.059h0a3.672,3.672,0,0,1-4.956-1.554l-1.463-2.8Z" transform="translate(-219.251 -81.65)" fill="#fff"/>
      </g>
      <path id="Trazado_133678" data-name="Trazado 133678" d="M416.727,370.872a5.386,5.386,0,1,1-5.386-5.386A5.387,5.387,0,0,1,416.727,370.872Z" transform="translate(16.654 -37.301)" fill="none" stroke="#4570b4" stroke-miterlimit="10" stroke-width="1" opacity="0.42"/>
      <circle id="Elipse_4503" data-name="Elipse 4503" cx="9.956" cy="9.956" r="9.956" transform="translate(101.43 28.779)" fill="#fff" opacity="0.42"/>
      <circle id="Elipse_4504" data-name="Elipse 4504" cx="9.956" cy="9.956" r="9.956" transform="translate(373.251 167.137)" fill="none" stroke="#4570b4" stroke-miterlimit="10" stroke-width="1" opacity="0.42"/>
      <circle id="Elipse_4505" data-name="Elipse 4505" cx="9.704" cy="9.704" r="9.704" transform="translate(60.016 224.369)" fill="#4570b4" opacity="0.42"/>
      <circle id="Elipse_4506" data-name="Elipse 4506" cx="17.21" cy="17.21" r="17.21" transform="translate(427.679 186.939)" fill="none" stroke="#fff" stroke-miterlimit="10" stroke-width="1" opacity="0.42"/>
    </g>
    <g id="Grupo_89140" data-name="Grupo 89140" transform="translate(326.606 55.612)">
      <path id="Trazado_133679" data-name="Trazado 133679" d="M425.473,106.616H306.2a9.226,9.226,0,0,0-9.226,9.227v72.045a9.226,9.226,0,0,0,9.226,9.226h76.064v18.163a3.576,3.576,0,0,0,5.878,2.736l24.831-20.9h12.5a9.226,9.226,0,0,0,9.227-9.226V115.843A9.226,9.226,0,0,0,425.473,106.616Z" transform="translate(-296.976 -50.058)" fill="#4570b4" opacity="0.42"/>
      <g id="Grupo_89137" data-name="Grupo 89137" transform="translate(52.163 11.33)">
        <path id="Trazado_133680" data-name="Trazado 133680" d="M450.559,120.042a54.5,54.5,0,0,1-8.427,29.23c-.843,1.353-1.752,2.672-2.717,3.937a52.871,52.871,0,0,1-42.126,21.035,52.179,52.179,0,0,1-24.4-6.01,54.708,54.708,0,0,1-28.4-55.433c3.471-26.513,25.793-46.972,52.795-46.972C426.706,65.829,450.559,90.1,450.559,120.042Z" transform="translate(-344.017 -65.829)" fill="#dbbe36"/>
        <path id="Trazado_133681" data-name="Trazado 133681" d="M436.58,145.045a52.868,52.868,0,0,1-42.126,21.035,52.182,52.182,0,0,1-24.4-6.01c1-2.495,4.058-9.115,9.481-12.819,6.764-4.635,27.323-7.418,41.583-6.2C429.538,141.763,434.185,143.637,436.58,145.045Z" transform="translate(-341.182 -57.67)" fill="#db6e5f"/>
        <path id="Trazado_133682" data-name="Trazado 133682" d="M370.422,90.749l.558,26.47s.839,27.042,22.849,26.563S420.486,109.9,420.486,109.9l-3.462-20.268S391.3,72.46,370.422,90.749Z" transform="translate(-341.142 -64.034)" fill="#fff"/>
        <path id="Trazado_133683" data-name="Trazado 133683" d="M391.8,132.853s1.634,10.235-.833,13.582,4.9,14.975,4.9,14.975l17.04-15.633a195.8,195.8,0,0,1-.824-21.5Z" transform="translate(-338.961 -59.465)" fill="#fff"/>
        <path id="Trazado_133684" data-name="Trazado 133684" d="M371.52,97.412a37.877,37.877,0,0,0,13.106,1.423c6.772-.594,9.148-3.327,9.148-3.327a16.633,16.633,0,0,0,5.94.95,12.849,12.849,0,0,0,6.415-1.782,15.146,15.146,0,0,0-1.425,9.742c1.069,5.466,4.633,6.892,4.633,6.892s2.258-5.466,6.179-5.466,5.347,4.158,4.337,9.624-7.307,6.772-7.307,6.772l2.685,7.191s10.147-10.875,11.335-22.874-4.871-15.564-4.871-15.564.507-8.911-11.39-12-19.737-2.852-28.648,2.257c0,0-7.485-5.7-13.782-2.257s-4.514,10.812-1.425,12.712c0,0-6.06,1.545-4.753,9.03s10.041,6.9,10.041,6.9Z" transform="translate(-342.112 -64.615)" fill="#00496a"/>
        <path id="Trazado_133685" data-name="Trazado 133685" d="M391.53,139.213s16-4.233,17.579-14.933c0,0,3.969,15.514-17.579,20.783C391.53,145.063,392.168,140.453,391.53,139.213Z" transform="translate(-338.844 -59.465)" fill="#d9d9d9"/>
      </g>
      <g id="Grupo_89139" data-name="Grupo 89139" transform="translate(134.032)">
        <circle id="Elipse_4507" data-name="Elipse 4507" cx="24.91" cy="24.91" r="24.91" transform="matrix(0.161, -0.987, 0.987, 0.161, 0, 49.167)" fill="#4570b4"/>
        <g id="Grupo_89138" data-name="Grupo 89138" transform="translate(21.778 13.292)">
          <path id="Trazado_133686" data-name="Trazado 133686" d="M441.5,89.615l-.089-1.159c-.267-2.406.536-5.035,2.763-7.71,2-2.362,3.119-4.1,3.119-6.106,0-2.273-1.426-3.788-4.233-3.833a7.927,7.927,0,0,0-4.5,1.382l-1.07-2.808A11.688,11.688,0,0,1,443.86,67.6c5.125,0,7.443,3.164,7.443,6.551,0,3.031-1.693,5.214-3.832,7.754-1.96,2.318-2.673,4.278-2.54,6.551l.044,1.159Zm-.979,6.24a2.634,2.634,0,0,1,2.673-2.808,2.789,2.789,0,1,1-2.673,2.808Z" transform="translate(-437.487 -67.599)" fill="#fff"/>
        </g>
      </g>
    </g>
    <g id="Grupo_89149" data-name="Grupo 89149" transform="translate(78.736 142.249)">
      <g id="Grupo_89144" data-name="Grupo 89144">
        <g id="Grupo_89142" data-name="Grupo 89142" transform="translate(53.193 19.651)">
          <path id="Trazado_133687" data-name="Trazado 133687" d="M432.821,346.343a2.34,2.34,0,0,1-.3.637q-3.155,4.574-6.668,8.874h-.01c-76.108,93.53-271.841,93.53-271.841,93.53V337.751H432.524S433.595,343.829,432.821,346.343Z" transform="translate(-117.865 -131.18)" fill="#a6d6f7"/>
          <path id="Trazado_133688" data-name="Trazado 133688" d="M432.821,345.5a2.34,2.34,0,0,1-.3.637q-3.155,4.574-6.668,8.874h-.01L154.005,385.944V345.5Z" transform="translate(-117.865 -130.337)" fill="#8cc6e5"/>
          <path id="Trazado_133689" data-name="Trazado 133689" d="M272.412,271.5l-13.473,14.282a85.791,85.791,0,0,1-6.066-7.186,78.944,78.944,0,0,1-4.835-7.141,46.248,46.248,0,0,1-4.946-10.989c-3.548-12.7-2.1-39.476-2.1-39.476s5.744.621,7.707,2.805C259.759,236.1,272.412,271.5,272.412,271.5Z" transform="translate(-108.425 -143.893)" fill="#db6e5f"/>
          <path id="Trazado_133690" data-name="Trazado 133690" d="M233.974,318.615H137.5l-8.811-74.185a15.511,15.511,0,0,1,13.246-17.305l5.8-.757,73.717-9.581Z" transform="translate(-120.634 -144.351)" fill="#4570b4"/>
          <path id="Trazado_133691" data-name="Trazado 133691" d="M205.643,219.07s-31.395,10.1-33.1,12.691,13.04,48.606,13.04,48.606l-2.835,38.077h63.924l3.221-36.337a33.118,33.118,0,0,0,7.266-19.912c.426-12.4-8.736-40.918-8.736-40.918l-22.3-2.929Z" transform="translate(-115.861 -144.181)" fill="#db6e5f"/>
          <path id="Trazado_133692" data-name="Trazado 133692" d="M214.823,154.745s-21.884-9.409-37.418,12.545.553,56.47.553,56.47,39.638-5.175,50.61-6.233,13.192-1.058,13.192-1.058,5.652-34.674-6.412-47.422S214.823,154.745,214.823,154.745Z" transform="translate(-116.054 -151.324)" fill="#00496a"/>
          <path id="Trazado_133693" data-name="Trazado 133693" d="M219.641,234.513l-18.473-12.663a29.4,29.4,0,0,0,1.141-9.692,15.224,15.224,0,0,0-.576-3.171,12.193,12.193,0,0,0-.566-1.5l18.473-.92s.123,1.5.467,3.426a25.826,25.826,0,0,0,1.308,4.824,8.419,8.419,0,0,0,1.684,2.85C225.929,220.541,219.641,234.513,219.641,234.513Z" transform="translate(-112.73 -145.463)" fill="#fff"/>
          <path id="Trazado_133694" data-name="Trazado 133694" d="M221.361,214.582c-2.373.078-12.564.233-19.107-2.661a15.224,15.224,0,0,0-.576-3.171s12.453,1.519,18.374,1.009A25.827,25.827,0,0,0,221.361,214.582Z" transform="translate(-112.674 -145.226)" fill="#d9d9d9"/>
          <path id="Trazado_133695" data-name="Trazado 133695" d="M231.6,162.592l3.079,25.46s4.037,26.235-17.133,28.781-28.288-21.926-28.288-21.926l-2.5-27.027S209.085,147.9,231.6,162.592Z" transform="translate(-114.299 -150.839)" fill="#fff"/>
          <path id="Trazado_133696" data-name="Trazado 133696" d="M222.2,165.052s-2.77,6.812-11.878,11.643a55.592,55.592,0,0,1-15.652,5.466s-1.215,7.17-5.3,11.67c0,0-7.072-13.42-4.186-24.975s17.8-17.137,30.89-15.961,17.8,5.974,19.535,13.612-1.168,17.945-1.168,17.945S231.658,167.428,222.2,165.052Z" transform="translate(-114.546 -151.324)" fill="#00496a"/>
          <path id="Trazado_133697" data-name="Trazado 133697" d="M187.106,188.357s-2.521-19.362,12.414-29.644c9.726-6.7,21.964-4.913,21.964-4.913s-7.721-5.812-22.926.9-15.975,21.883-14.434,33.659Z" transform="translate(-114.646 -151.463)" fill="#68a8de"/>
          <path id="Trazado_133698" data-name="Trazado 133698" d="M159.5,317.674H137.5l-8.811-74.185a15.511,15.511,0,0,1,13.246-17.305l5.8-.757Z" transform="translate(-120.634 -143.41)" fill="#375c93"/>
          <g id="Grupo_89141" data-name="Grupo 89141" transform="translate(75.178 52.505)">
            <path id="Trazado_133699" data-name="Trazado 133699" d="M207.142,207.638c-10.1,0-17.6-7.03-17.932-7.351l1.356-1.474c.081.078,8.276,7.729,18.519,6.71l.194,2.009C208.556,207.6,207.843,207.638,207.142,207.638Z" transform="translate(-189.21 -198.813)" fill="#375c93"/>
          </g>
          <path id="Trazado_133700" data-name="Trazado 133700" d="M464.8,350.521H162.1a28.835,28.835,0,0,1-21.2-9.186l-16.624-18.028c-6.449-6.995-1.315-18.074,8.375-18.074h295.5a40.117,40.117,0,0,1,27.373,10.7l17.061,15.935C479.85,338.644,474.886,350.521,464.8,350.521Z" transform="translate(-121.414 -134.721)" fill="#68a8de"/>
          <path id="Trazado_133701" data-name="Trazado 133701" d="M312.477,225.779c-.544.3-1.4.8-2.331,1.353l-.18-.289c2.768-1.764,6.868-4.519,6.591-5.193-.416-1.01-2.495-.482-4.04.357-.892.483-2.51,1.447-4.071,2.39l-.113-.182c2.746-1.736,7.329-4.765,7.036-5.476-.416-1.01-2.495-.482-4.04.357-.979.531-2.83,1.638-4.521,2.662l-.132-.213c2.726-1.758,6.277-4.2,6.019-4.826-.416-1.01-2.495-.482-4.04.356-2.082,1.131-8.129,4.871-8.13,4.871l-4.4,1.6c.95-1.544,3.623-7.247,2.375-7.247s-4.693,3.98-6.118,8.078a21.98,21.98,0,0,0-1.2,6.987l-38.6,49.046s.915,1.436,2.3,3.346c4,5.539,13.329,6.756,18.712,2.546,4.253-3.326,7.61-7.718,10.9-12.2,6.194-8.454,15.431-30.879,17.6-36.248l8.736-8.188c2.393-1.547,5.446-3.654,5.221-4.2C315.677,224.572,313.841,225.038,312.477,225.779Z" transform="translate(-107.132 -144.418)" fill="#fff"/>
          <path id="Trazado_133702" data-name="Trazado 133702" d="M217.642,316.344s4.515,3.327,6.3,7.842-9.624,7.422-28.663.957C181.423,320.439,204.811,306.008,217.642,316.344Z" transform="translate(-113.834 -133.908)" fill="#00496a"/>
          <path id="Trazado_133703" data-name="Trazado 133703" d="M208.975,208.35h-2.55a1.662,1.662,0,0,1-1.648-1.677V205.1a1.661,1.661,0,0,1,1.648-1.676h2.55a1.661,1.661,0,0,1,1.648,1.676v1.569A1.662,1.662,0,0,1,208.975,208.35Z" transform="translate(-112.337 -145.805)" fill="#00496a"/>
          <path id="Trazado_133704" data-name="Trazado 133704" d="M198.738,190.967c1.412,7.056-2.261,13.773-8.2,15s-11.9-3.492-13.312-10.547,2.261-13.773,8.2-15S197.327,183.912,198.738,190.967Z" transform="translate(-115.37 -148.332)" fill="#4570b4"/>
          <path id="Trazado_133705" data-name="Trazado 133705" d="M192.461,191.652c.833,4.163-1.334,8.125-4.839,8.851s-7.02-2.06-7.852-6.222,1.333-8.125,4.838-8.85S191.628,187.49,192.461,191.652Z" transform="translate(-115.079 -147.777)" fill="#68a8de"/>
          <path id="Trazado_133706" data-name="Trazado 133706" d="M180.655,227.94s-5.393.808-7.58,4.291c-9.376,14.928-27.639,60.576-27.639,60.576l17.61,7.789s23.152-26.826,25.278-39.59S180.655,227.94,180.655,227.94Z" transform="translate(-118.798 -143.136)" fill="#db6e5f"/>
          <path id="Trazado_133707" data-name="Trazado 133707" d="M161.531,290.336l36.143,23.509-5.1,11.322s-32.529-11.682-42.521-19.255-4.465-19.471-4.465-19.471S151.114,285.792,161.531,290.336Z" transform="translate(-118.948 -136.77)" fill="#fff"/>
          <path id="Trazado_133708" data-name="Trazado 133708" d="M191.916,310.883s12.19-.577,16.583-.577,12.048,7.211,11.2,9.519-9.638-4.759-9.638-4.759l-.5.937s7.8,4.76,8.221,6.562-1.347,1.515-3.9.434a56.282,56.282,0,0,1-6.378-3.534l-.426.5s7.371,4.543,7.371,6.2-5.315-.216-9.213-2.812l-.5.793s4.819,2.452,5.174,4.039-2.269.938-5.174-.432-5.6-1.515-9.355-2.091-8.212-3.355-8.212-3.355Z" transform="translate(-114.253 -134.168)" fill="#fff"/>
          <path id="Trazado_133709" data-name="Trazado 133709" d="M407.837,251.617,390.5,338.546H262.09l17.233-86.428a3.868,3.868,0,0,1,3.773-3.138H405.718A2.19,2.19,0,0,1,407.837,251.617Z" transform="translate(-106.097 -140.846)" fill="#4570b4"/>
          <path id="Trazado_133710" data-name="Trazado 133710" d="M265.759,331.457l-35.278-11.476a3.027,3.027,0,0,1-2.09-2.878h0a3.026,3.026,0,0,1,3.026-3.026h37.807Z" transform="translate(-109.766 -133.758)" fill="#00496a"/>
          <path id="Trazado_133711" data-name="Trazado 133711" d="M178.608,231.125s7.9,22.334,3.112,37.664C181.72,268.789,197.866,250.842,178.608,231.125Z" transform="translate(-115.186 -142.79)" fill="#c6606c"/>
          <path id="Trazado_133712" data-name="Trazado 133712" d="M252.577,277.7a78.947,78.947,0,0,1-4.835-7.141c3.26-12.808-4.325-41.328-4.325-41.328C260.04,250.42,255.405,270.1,252.577,277.7Z" transform="translate(-108.13 -142.996)" fill="#c6606c"/>
          <path id="Trazado_133713" data-name="Trazado 133713" d="M286.023,253.629l103.453,84.41H271.526Z" transform="translate(-105.069 -140.339)" fill="#375c93"/>
          <circle id="Elipse_4508" data-name="Elipse 4508" cx="10.315" cy="10.315" r="10.315" transform="translate(225.739 151.915) rotate(-22.366)" fill="#a6d6f7"/>
          <path id="Trazado_133714" data-name="Trazado 133714" d="M202.5,215.754l17.453,17.759s-3.027,4.282-8.066,4.164-7.871-6.525-9.3-9.857a36.611,36.611,0,0,0-4.336-6.97Z" transform="translate(-113.047 -144.463)" fill="#ffa9b3"/>
          <path id="Trazado_133715" data-name="Trazado 133715" d="M217.827,233.581s4.5,2.736,8.894.835,3.207-4.806,1.663-7.869a69.4,69.4,0,0,1-3.208-8.527l-5.011-2.889S221.053,226.805,217.827,233.581Z" transform="translate(-110.916 -144.531)" fill="#ffa9b3"/>
          <path id="Trazado_133716" data-name="Trazado 133716" d="M246.414,262.7l-43.98,4.255s9.861,7.071,25.042,4.932S246.414,262.7,246.414,262.7Z" transform="translate(-112.592 -139.352)" fill="#c6606c"/>
        </g>
        <g id="Grupo_89143" data-name="Grupo 89143">
          <path id="Trazado_133717" data-name="Trazado 133717" d="M162.156,133.742H82.623a9.18,9.18,0,0,0-9.179,9.179V164a9.18,9.18,0,0,0,9.179,9.179h67l21.716,12.553V142.921A9.179,9.179,0,0,0,162.156,133.742Z" transform="translate(-73.444 -133.742)" fill="#4570b4"/>
          <line id="Línea_220" data-name="Línea 220" x2="82.847" transform="translate(6.113 9.538)" fill="none" stroke="#fff" stroke-linecap="round" stroke-linejoin="round" stroke-width="1"/>
          <line id="Línea_221" data-name="Línea 221" x2="82.847" transform="translate(6.113 19.651)" fill="none" stroke="#fff" stroke-linecap="round" stroke-linejoin="round" stroke-width="1"/>
          <line id="Línea_222" data-name="Línea 222" x2="82.847" transform="translate(6.113 29.765)" fill="none" stroke="#fff" stroke-linecap="round" stroke-linejoin="round" stroke-width="1"/>
        </g>
      </g>
      <g id="Grupo_89148" data-name="Grupo 89148" transform="translate(227.471 267.493)">
        <circle id="Elipse_4509" data-name="Elipse 4509" cx="36.642" cy="36.642" r="36.642" fill="#4570b4"/>
        <path id="Trazado_133727" data-name="Trazado 133727" d="M337.133,395.808H291.085a2.282,2.282,0,0,0-2.283,2.282v25.375a2.283,2.283,0,0,0,2.283,2.283h46.047a2.283,2.283,0,0,0,2.282-2.283V398.09A2.282,2.282,0,0,0,337.133,395.808Zm.682,3.66-21.623,14.138a1.108,1.108,0,0,1-1.149.039l-25.188-14.138a1.109,1.109,0,1,1,1.085-1.934l24.6,13.809,21.06-13.77a1.109,1.109,0,0,1,1.213,1.856Z" transform="translate(-277.466 -372.701)" fill="#fff"/>
        <circle id="Elipse_4510" data-name="Elipse 4510" cx="13.58" cy="13.58" r="13.58" transform="translate(51.346 5.531)" fill="#ffa9b3"/>
      </g>
    </g>
  </g>
</svg>
