<svg xmlns="http://www.w3.org/2000/svg" width="58.642" height="55.998" viewBox="0 0 58.642 55.998">
  <g id="Grupo_88760" data-name="Grupo 88760" transform="translate(-383 -671.199)">
    <g id="Grupo_88759" data-name="Grupo 88759" transform="translate(383 671.199)">
      <g id="estrella" transform="translate(0 0)">
        <path id="Trazado_128589" data-name="Trazado 128589" d="M63.094,38.645l-18.436-1.71L37.334,19.929a1.477,1.477,0,0,0-2.714,0L27.3,36.935,8.861,38.645a1.477,1.477,0,0,0-.839,2.581l13.91,12.22L17.861,71.508a1.477,1.477,0,0,0,2.2,1.6l15.92-9.453L51.9,73.1a1.477,1.477,0,0,0,2.2-1.6L50.022,53.446l13.91-12.22A1.477,1.477,0,0,0,63.094,38.645Z" transform="translate(-6.657 -18.177)" fill="#ffdc64"/>
        <path id="Trazado_128590" data-name="Trazado 128590" d="M37.334,19.929a1.477,1.477,0,0,0-2.714,0L27.3,36.935,8.861,38.645a1.477,1.477,0,0,0-.839,2.581l13.91,12.22L17.861,71.508a1.477,1.477,0,0,0,2.2,1.6l3.553-2.11A65.16,65.16,0,0,1,40.955,28.338Z" transform="translate(-6.657 -18.177)" fill="#ffc850"/>
        <path id="Trazado_128591" data-name="Trazado 128591" d="M138.206,103.7a2.305,2.305,0,0,0-2.006-1.6l-17.929-1.663-3.554-8.253a.859.859,0,0,0-1.578.679l3.756,8.721a.859.859,0,0,0,.71.516l18.437,1.71a.618.618,0,0,1,.351,1.08l-13.911,12.22a.859.859,0,0,0-.271.834l4.071,18.062a.619.619,0,0,1-.919.668l-15.921-9.453a.86.86,0,0,0-.877,0l-15.921,9.453a.619.619,0,0,1-.919-.668l2.1-9.324a.859.859,0,0,0-1.676-.378l-2.1,9.324a2.336,2.336,0,0,0,3.472,2.523L109,128.959l15.482,9.193a2.305,2.305,0,0,0,2.566-.119,2.3,2.3,0,0,0,.906-2.4L124,118.065l13.528-11.883A2.3,2.3,0,0,0,138.206,103.7Z" transform="translate(-79.683 -82.488)"/>
        <path id="Trazado_128592" data-name="Trazado 128592" d="M13.3,51.684a.859.859,0,1,0,1.676.378L16.113,47a.859.859,0,0,0-.271-.834L1.932,33.941a.618.618,0,0,1,.351-1.08l18.436-1.71a.859.859,0,0,0,.71-.516L28.753,13.63a.618.618,0,0,1,1.136,0l1.989,4.619a.859.859,0,0,0,1.578-.679L31.467,12.95a2.336,2.336,0,0,0-4.292,0L20.053,29.488,2.125,31.15A2.336,2.336,0,0,0,.8,35.232L14.326,47.115Z" transform="translate(0 -11.538)"/>
      </g>
    </g>
  </g>
</svg>
