<svg xmlns="http://www.w3.org/2000/svg" width="202" height="202" viewBox="0 0 202 202">
  <g id="Grupo_89363" data-name="Grupo 89363" transform="translate(-1088 -2408)">
    <path id="Rectángulo_26298" data-name="Rectángulo 26298" d="M45,0H202a0,0,0,0,1,0,0V157a45,45,0,0,1-45,45H0a0,0,0,0,1,0,0V45A45,45,0,0,1,45,0Z" transform="translate(1088 2408)" fill="#fff"/>
    <g id="caracteristica" transform="translate(1112.217 2440.218)">
      <g id="Grupo_89171" data-name="Grupo 89171" transform="translate(3.187 3.187)">
        <path id="Trazado_133737" data-name="Trazado 133737" d="M51,2H66.306a8.747,8.747,0,0,1,8.746,8.746v4.373H51Z" transform="translate(56.14 -2)" fill="#b5b1a5"/>
        <path id="Trazado_133738" data-name="Trazado 133738" d="M10,133.192V10.746A8.747,8.747,0,0,1,18.746,2h89.648a8.747,8.747,0,0,0-8.746,8.746v113.7a8.747,8.747,0,0,1-8.746,8.746H10Z" transform="translate(7.492 -2)" fill="#d9d5ca"/>
        <g id="Grupo_89159" data-name="Grupo 89159" transform="translate(17.492)">
          <path id="Trazado_133739" data-name="Trazado 133739" d="M10,10.746V34.582a110.484,110.484,0,0,0,89.648,76.642V10.746A8.747,8.747,0,0,1,108.394,2H18.746A8.747,8.747,0,0,0,10,10.746Z" transform="translate(-10 -2)" fill="#f2efe0"/>
        </g>
        <path id="Trazado_133740" data-name="Trazado 133740" d="M91.648,69.119A8.747,8.747,0,0,1,82.9,60.373V56H2v4.373a8.747,8.747,0,0,0,8.746,8.746h80.9Z" transform="translate(-2 62.073)" fill="#f2efe0"/>
        <path id="Trazado_133741" data-name="Trazado 133741" d="M14,10H35.865V31.865H14Z" transform="translate(12.238 7.492)" fill="#db6e5f"/>
        <g id="Grupo_89160" data-name="Grupo 89160" transform="translate(61.223 17.492)">
          <path id="Trazado_133742" data-name="Trazado 133742" d="M30,10H69.358v4.373H30Z" transform="translate(-30 -10)" fill="#b5b1a5"/>
        </g>
        <g id="Grupo_89161" data-name="Grupo 89161" transform="translate(54.663 26.238)">
          <path id="Trazado_133743" data-name="Trazado 133743" d="M27,14H72.917v4.373H27Z" transform="translate(-27 -14)" fill="#b5b1a5"/>
        </g>
        <g id="Grupo_89162" data-name="Grupo 89162" transform="translate(54.663 34.985)">
          <path id="Trazado_133744" data-name="Trazado 133744" d="M27,18H72.917v4.373H27Z" transform="translate(-27 -18)" fill="#b5b1a5"/>
        </g>
        <path id="Trazado_133745" data-name="Trazado 133745" d="M14,24H35.865V45.865H14Z" transform="translate(12.238 24.104)" fill="#db6e5f"/>
        <g id="Grupo_89163" data-name="Grupo 89163" transform="translate(26.238 53.152)">
          <path id="Trazado_133746" data-name="Trazado 133746" d="M14,43.126H25.379A110.529,110.529,0,0,1,14,26.309Z" transform="translate(-14 -26.309)" fill="#e5a299"/>
        </g>
        <g id="Grupo_89164" data-name="Grupo 89164" transform="translate(61.223 48.104)">
          <path id="Trazado_133747" data-name="Trazado 133747" d="M30,24H58.425v4.373H30Z" transform="translate(-30 -24)" fill="#b5b1a5"/>
        </g>
        <g id="Grupo_89165" data-name="Grupo 89165" transform="translate(54.663 56.85)">
          <path id="Trazado_133748" data-name="Trazado 133748" d="M27,28H51.052v4.373H27Z" transform="translate(-27 -28)" fill="#b5b1a5"/>
        </g>
        <g id="Grupo_89166" data-name="Grupo 89166" transform="translate(54.663 65.596)">
          <path id="Trazado_133749" data-name="Trazado 133749" d="M27,32H44.492v4.373H27Z" transform="translate(-27 -32)" fill="#b5b1a5"/>
        </g>
        <path id="Trazado_133750" data-name="Trazado 133750" d="M14,38H35.865V59.865H14Z" transform="translate(12.238 40.715)" fill="#db6e5f"/>
        <g id="Grupo_89167" data-name="Grupo 89167" transform="translate(54.663 78.715)">
          <path id="Trazado_133751" data-name="Trazado 133751" d="M27,38H46.679v4.373H27Z" transform="translate(-27 -38)" fill="#b5b1a5"/>
        </g>
        <g id="Grupo_89168" data-name="Grupo 89168" transform="translate(54.663 87.461)">
          <path id="Trazado_133752" data-name="Trazado 133752" d="M27,42H48.865v4.373H27Z" transform="translate(-27 -42)" fill="#b5b1a5"/>
        </g>
        <g id="Grupo_89169" data-name="Grupo 89169" transform="translate(54.663 96.208)">
          <path id="Trazado_133753" data-name="Trazado 133753" d="M27,46H51.052v4.373H27Z" transform="translate(-27 -46)" fill="#b5b1a5"/>
        </g>
        <g id="Grupo_89170" data-name="Grupo 89170" transform="translate(65.441 45.686)">
          <ellipse id="Elipse_4521" data-name="Elipse 4521" cx="32.699" cy="33.071" rx="32.699" ry="33.071" transform="translate(0 0)" fill="#efde90"/>
          <path id="Trazado_133754" data-name="Trazado 133754" d="M61.832,23a32.611,32.611,0,0,0-20.278,7.054A32.766,32.766,0,0,0,87.576,76.076,32.766,32.766,0,0,0,61.832,23Z" transform="translate(-28.879 -22.768)" fill="#dbbe36"/>
          <path id="Trazado_133755" data-name="Trazado 133755" d="M37,50.679l6.56-6.56,8.746,8.746L74.171,31l6.56,6.56L52.306,65.985Z" transform="translate(-25.913 -13.276)" fill="#fff"/>
        </g>
      </g>
      <g id="Grupo_89172" data-name="Grupo 89172" transform="translate(1 1)">
        <path id="Trazado_133756" data-name="Trazado 133756" d="M125.632,1H29.425A10.945,10.945,0,0,0,18.492,11.933v107.14H3.187A2.186,2.186,0,0,0,1,121.259v4.373a10.945,10.945,0,0,0,10.933,10.933h89.648a10.945,10.945,0,0,0,10.933-10.933V115.113a34.955,34.955,0,0,0,0-66.423v-30.2h21.865a2.186,2.186,0,0,0,2.187-2.187V11.933A10.945,10.945,0,0,0,125.632,1ZM11.933,132.192a6.568,6.568,0,0,1-6.56-6.56v-2.187H81.9v2.187a10.889,10.889,0,0,0,2.191,6.56ZM132.192,81.9A30.611,30.611,0,1,1,101.581,51.29,30.645,30.645,0,0,1,132.192,81.9ZM101.581,46.917a34.756,34.756,0,0,0-16.9,4.373H64.41v4.373h14.11a35.169,35.169,0,0,0-4.2,4.373H57.85V64.41H71.33a35,35,0,0,0-2.158,4.373H57.85v4.373h9.9A34.777,34.777,0,0,0,66.6,81.9H57.85v4.373H66.9a34.8,34.8,0,0,0,.848,4.373h-9.9v4.373H69.172a35,35,0,0,0,2.158,4.373H57.85v4.373H74.314a34.746,34.746,0,0,0,33.826,12.481v9.385a6.568,6.568,0,0,1-6.56,6.56H92.834a6.568,6.568,0,0,1-6.56-6.56v-4.373a2.186,2.186,0,0,0-2.187-2.187H22.865V11.933a6.568,6.568,0,0,1,6.56-6.56h80.959a10.82,10.82,0,0,0-2.243,6.56V47.556A34.879,34.879,0,0,0,101.581,46.917Zm30.611-32.8H112.513V11.933a6.568,6.568,0,0,1,6.56-6.56h6.56a6.568,6.568,0,0,1,6.56,6.56Z" transform="translate(-1 -1)"/>
        <path id="Trazado_133757" data-name="Trazado 133757" d="M46.292,43.76a2.184,2.184,0,0,0-3.092,0l-6.56,6.56a2.184,2.184,0,0,0,0,3.092L51.947,68.717a2.185,2.185,0,0,0,3.092,0L83.463,40.292a2.184,2.184,0,0,0,0-3.092l-6.56-6.56a2.184,2.184,0,0,0-3.092,0L53.493,50.96Zm29.066-8.482,3.468,3.468L53.493,64.08,41.279,51.866,44.746,48.4l7.2,7.2a2.184,2.184,0,0,0,3.092,0Z" transform="translate(40.528 33.409)"/>
        <path id="Trazado_133758" data-name="Trazado 133758" d="M37.052,9H15.187A2.186,2.186,0,0,0,13,11.187V33.052a2.186,2.186,0,0,0,2.187,2.187H37.052a2.186,2.186,0,0,0,2.187-2.187V11.187A2.186,2.186,0,0,0,37.052,9ZM34.865,30.865H17.373V13.373H34.865Z" transform="translate(13.238 8.492)"/>
        <path id="Trazado_133759" data-name="Trazado 133759" d="M30,10H69.358v4.373H30Z" transform="translate(33.41 9.679)"/>
        <path id="Trazado_133760" data-name="Trazado 133760" d="M27,14H72.917v4.373H27Z" transform="translate(29.85 14.425)"/>
        <path id="Trazado_133761" data-name="Trazado 133761" d="M27,18H72.917v4.373H27Z" transform="translate(29.85 19.171)"/>
        <path id="Trazado_133762" data-name="Trazado 133762" d="M37.052,23H15.187A2.186,2.186,0,0,0,13,25.187V47.052a2.186,2.186,0,0,0,2.187,2.187H37.052a2.186,2.186,0,0,0,2.187-2.187V25.187A2.186,2.186,0,0,0,37.052,23ZM34.865,44.865H17.373V27.373H34.865Z" transform="translate(13.238 25.104)"/>
        <path id="Trazado_133763" data-name="Trazado 133763" d="M37.052,37H15.187A2.186,2.186,0,0,0,13,39.187V61.052a2.186,2.186,0,0,0,2.187,2.187H37.052a2.186,2.186,0,0,0,2.187-2.187V39.187A2.186,2.186,0,0,0,37.052,37ZM34.865,58.865H17.373V41.373H34.865Z" transform="translate(13.238 41.715)"/>
      </g>
    </g>
  </g>
</svg>
