<svg xmlns="http://www.w3.org/2000/svg" width="202" height="202" viewBox="0 0 202 202">
  <g id="Grupo_89364" data-name="Grupo 89364" transform="translate(-4388 7707)">
    <path id="Rectángulo_26302" data-name="Rectángulo 26302" d="M45,0H202a0,0,0,0,1,0,0V157a45,45,0,0,1-45,45H0a0,0,0,0,1,0,0V45A45,45,0,0,1,45,0Z" transform="translate(4388 -7707)" fill="#fff"/>
    <g id="metrica" transform="translate(4416.321 -7675)">
      <path id="Trazado_133815" data-name="Trazado 133815" d="M37.361,82.533a4.3,4.3,0,0,1-2.61-7.72L72.338,46.147a4.3,4.3,0,0,1,4.4-.491l35.116,16.069,35.5-29.786a4.3,4.3,0,0,1,5.528,6.589L115.3,70.06a4.3,4.3,0,0,1-4.553.616L75.5,54.549l-35.536,27.1A4.279,4.279,0,0,1,37.361,82.533Zm0,0" transform="translate(-24.061 -22.514)" fill="#5b6fa0"/>
      <path id="Trazado_133816" data-name="Trazado 133816" d="M25.8,304.766H11.716A4.216,4.216,0,0,0,7.5,308.982v36.574a4.215,4.215,0,0,0,4.216,4.216H25.8a4.216,4.216,0,0,0,4.217-4.216V308.982A4.217,4.217,0,0,0,25.8,304.766Zm0,0" transform="translate(-5.459 -221.814)" fill="#ea7988"/>
      <path id="Trazado_133817" data-name="Trazado 133817" d="M163.894,199.445H149.813a4.216,4.216,0,0,0-4.216,4.217V268.9a4.215,4.215,0,0,0,4.216,4.216h14.081a4.215,4.215,0,0,0,4.216-4.216V203.662A4.216,4.216,0,0,0,163.894,199.445Zm0,0" transform="translate(-105.969 -145.16)" fill="#89dbd4"/>
      <path id="Trazado_133818" data-name="Trazado 133818" d="M301.988,262.641H287.907a4.215,4.215,0,0,0-4.216,4.216V314.9a4.215,4.215,0,0,0,4.216,4.216h14.081A4.216,4.216,0,0,0,306.2,314.9V266.856A4.216,4.216,0,0,0,301.988,262.641Zm0,0" transform="translate(-206.476 -191.155)" fill="#5b6fa0"/>
      <path id="Trazado_133819" data-name="Trazado 133819" d="M440.083,146.785H426A4.217,4.217,0,0,0,421.785,151v79.574A4.216,4.216,0,0,0,426,234.791h14.081a4.215,4.215,0,0,0,4.216-4.216V151A4.216,4.216,0,0,0,440.083,146.785Zm0,0" transform="translate(-306.983 -106.833)" fill="#fce182"/>
      <path id="Trazado_133820" data-name="Trazado 133820" d="M30.982,176.158A10.678,10.678,0,1,1,20.3,165.48,10.679,10.679,0,0,1,30.982,176.158Zm0,0" transform="translate(-7.005 -120.44)" fill="#89dbd4"/>
      <path id="Trazado_133821" data-name="Trazado 133821" d="M25.746,183.836a10.679,10.679,0,0,1-9.765-15,10.678,10.678,0,1,0,14.086,14.087A10.652,10.652,0,0,1,25.746,183.836Zm0,0" transform="translate(-7.005 -122.882)" fill="#7ac5bf"/>
      <path id="Trazado_133822" data-name="Trazado 133822" d="M169.078,70.838A10.678,10.678,0,1,1,158.4,60.16,10.677,10.677,0,0,1,169.078,70.838Zm0,0" transform="translate(-107.515 -43.786)" fill="#89dbd4"/>
      <path id="Trazado_133823" data-name="Trazado 133823" d="M163.844,78.514a10.678,10.678,0,0,1-9.765-15A10.678,10.678,0,1,0,168.165,77.6,10.633,10.633,0,0,1,163.844,78.514Zm0,0" transform="translate(-107.515 -46.228)" fill="#7ac5bf"/>
      <path id="Trazado_133824" data-name="Trazado 133824" d="M307.173,134.03a10.678,10.678,0,1,1-10.679-10.679A10.679,10.679,0,0,1,307.173,134.03Zm0,0" transform="translate(-208.022 -89.777)" fill="#89dbd4"/>
      <path id="Trazado_133825" data-name="Trazado 133825" d="M301.938,141.71a10.678,10.678,0,0,1-9.765-15A10.678,10.678,0,1,0,306.26,140.8,10.655,10.655,0,0,1,301.938,141.71Zm0,0" transform="translate(-208.022 -92.222)" fill="#7ac5bf"/>
      <path id="Trazado_133826" data-name="Trazado 133826" d="M445.267,18.178A10.678,10.678,0,1,1,434.589,7.5,10.678,10.678,0,0,1,445.267,18.178Zm0,0" transform="translate(-308.529 -5.459)" fill="#89dbd4"/>
      <path id="Trazado_133827" data-name="Trazado 133827" d="M440.033,25.855a10.677,10.677,0,0,1-9.765-15,10.678,10.678,0,1,0,14.085,14.085A10.634,10.634,0,0,1,440.033,25.855Zm0,0" transform="translate(-308.529 -7.901)" fill="#7ac5bf"/>
      <path id="Trazado_133828" data-name="Trazado 133828" d="M20.338,297.266H6.257A6.264,6.264,0,0,0,0,303.524V340.1a6.264,6.264,0,0,0,6.257,6.257H20.338A6.264,6.264,0,0,0,26.6,340.1V303.524A6.265,6.265,0,0,0,20.338,297.266ZM22.514,340.1a2.178,2.178,0,0,1-2.175,2.174H6.257A2.178,2.178,0,0,1,4.083,340.1V303.524a2.178,2.178,0,0,1,2.174-2.175H20.338a2.178,2.178,0,0,1,2.175,2.175Zm0,0" transform="translate(0 -216.355)"/>
      <path id="Trazado_133829" data-name="Trazado 133829" d="M158.436,191.945H144.355A6.264,6.264,0,0,0,138.1,198.2v11.607a2.041,2.041,0,1,0,4.083,0V198.2a2.177,2.177,0,0,1,2.174-2.174h14.081a2.177,2.177,0,0,1,2.174,2.174v65.242a2.177,2.177,0,0,1-2.174,2.174H144.355a2.177,2.177,0,0,1-2.174-2.174V217.975a2.041,2.041,0,0,0-4.083,0v45.469a6.264,6.264,0,0,0,6.257,6.257h14.081a6.264,6.264,0,0,0,6.257-6.257V198.2A6.264,6.264,0,0,0,158.436,191.945Zm0,0" transform="translate(-100.51 -139.701)"/>
      <path id="Trazado_133830" data-name="Trazado 133830" d="M296.53,255.141H282.448a6.264,6.264,0,0,0-6.257,6.257v48.041a6.264,6.264,0,0,0,6.257,6.257H296.53a6.264,6.264,0,0,0,6.258-6.257V261.4A6.264,6.264,0,0,0,296.53,255.141Zm2.175,54.3a2.178,2.178,0,0,1-2.175,2.174H282.448a2.177,2.177,0,0,1-2.174-2.174V261.4a2.176,2.176,0,0,1,2.174-2.174H296.53A2.177,2.177,0,0,1,298.7,261.4Zm0,0" transform="translate(-201.017 -185.696)"/>
      <path id="Trazado_133831" data-name="Trazado 133831" d="M434.624,139.285H420.543a6.265,6.265,0,0,0-6.258,6.257v58.33a2.041,2.041,0,0,0,4.083,0v-58.33a2.177,2.177,0,0,1,2.175-2.174h14.081a2.177,2.177,0,0,1,2.174,2.174v79.575a2.178,2.178,0,0,1-2.174,2.174H420.543a2.178,2.178,0,0,1-2.175-2.174v-13.08a2.041,2.041,0,0,0-4.083,0v13.08a6.265,6.265,0,0,0,6.258,6.257h14.081a6.264,6.264,0,0,0,6.257-6.257V145.542A6.264,6.264,0,0,0,434.624,139.285Zm0,0" transform="translate(-301.524 -101.374)"/>
      <path id="Trazado_133832" data-name="Trazado 133832" d="M14.844,43a12.72,12.72,0,1,0,12.72,12.719,12.86,12.86,0,0,0-.11-1.642l20.055-15.3a12.687,12.687,0,0,0,12.3-1.377l17.545,8.028a12.718,12.718,0,1,0,25.184-3.405l20.693-17.362a12.72,12.72,0,1,0-8.347-11.945,12.8,12.8,0,0,0,.2,2.226L94.391,32.308A12.688,12.688,0,0,0,82.64,33.9L65.095,25.873A12.717,12.717,0,1,0,39.822,28.7L19.766,43.99A12.649,12.649,0,0,0,14.844,43ZM127.606,4.083a8.637,8.637,0,0,1,0,17.274,8.741,8.741,0,0,1-8.638-8.638A8.647,8.647,0,0,1,127.606,4.083Zm-11.04,14.95c.034.06.071.117.106.175a12.79,12.79,0,0,0,2.8,3.285L101.059,37.939c-.034-.06-.592-.946-.865-1.311a12.833,12.833,0,0,0-2.038-2.15ZM81.383,44.125a8.636,8.636,0,0,1,17.272.128,8.636,8.636,0,1,1-17.273,0C81.382,44.21,81.382,44.168,81.383,44.125ZM62.921,34.238a12.822,12.822,0,0,0,1.834-4.03L79.58,36.991a12.822,12.822,0,0,0-1.731,3.563q-.083.27-.153.542L62.871,34.313C62.888,34.289,62.9,34.263,62.921,34.238ZM52.432,18.416a8.646,8.646,0,0,1,8.636,8.636,8.637,8.637,0,1,1-17.274,0A8.647,8.647,0,0,1,52.432,18.416ZM41.11,32.847c.024.047.052.094.077.14a12.8,12.8,0,0,0,2.664,3.45L26.166,49.925a12.92,12.92,0,0,0-2.741-3.592ZM19.991,48.858a8.563,8.563,0,1,1-5.147-1.776A8.5,8.5,0,0,1,19.991,48.858Zm0,0" transform="translate(-1.547)"/>
    </g>
  </g>
</svg>
