<svg xmlns="http://www.w3.org/2000/svg" width="95.11" height="95.11" viewBox="0 0 95.11 95.11">
  <g id="servicio-al-cliente" transform="translate(0 0)">
    <g id="Grupo_89302" data-name="Grupo 89302" transform="translate(0 1.393)">
      <g id="Grupo_89294" data-name="Grupo 89294" transform="translate(1.393 0)">
        <g id="Grupo_89293" data-name="Grupo 89293">
          <path id="Trazado_133887" data-name="Trazado 133887" d="M7.5,22.263A14.763,14.763,0,1,1,31.965,33.389a.641.641,0,0,0,.094,1.035l2.782,1.646a.513.513,0,0,1-.262.955l-12.6,0A14.762,14.762,0,0,1,7.5,22.263Z" transform="translate(-7.5 -7.501)" fill="#7acaa6"/>
        </g>
      </g>
      <path id="Trazado_133888" data-name="Trazado 133888" d="M87.259,36.07l-2.782-1.646a.64.64,0,0,1-.1-1.032A14.762,14.762,0,0,0,75.121,7.506a14.881,14.881,0,0,0-3.245.26,14.759,14.759,0,0,1,8.89,23.553,3.188,3.188,0,0,0,.861,4.717l.058.034a.513.513,0,0,1-.245.954H87A.513.513,0,0,0,87.259,36.07Z" transform="translate(-58.524 -7.5)" fill="#57be92"/>
      <g id="Grupo_89300" data-name="Grupo 89300" transform="translate(22.23 0)">
        <g id="Grupo_89297" data-name="Grupo 89297" transform="translate(0 0)">
          <path id="Trazado_133889" data-name="Trazado 133889" d="M204.56,61.086H171.07a9.876,9.876,0,0,1-7.6-16.184l.3-.358a15.8,15.8,0,0,0,3.642-10.09V28A20.5,20.5,0,0,1,208.4,28v6.676a15.8,15.8,0,0,0,3.714,10.176A9.876,9.876,0,0,1,204.56,61.086Z" transform="translate(-153.465 -7.5)" fill="#c59191"/>
          <path id="Trazado_133890" data-name="Trazado 133890" d="M188.37,270.372v22.141h-68.7V270.539a12.362,12.362,0,0,1,7.568-11.395l11.088-4.822,3.736-1.624a7.759,7.759,0,0,0,4.666-7.115V244.15h14.586v1.36a7.759,7.759,0,0,0,4.7,7.131l15,6.429A12.363,12.363,0,0,1,188.37,270.372Z" transform="translate(-119.67 -200.19)" fill="#fff"/>
          <path id="Trazado_133891" data-name="Trazado 133891" d="M216.923,259.607a53.123,53.123,0,0,0,31.389-.294l1.808-4.306-5.507-2.36a7.759,7.759,0,0,1-4.7-7.132v-1.359H225.325v1.433a7.76,7.76,0,0,1-4.666,7.116l-4.46,1.939Z" transform="translate(-198.268 -200.194)" fill="#ffcebf"/>
          <path id="Trazado_133892" data-name="Trazado 133892" d="M400.377,303.245l-11.3-4.843h0v38.285H407.73v-22.14A12.362,12.362,0,0,0,400.377,303.245Z" transform="translate(-339.03 -244.364)" fill="#8795de"/>
          <path id="Trazado_133893" data-name="Trazado 133893" d="M138.326,298.91V337.1H119.67V315.127a12.362,12.362,0,0,1,7.568-11.395Z" transform="translate(-119.67 -244.777)" fill="#8795de"/>
          <g id="Grupo_89295" data-name="Grupo 89295" transform="translate(32.539 35.608)">
            <path id="Trazado_133894" data-name="Trazado 133894" d="M300.79,204.57h-3.265a2.691,2.691,0,0,1,0-5.382h3.265a2.691,2.691,0,0,1,0,5.382Z" transform="translate(-294.834 -199.189)" fill="#fff"/>
            <path id="Trazado_133895" data-name="Trazado 133895" d="M303.632,206.688a1.3,1.3,0,0,0,0,2.6H306.9a1.3,1.3,0,1,0,0-2.6Z" transform="translate(-300.941 -205.295)"/>
          </g>
          <g id="Grupo_89296" data-name="Grupo 89296" transform="translate(33.005 67.987)">
            <circle id="Elipse_4536" data-name="Elipse 4536" cx="1.345" cy="1.345" r="1.345"/>
          </g>
        </g>
        <g id="Grupo_89299" data-name="Grupo 89299" transform="translate(13.945)">
          <path id="Trazado_133896" data-name="Trazado 133896" d="M274.7,252.161a12.268,12.268,0,0,0,4.735-.945,7.758,7.758,0,0,1-2.5-5.7v-1.359H262.348v1.433a7.746,7.746,0,0,1-.679,3.172,12.264,12.264,0,0,0,8.489,3.4Z" transform="translate(-249.236 -200.194)" fill="#ffb09e"/>
          <path id="Trazado_133897" data-name="Trazado 133897" d="M255.263,90.932V103a12.309,12.309,0,0,1-12.309,12.309h-4.54A12.309,12.309,0,0,1,226.106,103V90.932a8.008,8.008,0,0,1,8.008-8.008h13.142A8.008,8.008,0,0,1,255.263,90.932Z" transform="translate(-220.279 -68.913)" fill="#ffcebf"/>
          <path id="Trazado_133898" data-name="Trazado 133898" d="M300.79,204.57h-3.265a2.691,2.691,0,0,1,0-5.382h3.265a2.691,2.691,0,0,1,0,5.382Z" transform="translate(-276.24 -163.581)" fill="#685e68"/>
          <g id="Grupo_89298" data-name="Grupo 89298">
            <path id="Trazado_133899" data-name="Trazado 133899" d="M320.154,31.041c.313-3.943,4.087-6.559,7.7-7.914a20.484,20.484,0,0,1,9.977,17.593v1.409c-.33.069-.659.13-.984.179a16.593,16.593,0,0,1-4.843,0c-7.461-.994-12.227-6.5-11.85-11.266Z" transform="translate(-296.84 -20.224)" fill="#b98080"/>
            <path id="Trazado_133900" data-name="Trazado 133900" d="M215.235,7.5a20.4,20.4,0,0,1,12.33,4.123,36.557,36.557,0,0,1-13.012,13.226,36.274,36.274,0,0,1-13.807,4.734h-6.007V28A20.5,20.5,0,0,1,215.235,7.5Z" transform="translate(-194.739 -7.5)" fill="#c59191"/>
          </g>
        </g>
      </g>
      <path id="Trazado_133901" data-name="Trazado 133901" d="M222.07,389.286h-44.6l-2.46-23.2a2.786,2.786,0,0,1,2.771-3.08h43.977a2.786,2.786,0,0,1,2.771,3.08Z" transform="translate(-142.488 -296.963)" fill="#efedef"/>
      <path id="Trazado_133902" data-name="Trazado 133902" d="M402.307,363h-5.573a2.787,2.787,0,0,1,2.771,3.08l-2.46,23.205h5.573l2.46-23.2A2.787,2.787,0,0,0,402.307,363Z" transform="translate(-323.036 -296.962)" fill="#e5e1e5"/>
      <g id="Grupo_89301" data-name="Grupo 89301" transform="translate(0 90.93)">
        <path id="Trazado_133903" data-name="Trazado 133903" d="M93.716,499.786H1.393a1.393,1.393,0,0,1,0-2.786H93.716a1.393,1.393,0,0,1,0,2.786Z" transform="translate(0 -497)" fill="#c9bfc8"/>
      </g>
      <circle id="Elipse_4537" data-name="Elipse 4537" cx="3.901" cy="3.901" r="3.901" transform="translate(53.381 75.28)" fill="#c9bfc8"/>
    </g>
    <path id="Trazado_133904" data-name="Trazado 133904" d="M21.729,17.549a1.393,1.393,0,1,0-1.393-1.393A1.393,1.393,0,0,0,21.729,17.549Zm-11.146,0A1.393,1.393,0,1,0,9.19,16.156,1.393,1.393,0,0,0,10.583,17.549Zm5.573,0a1.393,1.393,0,1,0-1.393-1.393A1.393,1.393,0,0,0,16.156,17.549Zm-.306,14.759h.026l12.6,0h0a1.907,1.907,0,0,0,.971-3.547l-1.916-1.134A16.156,16.156,0,1,0,0,16.156,16.329,16.329,0,0,0,15.851,32.308ZM6.771,6.634a13.273,13.273,0,0,1,9.582-3.846,13.369,13.369,0,0,1,8.589,23.444,2.034,2.034,0,0,0,.3,3.284l.014.008-9.367,0A13.369,13.369,0,0,1,6.771,6.634ZM93.716,92.323H92.323V71.575a13.772,13.772,0,0,0-8.2-12.582l-7.342-3.147A11,11,0,0,0,81.5,52.883a11.541,11.541,0,0,0,3.118-7.832,11.083,11.083,0,0,0-2.668-7.208,14.424,14.424,0,0,1-3.386-9.279V21.888a21.889,21.889,0,0,0-43.778,0v6.459A15.058,15.058,0,0,1,31.163,37.9a11.284,11.284,0,0,0,5.386,17.989l-7.291,3.171a13.727,13.727,0,0,0-8.421,12.679v16.4a1.393,1.393,0,1,0,2.786,0v-16.4a10.952,10.952,0,0,1,6.73-10.117l9.139-3.974v8.386h-4.2a4.179,4.179,0,0,0-4.156,4.62l2.3,21.665H1.393a1.393,1.393,0,1,0,0,2.786H93.716a1.393,1.393,0,0,0,0-2.786Zm-13.9-52.686a8.331,8.331,0,0,1,2.013,5.413,8.728,8.728,0,0,1-2.36,5.922,8.34,8.34,0,0,1-6.142,2.614H71.51l-2.385-1.022a6.358,6.358,0,0,1-3.8-5.014,13.713,13.713,0,0,0,7.228-12.072V25c.408.028.815.043,1.221.043a17.757,17.757,0,0,0,2-.113v3.63a17.213,17.213,0,0,0,4.04,11.073ZM57.009,61.632a51.615,51.615,0,0,1-14.73-1.874V56.44l.4-.175.01,0,2.485-1.081a9.149,9.149,0,0,0,5.315-6.545,13.656,13.656,0,0,0,3.819.546h4.54a13.655,13.655,0,0,0,3.833-.55,9.144,9.144,0,0,0,5.343,6.495l2.653,1.137.005,0,.2.084v3.135a51.717,51.717,0,0,1-13.872,2.148Zm13.872.753v3.654h-28.6v-3.4A54.454,54.454,0,0,0,56.1,64.426q.478,0,.956-.008A54.5,54.5,0,0,0,70.881,62.384Zm4.893-40.259A15.474,15.474,0,0,1,64.63,19.306a1.393,1.393,0,0,0-1.707,2.2,16.833,16.833,0,0,0,6.843,3.109V32.2a10.192,10.192,0,0,1-3.095,4.181,10.683,10.683,0,0,1-2.311,1.453,4.087,4.087,0,0,0-3.636-2.228H57.46a4.084,4.084,0,0,0,0,8.168h3.265a4.091,4.091,0,0,0,3.951-3.051,24.862,24.862,0,0,0,4.9-3.245,10.931,10.931,0,0,1-10.728,8.913h-4.54A10.928,10.928,0,0,1,43.4,35.478V24.709a37.36,37.36,0,0,0,13.3-4.768A37.846,37.846,0,0,0,69.36,7.611a19.091,19.091,0,0,1,6.413,14.514ZM62.022,39.7a1.3,1.3,0,0,1-1.3,1.294H57.459a1.3,1.3,0,0,1,0-2.6h3.265a1.3,1.3,0,0,1,1.3,1.293ZM37.568,21.888A19.109,19.109,0,0,1,67.142,5.907,35.08,35.08,0,0,1,55.279,17.543a34.642,34.642,0,0,1-13.188,4.54H37.568Zm-5.412,26.82a8.408,8.408,0,0,1,1.149-9.022,17.8,17.8,0,0,0,4.263-11.339V24.87h3.041V35.478a13.713,13.713,0,0,0,7.235,12.076,6.361,6.361,0,0,1-3.778,5.07l-2.212.962H39.835a8.408,8.408,0,0,1-7.678-4.878Zm48.5,21.656L78.328,92.323H36.236L33.909,70.365a1.393,1.393,0,0,1,1.385-1.54H79.271a1.393,1.393,0,0,1,1.386,1.54Zm8.881,21.959H81.13l2.3-21.665a4.179,4.179,0,0,0-4.156-4.62h-5.6V60.531c0-.017,0-.034,0-.051V57.543l9.344,4a10.978,10.978,0,0,1,6.526,10.028ZM57.282,75.28a5.294,5.294,0,1,0,5.294,5.294A5.3,5.3,0,0,0,57.282,75.28Zm0,7.8a2.508,2.508,0,1,1,2.508-2.508A2.511,2.511,0,0,1,57.282,83.082Z" transform="translate(0 0)"/>
  </g>
</svg>
