<svg xmlns="http://www.w3.org/2000/svg" width="43" height="43" viewBox="0 0 43 43">
  <g id="Grupo_88939" data-name="Grupo 88939" transform="translate(-273 -2085)">
    <circle id="Elipse_4444" data-name="Elipse 4444" cx="21.5" cy="21.5" r="21.5" transform="translate(273 2085)" fill="#dbbe36"/>
    <path id="Icon_awesome-check-circle" data-name="Icon awesome-check-circle" d="M21.507,11.035A10.472,10.472,0,1,1,11.035.563,10.472,10.472,0,0,1,21.507,11.035ZM9.823,16.58l7.77-7.77a.676.676,0,0,0,0-.955L16.638,6.9a.676.676,0,0,0-.956,0L9.346,13.235,6.387,10.277a.676.676,0,0,0-.956,0l-.955.955a.676.676,0,0,0,0,.955L8.868,16.58A.676.676,0,0,0,9.823,16.58Z" transform="translate(283.465 2095.465)" fill="#fff"/>
  </g>
</svg>
