<svg xmlns="http://www.w3.org/2000/svg" width="95.109" height="95.109" viewBox="0 0 95.109 95.109">
  <g id="personalidad" transform="translate(-1 -1)">
    <circle id="Elipse_4538" data-name="Elipse 4538" cx="18.5" cy="18.5" r="18.5" transform="translate(58 2.109)" fill="#c16b3f"/>
    <path id="Trazado_133905" data-name="Trazado 133905" d="M38,20.408a18.336,18.336,0,0,0,5.941,13.516A19.9,19.9,0,0,0,64.088,3.7,18.378,18.378,0,0,0,38,20.408Z" transform="translate(19.759 0.534)" fill="#e39854"/>
    <ellipse id="Elipse_4539" data-name="Elipse 4539" cx="18" cy="18.5" rx="18" ry="18.5" transform="translate(3 2.109)" fill="#a1cdfb"/>
    <path id="Trazado_133906" data-name="Trazado 133906" d="M2,20.408A18.336,18.336,0,0,0,7.941,33.925a19.9,19.9,0,0,0,3.263.29A19.942,19.942,0,0,0,31.146,14.272,19.819,19.819,0,0,0,28.088,3.7,18.378,18.378,0,0,0,2,20.408Z" transform="translate(0.534 0.534)" fill="#c7e2fc"/>
    <circle id="Elipse_4540" data-name="Elipse 4540" cx="3" cy="3" r="3" transform="translate(73 56.109)" fill="#e39854"/>
    <circle id="Elipse_4541" data-name="Elipse 4541" cx="4.5" cy="4.5" r="4.5" transform="translate(78 44.109)" fill="#e39854"/>
    <circle id="Elipse_4542" data-name="Elipse 4542" cx="3" cy="3" r="3" transform="translate(18 56.109)" fill="#a1cdfb"/>
    <circle id="Elipse_4543" data-name="Elipse 4543" cx="4.5" cy="4.5" r="4.5" transform="translate(10 44.109)" fill="#a1cdfb"/>
    <path id="Trazado_133907" data-name="Trazado 133907" d="M63.021,69.476V63.34A15.34,15.34,0,0,0,47.68,48H32.34A15.34,15.34,0,0,0,17,63.34v6.136" transform="translate(8.544 25.099)" fill="#669e4f"/>
    <path id="Trazado_133908" data-name="Trazado 133908" d="M26.2,66.408c12.995,0,23.992-7.164,27.754-17.055A15.266,15.266,0,0,0,47.68,48H32.34A15.34,15.34,0,0,0,17,63.34v1.8A34.079,34.079,0,0,0,26.2,66.408Z" transform="translate(8.544 25.099)" fill="#78b75b"/>
    <g id="Grupo_89303" data-name="Grupo 89303" transform="translate(30.146 54.691)">
      <path id="Trazado_133909" data-name="Trazado 133909" d="M28,48a6.136,6.136,0,1,0,12.272,0" transform="translate(-15.728 -29.592)" fill="#db9b7c"/>
      <path id="Trazado_133910" data-name="Trazado 133910" d="M27.67,45.2H24.6a4.6,4.6,0,1,1,0-9.2H27.67" transform="translate(-20 -36)" fill="#db9b7c"/>
      <path id="Trazado_133911" data-name="Trazado 133911" d="M39,36h3.068a4.6,4.6,0,0,1,0,9.2H39" transform="translate(-9.854 -36)" fill="#db9b7c"/>
    </g>
    <path id="Trazado_133912" data-name="Trazado 133912" d="M48.544,31V44.806a12.272,12.272,0,0,1-24.544,0V31" transform="translate(12.283 16.021)" fill="#efbe9a"/>
    <path id="Trazado_133913" data-name="Trazado 133913" d="M40.408,31.67V33.2a9.2,9.2,0,0,1-9.2,9.2H22v-7.67A10.738,10.738,0,0,1,32.738,24h9.2A10.738,10.738,0,0,1,52.68,34.738v7.67H45.01a4.6,4.6,0,0,1-4.6-4.6Z" transform="translate(11.214 12.283)" fill="#976947"/>
    <path id="Trazado_133914" data-name="Trazado 133914" d="M47.982,25.861A10.684,10.684,0,0,0,41.942,24h-9.2A10.738,10.738,0,0,0,22,34.738v7.67h9.2a9.2,9.2,0,0,0,9.2-9.2v4.6a4.6,4.6,0,0,0,2.034,3.82,19.5,19.5,0,0,0,5.636-13.791c0-.667-.034-1.325-.1-1.974Z" transform="translate(11.214 12.283)" fill="#c18e59"/>
    <path id="Trazado_133915" data-name="Trazado 133915" d="M31.2,41.272H22V38.2h9.2a7.679,7.679,0,0,0,7.67-7.67V29h3.068v1.534A10.752,10.752,0,0,1,31.2,41.272Z" transform="translate(11.214 14.953)"/>
    <path id="Trazado_133916" data-name="Trazado 133916" d="M36.806,55.942A13.821,13.821,0,0,1,23,42.136V36h3.068v6.136a10.738,10.738,0,0,0,21.476,0V36h3.068v6.136A13.821,13.821,0,0,1,36.806,55.942Z" transform="translate(11.748 18.691)"/>
    <path id="Trazado_133917" data-name="Trazado 133917" d="M46.806,41.272h-7.67A6.142,6.142,0,0,1,33,35.136V29h3.068v6.136A3.071,3.071,0,0,0,39.136,38.2h7.67Z" transform="translate(17.089 14.953)"/>
    <path id="Trazado_133918" data-name="Trazado 133918" d="M26.67,47.272H25.136a6.136,6.136,0,1,1,0-12.272H26.67v3.068H25.136a3.068,3.068,0,1,0,0,6.136H26.67Z" transform="translate(9.612 18.157)"/>
    <path id="Trazado_133919" data-name="Trazado 133919" d="M41.534,47.272H40V44.2h1.534a3.068,3.068,0,1,0,0-6.136H40V35h1.534a6.136,6.136,0,1,1,0,12.272Z" transform="translate(20.827 18.157)"/>
    <path id="Trazado_133920" data-name="Trazado 133920" d="M54.748,42.942H51.68v-7.67a9.213,9.213,0,0,0-9.2-9.2h-9.2a9.213,9.213,0,0,0-9.2,9.2v7.67H21v-7.67A12.287,12.287,0,0,1,33.272,23h9.2A12.286,12.286,0,0,1,54.748,35.272Z" transform="translate(10.68 11.748)"/>
    <path id="Trazado_133921" data-name="Trazado 133921" d="M63.555,71.544H17.534A1.533,1.533,0,0,1,16,70.01V63.874A16.894,16.894,0,0,1,32.874,47h15.34A16.894,16.894,0,0,1,65.089,63.874V70.01A1.533,1.533,0,0,1,63.555,71.544ZM19.068,68.476H62.021v-4.6A13.821,13.821,0,0,0,48.214,50.068H32.874A13.821,13.821,0,0,0,19.068,63.874Z" transform="translate(8.01 24.565)"/>
    <path id="Trazado_133922" data-name="Trazado 133922" d="M20.942,40.885A19.942,19.942,0,1,1,40.885,20.942,19.965,19.965,0,0,1,20.942,40.885Zm0-36.817A16.874,16.874,0,1,0,37.817,20.942,16.894,16.894,0,0,0,20.942,4.068Z"/>
    <path id="Trazado_133923" data-name="Trazado 133923" d="M17.272,15.136H14.2a3.068,3.068,0,0,0-6.136,0H5a6.136,6.136,0,0,1,12.272,0Z" transform="translate(2.136 4.272)"/>
    <path id="Trazado_133924" data-name="Trazado 133924" d="M27.272,15.136H24.2a3.068,3.068,0,1,0-6.136,0H15a6.136,6.136,0,1,1,12.272,0Z" transform="translate(7.476 4.272)"/>
    <path id="Trazado_133925" data-name="Trazado 133925" d="M16.136,23.136A6.142,6.142,0,0,1,10,17h3.068A3.068,3.068,0,0,0,19.2,17h3.068A6.142,6.142,0,0,1,16.136,23.136Z" transform="translate(4.806 8.544)"/>
    <path id="Trazado_133926" data-name="Trazado 133926" d="M56.942,40.885A19.942,19.942,0,1,1,76.885,20.942,19.965,19.965,0,0,1,56.942,40.885Zm0-36.817A16.874,16.874,0,1,0,73.817,20.942,16.894,16.894,0,0,0,56.942,4.068Z" transform="translate(19.225)"/>
    <path id="Trazado_133927" data-name="Trazado 133927" d="M47.136,16.136A6.142,6.142,0,0,1,41,10h3.068A3.068,3.068,0,0,0,50.2,10h3.068A6.142,6.142,0,0,1,47.136,16.136Z" transform="translate(21.361 4.806)"/>
    <path id="Trazado_133928" data-name="Trazado 133928" d="M57.136,16.136A6.142,6.142,0,0,1,51,10h3.068A3.068,3.068,0,1,0,60.2,10h3.068A6.142,6.142,0,0,1,57.136,16.136Z" transform="translate(26.701 4.806)"/>
    <path id="Trazado_133929" data-name="Trazado 133929" d="M58.272,22.136H55.2a3.068,3.068,0,0,0-6.136,0H46a6.136,6.136,0,1,1,12.272,0Z" transform="translate(24.031 8.01)"/>
    <path id="Trazado_133930" data-name="Trazado 133930" d="M51.6,45.2a4.6,4.6,0,1,1,4.6-4.6A4.608,4.608,0,0,1,51.6,45.2Zm0-6.136A1.534,1.534,0,1,0,53.136,40.6,1.535,1.535,0,0,0,51.6,39.068Z" transform="translate(24.565 18.691)"/>
    <path id="Trazado_133931" data-name="Trazado 133931" d="M56.136,40.272a6.136,6.136,0,1,1,6.136-6.136A6.142,6.142,0,0,1,56.136,40.272Zm0-9.2A3.068,3.068,0,1,0,59.2,34.136,3.071,3.071,0,0,0,56.136,31.068Z" transform="translate(26.167 14.419)"/>
    <path id="Trazado_133932" data-name="Trazado 133932" d="M15.6,45.2a4.6,4.6,0,1,1,4.6-4.6A4.608,4.608,0,0,1,15.6,45.2Zm0-6.136A1.534,1.534,0,1,0,17.136,40.6,1.535,1.535,0,0,0,15.6,39.068Z" transform="translate(5.34 18.691)"/>
    <path id="Trazado_133933" data-name="Trazado 133933" d="M12.136,40.272a6.136,6.136,0,1,1,6.136-6.136A6.142,6.142,0,0,1,12.136,40.272Zm0-9.2A3.068,3.068,0,1,0,15.2,34.136,3.071,3.071,0,0,0,12.136,31.068Z" transform="translate(2.67 14.419)"/>
    <path id="Trazado_133934" data-name="Trazado 133934" d="M22,55h3.068V65.738H22Z" transform="translate(11.214 28.837)"/>
    <path id="Trazado_133935" data-name="Trazado 133935" d="M40,55h3.068V65.738H40Z" transform="translate(20.827 28.837)"/>
    <path id="Trazado_133936" data-name="Trazado 133936" d="M34.67,55.67A7.679,7.679,0,0,1,27,48h3.068a4.6,4.6,0,0,0,9.2,0H42.34A7.679,7.679,0,0,1,34.67,55.67Z" transform="translate(13.885 25.099)"/>
  </g>
</svg>
