<svg xmlns="http://www.w3.org/2000/svg" width="726" height="527" viewBox="0 0 726 527">
  <g id="Grupo_89414" data-name="Grupo 89414" transform="translate(-437 -627)">
    <path id="Trazado_134125" data-name="Trazado 134125" d="M12,0H714a12,12,0,0,1,12,12V515a12,12,0,0,1-12,12H12A12,12,0,0,1,0,515V12A12,12,0,0,1,12,0Z" transform="translate(437 627)" fill="#ebf7fd"/>
    <path id="Trazado_133728" data-name="Trazado 133728" d="M270.125,224.837v78.071c-88.4,12.946-154.613,89.565-154.613,178.906,0,99.192,81.622,180.814,180.814,180.814S477.14,581.006,477.14,481.814c0-90.55-68.021-167.841-157.837-179.348V224.837" transform="translate(456.988 441.163)" fill="none" stroke="#0d66bf" stroke-miterlimit="10" stroke-width="3"/>
    <path id="Trazado_134161" data-name="Trazado 134161" d="M12.5,0A12.5,12.5,0,1,1,0,12.5,12.5,12.5,0,0,1,12.5,0Z" transform="translate(871 787)" fill="#db6e5f"/>
    <path id="Trazado_134162" data-name="Trazado 134162" d="M12.5,0A12.5,12.5,0,1,1,0,12.5,12.5,12.5,0,0,1,12.5,0Z" transform="translate(922 920)" fill="#db6e5f"/>
    <path id="Trazado_134163" data-name="Trazado 134163" d="M12.5,0A12.5,12.5,0,1,1,0,12.5,12.5,12.5,0,0,1,12.5,0Z" transform="translate(871 1038)" fill="#db6e5f"/>
    <path id="Trazado_134164" data-name="Trazado 134164" d="M12.5,0A12.5,12.5,0,1,1,0,12.5,12.5,12.5,0,0,1,12.5,0Z" transform="translate(753 1091)" fill="#db6e5f"/>
    <path id="Trazado_134165" data-name="Trazado 134165" d="M12.5,0A12.5,12.5,0,1,1,0,12.5,12.5,12.5,0,0,1,12.5,0Z" transform="translate(618 1038)" fill="#db6e5f"/>
    <path id="Trazado_134166" data-name="Trazado 134166" d="M12.5,0A12.5,12.5,0,1,1,0,12.5,12.5,12.5,0,0,1,12.5,0Z" transform="translate(560 908)" fill="#db6e5f"/>
    <path id="Trazado_134167" data-name="Trazado 134167" d="M12.5,0A12.5,12.5,0,1,1,0,12.5,12.5,12.5,0,0,1,12.5,0Z" transform="translate(618 775)" fill="#db6e5f"/>
    <path id="Trazado_134168" data-name="Trazado 134168" d="M12.5,0A12.5,12.5,0,1,1,0,12.5,12.5,12.5,0,0,1,12.5,0Z" transform="translate(934 1038)" fill="#db6e5f"/>
    <path id="Trazado_134169" data-name="Trazado 134169" d="M12.5,0A12.5,12.5,0,1,1,0,12.5,12.5,12.5,0,0,1,12.5,0Z" transform="translate(972 1038)" fill="#db6e5f"/>
    <path id="Trazado_134170" data-name="Trazado 134170" d="M12.5,0A12.5,12.5,0,1,1,0,12.5,12.5,12.5,0,0,1,12.5,0Z" transform="translate(1010 1038)" fill="#db6e5f"/>
    <path id="Trazado_133729" data-name="Trazado 133729" d="M2646.5-10940.562s53.446,5.252,82.062,50.672" transform="matrix(0.995, -0.105, 0.105, 0.995, -725.326, 11921.129)" fill="none" stroke="#db6e5f" stroke-width="1"/>
    <path id="Trazado_134171" data-name="Trazado 134171" d="M9,0l9,16H0Z" transform="matrix(-0.766, 0.643, -0.643, -0.766, 866.037, 810.344)" fill="#db6e5f"/>
    <path id="Trazado_134172" data-name="Trazado 134172" d="M2.38,0H1.162V-9.242H2.38ZM5.535-6.868,5.573-6A2.5,2.5,0,0,1,7.63-7q2.177,0,2.2,2.457V0H8.652V-4.545a1.581,1.581,0,0,0-.34-1.1A1.361,1.361,0,0,0,7.274-6a1.7,1.7,0,0,0-1,.3,2.069,2.069,0,0,0-.673.8V0H4.424V-6.868ZM12.873,0H11.7V-6.868h1.174ZM11.6-8.69a.7.7,0,0,1,.175-.482.655.655,0,0,1,.517-.2.666.666,0,0,1,.521.2.694.694,0,0,1,.178.482.671.671,0,0,1-.178.476.678.678,0,0,1-.521.19.667.667,0,0,1-.517-.19A.678.678,0,0,1,11.6-8.69Zm5.9,7.858a1.692,1.692,0,0,0,1.1-.381,1.34,1.34,0,0,0,.521-.952h1.111a2.13,2.13,0,0,1-.406,1.124,2.676,2.676,0,0,1-1,.851,2.885,2.885,0,0,1-1.323.317,2.829,2.829,0,0,1-2.231-.936,3.729,3.729,0,0,1-.828-2.561v-.2a4.135,4.135,0,0,1,.368-1.784,2.8,2.8,0,0,1,1.057-1.212A3,3,0,0,1,17.5-7a2.755,2.755,0,0,1,1.92.692,2.473,2.473,0,0,1,.816,1.8H19.125a1.618,1.618,0,0,0-.5-1.095A1.57,1.57,0,0,0,17.5-6.03a1.644,1.644,0,0,0-1.387.644,3.026,3.026,0,0,0-.492,1.863V-3.3a2.965,2.965,0,0,0,.489,1.828A1.651,1.651,0,0,0,17.507-.832ZM22.833,0H21.658V-6.868h1.174Zm-1.27-8.69a.7.7,0,0,1,.175-.482.655.655,0,0,1,.517-.2.666.666,0,0,1,.521.2.694.694,0,0,1,.178.482.671.671,0,0,1-.178.476.678.678,0,0,1-.521.19.667.667,0,0,1-.517-.19A.678.678,0,0,1,21.563-8.69ZM24.4-3.5a4.057,4.057,0,0,1,.4-1.815,2.96,2.96,0,0,1,1.1-1.244A3.007,3.007,0,0,1,27.517-7a2.9,2.9,0,0,1,2.269.971,3.736,3.736,0,0,1,.866,2.583v.083a4.092,4.092,0,0,1-.384,1.8,2.916,2.916,0,0,1-1.1,1.241A3.041,3.041,0,0,1,27.53.127a2.889,2.889,0,0,1-2.263-.971A3.718,3.718,0,0,1,24.4-3.415Zm1.181.14a2.938,2.938,0,0,0,.53,1.834,1.7,1.7,0,0,0,1.419.692,1.686,1.686,0,0,0,1.422-.7A3.213,3.213,0,0,0,29.479-3.5a2.933,2.933,0,0,0-.536-1.831,1.705,1.705,0,0,0-1.425-.7,1.686,1.686,0,0,0-1.4.692A3.189,3.189,0,0,0,25.581-3.358Z" transform="translate(811 732)" fill="#12263f"/>
    <path id="Trazado_134173" data-name="Trazado 134173" d="M2.647-9.242,5.668-1.7,8.69-9.242h1.581V0H9.052V-3.6l.114-3.885L6.132,0H5.2L2.171-7.465,2.292-3.6V0H1.073V-9.242ZM11.927-3.5a4.057,4.057,0,0,1,.4-1.815,2.96,2.96,0,0,1,1.1-1.244A3.007,3.007,0,0,1,15.044-7a2.9,2.9,0,0,1,2.269.971A3.736,3.736,0,0,1,18.18-3.44v.083a4.092,4.092,0,0,1-.384,1.8A2.916,2.916,0,0,1,16.7-.317a3.041,3.041,0,0,1-1.641.444,2.889,2.889,0,0,1-2.263-.971,3.718,3.718,0,0,1-.866-2.571Zm1.181.14a2.938,2.938,0,0,0,.53,1.834,1.7,1.7,0,0,0,1.419.692,1.686,1.686,0,0,0,1.422-.7A3.213,3.213,0,0,0,17.005-3.5a2.933,2.933,0,0,0-.536-1.831,1.705,1.705,0,0,0-1.425-.7,1.686,1.686,0,0,0-1.4.692A3.189,3.189,0,0,0,13.108-3.358Zm7.649-3.51.032.762A2.536,2.536,0,0,1,22.826-7a1.964,1.964,0,0,1,1.961,1.1,2.6,2.6,0,0,1,.892-.8,2.634,2.634,0,0,1,1.3-.3q2.26,0,2.3,2.393V0H28.1V-4.532a1.577,1.577,0,0,0-.336-1.1A1.482,1.482,0,0,0,26.635-6a1.557,1.557,0,0,0-1.085.39,1.584,1.584,0,0,0-.5,1.051V0H23.867V-4.5A1.31,1.31,0,0,0,22.4-6a1.571,1.571,0,0,0-1.581.984V0H19.646V-6.868Zm13.14,7A3,3,0,0,1,31.624-.79a3.4,3.4,0,0,1-.876-2.453v-.216a4.121,4.121,0,0,1,.39-1.825A3.045,3.045,0,0,1,32.23-6.541,2.745,2.745,0,0,1,33.75-7a2.572,2.572,0,0,1,2.082.882,3.82,3.82,0,0,1,.743,2.526V-3.1H31.922a2.441,2.441,0,0,0,.594,1.641,1.866,1.866,0,0,0,1.444.625,2.045,2.045,0,0,0,1.054-.254,2.648,2.648,0,0,0,.755-.673l.717.559A2.884,2.884,0,0,1,33.9.127ZM33.75-6.03a1.566,1.566,0,0,0-1.193.517,2.515,2.515,0,0,0-.6,1.45H35.4v-.089a2.237,2.237,0,0,0-.482-1.387A1.475,1.475,0,0,0,33.75-6.03Zm5.294-.838L39.083-6A2.5,2.5,0,0,1,41.139-7q2.177,0,2.2,2.457V0H42.161V-4.545a1.581,1.581,0,0,0-.34-1.1A1.361,1.361,0,0,0,40.784-6a1.7,1.7,0,0,0-1,.3,2.069,2.069,0,0,0-.673.8V0H37.934V-6.868ZM46.7-8.531v1.663h1.282v.908H46.7V-1.7a.953.953,0,0,0,.171.62.721.721,0,0,0,.584.207,2.843,2.843,0,0,0,.559-.076V0a3.424,3.424,0,0,1-.9.126,1.462,1.462,0,0,1-1.187-.476,2.045,2.045,0,0,1-.4-1.352V-5.96h-1.25v-.908h1.25V-8.531ZM48.915-3.5a4.057,4.057,0,0,1,.4-1.815,2.96,2.96,0,0,1,1.1-1.244A3.007,3.007,0,0,1,52.032-7a2.9,2.9,0,0,1,2.269.971,3.736,3.736,0,0,1,.866,2.583v.083a4.092,4.092,0,0,1-.384,1.8,2.916,2.916,0,0,1-1.1,1.241,3.041,3.041,0,0,1-1.641.444,2.889,2.889,0,0,1-2.263-.971,3.718,3.718,0,0,1-.866-2.571Zm1.181.14a2.938,2.938,0,0,0,.53,1.834,1.7,1.7,0,0,0,1.419.692,1.686,1.686,0,0,0,1.422-.7A3.213,3.213,0,0,0,53.993-3.5a2.933,2.933,0,0,0-.536-1.831,1.705,1.705,0,0,0-1.425-.7,1.686,1.686,0,0,0-1.4.692A3.189,3.189,0,0,0,50.1-3.358Zm9.477-.133a4.023,4.023,0,0,1,.749-2.542A2.369,2.369,0,0,1,62.283-7a2.382,2.382,0,0,1,1.911.825V-9.75h1.174V0H64.289l-.057-.736a2.391,2.391,0,0,1-1.961.863,2.346,2.346,0,0,1-1.946-.978A4.069,4.069,0,0,1,59.573-3.4Zm1.174.133a3.046,3.046,0,0,0,.482,1.828,1.56,1.56,0,0,0,1.333.66,1.713,1.713,0,0,0,1.631-1V-5.027A1.726,1.726,0,0,0,62.575-6a1.567,1.567,0,0,0-1.346.667A3.354,3.354,0,0,0,60.747-3.358ZM70.04.127A3,3,0,0,1,67.768-.79a3.4,3.4,0,0,1-.876-2.453v-.216a4.121,4.121,0,0,1,.39-1.825,3.045,3.045,0,0,1,1.092-1.257A2.745,2.745,0,0,1,69.894-7a2.572,2.572,0,0,1,2.082.882,3.82,3.82,0,0,1,.743,2.526V-3.1H68.066a2.441,2.441,0,0,0,.594,1.641A1.866,1.866,0,0,0,70.1-.832a2.045,2.045,0,0,0,1.054-.254,2.648,2.648,0,0,0,.755-.673l.717.559A2.884,2.884,0,0,1,70.04.127ZM69.894-6.03a1.566,1.566,0,0,0-1.193.517,2.515,2.515,0,0,0-.6,1.45h3.44v-.089a2.237,2.237,0,0,0-.482-1.387A1.475,1.475,0,0,0,69.894-6.03ZM4.132,16.381,6.773,8.758H8.106L4.678,18H3.6L.178,8.758H1.5Zm7.6,1.746a3,3,0,0,1-2.272-.917,3.4,3.4,0,0,1-.876-2.453v-.216a4.121,4.121,0,0,1,.39-1.825,3.045,3.045,0,0,1,1.092-1.257A2.745,2.745,0,0,1,11.584,11a2.572,2.572,0,0,1,2.082.882,3.82,3.82,0,0,1,.743,2.526V14.9H9.756a2.441,2.441,0,0,0,.594,1.641,1.866,1.866,0,0,0,1.444.625,2.045,2.045,0,0,0,1.054-.254,2.648,2.648,0,0,0,.755-.673l.717.559A2.884,2.884,0,0,1,11.73,18.127Zm-.146-6.157a1.566,1.566,0,0,0-1.193.517,2.515,2.515,0,0,0-.6,1.45h3.44v-.089a2.237,2.237,0,0,0-.482-1.387A1.475,1.475,0,0,0,11.584,11.97Zm7.5.216a3.519,3.519,0,0,0-.578-.044,1.547,1.547,0,0,0-1.568.984V18H15.768V11.132H16.91l.019.793A1.829,1.829,0,0,1,18.567,11a1.2,1.2,0,0,1,.521.089Zm.673,2.323a4.023,4.023,0,0,1,.749-2.542,2.548,2.548,0,0,1,3.872-.136V8.25h1.174V18H24.477l-.057-.736a2.391,2.391,0,0,1-1.961.863,2.346,2.346,0,0,1-1.946-.978A4.069,4.069,0,0,1,19.76,14.6Zm1.174.133a3.046,3.046,0,0,0,.482,1.828,1.56,1.56,0,0,0,1.333.66,1.713,1.713,0,0,0,1.631-1V12.973A1.726,1.726,0,0,0,22.763,12a1.567,1.567,0,0,0-1.346.667A3.354,3.354,0,0,0,20.935,14.642ZM31.618,18a2.467,2.467,0,0,1-.165-.724,2.62,2.62,0,0,1-1.955.851,2.424,2.424,0,0,1-1.666-.574,1.859,1.859,0,0,1-.651-1.457A1.942,1.942,0,0,1,28,14.429a3.846,3.846,0,0,1,2.295-.594h1.143V13.3a1.319,1.319,0,0,0-.368-.981,1.48,1.48,0,0,0-1.085-.365,1.712,1.712,0,0,0-1.054.317.935.935,0,0,0-.425.768H27.32a1.621,1.621,0,0,1,.365-.993,2.491,2.491,0,0,1,.99-.759A3.331,3.331,0,0,1,30.05,11a2.715,2.715,0,0,1,1.86.594,2.141,2.141,0,0,1,.7,1.635v3.161a3.865,3.865,0,0,0,.241,1.5V18Zm-1.949-.9a2.064,2.064,0,0,0,1.047-.286,1.728,1.728,0,0,0,.717-.743V14.667h-.92q-2.158,0-2.158,1.263a1.069,1.069,0,0,0,.368.863A1.415,1.415,0,0,0,29.669,17.1Zm4.494-2.6a4.023,4.023,0,0,1,.749-2.542,2.548,2.548,0,0,1,3.872-.136V8.25h1.174V18H38.879l-.057-.736a2.391,2.391,0,0,1-1.961.863,2.346,2.346,0,0,1-1.946-.978,4.069,4.069,0,0,1-.752-2.552Zm1.174.133a3.046,3.046,0,0,0,.482,1.828,1.56,1.56,0,0,0,1.333.66,1.713,1.713,0,0,0,1.631-1V12.973A1.726,1.726,0,0,0,37.166,12a1.567,1.567,0,0,0-1.346.667A3.354,3.354,0,0,0,35.337,14.642Z" transform="translate(919 800)" fill="#12263f"/>
    <path id="Trazado_134174" data-name="Trazado 134174" d="M2.647-9.242,5.668-1.7,8.69-9.242h1.581V0H9.052V-3.6l.114-3.885L6.132,0H5.2L2.171-7.465,2.292-3.6V0H1.073V-9.242ZM11.927-3.5a4.057,4.057,0,0,1,.4-1.815,2.96,2.96,0,0,1,1.1-1.244A3.007,3.007,0,0,1,15.044-7a2.9,2.9,0,0,1,2.269.971A3.736,3.736,0,0,1,18.18-3.44v.083a4.092,4.092,0,0,1-.384,1.8A2.916,2.916,0,0,1,16.7-.317a3.041,3.041,0,0,1-1.641.444,2.889,2.889,0,0,1-2.263-.971,3.718,3.718,0,0,1-.866-2.571Zm1.181.14a2.938,2.938,0,0,0,.53,1.834,1.7,1.7,0,0,0,1.419.692,1.686,1.686,0,0,0,1.422-.7A3.213,3.213,0,0,0,17.005-3.5a2.933,2.933,0,0,0-.536-1.831,1.705,1.705,0,0,0-1.425-.7,1.686,1.686,0,0,0-1.4.692A3.189,3.189,0,0,0,13.108-3.358Zm7.649-3.51.032.762A2.536,2.536,0,0,1,22.826-7a1.964,1.964,0,0,1,1.961,1.1,2.6,2.6,0,0,1,.892-.8,2.634,2.634,0,0,1,1.3-.3q2.26,0,2.3,2.393V0H28.1V-4.532a1.577,1.577,0,0,0-.336-1.1A1.482,1.482,0,0,0,26.635-6a1.557,1.557,0,0,0-1.085.39,1.584,1.584,0,0,0-.5,1.051V0H23.867V-4.5A1.31,1.31,0,0,0,22.4-6a1.571,1.571,0,0,0-1.581.984V0H19.646V-6.868Zm13.14,7A3,3,0,0,1,31.624-.79a3.4,3.4,0,0,1-.876-2.453v-.216a4.121,4.121,0,0,1,.39-1.825A3.045,3.045,0,0,1,32.23-6.541,2.745,2.745,0,0,1,33.75-7a2.572,2.572,0,0,1,2.082.882,3.82,3.82,0,0,1,.743,2.526V-3.1H31.922a2.441,2.441,0,0,0,.594,1.641,1.866,1.866,0,0,0,1.444.625,2.045,2.045,0,0,0,1.054-.254,2.648,2.648,0,0,0,.755-.673l.717.559A2.884,2.884,0,0,1,33.9.127ZM33.75-6.03a1.566,1.566,0,0,0-1.193.517,2.515,2.515,0,0,0-.6,1.45H35.4v-.089a2.237,2.237,0,0,0-.482-1.387A1.475,1.475,0,0,0,33.75-6.03Zm5.294-.838L39.083-6A2.5,2.5,0,0,1,41.139-7q2.177,0,2.2,2.457V0H42.161V-4.545a1.581,1.581,0,0,0-.34-1.1A1.361,1.361,0,0,0,40.784-6a1.7,1.7,0,0,0-1,.3,2.069,2.069,0,0,0-.673.8V0H37.934V-6.868ZM46.7-8.531v1.663h1.282v.908H46.7V-1.7a.953.953,0,0,0,.171.62.721.721,0,0,0,.584.207,2.843,2.843,0,0,0,.559-.076V0a3.424,3.424,0,0,1-.9.126,1.462,1.462,0,0,1-1.187-.476,2.045,2.045,0,0,1-.4-1.352V-5.96h-1.25v-.908h1.25V-8.531ZM48.915-3.5a4.057,4.057,0,0,1,.4-1.815,2.96,2.96,0,0,1,1.1-1.244A3.007,3.007,0,0,1,52.032-7a2.9,2.9,0,0,1,2.269.971,3.736,3.736,0,0,1,.866,2.583v.083a4.092,4.092,0,0,1-.384,1.8,2.916,2.916,0,0,1-1.1,1.241,3.041,3.041,0,0,1-1.641.444,2.889,2.889,0,0,1-2.263-.971,3.718,3.718,0,0,1-.866-2.571Zm1.181.14a2.938,2.938,0,0,0,.53,1.834,1.7,1.7,0,0,0,1.419.692,1.686,1.686,0,0,0,1.422-.7A3.213,3.213,0,0,0,53.993-3.5a2.933,2.933,0,0,0-.536-1.831,1.705,1.705,0,0,0-1.425-.7,1.686,1.686,0,0,0-1.4.692A3.189,3.189,0,0,0,50.1-3.358Zm9.477-.133a4.023,4.023,0,0,1,.749-2.542A2.369,2.369,0,0,1,62.283-7a2.382,2.382,0,0,1,1.911.825V-9.75h1.174V0H64.289l-.057-.736a2.391,2.391,0,0,1-1.961.863,2.346,2.346,0,0,1-1.946-.978A4.069,4.069,0,0,1,59.573-3.4Zm1.174.133a3.046,3.046,0,0,0,.482,1.828,1.56,1.56,0,0,0,1.333.66,1.713,1.713,0,0,0,1.631-1V-5.027A1.726,1.726,0,0,0,62.575-6a1.567,1.567,0,0,0-1.346.667A3.354,3.354,0,0,0,60.747-3.358ZM70.04.127A3,3,0,0,1,67.768-.79a3.4,3.4,0,0,1-.876-2.453v-.216a4.121,4.121,0,0,1,.39-1.825,3.045,3.045,0,0,1,1.092-1.257A2.745,2.745,0,0,1,69.894-7a2.572,2.572,0,0,1,2.082.882,3.82,3.82,0,0,1,.743,2.526V-3.1H68.066a2.441,2.441,0,0,0,.594,1.641A1.866,1.866,0,0,0,70.1-.832a2.045,2.045,0,0,0,1.054-.254,2.648,2.648,0,0,0,.755-.673l.717.559A2.884,2.884,0,0,1,70.04.127ZM69.894-6.03a1.566,1.566,0,0,0-1.193.517,2.515,2.515,0,0,0-.6,1.45h3.44v-.089a2.237,2.237,0,0,0-.482-1.387A1.475,1.475,0,0,0,69.894-6.03ZM4.132,16.381,6.773,8.758H8.106L4.678,18H3.6L.178,8.758H1.5Zm7.6,1.746a3,3,0,0,1-2.272-.917,3.4,3.4,0,0,1-.876-2.453v-.216a4.121,4.121,0,0,1,.39-1.825,3.045,3.045,0,0,1,1.092-1.257A2.745,2.745,0,0,1,11.584,11a2.572,2.572,0,0,1,2.082.882,3.82,3.82,0,0,1,.743,2.526V14.9H9.756a2.441,2.441,0,0,0,.594,1.641,1.866,1.866,0,0,0,1.444.625,2.045,2.045,0,0,0,1.054-.254,2.648,2.648,0,0,0,.755-.673l.717.559A2.884,2.884,0,0,1,11.73,18.127Zm-.146-6.157a1.566,1.566,0,0,0-1.193.517,2.515,2.515,0,0,0-.6,1.45h3.44v-.089a2.237,2.237,0,0,0-.482-1.387A1.475,1.475,0,0,0,11.584,11.97Zm7.5.216a3.519,3.519,0,0,0-.578-.044,1.547,1.547,0,0,0-1.568.984V18H15.768V11.132H16.91l.019.793A1.829,1.829,0,0,1,18.567,11a1.2,1.2,0,0,1,.521.089Zm.673,2.323a4.023,4.023,0,0,1,.749-2.542,2.548,2.548,0,0,1,3.872-.136V8.25h1.174V18H24.477l-.057-.736a2.391,2.391,0,0,1-1.961.863,2.346,2.346,0,0,1-1.946-.978A4.069,4.069,0,0,1,19.76,14.6Zm1.174.133a3.046,3.046,0,0,0,.482,1.828,1.56,1.56,0,0,0,1.333.66,1.713,1.713,0,0,0,1.631-1V12.973A1.726,1.726,0,0,0,22.763,12a1.567,1.567,0,0,0-1.346.667A3.354,3.354,0,0,0,20.935,14.642ZM31.618,18a2.467,2.467,0,0,1-.165-.724,2.62,2.62,0,0,1-1.955.851,2.424,2.424,0,0,1-1.666-.574,1.859,1.859,0,0,1-.651-1.457A1.942,1.942,0,0,1,28,14.429a3.846,3.846,0,0,1,2.295-.594h1.143V13.3a1.319,1.319,0,0,0-.368-.981,1.48,1.48,0,0,0-1.085-.365,1.712,1.712,0,0,0-1.054.317.935.935,0,0,0-.425.768H27.32a1.621,1.621,0,0,1,.365-.993,2.491,2.491,0,0,1,.99-.759A3.331,3.331,0,0,1,30.05,11a2.715,2.715,0,0,1,1.86.594,2.141,2.141,0,0,1,.7,1.635v3.161a3.865,3.865,0,0,0,.241,1.5V18Zm-1.949-.9a2.064,2.064,0,0,0,1.047-.286,1.728,1.728,0,0,0,.717-.743V14.667h-.92q-2.158,0-2.158,1.263a1.069,1.069,0,0,0,.368.863A1.415,1.415,0,0,0,29.669,17.1Zm4.494-2.6a4.023,4.023,0,0,1,.749-2.542,2.548,2.548,0,0,1,3.872-.136V8.25h1.174V18H38.879l-.057-.736a2.391,2.391,0,0,1-1.961.863,2.346,2.346,0,0,1-1.946-.978,4.069,4.069,0,0,1-.752-2.552Zm1.174.133a3.046,3.046,0,0,0,.482,1.828,1.56,1.56,0,0,0,1.333.66,1.713,1.713,0,0,0,1.631-1V12.973A1.726,1.726,0,0,0,37.166,12a1.567,1.567,0,0,0-1.346.667A3.354,3.354,0,0,0,35.337,14.642Z" transform="translate(968 932)" fill="#12263f"/>
    <path id="Trazado_134175" data-name="Trazado 134175" d="M6.17-4.082H2.292V0H1.073V-9.242H6.8v1H2.292v3.167H6.17ZM9.35,0H8.176V-6.868H9.35ZM8.081-8.69a.7.7,0,0,1,.175-.482.655.655,0,0,1,.517-.2.666.666,0,0,1,.521.2.694.694,0,0,1,.178.482.671.671,0,0,1-.178.476.678.678,0,0,1-.521.19.667.667,0,0,1-.517-.19A.678.678,0,0,1,8.081-8.69ZM12.34-6.868,12.378-6A2.5,2.5,0,0,1,14.435-7q2.177,0,2.2,2.457V0H15.457V-4.545a1.581,1.581,0,0,0-.34-1.1A1.361,1.361,0,0,0,14.079-6a1.7,1.7,0,0,0-1,.3,2.069,2.069,0,0,0-.673.8V0H11.229V-6.868Z" transform="translate(662 732)" fill="#12263f"/>
  </g>
</svg>
