<svg xmlns="http://www.w3.org/2000/svg" width="428.579" height="197.468" viewBox="0 0 428.579 197.468">
  <g id="Grupo_89360" data-name="Grupo 89360" transform="translate(-711.273 -2938.001)">
    <g id="asistente" transform="translate(822.833 2931.469)">
      <path id="Trazado_133981" data-name="Trazado 133981" d="M29.477,191.266A11.12,11.12,0,0,1,18.37,180.158V79.548A11.12,11.12,0,0,1,29.477,68.441H185.487a11.12,11.12,0,0,1,11.107,11.107v100.61a11.12,11.12,0,0,1-11.107,11.107Z" transform="translate(-2.097 -11.587)" fill="#cecece"/>
      <g id="Grupo_89344" data-name="Grupo 89344" transform="translate(171.467 56.854)">
        <path id="Trazado_133982" data-name="Trazado 133982" d="M221.22,68.441H209.3a11.12,11.12,0,0,1,11.107,11.107v100.61A11.12,11.12,0,0,1,209.3,191.266H221.22a11.12,11.12,0,0,0,11.107-11.107V79.548A11.12,11.12,0,0,0,221.22,68.441Z" transform="translate(-209.298 -68.441)" fill="#e2e2e2"/>
      </g>
      <g id="Grupo_89345" data-name="Grupo 89345" transform="translate(16.273 56.854)">
        <path id="Trazado_133983" data-name="Trazado 133983" d="M29.477,68.441H41.4A11.12,11.12,0,0,0,30.292,79.548v100.61A11.12,11.12,0,0,0,41.4,191.266H29.477A11.12,11.12,0,0,1,18.37,180.158V79.548A11.12,11.12,0,0,1,29.477,68.441Z" transform="translate(-18.37 -68.441)" fill="#afafaf"/>
      </g>
      <path id="Trazado_133984" data-name="Trazado 133984" d="M191.332,81.142V181.713A4.292,4.292,0,0,1,187.04,186H31.071a4.292,4.292,0,0,1-4.292-4.292V81.142a4.292,4.292,0,0,1,4.292-4.292H187.04a4.292,4.292,0,0,1,4.292,4.292Z" transform="translate(-3.671 -13.161)" fill="#63bce7"/>
      <g id="Grupo_89346" data-name="Grupo 89346" transform="translate(171.448 63.689)">
        <path id="Trazado_133985" data-name="Trazado 133985" d="M221.2,76.85H209.274a4.292,4.292,0,0,1,4.292,4.292V181.713A4.292,4.292,0,0,1,209.274,186H221.2a4.292,4.292,0,0,0,4.292-4.292V81.142A4.292,4.292,0,0,0,221.2,76.85Z" transform="translate(-209.274 -76.85)" fill="#63e2e7"/>
      </g>
      <g id="Grupo_89347" data-name="Grupo 89347" transform="translate(23.108 63.689)">
        <path id="Trazado_133986" data-name="Trazado 133986" d="M31.071,76.85H42.993A4.292,4.292,0,0,0,38.7,81.142V181.713A4.292,4.292,0,0,0,42.993,186H31.071a4.292,4.292,0,0,1-4.292-4.292V81.142a4.292,4.292,0,0,1,4.292-4.292Z" transform="translate(-26.779 -76.85)" fill="#6377e7"/>
      </g>
      <path id="Trazado_133987" data-name="Trazado 133987" d="M105.666,219.547h-97l2.482,5.709a14.089,14.089,0,0,0,12.921,8.472H187.262a14.089,14.089,0,0,0,12.921-8.472l2.482-5.709Z" transform="translate(-0.281 -39.868)" fill="#cecece"/>
      <g id="Grupo_89348" data-name="Grupo 89348" transform="translate(175.06 179.679)">
        <path id="Trazado_133988" data-name="Trazado 133988" d="M229.12,219.547l-2.482,5.709a14.089,14.089,0,0,1-12.921,8.472H225.64a14.089,14.089,0,0,0,12.921-8.472l2.482-5.709Z" transform="translate(-213.718 -219.547)" fill="#e2e2e2"/>
      </g>
      <g id="Grupo_89349" data-name="Grupo 89349" transform="translate(8.385 179.679)">
        <path id="Trazado_133989" data-name="Trazado 133989" d="M20.588,219.547l2.482,5.709a14.089,14.089,0,0,0,12.921,8.472H24.068a14.089,14.089,0,0,1-12.921-8.472l-2.482-5.709Z" transform="translate(-8.666 -219.547)" fill="#afafaf"/>
      </g>
      <path id="Trazado_133990" data-name="Trazado 133990" d="M82.442,219.547l3.43,4.38a7.071,7.071,0,0,0,5.568,2.712h56.066a7.071,7.071,0,0,0,5.568-2.712l3.431-4.38Z" transform="translate(-14.088 -39.868)" fill="#707070"/>
      <g id="Grupo_89357" data-name="Grupo 89357" transform="translate(7.167 6.532)">
        <path id="Trazado_133991" data-name="Trazado 133991" d="M81.895,65.895V45.508a37.476,37.476,0,1,1,74.952,0V58.75l-5.178.763a121.265,121.265,0,0,1-17.591,1.332c-15.913,0-27.268-3.5-33.916-6.372l-3.9,11.421Z" transform="translate(-21.153 -6.813)" fill="#db6e5f"/>
        <g id="Grupo_89354" data-name="Grupo 89354" transform="translate(52.453 7.282)">
          <g id="Grupo_89353" data-name="Grupo 89353">
            <g id="Grupo_89351" data-name="Grupo 89351">
              <path id="Trazado_133992" data-name="Trazado 133992" d="M89.352,69.4H152.18v62.828H89.352Z" transform="translate(-75.002 -25.581)" fill="#707070"/>
              <path id="Trazado_133993" data-name="Trazado 133993" d="M163.227,196.1H71.7V171.22A40.406,40.406,0,0,1,112.1,130.814h10.716a40.406,40.406,0,0,1,40.406,40.406Z" transform="translate(-71.698 -37.075)" fill="#f46275"/>
              <path id="Trazado_133994" data-name="Trazado 133994" d="M125.84,134.067a9.379,9.379,0,0,1-9.379-9.379V112.372a9.379,9.379,0,1,1,18.759,0v12.315A9.38,9.38,0,0,1,125.84,134.067Z" transform="translate(-80.076 -31.868)" fill="#dbbe36"/>
              <path id="Trazado_133995" data-name="Trazado 133995" d="M120.767,101.622A31.415,31.415,0,0,1,89.352,70.208V58.625a31.414,31.414,0,0,1,62.828,0V70.208a31.412,31.412,0,0,1-31.413,31.414Z" transform="translate(-75.002 -17.685)" fill="#dbbe36"/>
              <g id="Grupo_89350" data-name="Grupo 89350" transform="translate(30.373 54.105)">
                <circle id="Elipse_4550" data-name="Elipse 4550" cx="3.042" cy="3.042" r="3.042" fill="#3f3679"/>
                <circle id="Elipse_4551" data-name="Elipse 4551" cx="3.042" cy="3.042" r="3.042" transform="translate(24.983)" fill="#3f3679"/>
              </g>
              <path id="Trazado_133996" data-name="Trazado 133996" d="M71.7,181.394H90.955v24.177H71.7Z" transform="translate(-71.698 -46.541)" fill="#dbbe36"/>
              <path id="Trazado_133997" data-name="Trazado 133997" d="M160.612,181.394h19.257v24.177H160.612Z" transform="translate(-88.339 -46.541)" fill="#dbbe36"/>
              <path id="Trazado_133998" data-name="Trazado 133998" d="M89.352,61.229h3.967l4.785-14s18.187,12.966,54.077,7.68V46.9a31.414,31.414,0,0,0-62.828,0V61.229Z" transform="translate(-75.002 -15.491)" fill="#707070"/>
            </g>
            <g id="Grupo_89352" data-name="Grupo 89352" transform="translate(31.317 89.247)">
              <path id="Trazado_133999" data-name="Trazado 133999" d="M115.294,125.287l9.379,12.953-11.736,5.79-2.712-16.349Z" transform="translate(-110.226 -125.287)" fill="#cecece"/>
              <path id="Trazado_134000" data-name="Trazado 134000" d="M137.379,125.287,128,138.24l11.736,5.79,2.712-16.349Z" transform="translate(-113.553 -125.287)" fill="#cecece"/>
            </g>
          </g>
          <path id="Trazado_134001" data-name="Trazado 134001" d="M132.889,173.974h16.629v6.031H132.889Z" transform="translate(-83.151 -45.153)" fill="#707070"/>
        </g>
        <path id="Trazado_134002" data-name="Trazado 134002" d="M83.637,79.875h3.147v-19.3H83.637a8.01,8.01,0,0,0-8.011,8.011v3.281A8.011,8.011,0,0,0,83.637,79.875Z" transform="translate(-19.98 -16.646)" fill="#db6e5f"/>
        <path id="Trazado_134003" data-name="Trazado 134003" d="M169.794,79.875h-3.146v-19.3h3.146a8.01,8.01,0,0,1,8.011,8.011v3.281A8.011,8.011,0,0,1,169.794,79.875Z" transform="translate(-37.016 -16.646)" fill="#db6e5f"/>
        <g id="Grupo_89356" data-name="Grupo 89356">
          <g id="Grupo_89355" data-name="Grupo 89355">
            <path id="Trazado_134004" data-name="Trazado 134004" d="M201.02,185.875l2.482-5.709a1.22,1.22,0,0,0-1.118-1.705H190.718a12.3,12.3,0,0,0,5-9.887V67.962A12.341,12.341,0,0,0,183.39,55.635H148.726a9.265,9.265,0,0,0-4.646-5.406v-5a38.694,38.694,0,1,0-77.389,0v5a9.268,9.268,0,0,0-4.646,5.406H27.38A12.341,12.341,0,0,0,15.054,67.962v100.61a12.3,12.3,0,0,0,5,9.887H8.386a1.22,1.22,0,0,0-1.118,1.705l2.482,5.709a15.285,15.285,0,0,0,5.755,6.767H8.917a1.219,1.219,0,0,0,0,2.439H201.853a1.219,1.219,0,0,0,0-2.439h-6.587a15.28,15.28,0,0,0,5.755-6.767ZM80.1,171.625V136.948a1.219,1.219,0,0,0-2.439,0v10.5H60.851a38.964,38.964,0,0,1,29.6-37.488l2,12.043a1.217,1.217,0,0,0,.646.886,1.221,1.221,0,0,0,1.1.008l11.2-5.525,11.2,5.524a1.214,1.214,0,0,0,.54.126,1.233,1.233,0,0,0,.557-.134,1.217,1.217,0,0,0,.646-.886l2-12.042a38.969,38.969,0,0,1,29.6,37.487H133.112v-10.5a1.219,1.219,0,1,0-2.439,0v34.677H80.1Zm-19.257,0V149.887H77.657v21.739Zm-33.439,0a3.076,3.076,0,0,1-3.072-3.073V67.981A3.075,3.075,0,0,1,27.4,64.909H62.164a9.25,9.25,0,0,0,6.9,5.9v8.31a8.481,8.481,0,0,0,3.69,6.994v30.336A41.467,41.467,0,0,0,58.4,147.96v23.665h-31Zm93.32-64.079.314-1.894a1.219,1.219,0,0,0-.682-1.3l-4.369-2.063V97.193a32.79,32.79,0,0,0,19.6-18.5v35.8a41.68,41.68,0,0,0-14.859-6.951Zm-15.336,6.388-8.16-11.268V97.937a32.743,32.743,0,0,0,16.32,0v4.728Zm-14.968-9.583a1.219,1.219,0,0,0-.682,1.3l.314,1.894a41.687,41.687,0,0,0-14.86,6.948V87.261a8.455,8.455,0,0,0,2.356.34H80.66a32.735,32.735,0,0,0,14.126,9.594v5.094Zm45.161-49.718c0,.041,0,3,0,3v8.7A30.178,30.178,0,0,1,83.971,87.6h9.066a1.219,1.219,0,0,0,0-2.439H81.8a30.041,30.041,0,0,1-6.612-18.825V60.772h2.747a1.218,1.218,0,0,0,1.153-.825l4.285-12.533C88.188,50.252,105.545,58.719,135.578,54.633ZM78.753,85.162H77.547a6.021,6.021,0,0,1-2.356-.478V78.7A32.606,32.606,0,0,0,78.753,85.162ZM95.611,104.6l7.94,10.964-8.966,4.424-2.292-13.821Zm19.547,0,3.32,1.568-2.292,13.821-8.966-4.424Zm20.421-54.137v1.719c-34.226,4.741-51.974-7.49-52.149-7.615a1.22,1.22,0,0,0-1.861.6l-4.5,13.172H75.19V45.227a30.195,30.195,0,1,1,60.389,0v5.231ZM72.752,82.785A6.006,6.006,0,0,1,71.5,79.115V70.979h1.252Zm60.36,67.1h16.818v21.739H133.112Zm19.257-1.219v-.707a41.472,41.472,0,0,0-14.35-31.513V70.979h1.927a9.236,9.236,0,0,0,8.661-6.07H183.37a3.075,3.075,0,0,1,3.072,3.072V168.552a3.076,3.076,0,0,1-3.072,3.073h-31Zm-5.632-90.2V61.75a6.8,6.8,0,0,1-6.79,6.79h-1.927V51.678h1.927a6.8,6.8,0,0,1,6.79,6.791ZM69.129,45.228a36.256,36.256,0,1,1,72.512,0V49.4a9.253,9.253,0,0,0-1.7-.163h-1.927V45.226a32.633,32.633,0,1,0-65.266,0v4.013H70.825a9.182,9.182,0,0,0-1.7.163Zm-5.1,13.241a6.8,6.8,0,0,1,6.79-6.79h1.927V68.541H70.824a6.8,6.8,0,0,1-6.79-6.79Zm-46.541,110.1V67.962a9.9,9.9,0,0,1,9.887-9.888H61.614c-.006.132-.02.262-.02.4v3.281c0,.243.018.482.037.721H27.4a5.516,5.516,0,0,0-5.51,5.51V168.552a5.517,5.517,0,0,0,5.51,5.511H183.37a5.517,5.517,0,0,0,5.51-5.511V67.981a5.516,5.516,0,0,0-5.51-5.51H149.139c.019-.238.037-.477.037-.721V58.469c0-.133-.015-.263-.02-.4H183.39a9.9,9.9,0,0,1,9.887,9.888v100.61a9.9,9.9,0,0,1-9.887,9.887H27.38a9.9,9.9,0,0,1-9.887-9.887ZM139.913,180.9l-1.886,2.409a5.818,5.818,0,0,1-4.609,2.243H77.352a5.819,5.819,0,0,1-4.609-2.243L70.858,180.9Zm47.069,11.743H23.788a12.862,12.862,0,0,1-9.9-4.653H37.575a1.219,1.219,0,0,0,0-2.439H12.3c-.107-.214-.215-.427-.311-.648l-1.741-4H67.76l3.064,3.912a8.241,8.241,0,0,0,6.528,3.178h56.066a8.241,8.241,0,0,0,6.528-3.178l3.064-3.912h57.515l-1.741,4c-.1.22-.2.434-.311.648H173.194a1.219,1.219,0,0,0,0,2.439h23.687A12.856,12.856,0,0,1,186.982,192.641Z" transform="translate(-7.167 -6.532)" fill="#12263f"/>
            <path id="Trazado_134005" data-name="Trazado 134005" d="M63,226.771H54.564a1.219,1.219,0,1,0,0,2.439H63a1.219,1.219,0,1,0,0-2.439Z" transform="translate(-15.81 -47.752)" fill="#12263f"/>
            <path id="Trazado_134006" data-name="Trazado 134006" d="M198.932,226.771H190.5a1.219,1.219,0,1,0,0,2.439h8.433a1.219,1.219,0,1,0,0-2.439Z" transform="translate(-41.252 -47.752)" fill="#12263f"/>
            <path id="Trazado_134007" data-name="Trazado 134007" d="M23.673,246.468H9.039a1.219,1.219,0,0,0,0,2.439H23.673a1.219,1.219,0,0,0,0-2.439Z" transform="translate(-7.289 -51.439)" fill="#12263f"/>
            <path id="Trazado_134008" data-name="Trazado 134008" d="M243.03,246.468H228.4a1.219,1.219,0,0,0,0,2.439H243.03a1.219,1.219,0,0,0,0-2.439Z" transform="translate(-48.344 -51.439)" fill="#12263f"/>
            <path id="Trazado_134009" data-name="Trazado 134009" d="M184.33,246.468H37.24a1.219,1.219,0,1,0,0,2.439H184.331a1.219,1.219,0,1,0,0-2.439Z" transform="translate(-12.568 -51.439)" fill="#12263f"/>
            <path id="Trazado_134010" data-name="Trazado 134010" d="M127.719,94.709a1.22,1.22,0,0,0,1.219-1.219V88.4a1.219,1.219,0,0,0-2.439,0V93.49A1.22,1.22,0,0,0,127.719,94.709Z" transform="translate(-29.502 -21.626)" fill="#12263f"/>
            <path id="Trazado_134011" data-name="Trazado 134011" d="M130.388,103.682a4.963,4.963,0,0,1-7.483,0,1.219,1.219,0,1,0-1.834,1.606,7.4,7.4,0,0,0,11.149,0,1.218,1.218,0,1,0-1.832-1.606Z" transform="translate(-28.429 -24.637)" fill="#12263f"/>
            <path id="Trazado_134012" data-name="Trazado 134012" d="M115.435,74.908h-8.01a1.219,1.219,0,1,0,0,2.439h8.01a1.219,1.219,0,1,0,0-2.439Z" transform="translate(-25.703 -19.329)" fill="#12263f"/>
            <path id="Trazado_134013" data-name="Trazado 134013" d="M136.94,76.127a1.22,1.22,0,0,0,1.219,1.219h8.01a1.219,1.219,0,0,0,0-2.439h-8.01A1.22,1.22,0,0,0,136.94,76.127Z" transform="translate(-31.456 -19.329)" fill="#12263f"/>
            <path id="Trazado_134014" data-name="Trazado 134014" d="M149.238,172.475h-16.63a1.22,1.22,0,0,0-1.219,1.219v6.031a1.22,1.22,0,0,0,1.219,1.219h16.63a1.22,1.22,0,0,0,1.219-1.219v-6.031A1.219,1.219,0,0,0,149.238,172.475Zm-1.219,6.031H133.828v-3.593h14.191Z" transform="translate(-30.417 -37.59)" fill="#12263f"/>
          </g>
          <path id="Trazado_134015" data-name="Trazado 134015" d="M111.864,106.793h-3.27a2.632,2.632,0,1,1,0-5.264h3.27a2.632,2.632,0,0,1,0,5.264Z" transform="translate(-25.658 -24.312)" fill="#12263f"/>
        </g>
      </g>
    </g>
    <g id="globos-de-texto" transform="translate(711.281 2918.783)">
      <path id="Trazado_134016" data-name="Trazado 134016" d="M184.566,42.163V70.552H126.1V42.163a2.02,2.02,0,0,1,2.016-2.013H182.55a2.019,2.019,0,0,1,2.016,2.013Z" transform="translate(-93.354 -4.442)" fill="#ffdf8e"/>
      <path id="Trazado_134017" data-name="Trazado 134017" d="M184.566,111.047v3.506H126.1V99.591h6.906a24.04,24.04,0,0,1,20.49,11.457Z" transform="translate(-93.354 -48.444)" fill="#ffcd6e"/>
      <path id="Trazado_134018" data-name="Trazado 134018" d="M227.373,167.634v17.9a10.565,10.565,0,0,1-10.709,10.436L209.5,209.835l-9.353-13.862H179.619a10.7,10.7,0,0,1-10.085-6.914,10.23,10.23,0,0,1-.623-3.522v-18.8a9.537,9.537,0,0,1,9.537-9.537h38.217a10.57,10.57,0,0,1,10.709,10.434Z" transform="translate(-125.045 -91.09)" fill="#f281ad"/>
      <path id="Trazado_134019" data-name="Trazado 134019" d="M181.984,182.488a23.69,23.69,0,0,1-12.454,6.571,10.23,10.23,0,0,1-.623-3.522v-18.8a9.537,9.537,0,0,1,9.537-9.537h8.919a23.116,23.116,0,0,1,1.587,8.1v0a23.659,23.659,0,0,1-6.966,17.189Z" transform="translate(-125.042 -91.091)" fill="#f76898"/>
      <g id="Grupo_89358" data-name="Grupo 89358" transform="translate(60.42 74.061)">
        <path id="Trazado_134020" data-name="Trazado 134020" d="M264.968,261.867H234.207a1.558,1.558,0,1,1,0-3.117h30.761a1.558,1.558,0,1,1,0,3.117Z" transform="translate(-232.649 -240.325)" fill="#fff"/>
        <path id="Trazado_134021" data-name="Trazado 134021" d="M283.078,226.4H258.671a1.558,1.558,0,0,1,0-3.117h24.407a1.558,1.558,0,1,1,0,3.117Z" transform="translate(-250.759 -214.068)" fill="#fff"/>
        <path id="Trazado_134022" data-name="Trazado 134022" d="M303.61,190.928h-17.2a1.558,1.558,0,0,1,0-3.117h17.2a1.558,1.558,0,1,1,0,3.117Z" transform="translate(-271.291 -187.811)" fill="#fff"/>
      </g>
      <path id="Trazado_134023" data-name="Trazado 134023" d="M64.45,132.7a19.908,19.908,0,0,1-19.908,20.21H28.691a3.058,3.058,0,0,0-1.192.244,3.024,3.024,0,0,0-1.13.836l-8.833,10.491-1.161-13.992v-.008A19.91,19.91,0,0,1,25.9,113.09H44.091C55.046,113.09,64.29,121.747,64.45,132.7Z" transform="translate(-4.438 -58.437)" fill="#c4e2fe"/>
      <path id="Trazado_134024" data-name="Trazado 134024" d="M95.543,132.7a19.908,19.908,0,0,1-19.908,20.21H59.784a3.058,3.058,0,0,0-1.192.244s-10.6-5.1-10.6-20.155A19.9,19.9,0,0,1,67.9,113.09h7.285C86.139,113.09,95.383,121.747,95.543,132.7Z" transform="translate(-35.531 -58.437)" fill="#9ccefd"/>
      <path id="Trazado_134025" data-name="Trazado 134025" d="M59.993,181.128a2.788,2.788,0,1,1-2.79-2.787A2.788,2.788,0,0,1,59.993,181.128Z" transform="translate(-40.289 -106.74)" fill="#fff"/>
      <path id="Trazado_134026" data-name="Trazado 134026" d="M113.493,181.128a2.788,2.788,0,1,1-2.79-2.787A2.788,2.788,0,0,1,113.493,181.128Z" transform="translate(-79.893 -106.74)" fill="#fff"/>
      <path id="Trazado_134027" data-name="Trazado 134027" d="M169.963,181.128a2.788,2.788,0,1,1-2.79-2.787A2.788,2.788,0,0,1,169.963,181.128Z" transform="translate(-121.696 -106.74)" fill="#fff"/>
      <path id="Trazado_134028" data-name="Trazado 134028" d="M92.77,64.606V37.721A3.571,3.571,0,0,0,89.2,34.15H67.348a1.558,1.558,0,0,0,0,3.117H89.2a.458.458,0,0,1,.457.457V64.552H59.016A22.065,22.065,0,0,0,39.653,53.095H34.3V37.721a.456.456,0,0,1,.455-.455H54.907a1.558,1.558,0,1,0,0-3.117H34.762a3.584,3.584,0,0,0-3.574,3.574V53.095H21.464A21.468,21.468,0,0,0,10.448,92.99l1.1,13.184a1.558,1.558,0,0,0,2.743.875l8.836-10.491a1.478,1.478,0,0,1,1.13-.525H40.1a21.7,21.7,0,0,0,2.3-.125,12.188,12.188,0,0,0,12.174,10.53h19.7l8.891,13.179a1.558,1.558,0,0,0,2.675-.158L92.588,106.4a12.119,12.119,0,0,0,11.3-11.955v-17.9A12.115,12.115,0,0,0,92.77,64.606ZM40.1,92.917H24.253a4.584,4.584,0,0,0-3.514,1.634l-6.4,7.6-.844-10.187a1.557,1.557,0,0,0-.81-1.288,18.352,18.352,0,0,1,8.782-34.466H39.653c10.22,0,18.657,8.109,18.8,18.075A18.347,18.347,0,0,1,40.1,92.917Zm60.665,1.53a9.024,9.024,0,0,1-9.15,8.875,1.562,1.562,0,0,0-1.384.844L84.282,115.7,76.4,104.01a1.56,1.56,0,0,0-1.291-.688H54.574a9.062,9.062,0,0,1-9.1-7.963,21.478,21.478,0,0,0,16.1-21.116,20.6,20.6,0,0,0-.327-3.371,21.029,21.029,0,0,0-.844-3.2H91.62a9.026,9.026,0,0,1,9.15,8.875Z" transform="translate(0)"/>
      <path id="Trazado_134029" data-name="Trazado 134029" d="M60,181.128a2.788,2.788,0,1,1-2.79-2.787A2.788,2.788,0,0,1,60,181.128Z" transform="translate(-40.291 -106.74)"/>
      <path id="Trazado_134030" data-name="Trazado 134030" d="M113.5,181.128a2.788,2.788,0,1,1-2.79-2.787A2.788,2.788,0,0,1,113.5,181.128Z" transform="translate(-79.896 -106.74)"/>
      <path id="Trazado_134031" data-name="Trazado 134031" d="M169.966,181.128a2.788,2.788,0,1,1-2.79-2.787,2.788,2.788,0,0,1,2.79,2.787Z" transform="translate(-121.699 -106.74)"/>
      <path id="Trazado_134032" data-name="Trazado 134032" d="M264.971,258.75H234.21a1.558,1.558,0,0,0,0,3.117h30.761a1.558,1.558,0,1,0,0-3.117Z" transform="translate(-172.231 -166.264)"/>
      <path id="Trazado_134033" data-name="Trazado 134033" d="M283.081,223.28H258.674a1.558,1.558,0,1,0,0,3.117h24.407a1.558,1.558,0,0,0,0-3.117Z" transform="translate(-190.341 -140.007)"/>
      <path id="Trazado_134034" data-name="Trazado 134034" d="M303.612,187.811h-17.2a1.558,1.558,0,1,0,0,3.117h17.2a1.558,1.558,0,0,0,0-3.117Z" transform="translate(-210.872 -113.75)"/>
      <circle id="Elipse_4552" data-name="Elipse 4552" cx="1.554" cy="1.554" r="1.554" transform="translate(59.573 34.189)"/>
    </g>
    <g id="whatsapp" transform="translate(1067.849 3063.539)">
      <g id="Grupo_89359" data-name="Grupo 89359" transform="translate(1.904 1.405)">
        <path id="Trazado_134035" data-name="Trazado 134035" d="M44.969,15.62a28.606,28.606,0,1,1-13.739,53.7l-1.984-1.089L18.579,71.115l2.908-10.377-1.21-2.061A28.611,28.611,0,0,1,44.969,15.62ZM28.526,74.248A34.222,34.222,0,1,0,15.431,61.522L10.5,79.12Zm0,0" transform="translate(-10.5 -10)" fill="#fff" fill-rule="evenodd"/>
        <path id="Trazado_134036" data-name="Trazado 134036" d="M109.442,78.606a28.606,28.606,0,1,0-53.3,14.452l1.209,2.061L54.447,105.5l10.666-2.883L67.1,103.7a28.614,28.614,0,0,0,42.344-25.1ZM72.675,77.147a24.014,24.014,0,0,0,5.61,6.342c2.508,1.942,6.443,4.494,7.722,3.362.6-.534,2.265-2.941,2.486-3.113a2.01,2.01,0,0,1,2.7-.56c1.74.844,6.08,3,6.08,3a1.805,1.805,0,0,1,.9,1.854,17.2,17.2,0,0,1-.1,1.851s-.631,5.054-7.529,5.255c-3.123.091-6.738-1.182-9.942-2.816A33.9,33.9,0,0,1,68.062,81.656c-2.48-3.255-4.958-7.531-4.52-11.333.76-6.6,4.954-7.2,4.954-7.2a17.44,17.44,0,0,1,1.854-.015,1.8,1.8,0,0,1,1.808.988s2.037,4.651,2.8,6.429-.061,2.553-.243,2.766-1.276,1.5-1.839,2.082A1.519,1.519,0,0,0,72.675,77.147Zm0,0" transform="translate(-46.368 -44.38)" fill="#92e89f" fill-rule="evenodd"/>
        <path id="Trazado_134037" data-name="Trazado 134037" d="M143.846,150.63c-.76-1.778-2.8-6.428-2.8-6.428a1.8,1.8,0,0,0-1.809-.988,17.449,17.449,0,0,0-1.854.015s-4.194.608-4.954,7.2c-.438,3.8,2.04,8.077,4.52,11.333A33.91,33.91,0,0,0,149.49,172.43c3.2,1.634,6.82,2.907,9.943,2.816,6.9-.2,7.529-5.255,7.529-5.255a17.427,17.427,0,0,0,.1-1.852,1.8,1.8,0,0,0-.9-1.853s-4.341-2.153-6.081-3a2.009,2.009,0,0,0-2.7.559c-.221.172-1.883,2.579-2.487,3.113-1.279,1.132-5.214-1.42-7.722-3.362a24.022,24.022,0,0,1-5.61-6.342,1.518,1.518,0,0,1,.2-1.779c.563-.577,1.657-1.869,1.839-2.082S144.606,152.409,143.846,150.63Zm0,0" transform="translate(-115.259 -124.49)" fill="#fff" fill-rule="evenodd"/>
      </g>
      <path id="Trazado_134038" data-name="Trazado 134038" d="M61.568,10.436A35.634,35.634,0,0,0,15.655,6.641,1.4,1.4,0,1,0,17.29,8.925a32.818,32.818,0,1,1,3.316,55.5,1.409,1.409,0,0,0-1.043-.125L3.924,68.523,8.188,53.306a1.4,1.4,0,0,0-.141-1.09A32.837,32.837,0,0,1,9.668,16.548a1.4,1.4,0,0,0-2.285-1.635,35.648,35.648,0,0,0-2.06,38.2L.552,70.146a1.4,1.4,0,0,0,1.719,1.735l17.486-4.726a35.634,35.634,0,0,0,41.811-56.72Zm0,0" transform="translate(0)"/>
      <path id="Trazado_134039" data-name="Trazado 134039" d="M95.27,87.041a1.405,1.405,0,0,0,1.949-.389,30.01,30.01,0,1,0-50.88-1.478l.907,1.545-2.747,9.8a1.4,1.4,0,0,0,1.719,1.735l10.12-2.735,1.488.817a30.037,30.037,0,0,0,31.057-1.351,1.4,1.4,0,0,0-1.56-2.337,27.229,27.229,0,0,1-28.145,1.225l-1.984-1.09a1.408,1.408,0,0,0-1.043-.125L47.871,94.9l2.241-8a1.405,1.405,0,0,0-.141-1.09l-1.21-2.061a27.2,27.2,0,1,1,46.119,1.341A1.4,1.4,0,0,0,95.27,87.041Zm0,0" transform="translate(-35.868 -34.38)"/>
      <path id="Trazado_134040" data-name="Trazado 134040" d="M136,145.8l.093-.108a3.807,3.807,0,0,0,.452-4.214c-.722-1.687-2.609-6-2.788-6.409a3.242,3.242,0,0,0-3.08-1.86,17.732,17.732,0,0,0-2.05.025l-.034,0c-.215.031-5.275.85-6.149,8.434-.4,3.486,1.213,7.64,4.8,12.345a35.286,35.286,0,0,0,13.016,11.063c2.687,1.37,6.613,2.974,10.267,2.974.119,0,.237,0,.355-.005,4.1-.12,6.3-1.825,7.412-3.235a7.092,7.092,0,0,0,1.467-3.227,19.743,19.743,0,0,0,.117-2.01,3.243,3.243,0,0,0-1.711-3.165c-.39-.194-4.413-2.188-6.062-2.988a3.348,3.348,0,0,0-4.224.75l-.022.024a8.94,8.94,0,0,0-.995,1.235c-.369.493-1.1,1.478-1.417,1.807-.661.047-2.87-.926-6-3.351a22.676,22.676,0,0,1-5.248-5.925.274.274,0,0,1-.015-.107C134.664,147.363,135.451,146.449,136,145.8Zm1.723,10.309a31.2,31.2,0,0,0,4.547,2.976c.839.425,3.393,1.721,4.967.328a18.486,18.486,0,0,0,1.876-2.3c.238-.318.53-.708.643-.843.074-.067.134-.133.19-.193.253-.274.368-.4.932-.126,1.692.821,5.915,2.915,6.066,2.99a.818.818,0,0,1,.124.559c-.031,1.165-.077,1.585-.086,1.664a.205.205,0,0,0-.007.043,4.476,4.476,0,0,1-.967,1.962c-1.092,1.3-2.844,2-5.208,2.07-3.161.094-6.781-1.4-9.264-2.663a32.315,32.315,0,0,1-12.058-10.264c-3.086-4.05-4.553-7.619-4.242-10.321.586-5.087,3.374-5.886,3.748-5.97.132-.008.577-.027,1.636,0a.822.822,0,0,1,.553.151c.07.159,2.05,4.683,2.789,6.413.369.864.143,1.119.033,1.241l-.052.058-.081.095c-.812.951-1.383,1.6-1.7,1.921a2.906,2.906,0,0,0-.408,3.461A25.359,25.359,0,0,0,137.724,156.114Zm0,0" transform="translate(-104.762 -114.489)"/>
      <path id="Trazado_134041" data-name="Trazado 134041" d="M74.99,74.162a1.4,1.4,0,1,0-.945-2.444h0a1.4,1.4,0,0,0,.946,2.444Zm0,0" transform="translate(-62.818 -61.328)"/>
      <path id="Trazado_134042" data-name="Trazado 134042" d="M390.2,388.058h0a1.4,1.4,0,1,0,1.985-.1A1.4,1.4,0,0,0,390.2,388.059Zm0,0" transform="translate(-334.635 -333.146)"/>
    </g>
  </g>
</svg>
