<svg xmlns="http://www.w3.org/2000/svg" width="452.464" height="462.239" viewBox="0 0 452.464 462.239">
  <g id="Grupo_89392" data-name="Grupo 89392" transform="translate(-888.324 -389.565)">
    <g id="hexagono" transform="translate(1060.395 390.564) rotate(90)">
      <path id="Trazado_132634" data-name="Trazado 132634" d="M39.347,171.779,4.495,99.17,39.347,26.561H138.1L172.948,99.17,138.1,171.779Z" transform="translate(-2.602 -2.602)" fill="#e5e5e5"/>
      <path id="Trazado_132635" data-name="Trazado 132635" d="M250.417,26.561H241.7L276.556,99.17,241.7,171.779h8.713L285.27,99.17Z" transform="translate(-114.923 -2.602)" fill="#c6c6c6"/>
      <path id="Trazado_132636" data-name="Trazado 132636" d="M39.347,26.561H48.06L13.208,99.17,48.06,171.779H39.347L4.495,99.17Z" transform="translate(-2.602 -2.602)" fill="#fff"/>
      <path id="Trazado_132637" data-name="Trazado 132637" d="M135.494,172.071H36.746a2.893,2.893,0,0,1-2.608-1.641L-.715,97.82a2.894,2.894,0,0,1,0-2.5L34.137,22.708a2.893,2.893,0,0,1,2.608-1.642h98.749a2.894,2.894,0,0,1,2.608,1.641l34.852,72.609a2.894,2.894,0,0,1,0,2.5L138.1,170.428A2.893,2.893,0,0,1,135.494,172.071Zm-96.928-5.786h95.108l33.464-69.716L133.674,26.852H38.566L5.1,96.568Z" fill="#414d55"/>
    </g>
    <g id="hexagono-2" data-name="hexagono" transform="translate(1220.395 390.564) rotate(90)">
      <path id="Trazado_132634-2" data-name="Trazado 132634" d="M39.347,171.779,4.495,99.17,39.347,26.561H138.1L172.948,99.17,138.1,171.779Z" transform="translate(-2.602 -2.602)" fill="#cbeeff"/>
      <path id="Trazado_132635-2" data-name="Trazado 132635" d="M250.417,26.561H241.7L276.556,99.17,241.7,171.779h8.713L285.27,99.17Z" transform="translate(-114.923 -2.602)" fill="#53bced"/>
      <path id="Trazado_132636-2" data-name="Trazado 132636" d="M39.347,26.561H48.06L13.208,99.17,48.06,171.779H39.347L4.495,99.17Z" transform="translate(-2.602 -2.602)" fill="#fff"/>
      <path id="Trazado_132637-2" data-name="Trazado 132637" d="M135.494,172.071H36.746a2.893,2.893,0,0,1-2.608-1.641L-.715,97.82a2.894,2.894,0,0,1,0-2.5L34.137,22.708a2.893,2.893,0,0,1,2.608-1.642h98.749a2.894,2.894,0,0,1,2.608,1.641l34.852,72.609a2.894,2.894,0,0,1,0,2.5L138.1,170.428A2.893,2.893,0,0,1,135.494,172.071Zm-96.928-5.786h95.108l33.464-69.716L133.674,26.852H38.566L5.1,96.568Z" fill="#12263f"/>
    </g>
    <path id="Trazado_134105" data-name="Trazado 134105" d="M11.188-4.263A4.528,4.528,0,0,1,9.664-1.011,5.355,5.355,0,0,1,6.038.176,4.816,4.816,0,0,1,2.167-1.481,6.793,6.793,0,0,1,.756-6.029v-.782a7.671,7.671,0,0,1,.65-3.252,4.874,4.874,0,0,1,1.859-2.158,5.207,5.207,0,0,1,2.808-.751,5.217,5.217,0,0,1,3.568,1.187,4.866,4.866,0,0,1,1.564,3.331H8.569a2.673,2.673,0,0,0-.69-1.8,2.555,2.555,0,0,0-1.806-.558A2.24,2.24,0,0,0,4.1-9.866a5.3,5.3,0,0,0-.672,2.931v.967a5.667,5.667,0,0,0,.628,3.032,2.2,2.2,0,0,0,1.982.958,2.6,2.6,0,0,0,1.824-.558,2.521,2.521,0,0,0,.69-1.727ZM15.434,0H12.885V-13.5h2.549Zm4.772,0H17.657V-9.51h2.549Zm-2.7-11.971a1.251,1.251,0,0,1,.382-.94,1.436,1.436,0,0,1,1.042-.369,1.44,1.44,0,0,1,1.037.369,1.244,1.244,0,0,1,.387.94,1.247,1.247,0,0,1-.391.949,1.443,1.443,0,0,1-1.033.369,1.443,1.443,0,0,1-1.033-.369A1.247,1.247,0,0,1,17.508-11.971ZM26.675.176a4.668,4.668,0,0,1-3.406-1.283,4.561,4.561,0,0,1-1.314-3.419v-.246a5.745,5.745,0,0,1,.554-2.562,4.064,4.064,0,0,1,1.569-1.74,4.4,4.4,0,0,1,2.316-.611,3.947,3.947,0,0,1,3.072,1.23,5,5,0,0,1,1.121,3.489v1.037H24.53a2.36,2.36,0,0,0,.743,1.494,2.245,2.245,0,0,0,1.569.563,2.742,2.742,0,0,0,2.294-1.063l1.248,1.4A3.813,3.813,0,0,1,28.837-.277,5.075,5.075,0,0,1,26.675.176Zm-.29-7.8a1.591,1.591,0,0,0-1.226.51,2.634,2.634,0,0,0-.6,1.459H28.09v-.2a1.878,1.878,0,0,0-.457-1.305A1.642,1.642,0,0,0,26.385-7.629Zm7.98-1.881.079,1.1a3.32,3.32,0,0,1,2.733-1.274,2.759,2.759,0,0,1,2.25.888,4.142,4.142,0,0,1,.756,2.654V0h-2.54V-6.082a1.648,1.648,0,0,0-.352-1.173,1.574,1.574,0,0,0-1.169-.365,1.747,1.747,0,0,0-1.608.914V0h-2.54V-9.51Zm10.784-2.338V-9.51h1.626v1.863H45.149V-2.9a1.133,1.133,0,0,0,.2.756,1.015,1.015,0,0,0,.773.229,4.051,4.051,0,0,0,.747-.062V-.053a5.229,5.229,0,0,1-1.538.229,2.425,2.425,0,0,1-2.725-2.7V-7.646H41.221V-9.51h1.389v-2.338ZM52.567.176a4.668,4.668,0,0,1-3.406-1.283,4.561,4.561,0,0,1-1.314-3.419v-.246A5.745,5.745,0,0,1,48.4-7.334a4.064,4.064,0,0,1,1.569-1.74,4.4,4.4,0,0,1,2.316-.611,3.947,3.947,0,0,1,3.072,1.23,5,5,0,0,1,1.121,3.489v1.037H50.423a2.36,2.36,0,0,0,.743,1.494,2.245,2.245,0,0,0,1.569.563,2.742,2.742,0,0,0,2.294-1.063l1.248,1.4A3.813,3.813,0,0,1,54.729-.277,5.075,5.075,0,0,1,52.567.176Zm-.29-7.8a1.591,1.591,0,0,0-1.226.51,2.634,2.634,0,0,0-.6,1.459h3.533v-.2a1.878,1.878,0,0,0-.457-1.305A1.642,1.642,0,0,0,52.277-7.629Zm10.793,5a.818.818,0,0,0-.461-.734,5.241,5.241,0,0,0-1.481-.479q-3.393-.712-3.393-2.883a2.613,2.613,0,0,1,1.05-2.114,4.237,4.237,0,0,1,2.747-.848,4.56,4.56,0,0,1,2.9.853,2.687,2.687,0,0,1,1.085,2.215h-2.54a1.229,1.229,0,0,0-.352-.9,1.488,1.488,0,0,0-1.1-.356,1.52,1.52,0,0,0-.993.29.916.916,0,0,0-.352.738.783.783,0,0,0,.4.681,4.114,4.114,0,0,0,1.349.448,11.019,11.019,0,0,1,1.6.426A2.628,2.628,0,0,1,65.54-2.733a2.481,2.481,0,0,1-1.116,2.1,4.815,4.815,0,0,1-2.883.8A5.029,5.029,0,0,1,59.418-.25a3.561,3.561,0,0,1-1.455-1.169,2.716,2.716,0,0,1-.527-1.6h2.408a1.326,1.326,0,0,0,.5,1.037,1.987,1.987,0,0,0,1.248.36A1.839,1.839,0,0,0,62.7-1.9.861.861,0,0,0,63.07-2.628Z" transform="translate(1094 481.564)" fill="#12263f"/>
    <g id="hexagono-3" data-name="hexagono" transform="translate(1140.893 533.564) rotate(90)">
      <path id="Trazado_132634-3" data-name="Trazado 132634" d="M39.347,171.779,4.495,99.17,39.347,26.561H138.1L172.948,99.17,138.1,171.779Z" transform="translate(-2.602 -2.602)" fill="#fff8d8"/>
      <path id="Trazado_132635-3" data-name="Trazado 132635" d="M250.417,26.561H241.7L276.556,99.17,241.7,171.779h8.713L285.27,99.17Z" transform="translate(-114.923 -2.602)" fill="#dbbe36"/>
      <path id="Trazado_132636-3" data-name="Trazado 132636" d="M39.347,26.561H48.06L13.208,99.17,48.06,171.779H39.347L4.495,99.17Z" transform="translate(-2.602 -2.602)" fill="#fff"/>
      <path id="Trazado_132637-3" data-name="Trazado 132637" d="M135.494,172.071H36.746a2.893,2.893,0,0,1-2.608-1.641L-.715,97.82a2.894,2.894,0,0,1,0-2.5L34.137,22.708a2.893,2.893,0,0,1,2.608-1.642h98.749a2.894,2.894,0,0,1,2.608,1.641l34.852,72.609a2.894,2.894,0,0,1,0,2.5L138.1,170.428A2.893,2.893,0,0,1,135.494,172.071Zm-96.928-5.786h95.108l33.464-69.716L133.674,26.852H38.566L5.1,96.568Z" fill="#12263f"/>
    </g>
    <path id="Trazado_134104" data-name="Trazado 134104" d="M1.143,0V-12.8H5.08a5.98,5.98,0,0,1,3.019.76,5.3,5.3,0,0,1,2.079,2.162,6.669,6.669,0,0,1,.747,3.186V-6.1a6.688,6.688,0,0,1-.734,3.173A5.256,5.256,0,0,1,8.121-.773,6.025,6.025,0,0,1,5.106,0ZM3.779-10.661v8.543H5.054A2.863,2.863,0,0,0,7.418-3.129a4.567,4.567,0,0,0,.835-2.892V-6.7a4.64,4.64,0,0,0-.809-2.958A2.854,2.854,0,0,0,5.08-10.661ZM15.354,0H12.806V-9.51h2.549Zm-2.7-11.971a1.251,1.251,0,0,1,.382-.94,1.436,1.436,0,0,1,1.042-.369,1.44,1.44,0,0,1,1.037.369,1.244,1.244,0,0,1,.387.94,1.247,1.247,0,0,1-.391.949,1.443,1.443,0,0,1-1.033.369,1.443,1.443,0,0,1-1.033-.369A1.247,1.247,0,0,1,12.656-11.971ZM22.6-2.628a.818.818,0,0,0-.461-.734,5.241,5.241,0,0,0-1.481-.479q-3.393-.712-3.393-2.883a2.613,2.613,0,0,1,1.05-2.114,4.237,4.237,0,0,1,2.747-.848,4.56,4.56,0,0,1,2.9.853A2.687,2.687,0,0,1,25.04-6.618H22.5a1.229,1.229,0,0,0-.352-.9,1.488,1.488,0,0,0-1.1-.356,1.52,1.52,0,0,0-.993.29.916.916,0,0,0-.352.738.783.783,0,0,0,.4.681,4.114,4.114,0,0,0,1.349.448,11.019,11.019,0,0,1,1.6.426,2.628,2.628,0,0,1,2.013,2.558,2.481,2.481,0,0,1-1.116,2.1,4.815,4.815,0,0,1-2.883.8A5.029,5.029,0,0,1,18.945-.25,3.561,3.561,0,0,1,17.49-1.419a2.716,2.716,0,0,1-.527-1.6h2.408a1.326,1.326,0,0,0,.5,1.037,1.987,1.987,0,0,0,1.248.36,1.839,1.839,0,0,0,1.1-.277A.861.861,0,0,0,22.6-2.628Zm7.146-9.22V-9.51h1.626v1.863H29.742V-2.9a1.133,1.133,0,0,0,.2.756,1.015,1.015,0,0,0,.773.229,4.051,4.051,0,0,0,.747-.062V-.053a5.229,5.229,0,0,1-1.538.229,2.425,2.425,0,0,1-2.725-2.7V-7.646H25.813V-9.51H27.2v-2.338Zm8.385,4.72a6.9,6.9,0,0,0-.914-.07,1.86,1.86,0,0,0-1.89.976V0h-2.54V-9.51h2.4l.07,1.134a2.354,2.354,0,0,1,2.118-1.31,2.662,2.662,0,0,1,.791.114ZM42.029,0H39.48V-9.51h2.549Zm-2.7-11.971a1.251,1.251,0,0,1,.382-.94,1.436,1.436,0,0,1,1.042-.369,1.44,1.44,0,0,1,1.037.369,1.244,1.244,0,0,1,.387.94,1.247,1.247,0,0,1-.391.949,1.443,1.443,0,0,1-1.033.369,1.443,1.443,0,0,1-1.033-.369A1.247,1.247,0,0,1,39.331-11.971Zm13.359,7.3A5.758,5.758,0,0,1,51.715-1.1,3.231,3.231,0,0,1,48.99.176a2.969,2.969,0,0,1-2.47-1.187L46.406,0H44.121V-13.5h2.54v4.843a2.893,2.893,0,0,1,2.312-1.028A3.258,3.258,0,0,1,51.7-8.407a5.767,5.767,0,0,1,.989,3.6Zm-2.54-.185a3.783,3.783,0,0,0-.457-2.1,1.545,1.545,0,0,0-1.362-.664,1.676,1.676,0,0,0-1.67.993v3.753a1.7,1.7,0,0,0,1.688,1,1.568,1.568,0,0,0,1.617-1.213A6.257,6.257,0,0,0,50.15-4.852Zm9.8,3.885a3.185,3.185,0,0,1-2.6,1.143A3,3,0,0,1,55.015-.7a3.752,3.752,0,0,1-.822-2.575V-9.51h2.54v6.144q0,1.485,1.354,1.485a1.835,1.835,0,0,0,1.775-.9V-9.51h2.549V0H60.021ZM67.008,0H64.459V-9.51h2.549Zm-2.7-11.971a1.251,1.251,0,0,1,.382-.94,1.436,1.436,0,0,1,1.042-.369,1.44,1.44,0,0,1,1.037.369,1.244,1.244,0,0,1,.387.94,1.247,1.247,0,0,1-.391.949,1.443,1.443,0,0,1-1.033.369,1.443,1.443,0,0,1-1.033-.369A1.247,1.247,0,0,1,64.31-11.971ZM68.7-4.825a5.731,5.731,0,0,1,1-3.542,3.237,3.237,0,0,1,2.729-1.318,2.913,2.913,0,0,1,2.294,1.037V-13.5h2.549V0H74.979l-.123-1.011A2.989,2.989,0,0,1,72.413.176a3.228,3.228,0,0,1-2.694-1.323A5.916,5.916,0,0,1,68.7-4.825Zm2.54.185a3.744,3.744,0,0,0,.466,2.048,1.518,1.518,0,0,0,1.354.712,1.7,1.7,0,0,0,1.661-.993V-6.627a1.676,1.676,0,0,0-1.644-.993Q71.244-7.62,71.244-4.641Zm7.6-.2a5.64,5.64,0,0,1,.545-2.522A3.989,3.989,0,0,1,80.96-9.079a4.577,4.577,0,0,1,2.377-.606A4.33,4.33,0,0,1,86.48-8.508a4.727,4.727,0,0,1,1.358,3.2l.018.65a4.97,4.97,0,0,1-1.222,3.511A4.247,4.247,0,0,1,83.355.176a4.268,4.268,0,0,1-3.283-1.318,5.058,5.058,0,0,1-1.226-3.586Zm2.54.185a3.545,3.545,0,0,0,.51,2.07,1.682,1.682,0,0,0,1.459.716A1.686,1.686,0,0,0,84.8-2.58a3.879,3.879,0,0,0,.519-2.263A3.51,3.51,0,0,0,84.8-6.9a1.686,1.686,0,0,0-1.459-.729A1.659,1.659,0,0,0,81.9-6.9,3.944,3.944,0,0,0,81.387-4.658Zm13.377-2.47a6.9,6.9,0,0,0-.914-.07,1.86,1.86,0,0,0-1.89.976V0H89.42V-9.51h2.4l.07,1.134a2.354,2.354,0,0,1,2.118-1.31,2.662,2.662,0,0,1,.791.114ZM100.2.176A4.668,4.668,0,0,1,96.79-1.107a4.561,4.561,0,0,1-1.314-3.419v-.246a5.745,5.745,0,0,1,.554-2.562A4.064,4.064,0,0,1,97.6-9.075a4.4,4.4,0,0,1,2.316-.611,3.947,3.947,0,0,1,3.072,1.23,5,5,0,0,1,1.121,3.489v1.037H98.051a2.36,2.36,0,0,0,.743,1.494,2.245,2.245,0,0,0,1.569.563,2.742,2.742,0,0,0,2.294-1.063l1.248,1.4a3.813,3.813,0,0,1-1.547,1.261A5.075,5.075,0,0,1,100.2.176Zm-.29-7.8a1.591,1.591,0,0,0-1.226.51,2.634,2.634,0,0,0-.6,1.459h3.533v-.2a1.878,1.878,0,0,0-.457-1.305A1.642,1.642,0,0,0,99.905-7.629Zm10.793,5a.818.818,0,0,0-.461-.734,5.241,5.241,0,0,0-1.481-.479q-3.393-.712-3.393-2.883a2.613,2.613,0,0,1,1.05-2.114,4.237,4.237,0,0,1,2.747-.848,4.56,4.56,0,0,1,2.9.853,2.687,2.687,0,0,1,1.085,2.215H110.6a1.229,1.229,0,0,0-.352-.9,1.488,1.488,0,0,0-1.1-.356,1.52,1.52,0,0,0-.993.29.916.916,0,0,0-.352.738.783.783,0,0,0,.4.681,4.114,4.114,0,0,0,1.349.448,11.019,11.019,0,0,1,1.6.426,2.628,2.628,0,0,1,2.013,2.558,2.481,2.481,0,0,1-1.116,2.1,4.815,4.815,0,0,1-2.883.8,5.029,5.029,0,0,1-2.123-.426,3.561,3.561,0,0,1-1.455-1.169,2.716,2.716,0,0,1-.527-1.6h2.408a1.326,1.326,0,0,0,.5,1.037,1.987,1.987,0,0,0,1.248.36,1.839,1.839,0,0,0,1.1-.277A.861.861,0,0,0,110.7-2.628Z" transform="translate(988 619.564)" fill="#12263f"/>
    <path id="Trazado_134103" data-name="Trazado 134103" d="M3.779-4.509V0H1.143V-12.8H6.135a5.776,5.776,0,0,1,2.536.527,3.886,3.886,0,0,1,1.683,1.5,4.178,4.178,0,0,1,.589,2.21A3.674,3.674,0,0,1,9.655-5.594,5.363,5.363,0,0,1,6.091-4.509Zm0-2.136H6.135a2.316,2.316,0,0,0,1.6-.492,1.79,1.79,0,0,0,.549-1.406,2.111,2.111,0,0,0-.554-1.521,2.068,2.068,0,0,0-1.529-.6H3.779Zm14.15-.483a6.9,6.9,0,0,0-.914-.07,1.86,1.86,0,0,0-1.89.976V0h-2.54V-9.51h2.4l.07,1.134a2.354,2.354,0,0,1,2.118-1.31,2.662,2.662,0,0,1,.791.114Zm5.432,7.3a4.668,4.668,0,0,1-3.406-1.283,4.561,4.561,0,0,1-1.314-3.419v-.246A5.745,5.745,0,0,1,19.2-7.334a4.064,4.064,0,0,1,1.569-1.74,4.4,4.4,0,0,1,2.316-.611,3.947,3.947,0,0,1,3.072,1.23,5,5,0,0,1,1.121,3.489v1.037H21.217a2.36,2.36,0,0,0,.743,1.494,2.245,2.245,0,0,0,1.569.563,2.742,2.742,0,0,0,2.294-1.063l1.248,1.4A3.813,3.813,0,0,1,25.523-.277,5.075,5.075,0,0,1,23.361.176Zm-.29-7.8a1.591,1.591,0,0,0-1.226.51,2.634,2.634,0,0,0-.6,1.459h3.533v-.2a1.878,1.878,0,0,0-.457-1.305A1.642,1.642,0,0,0,23.071-7.629Zm9.6,5.757a1.666,1.666,0,0,0,1.143-.387,1.355,1.355,0,0,0,.457-1.028H36.65a3.258,3.258,0,0,1-.527,1.771A3.48,3.48,0,0,1,34.7-.268a4.442,4.442,0,0,1-1.991.444,4.129,4.129,0,0,1-3.217-1.3A5.13,5.13,0,0,1,28.318-4.7v-.167a5.071,5.071,0,0,1,1.169-3.507A4.08,4.08,0,0,1,32.7-9.686,4,4,0,0,1,35.556-8.67a3.594,3.594,0,0,1,1.094,2.7H34.269a1.731,1.731,0,0,0-.457-1.2,1.528,1.528,0,0,0-1.16-.461,1.531,1.531,0,0,0-1.34.646,3.739,3.739,0,0,0-.453,2.1v.264a3.786,3.786,0,0,0,.448,2.109A1.55,1.55,0,0,0,32.669-1.872ZM40.781,0H38.232V-9.51h2.549Zm-2.7-11.971a1.251,1.251,0,0,1,.382-.94,1.436,1.436,0,0,1,1.042-.369,1.44,1.44,0,0,1,1.037.369,1.244,1.244,0,0,1,.387.94,1.247,1.247,0,0,1-.391.949,1.443,1.443,0,0,1-1.033.369,1.443,1.443,0,0,1-1.033-.369A1.247,1.247,0,0,1,38.083-11.971Zm4.395,7.128a5.64,5.64,0,0,1,.545-2.522,3.989,3.989,0,0,1,1.569-1.714,4.577,4.577,0,0,1,2.377-.606,4.33,4.33,0,0,1,3.142,1.178,4.727,4.727,0,0,1,1.358,3.2l.018.65a4.97,4.97,0,0,1-1.222,3.511A4.247,4.247,0,0,1,46.986.176,4.268,4.268,0,0,1,43.7-1.143a5.058,5.058,0,0,1-1.226-3.586Zm2.54.185a3.545,3.545,0,0,0,.51,2.07,1.682,1.682,0,0,0,1.459.716,1.686,1.686,0,0,0,1.441-.708,3.879,3.879,0,0,0,.519-2.263A3.51,3.51,0,0,0,48.428-6.9a1.686,1.686,0,0,0-1.459-.729,1.659,1.659,0,0,0-1.441.725A3.944,3.944,0,0,0,45.018-4.658ZM58.2-2.628a.818.818,0,0,0-.461-.734,5.241,5.241,0,0,0-1.481-.479q-3.393-.712-3.393-2.883a2.613,2.613,0,0,1,1.05-2.114,4.237,4.237,0,0,1,2.747-.848,4.56,4.56,0,0,1,2.9.853,2.687,2.687,0,0,1,1.085,2.215H58.1a1.229,1.229,0,0,0-.352-.9,1.488,1.488,0,0,0-1.1-.356,1.52,1.52,0,0,0-.993.29.916.916,0,0,0-.352.738.783.783,0,0,0,.4.681,4.114,4.114,0,0,0,1.349.448,11.019,11.019,0,0,1,1.6.426,2.628,2.628,0,0,1,2.013,2.558,2.481,2.481,0,0,1-1.116,2.1,4.815,4.815,0,0,1-2.883.8A5.029,5.029,0,0,1,54.549-.25a3.561,3.561,0,0,1-1.455-1.169,2.716,2.716,0,0,1-.527-1.6h2.408a1.326,1.326,0,0,0,.5,1.037,1.987,1.987,0,0,0,1.248.36,1.839,1.839,0,0,0,1.1-.277A.861.861,0,0,0,58.2-2.628Z" transform="translate(889 615.564)" fill="#12263f"/>
    <g id="hexagono-4" data-name="hexagono" transform="translate(1297.071 535.445) rotate(90)">
      <path id="Trazado_132634-4" data-name="Trazado 132634" d="M39.347,171.779,4.495,99.17,39.347,26.561H138.1L172.948,99.17,138.1,171.779Z" transform="translate(-2.602 -2.602)" fill="#e5e5e5"/>
      <path id="Trazado_132635-4" data-name="Trazado 132635" d="M250.417,26.561H241.7L276.556,99.17,241.7,171.779h8.713L285.27,99.17Z" transform="translate(-114.923 -2.602)" fill="#c6c6c6"/>
      <path id="Trazado_132636-4" data-name="Trazado 132636" d="M39.347,26.561H48.06L13.208,99.17,48.06,171.779H39.347L4.495,99.17Z" transform="translate(-2.602 -2.602)" fill="#fff"/>
      <path id="Trazado_132637-4" data-name="Trazado 132637" d="M135.494,172.071H36.746a2.893,2.893,0,0,1-2.608-1.641L-.715,97.82a2.894,2.894,0,0,1,0-2.5L34.137,22.708a2.893,2.893,0,0,1,2.608-1.642h98.749a2.894,2.894,0,0,1,2.608,1.641l34.852,72.609a2.894,2.894,0,0,1,0,2.5L138.1,170.428A2.893,2.893,0,0,1,135.494,172.071Zm-96.928-5.786h95.108l33.464-69.716L133.674,26.852H38.566L5.1,96.568Z" fill="#12263f"/>
    </g>
    <g id="hexagono-5" data-name="hexagono" transform="translate(1219.395 678.564) rotate(90)">
      <path id="Trazado_132634-5" data-name="Trazado 132634" d="M39.347,171.779,4.495,99.17,39.347,26.561H138.1L172.948,99.17,138.1,171.779Z" transform="translate(-2.602 -2.602)" fill="#cbeeff"/>
      <path id="Trazado_132635-5" data-name="Trazado 132635" d="M250.417,26.561H241.7L276.556,99.17,241.7,171.779h8.713L285.27,99.17Z" transform="translate(-114.923 -2.602)" fill="#53bced"/>
      <path id="Trazado_132636-5" data-name="Trazado 132636" d="M39.347,26.561H48.06L13.208,99.17,48.06,171.779H39.347L4.495,99.17Z" transform="translate(-2.602 -2.602)" fill="#fff"/>
      <path id="Trazado_132637-5" data-name="Trazado 132637" d="M135.494,172.071H36.746a2.893,2.893,0,0,1-2.608-1.641L-.715,97.82a2.894,2.894,0,0,1,0-2.5L34.137,22.708a2.893,2.893,0,0,1,2.608-1.642h98.749a2.894,2.894,0,0,1,2.608,1.641l34.852,72.609a2.894,2.894,0,0,1,0,2.5L138.1,170.428A2.893,2.893,0,0,1,135.494,172.071Zm-96.928-5.786h95.108l33.464-69.716L133.674,26.852H38.566L5.1,96.568Z" fill="#12263f"/>
    </g>
    <path id="Trazado_134106" data-name="Trazado 134106" d="M11.188-4.263A4.528,4.528,0,0,1,9.664-1.011,5.355,5.355,0,0,1,6.038.176,4.816,4.816,0,0,1,2.167-1.481,6.793,6.793,0,0,1,.756-6.029v-.782a7.671,7.671,0,0,1,.65-3.252,4.874,4.874,0,0,1,1.859-2.158,5.207,5.207,0,0,1,2.808-.751,5.217,5.217,0,0,1,3.568,1.187,4.866,4.866,0,0,1,1.564,3.331H8.569a2.673,2.673,0,0,0-.69-1.8,2.555,2.555,0,0,0-1.806-.558A2.24,2.24,0,0,0,4.1-9.866a5.3,5.3,0,0,0-.672,2.931v.967a5.667,5.667,0,0,0,.628,3.032,2.2,2.2,0,0,0,1.982.958,2.6,2.6,0,0,0,1.824-.558,2.521,2.521,0,0,0,.69-1.727Zm1.169-.58A5.64,5.64,0,0,1,12.9-7.365a3.989,3.989,0,0,1,1.569-1.714,4.577,4.577,0,0,1,2.377-.606,4.33,4.33,0,0,1,3.142,1.178,4.727,4.727,0,0,1,1.358,3.2l.018.65a4.97,4.97,0,0,1-1.222,3.511A4.247,4.247,0,0,1,16.866.176a4.268,4.268,0,0,1-3.283-1.318,5.058,5.058,0,0,1-1.226-3.586Zm2.54.185a3.545,3.545,0,0,0,.51,2.07,1.682,1.682,0,0,0,1.459.716,1.686,1.686,0,0,0,1.441-.708,3.879,3.879,0,0,0,.519-2.263A3.51,3.51,0,0,0,18.308-6.9a1.686,1.686,0,0,0-1.459-.729,1.659,1.659,0,0,0-1.441.725A3.944,3.944,0,0,0,14.9-4.658ZM25.313-9.51l.079,1.063a3.342,3.342,0,0,1,2.733-1.239,2.536,2.536,0,0,1,2.522,1.45A3.265,3.265,0,0,1,33.5-9.686a2.836,2.836,0,0,1,2.3.9,4.141,4.141,0,0,1,.756,2.711V0H34.014V-6.064A1.811,1.811,0,0,0,33.7-7.247a1.4,1.4,0,0,0-1.116-.374A1.585,1.585,0,0,0,31-6.53L31.008,0h-2.54V-6.056a1.789,1.789,0,0,0-.325-1.2,1.416,1.416,0,0,0-1.107-.369,1.646,1.646,0,0,0-1.564.9V0h-2.54V-9.51ZM42.891.176a4.668,4.668,0,0,1-3.406-1.283,4.561,4.561,0,0,1-1.314-3.419v-.246a5.745,5.745,0,0,1,.554-2.562,4.064,4.064,0,0,1,1.569-1.74,4.4,4.4,0,0,1,2.316-.611,3.947,3.947,0,0,1,3.072,1.23A5,5,0,0,1,46.8-4.966v1.037H40.746a2.36,2.36,0,0,0,.743,1.494,2.245,2.245,0,0,0,1.569.563,2.742,2.742,0,0,0,2.294-1.063l1.248,1.4A3.813,3.813,0,0,1,45.053-.277,5.075,5.075,0,0,1,42.891.176Zm-.29-7.8a1.591,1.591,0,0,0-1.226.51,2.634,2.634,0,0,0-.6,1.459h3.533v-.2a1.878,1.878,0,0,0-.457-1.305A1.642,1.642,0,0,0,42.6-7.629Zm10.986.5a6.9,6.9,0,0,0-.914-.07,1.86,1.86,0,0,0-1.89.976V0h-2.54V-9.51h2.4l.07,1.134a2.354,2.354,0,0,1,2.118-1.31,2.662,2.662,0,0,1,.791.114ZM58.6-1.872a1.666,1.666,0,0,0,1.143-.387A1.355,1.355,0,0,0,60.2-3.287h2.382a3.258,3.258,0,0,1-.527,1.771A3.48,3.48,0,0,1,60.631-.268a4.442,4.442,0,0,1-1.991.444,4.129,4.129,0,0,1-3.217-1.3A5.13,5.13,0,0,1,54.246-4.7v-.167a5.071,5.071,0,0,1,1.169-3.507,4.08,4.08,0,0,1,3.208-1.31A4,4,0,0,1,61.484-8.67a3.594,3.594,0,0,1,1.094,2.7H60.2a1.731,1.731,0,0,0-.457-1.2,1.528,1.528,0,0,0-1.16-.461,1.531,1.531,0,0,0-1.34.646,3.739,3.739,0,0,0-.453,2.1v.264a3.786,3.786,0,0,0,.448,2.109A1.55,1.55,0,0,0,58.6-1.872ZM66.709,0H64.16V-9.51h2.549Zm-2.7-11.971a1.251,1.251,0,0,1,.382-.94,1.436,1.436,0,0,1,1.042-.369,1.44,1.44,0,0,1,1.037.369,1.244,1.244,0,0,1,.387.94,1.247,1.247,0,0,1-.391.949,1.443,1.443,0,0,1-1.033.369,1.443,1.443,0,0,1-1.033-.369A1.247,1.247,0,0,1,64.011-11.971ZM74.312,0a2.821,2.821,0,0,1-.255-.853,3.073,3.073,0,0,1-2.4,1.028,3.376,3.376,0,0,1-2.316-.809,2.6,2.6,0,0,1-.918-2.039,2.687,2.687,0,0,1,1.121-2.32,5.529,5.529,0,0,1,3.239-.817h1.169v-.545a1.567,1.567,0,0,0-.338-1.055,1.331,1.331,0,0,0-1.068-.4,1.513,1.513,0,0,0-1.006.308,1.045,1.045,0,0,0-.365.844h-2.54a2.551,2.551,0,0,1,.51-1.529,3.37,3.37,0,0,1,1.441-1.1,5.253,5.253,0,0,1,2.092-.4,4.15,4.15,0,0,1,2.791.883A3.09,3.09,0,0,1,76.5-6.319V-2.2a4.546,4.546,0,0,0,.378,2.048V0Zm-2.1-1.767a2.188,2.188,0,0,0,1.037-.25,1.645,1.645,0,0,0,.7-.672V-4.324H73q-1.907,0-2.03,1.318l-.009.149a1.017,1.017,0,0,0,.334.782A1.3,1.3,0,0,0,72.211-1.767ZM80.789-9.51l.079,1.1A3.32,3.32,0,0,1,83.6-9.686a2.759,2.759,0,0,1,2.25.888,4.142,4.142,0,0,1,.756,2.654V0h-2.54V-6.082a1.648,1.648,0,0,0-.352-1.173,1.574,1.574,0,0,0-1.169-.365,1.747,1.747,0,0,0-1.608.914V0H78.4V-9.51Zm10.784-2.338V-9.51H93.2v1.863H91.573V-2.9a1.133,1.133,0,0,0,.2.756,1.015,1.015,0,0,0,.773.229,4.051,4.051,0,0,0,.747-.062V-.053a5.229,5.229,0,0,1-1.538.229,2.425,2.425,0,0,1-2.725-2.7V-7.646H87.645V-9.51h1.389v-2.338ZM98.991.176a4.668,4.668,0,0,1-3.406-1.283,4.561,4.561,0,0,1-1.314-3.419v-.246a5.745,5.745,0,0,1,.554-2.562,4.064,4.064,0,0,1,1.569-1.74,4.4,4.4,0,0,1,2.316-.611,3.947,3.947,0,0,1,3.072,1.23A5,5,0,0,1,102.9-4.966v1.037H96.847a2.36,2.36,0,0,0,.743,1.494,2.245,2.245,0,0,0,1.569.563,2.742,2.742,0,0,0,2.294-1.063l1.248,1.4a3.813,3.813,0,0,1-1.547,1.261A5.075,5.075,0,0,1,98.991.176Zm-.29-7.8a1.591,1.591,0,0,0-1.226.51,2.634,2.634,0,0,0-.6,1.459h3.533v-.2a1.878,1.878,0,0,0-.457-1.305A1.642,1.642,0,0,0,98.7-7.629Zm10.793,5a.818.818,0,0,0-.461-.734,5.241,5.241,0,0,0-1.481-.479q-3.393-.712-3.393-2.883a2.613,2.613,0,0,1,1.05-2.114,4.237,4.237,0,0,1,2.747-.848,4.56,4.56,0,0,1,2.9.853,2.687,2.687,0,0,1,1.085,2.215H109.4a1.229,1.229,0,0,0-.352-.9,1.488,1.488,0,0,0-1.1-.356,1.52,1.52,0,0,0-.993.29.916.916,0,0,0-.352.738.783.783,0,0,0,.4.681,4.114,4.114,0,0,0,1.349.448,11.019,11.019,0,0,1,1.6.426,2.628,2.628,0,0,1,2.013,2.558,2.481,2.481,0,0,1-1.116,2.1,4.815,4.815,0,0,1-2.883.8,5.029,5.029,0,0,1-2.123-.426,3.561,3.561,0,0,1-1.455-1.169,2.716,2.716,0,0,1-.527-1.6h2.408a1.326,1.326,0,0,0,.5,1.037,1.987,1.987,0,0,0,1.248.36,1.839,1.839,0,0,0,1.1-.277A.861.861,0,0,0,109.494-2.628Z" transform="translate(1069 769.564)" fill="#12263f"/>
    <path id="Trazado_134107" data-name="Trazado 134107" d="M11.188-4.263A4.528,4.528,0,0,1,9.664-1.011,5.355,5.355,0,0,1,6.038.176,4.816,4.816,0,0,1,2.167-1.481,6.793,6.793,0,0,1,.756-6.029v-.782a7.671,7.671,0,0,1,.65-3.252,4.874,4.874,0,0,1,1.859-2.158,5.207,5.207,0,0,1,2.808-.751,5.217,5.217,0,0,1,3.568,1.187,4.866,4.866,0,0,1,1.564,3.331H8.569a2.673,2.673,0,0,0-.69-1.8,2.555,2.555,0,0,0-1.806-.558A2.24,2.24,0,0,0,4.1-9.866a5.3,5.3,0,0,0-.672,2.931v.967a5.667,5.667,0,0,0,.628,3.032,2.2,2.2,0,0,0,1.982.958,2.6,2.6,0,0,0,1.824-.558,2.521,2.521,0,0,0,.69-1.727ZM18.264,0a2.821,2.821,0,0,1-.255-.853,3.073,3.073,0,0,1-2.4,1.028,3.376,3.376,0,0,1-2.316-.809,2.6,2.6,0,0,1-.918-2.039A2.687,2.687,0,0,1,13.5-4.992a5.529,5.529,0,0,1,3.239-.817H17.9v-.545a1.567,1.567,0,0,0-.338-1.055A1.331,1.331,0,0,0,16.5-7.8a1.513,1.513,0,0,0-1.006.308,1.045,1.045,0,0,0-.365.844h-2.54a2.551,2.551,0,0,1,.51-1.529,3.37,3.37,0,0,1,1.441-1.1,5.253,5.253,0,0,1,2.092-.4,4.15,4.15,0,0,1,2.791.883,3.09,3.09,0,0,1,1.033,2.483V-2.2A4.546,4.546,0,0,0,20.83-.149V0Zm-2.1-1.767a2.188,2.188,0,0,0,1.037-.25,1.645,1.645,0,0,0,.7-.672V-4.324h-.949q-1.907,0-2.03,1.318l-.009.149a1.017,1.017,0,0,0,.334.782A1.3,1.3,0,0,0,16.163-1.767Zm5.845-3.059a5.731,5.731,0,0,1,1-3.542,3.237,3.237,0,0,1,2.729-1.318,2.913,2.913,0,0,1,2.294,1.037V-13.5h2.549V0H28.283L28.16-1.011A2.989,2.989,0,0,1,25.717.176a3.228,3.228,0,0,1-2.694-1.323A5.916,5.916,0,0,1,22.008-4.825Zm2.54.185a3.744,3.744,0,0,0,.466,2.048,1.518,1.518,0,0,0,1.354.712,1.7,1.7,0,0,0,1.661-.993V-6.627a1.676,1.676,0,0,0-1.644-.993Q24.548-7.62,24.548-4.641ZM36.923.176a4.668,4.668,0,0,1-3.406-1.283A4.561,4.561,0,0,1,32.2-4.526v-.246a5.745,5.745,0,0,1,.554-2.562,4.064,4.064,0,0,1,1.569-1.74,4.4,4.4,0,0,1,2.316-.611,3.947,3.947,0,0,1,3.072,1.23,5,5,0,0,1,1.121,3.489v1.037H34.778a2.36,2.36,0,0,0,.743,1.494,2.245,2.245,0,0,0,1.569.563,2.742,2.742,0,0,0,2.294-1.063l1.248,1.4A3.813,3.813,0,0,1,39.085-.277,5.075,5.075,0,0,1,36.923.176Zm-.29-7.8a1.591,1.591,0,0,0-1.226.51,2.634,2.634,0,0,0-.6,1.459h3.533v-.2a1.878,1.878,0,0,0-.457-1.305A1.642,1.642,0,0,0,36.633-7.629Zm7.98-1.881.079,1.1a3.32,3.32,0,0,1,2.733-1.274,2.759,2.759,0,0,1,2.25.888,4.142,4.142,0,0,1,.756,2.654V0h-2.54V-6.082a1.648,1.648,0,0,0-.352-1.173,1.574,1.574,0,0,0-1.169-.365,1.747,1.747,0,0,0-1.608.914V0h-2.54V-9.51ZM57.867,0a2.821,2.821,0,0,1-.255-.853,3.073,3.073,0,0,1-2.4,1.028A3.376,3.376,0,0,1,52.9-.633a2.6,2.6,0,0,1-.918-2.039A2.687,2.687,0,0,1,53.1-4.992a5.529,5.529,0,0,1,3.239-.817h1.169v-.545a1.567,1.567,0,0,0-.338-1.055A1.331,1.331,0,0,0,56.1-7.8a1.513,1.513,0,0,0-1.006.308,1.045,1.045,0,0,0-.365.844h-2.54a2.551,2.551,0,0,1,.51-1.529,3.37,3.37,0,0,1,1.441-1.1,5.253,5.253,0,0,1,2.092-.4,4.15,4.15,0,0,1,2.791.883,3.09,3.09,0,0,1,1.033,2.483V-2.2a4.546,4.546,0,0,0,.378,2.048V0Zm-2.1-1.767a2.188,2.188,0,0,0,1.037-.25,1.645,1.645,0,0,0,.7-.672V-4.324h-.949q-1.907,0-2.03,1.318l-.009.149a1.017,1.017,0,0,0,.334.782A1.3,1.3,0,0,0,55.767-1.767ZM66.094-4.825a5.731,5.731,0,0,1,1-3.542A3.237,3.237,0,0,1,69.82-9.686a2.913,2.913,0,0,1,2.294,1.037V-13.5h2.549V0H72.369l-.123-1.011A2.989,2.989,0,0,1,69.8.176a3.228,3.228,0,0,1-2.694-1.323A5.916,5.916,0,0,1,66.094-4.825Zm2.54.185A3.744,3.744,0,0,0,69.1-2.593a1.518,1.518,0,0,0,1.354.712,1.7,1.7,0,0,0,1.661-.993V-6.627a1.676,1.676,0,0,0-1.644-.993Q68.634-7.62,68.634-4.641ZM81.009.176A4.668,4.668,0,0,1,77.6-1.107a4.561,4.561,0,0,1-1.314-3.419v-.246a5.745,5.745,0,0,1,.554-2.562,4.064,4.064,0,0,1,1.569-1.74,4.4,4.4,0,0,1,2.316-.611A3.947,3.947,0,0,1,83.8-8.455,5,5,0,0,1,84.92-4.966v1.037H78.864a2.36,2.36,0,0,0,.743,1.494,2.245,2.245,0,0,0,1.569.563A2.742,2.742,0,0,0,83.47-2.936l1.248,1.4A3.813,3.813,0,0,1,83.171-.277,5.075,5.075,0,0,1,81.009.176Zm-.29-7.8a1.591,1.591,0,0,0-1.226.51,2.634,2.634,0,0,0-.6,1.459h3.533v-.2a1.878,1.878,0,0,0-.457-1.305A1.642,1.642,0,0,0,80.719-7.629ZM94.4-3.1,96.17-9.51h2.654L95.616,0H93.19L89.982-9.51h2.654ZM105.319,0a2.821,2.821,0,0,1-.255-.853,3.073,3.073,0,0,1-2.4,1.028,3.376,3.376,0,0,1-2.316-.809,2.6,2.6,0,0,1-.918-2.039,2.687,2.687,0,0,1,1.121-2.32,5.529,5.529,0,0,1,3.239-.817h1.169v-.545a1.567,1.567,0,0,0-.338-1.055,1.331,1.331,0,0,0-1.068-.4,1.513,1.513,0,0,0-1.006.308,1.045,1.045,0,0,0-.365.844h-2.54a2.551,2.551,0,0,1,.51-1.529,3.37,3.37,0,0,1,1.441-1.1,5.253,5.253,0,0,1,2.092-.4,4.15,4.15,0,0,1,2.791.883,3.09,3.09,0,0,1,1.033,2.483V-2.2a4.546,4.546,0,0,0,.378,2.048V0Zm-2.1-1.767a2.188,2.188,0,0,0,1.037-.25,1.645,1.645,0,0,0,.7-.672V-4.324h-.949q-1.907,0-2.03,1.318l-.009.149a1.017,1.017,0,0,0,.334.782A1.3,1.3,0,0,0,103.219-1.767ZM112.14,0h-2.549V-13.5h2.549Zm1.7-4.843a5.64,5.64,0,0,1,.545-2.522,3.989,3.989,0,0,1,1.569-1.714,4.577,4.577,0,0,1,2.377-.606,4.33,4.33,0,0,1,3.142,1.178,4.727,4.727,0,0,1,1.358,3.2l.018.65a4.97,4.97,0,0,1-1.222,3.511A4.247,4.247,0,0,1,118.345.176a4.268,4.268,0,0,1-3.283-1.318,5.058,5.058,0,0,1-1.226-3.586Zm2.54.185a3.545,3.545,0,0,0,.51,2.07,1.682,1.682,0,0,0,1.459.716,1.686,1.686,0,0,0,1.441-.708,3.879,3.879,0,0,0,.519-2.263,3.51,3.51,0,0,0-.519-2.057,1.686,1.686,0,0,0-1.459-.729,1.659,1.659,0,0,0-1.441.725A3.944,3.944,0,0,0,116.376-4.658Zm13.377-2.47a6.9,6.9,0,0,0-.914-.07,1.86,1.86,0,0,0-1.89.976V0h-2.54V-9.51h2.4l.07,1.134A2.354,2.354,0,0,1,129-9.686a2.662,2.662,0,0,1,.791.114Z" transform="translate(1211 771.564)" fill="#12263f"/>
    <g id="hexagono-6" data-name="hexagono" transform="translate(1062.395 677.564) rotate(90)">
      <path id="Trazado_132634-6" data-name="Trazado 132634" d="M39.347,171.779,4.495,99.17,39.347,26.561H138.1L172.948,99.17,138.1,171.779Z" transform="translate(-2.602 -2.602)" fill="#e5e5e5"/>
      <path id="Trazado_132635-6" data-name="Trazado 132635" d="M250.417,26.561H241.7L276.556,99.17,241.7,171.779h8.713L285.27,99.17Z" transform="translate(-114.923 -2.602)" fill="#c6c6c6"/>
      <path id="Trazado_132636-6" data-name="Trazado 132636" d="M39.347,26.561H48.06L13.208,99.17,48.06,171.779H39.347L4.495,99.17Z" transform="translate(-2.602 -2.602)" fill="#fff"/>
      <path id="Trazado_132637-6" data-name="Trazado 132637" d="M135.494,172.071H36.746a2.893,2.893,0,0,1-2.608-1.641L-.715,97.82a2.894,2.894,0,0,1,0-2.5L34.137,22.708a2.893,2.893,0,0,1,2.608-1.642h98.749a2.894,2.894,0,0,1,2.608,1.641l34.852,72.609a2.894,2.894,0,0,1,0,2.5L138.1,170.428A2.893,2.893,0,0,1,135.494,172.071Zm-96.928-5.786h95.108l33.464-69.716L133.674,26.852H38.566L5.1,96.568Z" fill="#12263f"/>
    </g>
  </g>
</svg>
