<svg xmlns="http://www.w3.org/2000/svg" width="112" height="112" viewBox="0 0 112 112">
  <g id="Grupo_88918" data-name="Grupo 88918" transform="translate(-306 -1304)">
    <rect id="Rect치ngulo_26214" data-name="Rect치ngulo 26214" width="112" height="112" rx="17" transform="translate(306 1304)" fill="#dbbe36"/>
    <g id="files-document-protection-insurance-pen" transform="translate(326.132 1317.839)">
      <rect id="Rect치ngulo_26213" data-name="Rect치ngulo 26213" width="45.099" height="72.159" rx="2" transform="translate(15.53 3.361)" fill="#fee9ab"/>
      <path id="Trazado_132683" data-name="Trazado 132683" d="M44.442,11.987v7.992a9.987,9.987,0,0,1-3.354,7.456L33.221,34.43l-7.867-6.995A9.987,9.987,0,0,1,22,19.979V11.987L33.221,7Z" transform="translate(4.936 1.234)" fill="#ffd422"/>
      <path id="Trazado_132684" data-name="Trazado 132684" d="M27.936,30.74a3.74,3.74,0,0,1-3.74,3.74H15.468V49.442H6.753L3,46.949V29.494L9.234,27H24.2A3.74,3.74,0,0,1,27.936,30.74Z" transform="translate(0.247 6.17)" fill="#ffc477"/>
      <path id="Trazado_132685" data-name="Trazado 132685" d="M27.936,30.74a3.773,3.773,0,0,1-.5,1.87,4.115,4.115,0,0,0-.6-.773,3.732,3.732,0,0,0-2.643-1.1H9.234L3,33.234v-3.74L9.234,27H24.2A3.74,3.74,0,0,1,27.936,30.74Z" transform="translate(0.247 6.17)" fill="#ffa733"/>
      <path id="Trazado_132686" data-name="Trazado 132686" d="M42.715,11.987v7.992a9.987,9.987,0,0,1-3.354,7.456L31.494,34.43,29,32.21l5.374-4.775a9.987,9.987,0,0,0,3.354-7.456V11.987L29,8.11,31.494,7Z" transform="translate(6.664 1.234)" fill="#ebbf00"/>
      <path id="Trazado_132687" data-name="Trazado 132687" d="M50.481,5.494V72.821a2.5,2.5,0,0,1-2.494,2.494H43a2.5,2.5,0,0,0,2.494-2.494V5.494A2.5,2.5,0,0,0,43,3h4.987a2.5,2.5,0,0,1,2.494,2.494Z" transform="translate(10.119 0.247)" fill="#ffde55"/>
      <path id="Trazado_132688" data-name="Trazado 132688" d="M58.106,2h-39.9a3.752,3.752,0,0,0-3.74,3.74V31.923H9.481a1.168,1.168,0,0,0-.461.087L2.785,34.5A1.247,1.247,0,0,0,2,35.664V53.119a1.247,1.247,0,0,0,.561,1.035l3.753,2.494A1.206,1.206,0,0,0,7,56.859h7.468V73.068a3.752,3.752,0,0,0,3.74,3.74h39.9a3.752,3.752,0,0,0,3.74-3.74V5.74A3.752,3.752,0,0,0,58.106,2ZM14.343,41.9h.125V54.366H7.374l-2.88-1.92V36.511l5.224-2.095H24.442a2.494,2.494,0,1,1,0,4.987H13.221a1.247,1.247,0,0,0-1.247,1.247,3.752,3.752,0,0,1-3.74,3.74v2.494A6.245,6.245,0,0,0,14.343,41.9Zm45.01,31.17a1.247,1.247,0,0,1-1.247,1.247h-39.9a1.247,1.247,0,0,1-1.247-1.247V41.9h7.481a4.987,4.987,0,1,0,0-9.974H16.962V5.74a1.247,1.247,0,0,1,1.247-1.247h39.9A1.247,1.247,0,0,1,59.353,5.74Z" transform="translate(0)"/>
      <path id="Trazado_132689" data-name="Trazado 132689" d="M31.873,21.817a1.247,1.247,0,0,0,.881-.365L39.807,14.4l-1.763-1.763-6.172,6.172-2.646-2.646-1.763,1.763,3.527,3.527a1.247,1.247,0,0,0,.881.365Z" transform="translate(6.285 2.625)"/>
      <path id="Trazado_132690" data-name="Trazado 132690" d="M45.2,11.1,33.979,6.112a1.221,1.221,0,0,0-1.022,0L21.736,11.1A1.231,1.231,0,0,0,21,12.234v7.992A11.2,11.2,0,0,0,24.765,28.6l7.88,7.007a1.247,1.247,0,0,0,1.646,0l7.88-7.007a11.2,11.2,0,0,0,3.765-8.379V12.234A1.231,1.231,0,0,0,45.2,11.1Zm-1.758,9.127a8.745,8.745,0,0,1-2.93,6.521l-7.044,6.259-7.044-6.259a8.745,8.745,0,0,1-2.93-6.521V13.044l9.974-4.439,9.974,4.439Z" transform="translate(4.689 0.987)"/>
      <path id="Trazado_132692" data-name="Trazado 132692" d="M18,38h4.987v2.494H18Z" transform="translate(3.949 8.885)"/>
      <path id="Trazado_132693" data-name="Trazado 132693" d="M24,38H48.936v2.494H24Z" transform="translate(5.43 8.885)"/>
      <path id="Trazado_132694" data-name="Trazado 132694" d="M18,44h4.987v2.494H18Z" transform="translate(3.949 10.366)"/>
      <path id="Trazado_132695" data-name="Trazado 132695" d="M24,44H48.936v2.494H24Z" transform="translate(5.43 10.366)"/>
      <path id="Trazado_132696" data-name="Trazado 132696" d="M18,50h4.987v2.494H18Z" transform="translate(3.949 11.846)"/>
      <path id="Trazado_132697" data-name="Trazado 132697" d="M24,50H48.936v2.494H24Z" transform="translate(5.43 11.846)"/>
      <path id="Trazado_132698" data-name="Trazado 132698" d="M18,56h4.987v2.494H18Z" transform="translate(3.949 13.327)"/>
      <path id="Trazado_132699" data-name="Trazado 132699" d="M24,56H48.936v2.494H24Z" transform="translate(5.43 13.327)"/>
    </g>
  </g>
</svg>
