<svg xmlns="http://www.w3.org/2000/svg" width="95.11" height="95.109" viewBox="0 0 95.11 95.109">
  <g id="soporte-tecnico" transform="translate(0 -0.001)">
    <path id="Trazado_133870" data-name="Trazado 133870" d="M168.553,302.315l-5.5-1.077c-2.47-.484-4.217-2.327-4.217-4.45v-5.218H146.524v5.218c0,2.123-1.747,3.967-4.217,4.45l-5.5,1.077c-4.509.883-7.7,4.248-7.7,8.123v5.912h47.143v-5.912C176.251,306.562,173.062,303.2,168.553,302.315Z" transform="translate(-105.125 -237.406)" fill="#ffe1b3"/>
    <path id="Trazado_133871" data-name="Trazado 133871" d="M228.8,298.567h0a11.1,11.1,0,0,0,6.368-2v-5H222.857v5.218c0,.022,0,.043,0,.064A11.1,11.1,0,0,0,228.8,298.567Z" transform="translate(-181.457 -237.406)" fill="#f0c891"/>
    <path id="Trazado_133872" data-name="Trazado 133872" d="M205.964,177.185h0a11.154,11.154,0,0,1-11.154-11.154v-9.119a11.154,11.154,0,0,1,11.154-11.154h0a11.154,11.154,0,0,1,11.154,11.154v9.119A11.154,11.154,0,0,1,205.964,177.185Z" transform="translate(-158.622 -118.682)" fill="#ffe1b3"/>
    <path id="Trazado_133873" data-name="Trazado 133873" d="M228.51,146.781a11.139,11.139,0,0,1,4.675,9.08v9.119a11.154,11.154,0,0,1-11.154,11.154h0a11.208,11.208,0,0,1-2.056-.19,11.1,11.1,0,0,0,6.479,2.074h0a11.154,11.154,0,0,0,11.154-11.154v-9.119A11.157,11.157,0,0,0,228.51,146.781Z" transform="translate(-179.112 -119.514)" fill="#fad7a5"/>
    <path id="Trazado_133874" data-name="Trazado 133874" d="M183.668,165.213a13.116,13.116,0,0,0-1.916,8.388,13.452,13.452,0,0,0,3.15-1.209,15.029,15.029,0,0,0,3.214-2.385h0Z" transform="translate(-147.926 -134.522)" fill="#b48765"/>
    <path id="Trazado_133875" data-name="Trazado 133875" d="M218.221,140.368a20.089,20.089,0,0,0-5.092-9.35,13.638,13.638,0,0,0-8.581-4.066,14.019,14.019,0,0,0-8.993,3.3,14.94,14.94,0,0,0-3.145,3.808c3.879,5.549,9.7,9.078,16.2,9.078,1.6,0,4.95-.489,6.55-1.538" transform="translate(-156.667 -103.365)" fill="#966d50"/>
    <path id="Trazado_133876" data-name="Trazado 133876" d="M251.967,131.017a13.638,13.638,0,0,0-8.581-4.066,12.469,12.469,0,0,0-3.278.4,14.506,14.506,0,0,1,6.13,3.667,20.091,20.091,0,0,1,5.092,9.35l-3.059,1.228a11.106,11.106,0,0,1-3.872,1.275,17.826,17.826,0,0,0,3.051.263c1.6,0,4.95-.489,6.55-1.538l3.059-1.228A20.092,20.092,0,0,0,251.967,131.017Z" transform="translate(-195.505 -103.365)" fill="#846047"/>
    <path id="Trazado_133877" data-name="Trazado 133877" d="M317.26,220.484H314.9V210.37h2.362a2.034,2.034,0,0,1,2.034,2.034v6.046A2.034,2.034,0,0,1,317.26,220.484Z" transform="translate(-256.402 -171.291)" fill="#53515e"/>
    <rect id="Rect치ngulo_26272" data-name="Rect치ngulo 26272" width="1.696" height="10.113" transform="translate(58.496 39.079)" fill="#474756"/>
    <path id="Trazado_133878" data-name="Trazado 133878" d="M173.18,210.37h2.362v10.114H173.18a2.034,2.034,0,0,1-2.034-2.034V212.4A2.034,2.034,0,0,1,173.18,210.37Z" transform="translate(-139.354 -171.291)" fill="#53515e"/>
    <rect id="Rect치ngulo_26273" data-name="Rect치ngulo 26273" width="1.639" height="10.113" transform="translate(34.548 39.079)" fill="#474756"/>
    <path id="Trazado_133879" data-name="Trazado 133879" d="M168.552,340.546l-5.5-1.077a5.913,5.913,0,0,1-2.263-.946,12.336,12.336,0,0,1-16.221,0,5.912,5.912,0,0,1-2.263.946l-5.5,1.077c-4.509.883-7.7,4.248-7.7,8.123v5.912H176.25v-5.912C176.25,344.793,173.061,341.428,168.552,340.546Z" transform="translate(-105.124 -275.637)" fill="#ff9ea4"/>
    <g id="Grupo_89292" data-name="Grupo 89292" transform="translate(23.983 67.007)">
      <path id="Trazado_133880" data-name="Trazado 133880" d="M132.184,360.71a7.756,7.756,0,0,0-3.076,6.025v5.912h8.934v-5.462A6.507,6.507,0,0,0,132.184,360.71Z" transform="translate(-129.108 -360.71)" fill="#ff7b97"/>
      <path id="Trazado_133881" data-name="Trazado 133881" d="M340.655,360.71a6.507,6.507,0,0,0-5.859,6.474l.009,5.462h8.925v-5.912A7.755,7.755,0,0,0,340.655,360.71Z" transform="translate(-296.587 -360.71)" fill="#ff7b97"/>
    </g>
    <path id="Trazado_133882" data-name="Trazado 133882" d="M97.854,48.336l-6.671-.6a37.654,37.654,0,0,0-1.9-7.226l5.5-3.808a2.225,2.225,0,0,0,.67-2.926l-3.134-5.537a2.225,2.225,0,0,0-2.853-.931l-6.107,2.762a38.15,38.15,0,0,0-4.94-5.117L81.4,18.943a2.225,2.225,0,0,0-.831-2.884l-5.424-3.326A2.225,2.225,0,0,0,72.2,13.3l-4,5.368a37.646,37.646,0,0,0-8.464-2.385l-.6-6.671a2.225,2.225,0,0,0-2.216-2.024H50.552a2.225,2.225,0,0,0-2.216,2.024l-.6,6.671a37.653,37.653,0,0,0-7.225,1.9l-3.808-5.5a2.225,2.225,0,0,0-2.926-.67l-5.537,3.134a2.225,2.225,0,0,0-.931,2.853L30.066,24.1a38.15,38.15,0,0,0-5.117,4.94l-6.006-2.975a2.225,2.225,0,0,0-2.884.831l-3.326,5.424a2.225,2.225,0,0,0,.567,2.947l5.368,4a37.655,37.655,0,0,0-2.385,8.464l-6.671.6a2.225,2.225,0,0,0-2.024,2.216v6.363a2.225,2.225,0,0,0,2.024,2.216l6.671.6a37.668,37.668,0,0,0,1.9,7.226l-5.5,3.808a2.225,2.225,0,0,0-.67,2.926l3.134,5.537a2.225,2.225,0,0,0,2.853.931L24.1,77.4a38.149,38.149,0,0,0,4.94,5.117l-2.975,6.006a2.225,2.225,0,0,0,.831,2.884l5.424,3.326a2.225,2.225,0,0,0,2.947-.567l4-5.368a37.636,37.636,0,0,0,8.464,2.385l.6,6.671a2.225,2.225,0,0,0,2.216,2.024h6.363a2.225,2.225,0,0,0,2.216-2.024l.6-6.671a37.658,37.658,0,0,0,7.226-1.9l3.808,5.5a2.225,2.225,0,0,0,2.926.67l5.537-3.134a2.225,2.225,0,0,0,.931-2.853L77.4,83.366a38.15,38.15,0,0,0,5.117-4.94L88.523,81.4a2.225,2.225,0,0,0,2.884-.831l3.326-5.424a2.225,2.225,0,0,0-.567-2.947l-5.368-4a37.656,37.656,0,0,0,2.385-8.464l6.671-.6a2.225,2.225,0,0,0,2.024-2.216V50.553A2.226,2.226,0,0,0,97.854,48.336ZM54.031,83.319A29.586,29.586,0,1,1,83.617,53.733,29.586,29.586,0,0,1,54.031,83.319Z" transform="translate(-6.178 -6.178)" fill="#dfe2ea"/>
    <path id="Trazado_133883" data-name="Trazado 133883" d="M105.889,71.644a34.246,34.246,0,1,0,34.246,34.246A34.246,34.246,0,0,0,105.889,71.644Zm.3,63.832a29.586,29.586,0,1,1,29.586-29.586A29.586,29.586,0,0,1,106.187,135.476Z" transform="translate(-58.335 -58.335)" fill="#c7cad3"/>
    <path id="Trazado_133884" data-name="Trazado 133884" d="M91.8,40.754h0l-5.594-.506A39.2,39.2,0,0,0,84.8,34.874l4.616-3.194a3.617,3.617,0,0,0,1.1-4.779l-3.134-5.537a3.617,3.617,0,0,0-4.661-1.521L77.589,22.16a39.689,39.689,0,0,0-3.6-3.729l2.5-5.039A3.617,3.617,0,0,0,75.128,8.68L69.7,5.354a3.617,3.617,0,0,0-4.815.927l-3.354,4.5A39.121,39.121,0,0,0,54.862,8.9l-.506-5.594A3.617,3.617,0,0,0,50.736,0H44.373a3.617,3.617,0,0,0-3.62,3.307L40.247,8.9a39.207,39.207,0,0,0-5.374,1.412L31.679,5.7A3.617,3.617,0,0,0,26.9,4.6L21.363,7.736A3.617,3.617,0,0,0,19.841,12.4l2.317,5.124a39.711,39.711,0,0,0-3.729,3.6l-5.039-2.5a3.617,3.617,0,0,0-4.712,1.357L5.353,25.407a3.617,3.617,0,0,0,.927,4.814l4.5,3.354A39.146,39.146,0,0,0,8.9,40.248l-5.594.506A3.617,3.617,0,0,0,0,44.374v6.363a3.617,3.617,0,0,0,3.307,3.62l5.594.506a39.21,39.21,0,0,0,1.412,5.374L5.7,63.431A3.617,3.617,0,0,0,4.6,68.21l3.134,5.537A3.617,3.617,0,0,0,12.4,75.269l5.123-2.317a39.69,39.69,0,0,0,3.6,3.729l-2.5,5.039a3.617,3.617,0,0,0,1.357,4.712l5.424,3.326a3.617,3.617,0,0,0,4.815-.927l3.354-4.5a39.149,39.149,0,0,0,6.673,1.88l.506,5.594a3.617,3.617,0,0,0,3.62,3.307h6.363a3.617,3.617,0,0,0,3.62-3.307l.506-5.594A39.258,39.258,0,0,0,60.237,84.8l3.194,4.616a3.617,3.617,0,0,0,4.779,1.1l5.537-3.134a3.617,3.617,0,0,0,1.522-4.661L72.951,77.59a39.688,39.688,0,0,0,3.729-3.6l5.039,2.5a3.618,3.618,0,0,0,4.712-1.357L89.757,69.7a3.617,3.617,0,0,0-.927-4.815l-4.5-3.354a39.143,39.143,0,0,0,1.88-6.673l5.594-.506a3.617,3.617,0,0,0,3.307-3.62V44.374A3.618,3.618,0,0,0,91.8,40.754Zm.488,9.983a.811.811,0,0,1-.742.812l-6.671.6a1.41,1.41,0,0,0-1.265,1.183,36.315,36.315,0,0,1-2.3,8.147,1.409,1.409,0,0,0,.461,1.668l5.367,4a.812.812,0,0,1,.208,1.08l-3.326,5.424a.812.812,0,0,1-1.057.3l-6.006-2.975a1.409,1.409,0,0,0-1.7.345,36.851,36.851,0,0,1-4.928,4.758,1.41,1.41,0,0,0-.4,1.682L72.7,83.876a.811.811,0,0,1-.341,1.046l-5.537,3.134a.812.812,0,0,1-1.072-.246l-3.808-5.5a1.409,1.409,0,0,0-1.651-.519,36.343,36.343,0,0,1-6.955,1.827,1.41,1.41,0,0,0-1.182,1.265l-.6,6.67a.812.812,0,0,1-.812.742H44.373a.812.812,0,0,1-.812-.742l-.6-6.67a1.41,1.41,0,0,0-1.182-1.265,36.305,36.305,0,0,1-8.147-2.3,1.409,1.409,0,0,0-1.668.461l-4,5.368a.811.811,0,0,1-1.08.208l-5.424-3.326a.812.812,0,0,1-.3-1.057l2.975-6.006a1.41,1.41,0,0,0-.345-1.7,36.817,36.817,0,0,1-4.758-4.928,1.411,1.411,0,0,0-1.682-.4L11.234,72.7a.811.811,0,0,1-1.045-.341L7.055,66.822A.811.811,0,0,1,7.3,65.75l5.5-3.808a1.41,1.41,0,0,0,.519-1.651A36.361,36.361,0,0,1,11.5,53.335a1.41,1.41,0,0,0-1.265-1.183l-6.67-.6a.812.812,0,0,1-.742-.812V44.374a.811.811,0,0,1,.742-.812l6.671-.6A1.41,1.41,0,0,0,11.5,41.776a36.312,36.312,0,0,1,2.3-8.147,1.409,1.409,0,0,0-.461-1.668l-5.368-4a.811.811,0,0,1-.208-1.08l3.326-5.424a.811.811,0,0,1,1.057-.3l6.006,2.975a1.41,1.41,0,0,0,1.7-.345,36.839,36.839,0,0,1,4.928-4.757,1.41,1.41,0,0,0,.4-1.682l-2.762-6.107a.811.811,0,0,1,.341-1.045l5.537-3.134a.811.811,0,0,1,1.072.246l3.808,5.5a1.41,1.41,0,0,0,1.651.519A36.326,36.326,0,0,1,41.776,11.5a1.41,1.41,0,0,0,1.183-1.265l.6-6.67a.812.812,0,0,1,.812-.742h6.363a.811.811,0,0,1,.812.742l.6,6.67A1.41,1.41,0,0,0,53.335,11.5a36.3,36.3,0,0,1,8.147,2.3,1.409,1.409,0,0,0,1.668-.461l4-5.368a.811.811,0,0,1,1.08-.208l5.424,3.326a.811.811,0,0,1,.3,1.057l-2.975,6.006a1.409,1.409,0,0,0,.345,1.7,36.817,36.817,0,0,1,4.758,4.928,1.41,1.41,0,0,0,1.682.4l6.107-2.762a.811.811,0,0,1,1.045.341l3.134,5.537a.811.811,0,0,1-.246,1.072l-5.5,3.808a1.41,1.41,0,0,0-.519,1.651,36.348,36.348,0,0,1,1.827,6.955,1.409,1.409,0,0,0,1.265,1.183l6.671.6a.811.811,0,0,1,.742.812v6.362Z"/>
    <path id="Trazado_133885" data-name="Trazado 133885" d="M121.741,89.143a31,31,0,0,0-14.23,58.539,1.41,1.41,0,1,0,1.3-2.5,28.356,28.356,0,0,1-6.607-4.729,9.327,9.327,0,0,1,3.619-1.516l5.508-1.079a7.6,7.6,0,0,0,1.871-.623,13.748,13.748,0,0,0,16.491,0,7.593,7.593,0,0,0,1.871.623l5.509,1.079A9.312,9.312,0,0,1,141,140.684a28.073,28.073,0,0,1-19.261,7.631,28.414,28.414,0,0,1-5.611-.558,1.41,1.41,0,1,0-.558,2.763,31.242,31.242,0,0,0,6.169.614,30.9,30.9,0,0,0,22.166-9.354c.027-.021.054-.042.079-.065a1.408,1.408,0,0,0,.2-.221,30.98,30.98,0,0,0-22.444-52.351Zm-13.09,30.823v.436H107.7a.628.628,0,0,1-.627-.627v-6.054a.628.628,0,0,1,.627-.627h.956Zm1.531-10.734c-.156.084-.316.163-.476.24a1.406,1.406,0,0,0-.439.2c-.077.033-.153.069-.231.1a11.624,11.624,0,0,1,.823-3.855,24.436,24.436,0,0,0,2.058,2.17A12.838,12.838,0,0,1,110.182,109.232Zm1.288,2.508.047-.024a16.164,16.164,0,0,0,2.624-1.8,18.743,18.743,0,0,0,16.848,3.067v6.985a9.7,9.7,0,0,1-1.432,5.083h-7.173a1.41,1.41,0,1,0,0,2.819h4.562a1.407,1.407,0,0,0-.286.2,9.755,9.755,0,0,1-15.19-8.105v-8.226Zm22.339,1.354h.956a.628.628,0,0,1,.627.627v6.054a.628.628,0,0,1-.627.627h-.956v-7.308ZM115.5,135.4a5.458,5.458,0,0,0,1.193-3.386v-.321a12.545,12.545,0,0,0,9.509-.173v.494a5.458,5.458,0,0,0,1.193,3.386,10.935,10.935,0,0,1-11.894,0Zm27.47,3.25a12.085,12.085,0,0,0-5.356-2.484l-5.509-1.079a3.479,3.479,0,0,1-3.084-3.073v-2.18a12.683,12.683,0,0,0,1.995-1.971A5.213,5.213,0,0,0,136,122.989a3.449,3.449,0,0,0,2.212-3.214v-6.054a3.448,3.448,0,0,0-1.835-3.044,1.408,1.408,0,0,0,.447-1.439,21.391,21.391,0,0,0-5.48-10.01,1.41,1.41,0,1,0-1.96,2.026,18.646,18.646,0,0,1,4.719,8.718,1.4,1.4,0,0,0,.125.3h-.534a1.407,1.407,0,0,0-2.04-.634l-.026.015a13.671,13.671,0,0,1-5.785,1.31,17.313,17.313,0,0,1-10.819-3.925l-3.634-3.917a13.033,13.033,0,0,1,2.289-2.579,12.771,12.771,0,0,1,8.019-2.967,10.514,10.514,0,0,1,4.135,1.111,1.41,1.41,0,1,0,1.25-2.527,13.316,13.316,0,0,0-5.24-1.4A15.419,15.419,0,0,0,111.85,98.4a16.393,16.393,0,0,0-3.429,4.137l0,0-.009.014-.009.014,0,0a14.512,14.512,0,0,0-2.186,8.045,3.447,3.447,0,0,0-1.964,3.106v6.054a3.45,3.45,0,0,0,3.446,3.446h1.385a12.615,12.615,0,0,0,4.789,6.936v1.857a3.479,3.479,0,0,1-3.085,3.073l-5.509,1.079a12.049,12.049,0,0,0-5.023,2.216,28.193,28.193,0,1,1,42.712.267Z" transform="translate(-73.888 -72.583)"/>
    <circle id="Elipse_4534" data-name="Elipse 4534" cx="1.238" cy="1.238" r="1.238" transform="translate(41.675 41.371)"/>
    <circle id="Elipse_4535" data-name="Elipse 4535" cx="1.238" cy="1.238" r="1.238" transform="translate(50.093 41.371)"/>
    <path id="Trazado_133886" data-name="Trazado 133886" d="M237.732,263.83A4.551,4.551,0,0,1,234.5,262.5a1.393,1.393,0,1,1,1.97-1.97,1.78,1.78,0,0,0,2.514,0,1.393,1.393,0,0,1,1.97,1.97A4.551,4.551,0,0,1,237.732,263.83Z" transform="translate(-190.611 -211.796)"/>
  </g>
</svg>
