<svg xmlns="http://www.w3.org/2000/svg" width="126.792" height="129.058" viewBox="0 0 126.792 129.058">
  <g id="sugerencia" transform="translate(-4.495)">
    <g id="Grupo_89126" data-name="Grupo 89126" transform="translate(6.387 17.395)">
      <g id="Grupo_89117" data-name="Grupo 89117" transform="translate(0 15.098)">
        <path id="Trazado_133643" data-name="Trazado 133643" d="M54.878,128.9H73a43.02,43.02,0,0,1,42.885,42.9v1.862A43.015,43.015,0,0,1,73,216.56H46.323a2.252,2.252,0,0,0-1.63.382l-16.043,6.494c-.923.339-1.363.079-1.313-.851l-.123-16c.022-.144.058-.166-.036-.245A42.83,42.83,0,0,1,12,173.663V171.8A43.018,43.018,0,0,1,54.878,128.9Z" transform="translate(-12 -128.904)" fill="#8dcafc" fill-rule="evenodd"/>
      </g>
      <g id="Grupo_89118" data-name="Grupo 89118" transform="translate(42.878 15.098)">
        <path id="Trazado_133644" data-name="Trazado 133644" d="M182.107,128.9a43.029,43.029,0,0,1,39.307,25.8,42.477,42.477,0,0,1,3.578,17.1v1.862a43.015,43.015,0,0,1-42.885,42.9h18.121a43.015,43.015,0,0,0,42.885-42.9V171.8a42.473,42.473,0,0,0-3.578-17.1,43.037,43.037,0,0,0-39.307-25.8Z" transform="translate(-182.107 -128.904)" fill="#64b9fc" fill-rule="evenodd"/>
      </g>
      <g id="Grupo_89119" data-name="Grupo 89119" transform="translate(93.879 52.735)">
        <path id="Trazado_133645" data-name="Trazado 133645" d="M384.439,287.461a4.742,4.742,0,0,0,4.725,4.726h4.429a4.742,4.742,0,0,0,4.725-4.726v-4.726l-6.94-4.517-6.94,4.517Z" transform="translate(-384.439 -278.218)" fill="#9c9c9c" fill-rule="evenodd"/>
      </g>
      <g id="Grupo_89120" data-name="Grupo 89120" transform="translate(79.531 0)">
        <path id="Trazado_133646" data-name="Trazado 133646" d="M340.466,118.921h16.678c0-13.407,12.97-15.139,12.956-29.555-.014-13.746-10.655-20.507-21.295-20.355-10.64-.151-21.273,6.61-21.288,20.355C327.5,103.783,340.466,105.515,340.466,118.921Z" transform="translate(-327.518 -69.008)" fill="#dbbe36" fill-rule="evenodd"/>
      </g>
      <g id="Grupo_89121" data-name="Grupo 89121" transform="translate(97.616)">
        <path id="Trazado_133647" data-name="Trazado 133647" d="M410.877,117.233c1.039-11.891,12.9-14.085,12.884-27.867-.014-13.746-10.655-20.507-21.295-20.355a25.04,25.04,0,0,0-3.2.166c9.479,1.118,18.085,7.829,18.1,20.189.014,13.782-11.845,15.975-12.884,27.867Z" transform="translate(-399.263 -69.008)" fill="#fff2b4" fill-rule="evenodd"/>
      </g>
      <g id="Grupo_89122" data-name="Grupo 89122" transform="translate(97.623 57.252)">
        <path id="Trazado_133648" data-name="Trazado 133648" d="M403.029,300.864a4.741,4.741,0,0,1-3.737,4.618,4.4,4.4,0,0,0,.981.108H404.7a4.742,4.742,0,0,0,4.725-4.726v-4.726h-6.4Z" transform="translate(-399.292 -296.138)" fill="#838383" fill-rule="evenodd"/>
      </g>
      <g id="Grupo_89123" data-name="Grupo 89123" transform="translate(89.912 48.225)">
        <path id="Trazado_133649" data-name="Trazado 133649" d="M370.221,269.354h18.77a1.527,1.527,0,0,0,1.522-1.522V261.85a1.527,1.527,0,0,0-1.522-1.523H370.221a1.527,1.527,0,0,0-1.522,1.523v5.982a1.527,1.527,0,0,0,1.522,1.522Z" transform="translate(-368.699 -260.327)" fill="#f8f6f6" fill-rule="evenodd"/>
      </g>
      <g id="Grupo_89124" data-name="Grupo 89124" transform="translate(103.805 48.225)">
        <path id="Trazado_133650" data-name="Trazado 133650" d="M425.34,262.015v5.816a1.527,1.527,0,0,1-1.522,1.522h6.4a1.527,1.527,0,0,0,1.522-1.522V261.85a1.527,1.527,0,0,0-1.522-1.523h-6.4a1.527,1.527,0,0,1,1.522,1.523v.166Z" transform="translate(-423.818 -260.327)" fill="#e2e2e2" fill-rule="evenodd"/>
      </g>
      <g id="Grupo_89125" data-name="Grupo 89125" transform="translate(95.062 21.642)">
        <path id="Trazado_133651" data-name="Trazado 133651" d="M400.646,160.625a5.757,5.757,0,0,0-11.513-.115v.115a5.756,5.756,0,1,0,11.513,0Z" transform="translate(-389.133 -154.867)" fill="#fece85" fill-rule="evenodd"/>
      </g>
    </g>
    <g id="Grupo_89127" data-name="Grupo 89127" transform="translate(4.495 0)">
      <path id="Trazado_133652" data-name="Trazado 133652" d="M406.421,9.4a1.89,1.89,0,0,0,1.89-1.89V1.89a1.89,1.89,0,1,0-3.781,0V7.512A1.89,1.89,0,0,0,406.421,9.4Z" transform="translate(-303.696 0)"/>
      <path id="Trazado_133653" data-name="Trazado 133653" d="M321.084,33.568a1.891,1.891,0,0,0,2.674-2.673l-3.975-3.976a1.891,1.891,0,1,0-2.674,2.673Z" transform="translate(-237.896 -19.719)"/>
      <path id="Trazado_133654" data-name="Trazado 133654" d="M483.938,26.917a1.89,1.89,0,0,0-2.674,0l-3.975,3.976a1.891,1.891,0,0,0,2.674,2.673l3.975-3.976A1.891,1.891,0,0,0,483.938,26.917Z" transform="translate(-357.7 -19.718)"/>
      <path id="Trazado_133655" data-name="Trazado 133655" d="M166.692,295.6h-46.8a1.891,1.891,0,0,0,0,3.781h46.8a1.891,1.891,0,0,0,0-3.781Z" transform="translate(-89.388 -221.089)"/>
      <path id="Trazado_133656" data-name="Trazado 133656" d="M154.832,244.673H119.888a1.89,1.89,0,1,0,0,3.781h34.944a1.89,1.89,0,1,0,0-3.781Z" transform="translate(-89.388 -182.999)"/>
      <path id="Trazado_133657" data-name="Trazado 133657" d="M166.692,346.5h-46.8a1.891,1.891,0,0,0,0,3.781h46.8a1.891,1.891,0,0,0,0-3.781Z" transform="translate(-89.388 -259.158)"/>
      <path id="Trazado_133658" data-name="Trazado 133658" d="M108.111,61.55a1.89,1.89,0,1,0-.078,3.778c9.238.194,18.565,5.976,18.577,18.462.008,6.657-3.015,10.3-6.216,14.164-2.717,3.279-5.518,6.662-6.432,11.811H109.1V98.243a7.647,7.647,0,1,0-3.781,0v11.523h-4.865c-.91-5.151-3.711-8.532-6.428-11.814-2.836-3.421-5.533-6.675-6.1-12.009a19.556,19.556,0,0,1-.113-2.153c0-.736.035-1.454.1-2.158A17.035,17.035,0,0,1,99.871,66.451a1.891,1.891,0,0,0-1.215-3.582A20.808,20.808,0,0,0,84.31,79.962a44.457,44.457,0,0,0-16.924-3.325H62.819a1.89,1.89,0,0,0,0,3.781h4.567a40.734,40.734,0,0,1,16.642,3.534c.043,7.918,3.781,12.43,7.081,16.412,2.406,2.9,4.694,5.668,5.53,9.617a3.416,3.416,0,0,0-2.231,3.2v5.982a3.417,3.417,0,0,0,3.412,3.413h.555v2.836a6.624,6.624,0,0,0,6.614,6.617h2.453a41.07,41.07,0,0,1-40.057,32.267H40.516a3.742,3.742,0,0,0-2.226.555L23.6,170.793l-.111-14.428a1.991,1.991,0,0,0-.7-1.843A40.966,40.966,0,0,1,8.276,123.288v-1.86A41.046,41.046,0,0,1,49.265,80.418h5.223a1.89,1.89,0,0,0,0-3.781H49.265a44.912,44.912,0,0,0-44.77,44.79v1.86a44.725,44.725,0,0,0,15.22,33.573l.116,15.313a2.707,2.707,0,0,0,1.028,2.44,2.491,2.491,0,0,0,1.51.479,3.811,3.811,0,0,0,1.318-.257c.018-.005.038-.013.058-.02l16.042-6.5a1.209,1.209,0,0,0,.154-.071l.078-.038c.093-.048.192-.1.265-.136h27.1a44.965,44.965,0,0,0,43.976-36.339,6.632,6.632,0,0,0,4.673-6.327v-2.836h.555A3.417,3.417,0,0,0,120,119.161v-5.982a3.415,3.415,0,0,0-2.229-3.2c.838-3.949,3.125-6.711,5.531-9.615,3.325-4.01,7.093-8.558,7.086-16.581-.015-14.958-11.559-22.011-22.28-22.235ZM103.34,90.831a3.866,3.866,0,1,1,3.866,3.868A3.871,3.871,0,0,1,103.34,90.831Zm8.915,34.579a2.835,2.835,0,0,1-2.833,2.836h-4.431a2.838,2.838,0,0,1-2.833-2.836v-2.836h10.1v2.836Zm3.968-6.617H98.19v-5.246h18.034Z" transform="translate(-4.495 -46.035)"/>
    </g>
  </g>
</svg>
