<svg xmlns="http://www.w3.org/2000/svg" width="69.265" height="55.859" viewBox="0 0 69.265 55.859">
  <g id="estructura" transform="translate(-1 -7)">
    <path id="Trazado_128619" data-name="Trazado 128619" d="M50.515,35.992V31.523l-3.629-.484A13.312,13.312,0,0,0,44.959,26.4l2.228-2.914-3.159-3.159-2.914,2.228a13.333,13.333,0,0,0-4.637-1.928L35.992,17H31.523l-.484,3.629A13.312,13.312,0,0,0,26.4,22.557l-2.914-2.228-3.159,3.159L22.557,26.4a13.333,13.333,0,0,0-1.928,4.637L17,31.523v4.469l3.629.484a13.312,13.312,0,0,0,1.928,4.637l-2.228,2.914,3.159,3.159L26.4,44.959a13.334,13.334,0,0,0,4.637,1.928l.484,3.629h4.469l.484-3.629a13.312,13.312,0,0,0,4.637-1.928l2.914,2.228,3.159-3.159-2.228-2.914a13.334,13.334,0,0,0,1.928-4.637ZM33.758,42.7A8.937,8.937,0,1,1,42.7,33.758,8.938,8.938,0,0,1,33.758,42.7Z" transform="translate(1.875 1.172)" fill="#dbbe36"/>
    <g id="Grupo_88767" data-name="Grupo 88767" transform="translate(2.117 8.117)">
      <path id="Trazado_128620" data-name="Trazado 128620" d="M54,28h8.937v8.937H54Z" transform="translate(4.093 -5.656)" fill="#fff"/>
      <path id="Trazado_128621" data-name="Trazado 128621" d="M54,48h8.937v8.937H54Z" transform="translate(4.093 -3.313)" fill="#fff"/>
      <path id="Trazado_128622" data-name="Trazado 128622" d="M54,8h8.937v8.937H54Z" transform="translate(4.093 -8)" fill="#fff"/>
      <path id="Trazado_128623" data-name="Trazado 128623" d="M0,0H8.937V8.937H0Z" transform="translate(8.937 31.281) rotate(180)" fill="#fff"/>
      <path id="Trazado_128624" data-name="Trazado 128624" d="M0,0H8.937V8.937H0Z" transform="translate(8.937 53.625) rotate(180)" fill="#fff"/>
      <path id="Trazado_128625" data-name="Trazado 128625" d="M0,0H8.937V8.937H0Z" transform="translate(8.937 8.937) rotate(180)" fill="#fff"/>
    </g>
    <g id="Grupo_88768" data-name="Grupo 88768" transform="translate(11.055 11.469)">
      <path id="Trazado_128626" data-name="Trazado 128626" d="M54.82,13.234V11H50.352a1.118,1.118,0,0,0-1.117,1.117V33.344H47v2.234h2.234V56.8a1.118,1.118,0,0,0,1.117,1.117H54.82V55.687H51.469V35.578H54.82V33.344H51.469V13.234Z" transform="translate(-5.664 -11)" fill="#61668c"/>
      <path id="Trazado_128627" data-name="Trazado 128627" d="M15.586,12.117A1.118,1.118,0,0,0,14.469,11H10v2.234h3.352V33.344H10v2.234h3.352V55.687H10v2.234h4.469A1.118,1.118,0,0,0,15.586,56.8V35.578H17.82V33.344H15.586Z" transform="translate(-10 -11)" fill="#61668c"/>
    </g>
    <path id="Trazado_128628" data-name="Trazado 128628" d="M33.055,23A10.055,10.055,0,1,0,43.109,33.055,10.067,10.067,0,0,0,33.055,23Zm0,17.875a7.82,7.82,0,1,1,7.82-7.82A7.829,7.829,0,0,1,33.055,40.875Z" transform="translate(2.578 1.875)"/>
    <path id="Trazado_128629" data-name="Trazado 128629" d="M69.148,7H60.21a1.118,1.118,0,0,0-1.117,1.117v3.352H55.742a1.118,1.118,0,0,0-1.117,1.117V33.812H53.507V32.7a1.117,1.117,0,0,0-.97-1.107l-2.866-.382a14.313,14.313,0,0,0-1.484-3.566l1.761-2.3a1.117,1.117,0,0,0-.1-1.468l-3.16-3.16a1.115,1.115,0,0,0-1.468-.1l-2.3,1.761a14.4,14.4,0,0,0-3.566-1.484l-.382-2.866a1.117,1.117,0,0,0-1.107-.97H33.4a1.117,1.117,0,0,0-1.107.97l-.382,2.866a14.314,14.314,0,0,0-3.566,1.484l-2.3-1.761a1.117,1.117,0,0,0-1.468.1l-3.161,3.16a1.116,1.116,0,0,0-.1,1.468l1.761,2.3a14.4,14.4,0,0,0-1.484,3.566l-2.866.382a1.117,1.117,0,0,0-.97,1.107v1.117H16.641V12.586a1.118,1.118,0,0,0-1.117-1.117H12.172V8.117A1.118,1.118,0,0,0,11.055,7H2.117A1.118,1.118,0,0,0,1,8.117v8.937a1.118,1.118,0,0,0,1.117,1.117h8.937a1.118,1.118,0,0,0,1.117-1.117V13.7h2.234V33.812H12.172V30.461a1.118,1.118,0,0,0-1.117-1.117H2.117A1.118,1.118,0,0,0,1,30.461V39.4a1.118,1.118,0,0,0,1.117,1.117h8.937A1.118,1.118,0,0,0,12.172,39.4V36.047h2.234V56.156H12.172V52.8a1.118,1.118,0,0,0-1.117-1.117H2.117A1.118,1.118,0,0,0,1,52.8v8.937a1.118,1.118,0,0,0,1.117,1.117h8.937a1.118,1.118,0,0,0,1.117-1.117V58.39h3.352a1.118,1.118,0,0,0,1.117-1.117V36.047h1.117v1.117a1.117,1.117,0,0,0,.97,1.107l2.866.382a14.314,14.314,0,0,0,1.484,3.566l-1.761,2.3a1.117,1.117,0,0,0,.1,1.468l3.161,3.16a1.117,1.117,0,0,0,1.468.1l2.3-1.761a14.4,14.4,0,0,0,3.566,1.484l.382,2.866a1.117,1.117,0,0,0,1.107.97h4.469a1.117,1.117,0,0,0,1.107-.97l.382-2.866a14.313,14.313,0,0,0,3.566-1.484l2.3,1.761a1.115,1.115,0,0,0,1.468-.1l3.16-3.16a1.116,1.116,0,0,0,.1-1.468l-1.761-2.3a14.4,14.4,0,0,0,1.484-3.566l2.866-.382a1.117,1.117,0,0,0,.97-1.107V36.047h1.117V57.273a1.118,1.118,0,0,0,1.117,1.117h3.352v3.352a1.118,1.118,0,0,0,1.117,1.117h8.937a1.118,1.118,0,0,0,1.117-1.117V52.8a1.118,1.118,0,0,0-1.117-1.117H60.21A1.118,1.118,0,0,0,59.093,52.8v3.352H56.859V36.047h2.234V39.4a1.118,1.118,0,0,0,1.117,1.117h8.937A1.118,1.118,0,0,0,70.265,39.4V30.461a1.118,1.118,0,0,0-1.117-1.117H60.21a1.118,1.118,0,0,0-1.117,1.117v3.352H56.859V13.7h2.234v3.352a1.118,1.118,0,0,0,1.117,1.117h8.937a1.118,1.118,0,0,0,1.117-1.117V8.117A1.118,1.118,0,0,0,69.148,7ZM9.937,15.937h-6.7v-6.7h6.7Zm0,22.344h-6.7v-6.7h6.7Zm0,22.344h-6.7v-6.7h6.7ZM51.273,36.186l-2.659.354a1.118,1.118,0,0,0-.946.883A12.15,12.15,0,0,1,45.9,41.672a1.117,1.117,0,0,0,.046,1.293L47.581,45.1,45.8,46.878l-2.137-1.634a1.117,1.117,0,0,0-1.293-.046,12.15,12.15,0,0,1-4.249,1.767,1.119,1.119,0,0,0-.883.946l-.354,2.659H34.377l-.354-2.659a1.118,1.118,0,0,0-.883-.946A12.15,12.15,0,0,1,28.891,45.2a1.119,1.119,0,0,0-1.293.046l-2.137,1.634L23.685,45.1l1.634-2.137a1.117,1.117,0,0,0,.046-1.293A12.151,12.151,0,0,1,23.6,37.423a1.119,1.119,0,0,0-.946-.883l-2.66-.354V33.674l2.659-.354a1.118,1.118,0,0,0,.946-.883,12.15,12.15,0,0,1,1.767-4.249,1.117,1.117,0,0,0-.046-1.293l-1.634-2.137,1.776-1.776L27.6,24.617a1.119,1.119,0,0,0,1.293.046A12.15,12.15,0,0,1,33.139,22.9a1.119,1.119,0,0,0,.883-.946l.354-2.66h2.513l.354,2.659a1.118,1.118,0,0,0,.883.946,12.15,12.15,0,0,1,4.249,1.767,1.115,1.115,0,0,0,1.293-.046L45.8,22.981l1.776,1.776-1.634,2.137a1.117,1.117,0,0,0-.046,1.293,12.15,12.15,0,0,1,1.767,4.249,1.119,1.119,0,0,0,.946.883l2.66.354ZM61.328,53.922h6.7v6.7h-6.7Zm0-22.344h6.7v6.7h-6.7Zm6.7-15.641h-6.7v-6.7h6.7Z"/>
  </g>
</svg>
