<svg xmlns="http://www.w3.org/2000/svg" width="170.836" height="170.834" viewBox="0 0 170.836 170.834">
  <g id="ciclo" transform="translate(0.007 0.005)">
    <g id="Grupo_89155" data-name="Grupo 89155" transform="translate(26.955 26.956)">
      <path id="Trazado_133730" data-name="Trazado 133730" d="M148.868,90.593a49.32,49.32,0,0,1,18,7.46l2.165-.962,7.432-3.3,4.131,4.131,4.131,4.131-3.3,7.432-.96,2.162a49.315,49.315,0,0,1,7.461,18l2.2.847,7.589,2.921V145.1l-7.589,2.921-2.2.848a49.323,49.323,0,0,1-7.46,18l.962,2.165,3.3,7.432-4.131,4.131-4.131,4.131-7.432-3.3-2.162-.96a49.321,49.321,0,0,1-18,7.461l-.847,2.2-2.921,7.589H133.415l-2.921-7.589-.848-2.2a49.326,49.326,0,0,1-18-7.46l-2.165.962-7.432,3.3-4.131-4.131-4.131-4.131,3.3-7.432.96-2.162a49.321,49.321,0,0,1-7.461-18l-2.2-.847L80.8,145.1V133.415l7.589-2.921,2.2-.848a49.306,49.306,0,0,1,7.46-18l-.961-2.164-3.3-7.433,4.131-4.131,4.131-4.131,7.432,3.3,2.165.962a49.32,49.32,0,0,1,18-7.46l.848-2.2,2.921-7.589H145.1l2.921,7.589Zm-9.611,11.863a36.8,36.8,0,1,0,36.8,36.8,36.8,36.8,0,0,0-36.8-36.8Z" transform="translate(-80.8 -80.8)" fill="#eceff1" fill-rule="evenodd"/>
      <path id="Trazado_133731" data-name="Trazado 133731" d="M265.611,90.594a49.32,49.32,0,0,1,18,7.46l2.165-.962,7.432-3.3,4.131,4.131,4.131,4.131-3.3,7.432-.96,2.162a49.316,49.316,0,0,1,7.461,18l2.2.847,7.589,2.921V145.1l-7.589,2.921-2.2.848a49.322,49.322,0,0,1-7.46,18l.962,2.165,3.3,7.432-4.131,4.131-4.131,4.131-7.432-3.3-2.162-.96a49.321,49.321,0,0,1-18,7.461l-.847,2.2-2.921,7.589H256V176.057a36.8,36.8,0,1,0,0-73.6V80.8h5.842l2.921,7.589Z" transform="translate(-197.544 -80.801)" fill="#c4cccf" fill-rule="evenodd"/>
    </g>
    <g id="Grupo_89156" data-name="Grupo 89156" transform="translate(56.464 66.062)">
      <path id="Trazado_133732" data-name="Trazado 133732" d="M227.137,342.731V312.262c0-6.443-5.737-10.1-12.266-11.72a67.045,67.045,0,0,0-33.364,0c-6.513,1.675-12.266,5.274-12.266,11.72v30.469Z" transform="translate(-169.242 -264.925)" fill="#db6e5f" fill-rule="evenodd"/>
      <path id="Trazado_133733" data-name="Trazado 133733" d="M284.949,342.732V312.263c0-6.443-5.737-10.1-12.266-11.72A69.708,69.708,0,0,0,256,298.435v44.3Z" transform="translate(-227.053 -264.926)" fill="#e3988d" fill-rule="evenodd"/>
      <path id="Trazado_133734" data-name="Trazado 133734" d="M229.985,198.006c7.195,0,13.027,4.1,13.027,13.555s-5.832,17.121-13.027,17.121-13.027-7.665-13.027-17.121S222.79,198.006,229.985,198.006Z" transform="translate(-201.037 -198.006)" fill="#f6dccd" fill-rule="evenodd"/>
      <path id="Trazado_133735" data-name="Trazado 133735" d="M256,198.006c7.195,0,13.027,4.1,13.027,13.555S263.195,228.683,256,228.683Z" transform="translate(-227.053 -198.006)" fill="#f1cbbc" fill-rule="evenodd"/>
    </g>
    <path id="Trazado_133736" data-name="Trazado 133736" d="M16.177,125.638a2.667,2.667,0,1,1-4.609,2.685A85.4,85.4,0,0,1,94.346.475,84.941,84.941,0,0,1,136.063,16.64l-1.849-6.493a2.667,2.667,0,0,1,5.131-1.461l4.18,14.679a2.668,2.668,0,0,1-2.47,3.4l-15.256.549-.1,0a2.667,2.667,0,0,1-.094-5.333l8.286-.3A80.071,80.071,0,0,0,5.781,77.028a79.357,79.357,0,0,0,10.4,48.61ZM159.259,42.5a2.667,2.667,0,0,0-4.611,2.683,80.077,80.077,0,0,1-69.174,120.3,80.65,80.65,0,0,1-8.446-.445,79.7,79.7,0,0,1-40.107-15.9l8.287-.3a2.667,2.667,0,1,0-.192-5.33l-15.256.549a2.667,2.667,0,0,0-2.469,3.4l4.19,14.678a2.667,2.667,0,1,0,5.129-1.464l-1.851-6.484A85.022,85.022,0,0,0,76.47,170.35a86.9,86.9,0,0,0,9.106.48A85.416,85.416,0,0,0,159.259,42.5ZM118.091,102.9a2.667,2.667,0,0,0,3.523-1.348,39.624,39.624,0,1,0-72.412,0,2.667,2.667,0,1,0,4.875-2.167,34.29,34.29,0,1,1,62.667,0,2.666,2.666,0,0,0,1.347,3.522Zm-83.658-5.9a51.677,51.677,0,0,0,6.747,16.278l-3.669,8.265a2.667,2.667,0,1,0,4.875,2.165l4.257-9.593a2.668,2.668,0,0,0-.224-2.567,46.459,46.459,0,0,1-7.059-17.035,2.667,2.667,0,0,0-1.665-1.978l-8.073-3.1V81.408L37.7,78.291a2.666,2.666,0,0,0,1.656-1.974,46.451,46.451,0,0,1,7.059-17.026,2.668,2.668,0,0,0,.226-2.563L43.129,48.8,48.8,43.129,56.72,46.65a2.666,2.666,0,0,0,2.572-.222,46.409,46.409,0,0,1,17.016-7.059,2.668,2.668,0,0,0,1.975-1.656L81.4,29.629h8.019l3.116,8.083a2.667,2.667,0,0,0,1.975,1.656,46.421,46.421,0,0,1,17.025,7.059,2.667,2.667,0,0,0,2.576.22l7.91-3.519L127.7,48.8l-3.521,7.915a2.666,2.666,0,0,0,.222,2.572,46.435,46.435,0,0,1,7.06,17.026,2.666,2.666,0,0,0,1.656,1.974l8.082,3.116v8.02l-8.082,3.116a2.667,2.667,0,0,0-1.656,1.974,46.443,46.443,0,0,1-7.06,17.017,2.667,2.667,0,0,0-.222,2.572l4.264,9.6a2.667,2.667,0,0,0,4.875-2.165l-3.677-8.278A51.68,51.68,0,0,0,136.385,97l8.437-3.251a2.667,2.667,0,0,0,1.708-2.489V79.577a2.667,2.667,0,0,0-1.708-2.489l-8.437-3.252a51.677,51.677,0,0,0-6.747-16.272l3.677-8.267a2.667,2.667,0,0,0-.551-2.97L124.5,38.062a2.666,2.666,0,0,0-2.968-.552l-7.441,3.3-.83.371A51.661,51.661,0,0,0,96.99,34.44L93.738,26a2.667,2.667,0,0,0-2.489-1.708H79.569A2.667,2.667,0,0,0,77.08,26L73.829,34.44a51.65,51.65,0,0,0-16.262,6.746L49.289,37.51a2.666,2.666,0,0,0-2.968.552L38.061,46.33a2.668,2.668,0,0,0-.549,2.968l3.3,7.417.372.845a51.687,51.687,0,0,0-6.75,16.277L26,77.088a2.667,2.667,0,0,0-1.708,2.489V91.258A2.667,2.667,0,0,0,26,93.746l7.593,2.925Zm77.254,46.878a2.667,2.667,0,0,0,5.335,0v-30.4c0-6.845-5.21-12.059-14.291-14.307a73.957,73.957,0,0,0-10.369-1.809c5.175-3.237,8.742-9.969,8.742-17.734,0-10.011-6.012-16.23-15.691-16.23s-15.7,6.219-15.7,16.23c0,7.747,3.553,14.465,8.712,17.711a69.195,69.195,0,0,0-10.359,1.837c-9.2,2.364-14.271,7.443-14.271,14.3v30.4a2.667,2.667,0,0,0,5.334,0v-30.4c0-5.371,5.581-7.933,10.264-9.135a64.714,64.714,0,0,1,32.054.006c3.824.947,10.24,3.391,10.24,9.129Zm-26.274-49.8c5.711,0,10.356-6.483,10.356-14.452,0-9.48-6.489-10.9-10.356-10.9s-10.366,1.416-10.366,10.9C75.047,87.593,79.7,94.076,85.413,94.076ZM66.951,119.518v24.354a2.667,2.667,0,0,0,5.334,0V119.518a2.667,2.667,0,0,0-5.334,0Zm31.59,0v24.354a2.667,2.667,0,1,0,5.334,0V119.518a2.667,2.667,0,0,0-5.334,0Z" transform="translate(0 0)" fill="#12263f" fill-rule="evenodd"/>
  </g>
</svg>
