<svg xmlns="http://www.w3.org/2000/svg" width="268.872" height="93" viewBox="0 0 268.872 93">
  <g id="Grupo_88807" data-name="Grupo 88807" transform="translate(-222.084 -1593.326)">
    <g id="Grupo_88805" data-name="Grupo 88805">
      <path id="Trazado_129150" data-name="Trazado 129150" d="M13.315-5.493a2.575,2.575,0,0,0-.989-2.168A11.9,11.9,0,0,0,8.76-9.2a17.224,17.224,0,0,1-4.1-1.729A5.473,5.473,0,0,1,1.743-15.7a5.2,5.2,0,0,1,2.1-4.248A8.508,8.508,0,0,1,9.3-21.621a9.217,9.217,0,0,1,3.97.82,6.516,6.516,0,0,1,2.739,2.336,5.993,5.993,0,0,1,1,3.362H13.315a3.342,3.342,0,0,0-1.047-2.615,4.323,4.323,0,0,0-3-.945,4.515,4.515,0,0,0-2.82.776,2.585,2.585,0,0,0-1,2.168,2.339,2.339,0,0,0,1.084,1.956,12.488,12.488,0,0,0,3.574,1.523,16.441,16.441,0,0,1,4,1.685,6.361,6.361,0,0,1,2.212,2.168,5.646,5.646,0,0,1,.7,2.864,5.076,5.076,0,0,1-2.043,4.241A8.864,8.864,0,0,1,9.434.293,10.419,10.419,0,0,1,5.178-.564,7.148,7.148,0,0,1,2.161-2.93,5.9,5.9,0,0,1,1.084-6.445H4.79a3.45,3.45,0,0,0,1.2,2.813,5.26,5.26,0,0,0,3.442,1,4.57,4.57,0,0,0,2.908-.784A2.529,2.529,0,0,0,13.315-5.493ZM26.909.293a7.364,7.364,0,0,1-5.486-2.131,7.732,7.732,0,0,1-2.1-5.676v-.439a9.511,9.511,0,0,1,.916-4.241A6.968,6.968,0,0,1,22.808-15.1a6.8,6.8,0,0,1,3.691-1.04,6.221,6.221,0,0,1,5,2.065,8.734,8.734,0,0,1,1.765,5.845V-6.8H22.91a4.76,4.76,0,0,0,1.311,3.105,3.936,3.936,0,0,0,2.893,1.143A4.82,4.82,0,0,0,31.1-4.526L33.018-2.7a6.408,6.408,0,0,1-2.542,2.2A7.957,7.957,0,0,1,26.909.293Zm-.425-13.579a3,3,0,0,0-2.366,1.025A5.315,5.315,0,0,0,22.969-9.4h6.782v-.264a4.327,4.327,0,0,0-.952-2.7A2.975,2.975,0,0,0,26.484-13.286Zm17.842.688a8.808,8.808,0,0,0-1.45-.117,3.265,3.265,0,0,0-3.3,1.875V0h-3.56V-15.85h3.4l.088,1.772a4.011,4.011,0,0,1,3.574-2.065,3.332,3.332,0,0,1,1.26.205Zm8.1,8.086L55.781-15.85h3.677L53.965,0H50.874L45.337-15.85h3.691ZM65.464,0H61.9V-15.85h3.56ZM61.685-19.966a1.889,1.889,0,0,1,.52-1.362,1.964,1.964,0,0,1,1.487-.542,1.989,1.989,0,0,1,1.494.542,1.875,1.875,0,0,1,.527,1.362,1.831,1.831,0,0,1-.527,1.34,2,2,0,0,1-1.494.535,1.979,1.979,0,0,1-1.487-.535A1.845,1.845,0,0,1,61.685-19.966ZM75.85-2.549a3.218,3.218,0,0,0,2.212-.776A2.652,2.652,0,0,0,79-5.244h3.354a5.228,5.228,0,0,1-.923,2.761A6.053,6.053,0,0,1,79.087-.454a6.985,6.985,0,0,1-3.193.747A6.758,6.758,0,0,1,70.62-1.86a8.541,8.541,0,0,1-1.948-5.947v-.366a8.4,8.4,0,0,1,1.934-5.793,6.7,6.7,0,0,1,5.273-2.175,6.512,6.512,0,0,1,4.607,1.648,5.9,5.9,0,0,1,1.868,4.329H79a3.26,3.26,0,0,0-.93-2.241,2.993,2.993,0,0,0-2.219-.879,3.132,3.132,0,0,0-2.666,1.252,6.391,6.391,0,0,0-.952,3.8v.571a6.5,6.5,0,0,0,.93,3.845A3.13,3.13,0,0,0,75.85-2.549ZM88.828,0h-3.56V-15.85h3.56ZM85.049-19.966a1.889,1.889,0,0,1,.52-1.362,1.964,1.964,0,0,1,1.487-.542,1.989,1.989,0,0,1,1.494.542,1.875,1.875,0,0,1,.527,1.362,1.831,1.831,0,0,1-.527,1.34,2,2,0,0,1-1.494.535,1.979,1.979,0,0,1-1.487-.535A1.845,1.845,0,0,1,85.049-19.966ZM92.036-8.071a9.346,9.346,0,0,1,.923-4.2,6.74,6.74,0,0,1,2.593-2.871,7.305,7.305,0,0,1,3.838-1,6.923,6.923,0,0,1,5.208,2.065A8.124,8.124,0,0,1,106.758-8.6l.015.835a9.429,9.429,0,0,1-.9,4.189,6.659,6.659,0,0,1-2.578,2.856A7.359,7.359,0,0,1,99.419.293,6.875,6.875,0,0,1,94.05-1.941,8.556,8.556,0,0,1,92.036-7.9Zm3.56.308a6.386,6.386,0,0,0,1.011,3.831,3.286,3.286,0,0,0,2.813,1.384,3.25,3.25,0,0,0,2.805-1.406,7.054,7.054,0,0,0,1-4.116,6.3,6.3,0,0,0-1.033-3.809,3.3,3.3,0,0,0-2.805-1.406A3.267,3.267,0,0,0,96.621-11.9,6.921,6.921,0,0,0,95.6-7.764Zm27.246,3.252L126.2-15.85h3.677L124.38,0h-3.091l-5.537-15.85h3.691ZM135.879,0h-3.56V-15.85h3.56ZM132.1-19.966a1.889,1.889,0,0,1,.52-1.362,1.964,1.964,0,0,1,1.487-.542,1.989,1.989,0,0,1,1.494.542,1.875,1.875,0,0,1,.527,1.362,1.831,1.831,0,0,1-.527,1.34,2,2,0,0,1-1.494.535,1.979,1.979,0,0,1-1.487-.535A1.845,1.845,0,0,1,132.1-19.966ZM148.638-4.307a1.614,1.614,0,0,0-.784-1.45,8.335,8.335,0,0,0-2.6-.879,13.366,13.366,0,0,1-3.032-.967,4.047,4.047,0,0,1-2.666-3.735,4.219,4.219,0,0,1,1.729-3.428,6.833,6.833,0,0,1,4.395-1.377,7.11,7.11,0,0,1,4.592,1.406,4.462,4.462,0,0,1,1.75,3.647h-3.56A2.194,2.194,0,0,0,147.7-12.8a2.919,2.919,0,0,0-2.021-.681,3.154,3.154,0,0,0-1.912.542,1.709,1.709,0,0,0-.74,1.45,1.443,1.443,0,0,0,.688,1.274,9.467,9.467,0,0,0,2.783.916,13.175,13.175,0,0,1,3.289,1.1,4.657,4.657,0,0,1,1.772,1.531,3.9,3.9,0,0,1,.579,2.168,4.13,4.13,0,0,1-1.772,3.464A7.558,7.558,0,0,1,145.723.293a8.2,8.2,0,0,1-3.472-.7,5.714,5.714,0,0,1-2.373-1.934A4.577,4.577,0,0,1,139.028-5h3.457a2.508,2.508,0,0,0,.952,1.941,3.7,3.7,0,0,0,2.329.681,3.6,3.6,0,0,0,2.139-.535A1.655,1.655,0,0,0,148.638-4.307ZM159.023,0h-3.56V-15.85h3.56Zm-3.779-19.966a1.889,1.889,0,0,1,.52-1.362,1.964,1.964,0,0,1,1.487-.542,1.989,1.989,0,0,1,1.494.542,1.875,1.875,0,0,1,.527,1.362,1.831,1.831,0,0,1-.527,1.34,2,2,0,0,1-1.494.535,1.979,1.979,0,0,1-1.487-.535A1.845,1.845,0,0,1,155.244-19.966Zm21.563,12.2a9.521,9.521,0,0,1-1.648,5.874A5.368,5.368,0,0,1,170.625.293a5.17,5.17,0,0,1-4.336-2.007L166.113,0h-3.223V-22.5h3.56v8.174a5.152,5.152,0,0,1,4.146-1.816,5.429,5.429,0,0,1,4.556,2.153,9.678,9.678,0,0,1,1.655,6.021Zm-3.56-.308a6.729,6.729,0,0,0-.908-3.867,3.024,3.024,0,0,0-2.637-1.289,3.3,3.3,0,0,0-3.252,2.021v6.533a3.339,3.339,0,0,0,3.281,2.065,3,3,0,0,0,2.578-1.245,6.52,6.52,0,0,0,.938-3.765ZM183.574,0h-3.56V-22.5h3.56Zm10.854.293a7.364,7.364,0,0,1-5.486-2.131,7.732,7.732,0,0,1-2.1-5.676v-.439a9.511,9.511,0,0,1,.916-4.241,6.968,6.968,0,0,1,2.571-2.908,6.8,6.8,0,0,1,3.691-1.04,6.221,6.221,0,0,1,5,2.065,8.734,8.734,0,0,1,1.765,5.845V-6.8H190.43a4.76,4.76,0,0,0,1.311,3.105,3.936,3.936,0,0,0,2.893,1.143,4.82,4.82,0,0,0,3.984-1.978L200.537-2.7A6.408,6.408,0,0,1,198-.491,7.957,7.957,0,0,1,194.429.293ZM194-13.286a3,3,0,0,0-2.366,1.025,5.315,5.315,0,0,0-1.15,2.856h6.782v-.264a4.327,4.327,0,0,0-.952-2.7A2.975,2.975,0,0,0,194-13.286Zm16.45,7.529a4.88,4.88,0,0,1,.806-2.717,12.648,12.648,0,0,1,3.179-2.937,13.277,13.277,0,0,1-1.736-2.666,5.2,5.2,0,0,1-.491-2.124,5.225,5.225,0,0,1,1.523-3.962,5.686,5.686,0,0,1,4.1-1.458,5.411,5.411,0,0,1,3.816,1.37,4.426,4.426,0,0,1,1.487,3.391,4.673,4.673,0,0,1-.674,2.454,7.985,7.985,0,0,1-2.212,2.234l-1.45,1.055,4.116,4.863a8.506,8.506,0,0,0,.894-3.911H226.9a10.654,10.654,0,0,1-1.846,6.46L228.193,0h-4.131l-1.2-1.421A8.824,8.824,0,0,1,217.412.293a7.362,7.362,0,0,1-5.061-1.677A5.561,5.561,0,0,1,210.454-5.757Zm7.061,3.208a5.434,5.434,0,0,0,3.369-1.2l-4.658-5.493-.454.322a3.806,3.806,0,0,0-1.758,3.047,3.2,3.2,0,0,0,.952,2.4A3.506,3.506,0,0,0,217.515-2.549Zm-1.963-13.74a5.448,5.448,0,0,0,1.509,3.091l1.626-1.113.454-.366a2.636,2.636,0,0,0,.908-2.065,1.892,1.892,0,0,0-.63-1.428,2.236,2.236,0,0,0-1.6-.593,2.088,2.088,0,0,0-1.655.7A2.594,2.594,0,0,0,215.552-16.289ZM58.14,24.507a2.575,2.575,0,0,0-.989-2.168A11.9,11.9,0,0,0,53.584,20.8a17.224,17.224,0,0,1-4.1-1.729A5.473,5.473,0,0,1,46.567,14.3a5.2,5.2,0,0,1,2.1-4.248,8.508,8.508,0,0,1,5.457-1.67,9.217,9.217,0,0,1,3.97.82,6.516,6.516,0,0,1,2.739,2.336,5.993,5.993,0,0,1,1,3.362H58.14a3.342,3.342,0,0,0-1.047-2.615,4.323,4.323,0,0,0-3-.945,4.515,4.515,0,0,0-2.82.776,2.585,2.585,0,0,0-1,2.168,2.339,2.339,0,0,0,1.084,1.956,12.488,12.488,0,0,0,3.574,1.523,16.441,16.441,0,0,1,4,1.685,6.361,6.361,0,0,1,2.212,2.168,5.646,5.646,0,0,1,.7,2.864A5.076,5.076,0,0,1,59.8,28.718a8.864,8.864,0,0,1-5.544,1.575A10.419,10.419,0,0,1,50,29.436a7.148,7.148,0,0,1-3.018-2.366,5.9,5.9,0,0,1-1.077-3.516h3.706a3.45,3.45,0,0,0,1.2,2.813,5.26,5.26,0,0,0,3.442,1,4.57,4.57,0,0,0,2.908-.784A2.529,2.529,0,0,0,58.14,24.507Zm13.594,5.786a7.364,7.364,0,0,1-5.486-2.131,7.732,7.732,0,0,1-2.1-5.676v-.439a9.511,9.511,0,0,1,.916-4.241A6.968,6.968,0,0,1,67.632,14.9a6.8,6.8,0,0,1,3.691-1.04,6.221,6.221,0,0,1,5,2.065,8.734,8.734,0,0,1,1.765,5.845V23.2H67.734a4.76,4.76,0,0,0,1.311,3.105,3.936,3.936,0,0,0,2.893,1.143,4.82,4.82,0,0,0,3.984-1.978L77.842,27.3a6.408,6.408,0,0,1-2.542,2.2A7.957,7.957,0,0,1,71.733,30.293Zm-.425-13.579a3,3,0,0,0-2.366,1.025,5.315,5.315,0,0,0-1.15,2.856h6.782v-.264a4.327,4.327,0,0,0-.952-2.7A2.975,2.975,0,0,0,71.309,16.714ZM89.15,17.4a8.808,8.808,0,0,0-1.45-.117,3.265,3.265,0,0,0-3.3,1.875V30h-3.56V14.15h3.4l.088,1.772a4.011,4.011,0,0,1,3.574-2.065,3.332,3.332,0,0,1,1.26.205Zm8.1,8.086,3.354-11.338h3.677L98.789,30H95.7L90.161,14.15h3.691ZM110.288,30h-3.56V14.15h3.56Zm-3.779-19.966a1.889,1.889,0,0,1,.52-1.362,1.964,1.964,0,0,1,1.487-.542,1.989,1.989,0,0,1,1.494.542,1.875,1.875,0,0,1,.527,1.362,1.831,1.831,0,0,1-.527,1.34,2,2,0,0,1-1.494.535,1.979,1.979,0,0,1-1.487-.535A1.845,1.845,0,0,1,106.509,10.034Zm14.165,17.417a3.218,3.218,0,0,0,2.212-.776,2.652,2.652,0,0,0,.938-1.919h3.354a5.228,5.228,0,0,1-.923,2.761,6.053,6.053,0,0,1-2.344,2.029,6.985,6.985,0,0,1-3.193.747,6.758,6.758,0,0,1-5.273-2.153,8.541,8.541,0,0,1-1.948-5.947v-.366a8.4,8.4,0,0,1,1.934-5.793,6.7,6.7,0,0,1,5.273-2.175,6.512,6.512,0,0,1,4.607,1.648,5.9,5.9,0,0,1,1.868,4.329h-3.354a3.26,3.26,0,0,0-.93-2.241,2.993,2.993,0,0,0-2.219-.879,3.132,3.132,0,0,0-2.666,1.252,6.391,6.391,0,0,0-.952,3.8v.571a6.5,6.5,0,0,0,.93,3.845A3.13,3.13,0,0,0,120.674,27.451ZM133.652,30h-3.56V14.15h3.56Zm-3.779-19.966a1.889,1.889,0,0,1,.52-1.362,1.964,1.964,0,0,1,1.487-.542,1.989,1.989,0,0,1,1.494.542,1.875,1.875,0,0,1,.527,1.362,1.831,1.831,0,0,1-.527,1.34,2,2,0,0,1-1.494.535,1.979,1.979,0,0,1-1.487-.535A1.845,1.845,0,0,1,129.873,10.034Zm6.987,11.895a9.346,9.346,0,0,1,.923-4.2,6.74,6.74,0,0,1,2.593-2.871,7.305,7.305,0,0,1,3.838-1,6.923,6.923,0,0,1,5.208,2.065,8.124,8.124,0,0,1,2.161,5.479l.015.835a9.429,9.429,0,0,1-.9,4.189,6.659,6.659,0,0,1-2.578,2.856,7.359,7.359,0,0,1-3.875,1.011,6.875,6.875,0,0,1-5.369-2.234A8.556,8.556,0,0,1,136.86,22.1Zm3.56.308a6.386,6.386,0,0,0,1.011,3.831,3.286,3.286,0,0,0,2.813,1.384,3.25,3.25,0,0,0,2.805-1.406,7.054,7.054,0,0,0,1-4.116,6.3,6.3,0,0,0-1.033-3.809,3.481,3.481,0,0,0-5.574-.022A6.921,6.921,0,0,0,140.42,22.236ZM165.864,30H162.3V14.15h3.56Zm-3.779-19.966a1.889,1.889,0,0,1,.52-1.362,1.964,1.964,0,0,1,1.487-.542,1.989,1.989,0,0,1,1.494.542,1.875,1.875,0,0,1,.527,1.362,1.831,1.831,0,0,1-.527,1.34,2,2,0,0,1-1.494.535,1.979,1.979,0,0,1-1.487-.535A1.845,1.845,0,0,1,162.085,10.034Zm10.957,4.116.1,1.831a5.7,5.7,0,0,1,4.614-2.124q4.951,0,5.039,5.669V30h-3.56V19.731a3.264,3.264,0,0,0-.652-2.234,2.742,2.742,0,0,0-2.131-.725,3.43,3.43,0,0,0-3.208,1.948V30h-3.56V14.15Zm18.97,11.338,3.354-11.338h3.677L193.55,30h-3.091l-5.537-15.85h3.691ZM205.049,30h-3.56V14.15h3.56ZM201.27,10.034a1.889,1.889,0,0,1,.52-1.362,1.964,1.964,0,0,1,1.487-.542,1.989,1.989,0,0,1,1.494.542,1.875,1.875,0,0,1,.527,1.362,1.831,1.831,0,0,1-.527,1.34,2,2,0,0,1-1.494.535,1.979,1.979,0,0,1-1.487-.535A1.845,1.845,0,0,1,201.27,10.034Zm16.538,15.659a1.614,1.614,0,0,0-.784-1.45,8.335,8.335,0,0,0-2.6-.879,13.366,13.366,0,0,1-3.032-.967,4.047,4.047,0,0,1-2.666-3.735,4.219,4.219,0,0,1,1.729-3.428,6.833,6.833,0,0,1,4.395-1.377,7.11,7.11,0,0,1,4.592,1.406,4.462,4.462,0,0,1,1.75,3.647h-3.56a2.194,2.194,0,0,0-.762-1.707,2.919,2.919,0,0,0-2.021-.681,3.154,3.154,0,0,0-1.912.542,1.709,1.709,0,0,0-.74,1.45,1.443,1.443,0,0,0,.688,1.274,9.467,9.467,0,0,0,2.783.916,13.175,13.175,0,0,1,3.289,1.1,4.657,4.657,0,0,1,1.772,1.531,3.9,3.9,0,0,1,.579,2.168,4.13,4.13,0,0,1-1.772,3.464,7.558,7.558,0,0,1-4.644,1.326,8.2,8.2,0,0,1-3.472-.7,5.714,5.714,0,0,1-2.373-1.934A4.577,4.577,0,0,1,208.2,25h3.457a2.508,2.508,0,0,0,.952,1.941,3.7,3.7,0,0,0,2.329.681,3.6,3.6,0,0,0,2.139-.535A1.655,1.655,0,0,0,217.808,25.693ZM228.193,30h-3.56V14.15h3.56Zm-3.779-19.966a1.889,1.889,0,0,1,.52-1.362,1.964,1.964,0,0,1,1.487-.542,1.989,1.989,0,0,1,1.494.542,1.875,1.875,0,0,1,.527,1.362,1.831,1.831,0,0,1-.527,1.34,2,2,0,0,1-1.494.535,1.979,1.979,0,0,1-1.487-.535A1.845,1.845,0,0,1,224.414,10.034Zm21.563,12.2a9.521,9.521,0,0,1-1.648,5.874,5.368,5.368,0,0,1-4.534,2.183,5.17,5.17,0,0,1-4.336-2.007L235.283,30h-3.223V7.5h3.56v8.174a5.152,5.152,0,0,1,4.146-1.816,5.429,5.429,0,0,1,4.556,2.153,9.678,9.678,0,0,1,1.655,6.021Zm-3.56-.308a6.729,6.729,0,0,0-.908-3.867,3.024,3.024,0,0,0-2.637-1.289,3.3,3.3,0,0,0-3.252,2.021v6.533a3.339,3.339,0,0,0,3.281,2.065,3,3,0,0,0,2.578-1.245,6.52,6.52,0,0,0,.938-3.765ZM252.744,30h-3.56V7.5h3.56Zm10.854.293a7.364,7.364,0,0,1-5.486-2.131,7.732,7.732,0,0,1-2.1-5.676v-.439a9.511,9.511,0,0,1,.916-4.241A6.968,6.968,0,0,1,259.5,14.9a6.8,6.8,0,0,1,3.691-1.04,6.221,6.221,0,0,1,5,2.065,8.734,8.734,0,0,1,1.765,5.845V23.2H259.6a4.76,4.76,0,0,0,1.311,3.105,3.936,3.936,0,0,0,2.893,1.143,4.82,4.82,0,0,0,3.984-1.978l1.919,1.831a6.408,6.408,0,0,1-2.542,2.2A7.957,7.957,0,0,1,263.6,30.293Zm-.425-13.579a3,3,0,0,0-2.366,1.025,5.315,5.315,0,0,0-1.15,2.856h6.782v-.264a4.327,4.327,0,0,0-.952-2.7A2.975,2.975,0,0,0,263.174,16.714Z" transform="translate(221 1632)" fill="#093e74"/>
      <path id="Trazado_129148" data-name="Trazado 129148" d="M27.323,241.826h-18a1.5,1.5,0,0,0,0,3h18a1.5,1.5,0,1,0,0-3Z" transform="translate(273.18 1351.5)" fill="#0d66bf"/>
      <path id="Trazado_129149" data-name="Trazado 129149" d="M27.323,241.826h-18a1.5,1.5,0,0,0,0,3h18a1.5,1.5,0,1,0,0-3Z" transform="translate(415.18 1441.5)" fill="#e0ffef"/>
    </g>
  </g>
</svg>
