<svg xmlns="http://www.w3.org/2000/svg" width="74" height="96.399" viewBox="0 0 74 96.399">
  <g id="_x35_0_Quality_Control" transform="translate(-59.484 0)">
    <g id="Grupo_89079" data-name="Grupo 89079" transform="translate(59.484 0)">
      <path id="Trazado_133048" data-name="Trazado 133048" d="M114.712,258.315,91.476,297.1,88.69,284.326,76.112,287.9l23.236-38.786Z" transform="translate(-72.981 -202.209)" fill="#ff787d"/>
      <path id="Trazado_133049" data-name="Trazado 133049" d="M230.865,258.315,254.1,297.1l2.786-12.775,12.578,3.571-23.236-38.786Z" transform="translate(-198.598 -202.209)" fill="#ff787d"/>
      <path id="Trazado_133050" data-name="Trazado 133050" d="M133.239,56.309l.005.033a9.059,9.059,0,0,1-7.508,10.31h0a9.059,9.059,0,0,0-6.612,4.806,9.059,9.059,0,0,1-12.143,3.95l0,0a9.059,9.059,0,0,0-8.167,0l0,0a9.059,9.059,0,0,1-12.143-3.95,9.058,9.058,0,0,0-6.612-4.806h0a9.059,9.059,0,0,1-7.508-10.31l.005-.033a9.06,9.06,0,0,0-2.51-7.733l-.043-.044A9.06,9.06,0,0,1,70,35.794l.029-.029a9.059,9.059,0,0,0,2.516-7.74l-.006-.04a9.059,9.059,0,0,1,7.494-10.308l.03,0a9.06,9.06,0,0,0,6.6-4.8h0A9.06,9.06,0,0,1,98.8,8.928l.009,0a9.059,9.059,0,0,0,8.167,0l.009,0a9.06,9.06,0,0,1,12.141,3.944h0a9.06,9.06,0,0,0,6.6,4.8l.03,0a9.059,9.059,0,0,1,7.494,10.308l-.006.04a9.06,9.06,0,0,0,2.516,7.74l.029.029a9.06,9.06,0,0,1,.007,12.738l-.043.044a9.059,9.059,0,0,0-2.51,7.733Z" transform="translate(-65.894 -6.456)" fill="#ffcd7e"/>
      <path id="Trazado_133051" data-name="Trazado 133051" d="M187.574,100.557A20.663,20.663,0,1,1,166.91,79.894,20.667,20.667,0,0,1,187.574,100.557Z" transform="translate(-129.911 -64.852)" fill="#fff"/>
      <g id="Grupo_89078" data-name="Grupo 89078" transform="translate(0 0)">
        <path id="Trazado_133052" data-name="Trazado 133052" d="M117.991,62.126a7.494,7.494,0,0,1,1.577-.443,10.59,10.59,0,0,0,8.759-12,7.622,7.622,0,0,1,2.127-6.552,10.611,10.611,0,0,0-.037-14.885,7.608,7.608,0,0,1-2.092-6.494,10.607,10.607,0,0,0-8.77-12.026,7.586,7.586,0,0,1-5.5-4,10.594,10.594,0,0,0-14.169-4.6,7.582,7.582,0,0,1-6.817,0,10.6,10.6,0,0,0-14.16,4.6,7.6,7.6,0,0,1-5.528,4.006A10.61,10.61,0,0,0,64.646,21.8a7.6,7.6,0,0,1-2.127,6.481,10.618,10.618,0,0,0,.035,14.9,7.6,7.6,0,0,1,2.089,6.481A10.6,10.6,0,0,0,73.4,61.683a7.488,7.488,0,0,1,1.574.442L61.323,84.914a1.507,1.507,0,0,0,1.7,2.223L74.062,84l2.445,11.209a1.506,1.506,0,0,0,2.763.453L94.841,69.673a7.615,7.615,0,0,1,3.283,0L113.7,95.666a1.506,1.506,0,0,0,2.763-.453L118.9,84l11.036,3.133a1.507,1.507,0,0,0,1.7-2.223ZM78.64,90.856,76.663,81.8a1.506,1.506,0,0,0-1.883-1.128L65.861,83.2,77.495,63.779a7.5,7.5,0,0,1,1.417,1.911,10.591,10.591,0,0,0,11.5,5.518ZM91.716,67.607a7.571,7.571,0,0,1-10.124-3.293,10.609,10.609,0,0,0-7.713-5.606,7.583,7.583,0,0,1-6.255-8.628,10.642,10.642,0,0,0-2.969-9.062,7.588,7.588,0,0,1,.034-10.65A10.629,10.629,0,0,0,67.617,21.3,7.586,7.586,0,0,1,73.9,12.7a10.609,10.609,0,0,0,7.694-5.6A7.575,7.575,0,0,1,91.721,3.821a10.612,10.612,0,0,0,9.534,0,7.571,7.571,0,0,1,10.121,3.289,10.622,10.622,0,0,0,7.723,5.6,7.589,7.589,0,0,1,6.243,8.635A10.627,10.627,0,0,0,128.3,30.4a7.592,7.592,0,0,1-.038,10.664,10.681,10.681,0,0,0-2.922,9.052,7.578,7.578,0,0,1-6.259,8.6,10.6,10.6,0,0,0-7.713,5.606,7.572,7.572,0,0,1-10.128,3.291A10.612,10.612,0,0,0,91.716,67.607Zm26.469,13.061A1.506,1.506,0,0,0,116.3,81.8l-1.977,9.059L102.553,71.205a10.5,10.5,0,0,0,11.5-5.515,7.5,7.5,0,0,1,1.417-1.911L127.1,83.2Z" transform="translate(-59.484 0)" fill="#33226e"/>
        <path id="Trazado_133053" data-name="Trazado 133053" d="M182.584,94.061a22.17,22.17,0,1,0-22.17,22.186A22.2,22.2,0,0,0,182.584,94.061Zm-22.17,19.174a19.165,19.165,0,1,1,19.158-19.174A19.187,19.187,0,0,1,160.414,113.234Z" transform="translate(-123.415 -58.355)" fill="#33226e"/>
        <path id="Trazado_133054" data-name="Trazado 133054" d="M223.715,152.332,213.56,162.487l-2.646-2.647a1.506,1.506,0,0,0-2.13,2.13l3.711,3.712a1.506,1.506,0,0,0,2.13,0l11.22-11.22a1.506,1.506,0,0,0-2.13-2.13Z" transform="translate(-180.315 -123.293)" fill="#33226e"/>
      </g>
    </g>
  </g>
</svg>
