<svg id="buena-calidad" xmlns="http://www.w3.org/2000/svg" width="93.476" height="93.48" viewBox="0 0 93.476 93.48">
  <path id="Trazado_132904" data-name="Trazado 132904" d="M63.32,85.132H4.116A3.125,3.125,0,0,1,1,82.016V4.116A3.125,3.125,0,0,1,4.116,1H51.775a1.533,1.533,0,0,1,1.091.452l10,10a1.533,1.533,0,0,1,.452,1.091Z" transform="translate(0.558 0.558)" fill="#e4f1ff"/>
  <rect id="Rectángulo_26228" data-name="Rectángulo 26228" width="28" height="6" rx="2" transform="translate(19.096 13.096)" fill="#64bab7"/>
  <path id="Trazado_132905" data-name="Trazado 132905" d="M38.625,47.8,33.686,59.128a2.01,2.01,0,0,0,1.854,2.789H39.7a1.343,1.343,0,0,1,.95.389L43,64.661a2.035,2.035,0,0,0,3.287-.608L51.4,52.786l5.11,11.266a2.035,2.035,0,0,0,3.287.608L62.151,62.3a1.343,1.343,0,0,1,.95-.39h4.16a2.01,2.01,0,0,0,1.854-2.789L64.176,47.816Z" transform="translate(18.709 26.672)" fill="#a54759"/>
  <path id="Trazado_132906" data-name="Trazado 132906" d="M73.927,47.33v.011a4.986,4.986,0,0,0-.637,3.209,4.993,4.993,0,0,1-1.937,4.674,4.986,4.986,0,0,0-1.823,2.725,4.993,4.993,0,0,1-3.572,3.571,4.986,4.986,0,0,0-2.723,1.823,4.986,4.986,0,0,1-4.674,1.937,5,5,0,0,0-3.211.637h-.009a5,5,0,0,1-5.048,0h-.011a4.986,4.986,0,0,0-3.209-.637A4.993,4.993,0,0,1,42.4,63.343a4.986,4.986,0,0,0-2.725-1.823A4.993,4.993,0,0,1,36.1,57.947a4.986,4.986,0,0,0-1.823-2.723,4.986,4.986,0,0,1-1.937-4.674,5,5,0,0,0-.637-3.211V47.33a5,5,0,0,1,0-5.048v-.011a4.986,4.986,0,0,0,.637-3.209,4.993,4.993,0,0,1,1.937-4.674A4.986,4.986,0,0,0,36.1,31.662a4.993,4.993,0,0,1,3.572-3.571A4.986,4.986,0,0,0,42.4,26.269a4.986,4.986,0,0,1,4.674-1.937,5,5,0,0,0,3.211-.637h.009a5,5,0,0,1,5.048,0h.011a4.986,4.986,0,0,0,3.209.637,4.993,4.993,0,0,1,4.674,1.937,4.986,4.986,0,0,0,2.725,1.823,4.993,4.993,0,0,1,3.571,3.572,4.986,4.986,0,0,0,1.823,2.723,4.986,4.986,0,0,1,1.937,4.674,5,5,0,0,0,.637,3.211v.009a5,5,0,0,1,0,5.048Z" transform="translate(17.31 12.84)" fill="#64bab7"/>
  <circle id="Elipse_4469" data-name="Elipse 4469" cx="14" cy="14" r="14" transform="translate(56.096 43.096)" fill="#90d3ce"/>
  <path id="Trazado_132907" data-name="Trazado 132907" d="M44.766,11.856h-7.65A3.125,3.125,0,0,1,34,8.74V1.09a1.68,1.68,0,0,1,.452.312l10,10a1.679,1.679,0,0,1,.312.452Z" transform="translate(18.972 0.608)" fill="#a3bdce"/>
  <g id="Grupo_89023" data-name="Grupo 89023" transform="translate(0 0)">
    <path id="Trazado_132908" data-name="Trazado 132908" d="M37.486,16.348a4.674,4.674,0,0,0,0-9.348H15.674a4.674,4.674,0,1,0,0,9.348Zm-23.37-4.674a1.558,1.558,0,0,1,1.558-1.558H37.486a1.558,1.558,0,0,1,0,3.116H15.674A1.558,1.558,0,0,1,14.116,11.674Z" transform="translate(6.138 3.906)" fill="#373737"/>
    <path id="Trazado_132909" data-name="Trazado 132909" d="M92.138,52.113A6.558,6.558,0,0,0,89.6,45.981a3.428,3.428,0,0,1-1.256-1.88,6.561,6.561,0,0,0-4.693-4.683,3.456,3.456,0,0,1-1.87-1.256,6.53,6.53,0,0,0-6.135-2.541,3.476,3.476,0,0,1-2.219-.444,6.57,6.57,0,0,0-6.629,0,3.428,3.428,0,0,1-1.355.438V13.1a3.08,3.08,0,0,0-.913-2.2l-10-10A3.08,3.08,0,0,0,52.333,0H4.674A4.674,4.674,0,0,0,0,4.674v77.9a4.674,4.674,0,0,0,4.674,4.674H46.74a1.558,1.558,0,1,0,0-3.116H4.674a1.558,1.558,0,0,1-1.558-1.558V4.674A1.558,1.558,0,0,1,4.674,3.116h46.74V9.348a4.674,4.674,0,0,0,4.674,4.674H62.32V35.711a6.555,6.555,0,0,0-3.875,2.448,3.428,3.428,0,0,1-1.88,1.256,6.561,6.561,0,0,0-4.683,4.693,3.456,3.456,0,0,1-1.256,1.87,6.562,6.562,0,0,0-2.541,6.135,3.451,3.451,0,0,1-.444,2.219,6.562,6.562,0,0,0,0,6.629,3.46,3.46,0,0,1,.438,2.214,6.558,6.558,0,0,0,2.541,6.132,3.428,3.428,0,0,1,1.256,1.881,6.544,6.544,0,0,0,3.372,4.174L50.96,85.193a3.569,3.569,0,0,0,3.289,4.954h4.076l2.293,2.3a3.613,3.613,0,0,0,2.53,1.036,3.738,3.738,0,0,0,.668-.062,3.583,3.583,0,0,0,2.6-2.049l3.691-8.137L73.8,91.359a3.583,3.583,0,0,0,2.6,2.058,3.641,3.641,0,0,0,3.206-.983l2.286-2.287H85.97a3.568,3.568,0,0,0,3.281-4.97l-4.283-9.815a6.544,6.544,0,0,0,3.37-4.177,3.456,3.456,0,0,1,1.256-1.87,6.562,6.562,0,0,0,2.541-6.135,3.526,3.526,0,0,1,.442-2.22,6.562,6.562,0,0,0,0-6.629,3.46,3.46,0,0,1-.439-2.217ZM54.53,9.348V5.317l5.592,5.589H56.088A1.558,1.558,0,0,1,54.53,9.348Zm9.047,80.741a.449.449,0,0,1-.338.265.475.475,0,0,1-.425-.123L60.464,87.88a2.915,2.915,0,0,0-2.055-.849h-4.16a.45.45,0,0,1-.38-.206.419.419,0,0,1-.045-.4L58.06,76.7a3.355,3.355,0,0,1,.385.428,6.526,6.526,0,0,0,6.135,2.541,3.457,3.457,0,0,1,2.219.444,6.632,6.632,0,0,0,1.078.491ZM86.35,86.825a.45.45,0,0,1-.38.206H81.81a2.913,2.913,0,0,0-2.052.846l-2.337,2.337a.48.48,0,0,1-.433.132.45.45,0,0,1-.341-.274L72.35,80.6a6.6,6.6,0,0,0,1.091-.5,3.488,3.488,0,0,1,2.214-.438,6.544,6.544,0,0,0,6.132-2.541,3.411,3.411,0,0,1,.382-.425L86.4,86.4A.427.427,0,0,1,86.35,86.825ZM89.9,59.38v.014a6.593,6.593,0,0,0-.834,4.207,3.445,3.445,0,0,1-1.334,3.217A6.589,6.589,0,0,0,85.336,70.4a3.448,3.448,0,0,1-2.462,2.46,6.554,6.554,0,0,0-3.583,2.392,3.482,3.482,0,0,1-3.217,1.332,6.608,6.608,0,0,0-4.227.84,3.428,3.428,0,0,1-3.482,0,6.584,6.584,0,0,0-3.319-.9,6.66,6.66,0,0,0-.9.062,3.468,3.468,0,0,1-3.217-1.334,6.589,6.589,0,0,0-3.583-2.393A3.448,3.448,0,0,1,54.89,70.4,6.554,6.554,0,0,0,52.5,66.819,3.44,3.44,0,0,1,51.166,63.6a6.606,6.606,0,0,0-.84-4.227,3.428,3.428,0,0,1,0-3.482,6.593,6.593,0,0,0,.834-4.207,3.445,3.445,0,0,1,1.334-3.217,6.589,6.589,0,0,0,2.393-3.583,3.448,3.448,0,0,1,2.462-2.46,6.554,6.554,0,0,0,3.583-2.392A3.479,3.479,0,0,1,64.149,38.7a6.62,6.62,0,0,0,4.227-.84,3.428,3.428,0,0,1,3.482,0,6.583,6.583,0,0,0,4.207.834,3.46,3.46,0,0,1,3.217,1.334,6.589,6.589,0,0,0,3.583,2.393,3.448,3.448,0,0,1,2.46,2.462,6.554,6.554,0,0,0,2.392,3.583,3.44,3.44,0,0,1,1.332,3.217,6.606,6.606,0,0,0,.84,4.227A3.428,3.428,0,0,1,89.9,59.38Z" transform="translate(0 0)" fill="#373737"/>
    <path id="Trazado_132910" data-name="Trazado 132910" d="M50.58,27A15.58,15.58,0,1,0,66.16,42.58,15.58,15.58,0,0,0,50.58,27Zm0,28.044A12.464,12.464,0,1,1,63.044,42.58,12.464,12.464,0,0,1,50.58,55.044Z" transform="translate(19.53 15.066)" fill="#373737"/>
    <path id="Trazado_132911" data-name="Trazado 132911" d="M6,18.558a1.558,1.558,0,0,0,1.558,1.558H51.182a1.558,1.558,0,0,0,0-3.116H7.558A1.558,1.558,0,0,0,6,18.558Z" transform="translate(3.348 9.486)" fill="#373737"/>
    <path id="Trazado_132912" data-name="Trazado 132912" d="M49.624,23.558A1.558,1.558,0,0,0,48.066,22H7.558a1.558,1.558,0,1,0,0,3.116H48.066A1.558,1.558,0,0,0,49.624,23.558Z" transform="translate(3.348 12.276)" fill="#373737"/>
    <path id="Trazado_132913" data-name="Trazado 132913" d="M35.022,28.558A1.558,1.558,0,0,0,33.464,27H22.558a1.558,1.558,0,1,0,0,3.116H33.464A1.558,1.558,0,0,0,35.022,28.558Z" transform="translate(11.718 15.066)" fill="#373737"/>
    <path id="Trazado_132914" data-name="Trazado 132914" d="M24.7,27H7.558a1.558,1.558,0,0,0,0,3.116H24.7A1.558,1.558,0,1,0,24.7,27Z" transform="translate(3.348 15.066)" fill="#373737"/>
    <path id="Trazado_132915" data-name="Trazado 132915" d="M13,33.558a1.558,1.558,0,0,0,1.558,1.558H34.812a1.558,1.558,0,1,0,0-3.116H14.558A1.558,1.558,0,0,0,13,33.558Z" transform="translate(7.254 17.856)" fill="#373737"/>
    <path id="Trazado_132916" data-name="Trazado 132916" d="M7.558,35.116h4.674a1.558,1.558,0,1,0,0-3.116H7.558a1.558,1.558,0,0,0,0,3.116Z" transform="translate(3.348 17.856)" fill="#373737"/>
    <path id="Trazado_132917" data-name="Trazado 132917" d="M7.558,40.116h31.16a1.558,1.558,0,1,0,0-3.116H7.558a1.558,1.558,0,1,0,0,3.116Z" transform="translate(3.348 20.646)" fill="#373737"/>
    <path id="Trazado_132918" data-name="Trazado 132918" d="M41.834,43.558A1.558,1.558,0,0,0,40.276,42H7.558a1.558,1.558,0,0,0,0,3.116H40.276A1.558,1.558,0,0,0,41.834,43.558Z" transform="translate(3.348 23.436)" fill="#373737"/>
    <path id="Trazado_132919" data-name="Trazado 132919" d="M7.558,47a1.558,1.558,0,1,0,0,3.116H24.7A1.558,1.558,0,1,0,24.7,47Z" transform="translate(3.348 26.226)" fill="#373737"/>
    <path id="Trazado_132920" data-name="Trazado 132920" d="M50.8,34.456l-6.688,6.688-.456-.456a1.558,1.558,0,1,0-2.2,2.2l1.558,1.558a1.558,1.558,0,0,0,2.2,0l7.79-7.79a1.558,1.558,0,1,0-2.2-2.2Z" transform="translate(22.878 18.972)" fill="#373737"/>
  </g>
</svg>
