<svg xmlns="http://www.w3.org/2000/svg" width="150" height="150" viewBox="0 0 150 150">
  <g id="Grupo_89019" data-name="Grupo 89019" transform="translate(-371 -1462)">
    <circle id="Elipse_4466" data-name="Elipse 4466" cx="75" cy="75" r="75" transform="translate(371 1462)" fill="#cbeeff"/>
    <g id="Fill_Outline" data-name="Fill Outline" transform="translate(401 1490.142)">
      <g id="Color" transform="translate(8.398 3.398)">
        <g id="Grupo_89017" data-name="Grupo 89017">
          <path id="Trazado_132879" data-name="Trazado 132879" d="M13,3H73.1V78.472H13Z" transform="translate(-6.012 -3)" fill="#57b7eb"/>
          <path id="Trazado_132880" data-name="Trazado 132880" d="M67.508,39.338V8.591a2.8,2.8,0,0,0-2.8-2.8H18.591A2.8,2.8,0,0,1,15.8,3H13V8.591H64.712V78.472H73.1V44.929A5.591,5.591,0,0,1,67.508,39.338Z" transform="translate(-6.012 -3)" fill="#4891d3"/>
          <path id="Trazado_132881" data-name="Trazado 132881" d="M8,7H66.7V82.472H8Z" transform="translate(-8 -1.409)" fill="#aae1f9"/>
          <path id="Trazado_132882" data-name="Trazado 132882" d="M58.315,69.894A36.338,36.338,0,0,1,21.976,33.555V7H8V82.472H66.7V69.894Z" transform="translate(-8 -1.409)" fill="#57b7eb"/>
          <g id="Grupo_89015" data-name="Grupo 89015" transform="translate(26.555 37.743)">
            <path id="Trazado_132883" data-name="Trazado 132883" d="M0,0H19.567V27.953H0Z" transform="translate(47.52 37.729) rotate(180)" fill="#a1d51c"/>
            <path id="Trazado_132884" data-name="Trazado 132884" d="M27,50.962a2.8,2.8,0,0,1,2.8-2.8,2.8,2.8,0,0,1,0-5.591h9.558l-3.73-6.461a4.193,4.193,0,0,1,1.7-5.817,2.776,2.776,0,0,1,3.658,1.118L45.011,38.4l5.546,4.172h4.4V63.541l-6.988,1.4H29.8a2.8,2.8,0,0,1,0-5.591,2.8,2.8,0,0,1,0-5.591,2.8,2.8,0,0,1-2.8-2.8Z" transform="translate(-27 -30.005)" fill="#f9e109"/>
            <path id="Trazado_132885" data-name="Trazado 132885" d="M52.157,39V50.181a2.8,2.8,0,0,1-2.8,2.8H43.772A11.181,11.181,0,0,1,32.591,41.8V39H29.8a2.8,2.8,0,0,0,0,5.591,2.8,2.8,0,1,0,0,5.591,2.8,2.8,0,1,0,0,5.591,2.8,2.8,0,1,0,0,5.591H47.965l6.988-1.4V39Z" transform="translate(-27 -26.429)" fill="#fcbc04"/>
            <path id="Trazado_132886" data-name="Trazado 132886" d="M37.059,42.485h4.418a23.7,23.7,0,0,1-6.493-12.25,4.193,4.193,0,0,0-1.655,5.789Z" transform="translate(-24.706 -29.914)" fill="#fcbc04"/>
            <path id="Trazado_132887" data-name="Trazado 132887" d="M52.591,43.988V37H47V64.953H66.567V57.965A13.976,13.976,0,0,1,52.591,43.988Z" transform="translate(-19.047 -27.224)" fill="#7ab92d"/>
          </g>
          <g id="Grupo_89016" data-name="Grupo 89016" transform="translate(8.098 15.374)">
            <path id="Trazado_132888" data-name="Trazado 132888" d="M30.672,14l1.817,3.68,4.062.591-2.939,2.865.693,4.045-3.632-1.911L27.04,25.181l.693-4.045-2.939-2.865,4.062-.591Z" transform="translate(-9.42 -14)" fill="#f9e109"/>
            <path id="Trazado_132889" data-name="Trazado 132889" d="M41.672,19l1.817,3.68,4.062.591-2.939,2.865.693,4.045-3.632-1.911L38.04,30.181l.693-4.045-2.939-2.865,4.062-.591Z" transform="translate(-5.046 -12.012)" fill="#f9e109"/>
            <path id="Trazado_132890" data-name="Trazado 132890" d="M19.672,19l1.817,3.68,4.062.591-2.939,2.865.693,4.045-3.632-1.911L16.04,30.181l.693-4.045-2.939-2.865,4.062-.591Z" transform="translate(-13.794 -12.012)" fill="#f9e109"/>
          </g>
          <path id="Trazado_132891" data-name="Trazado 132891" d="M15,42h6.988v6.988H15Z" transform="translate(-5.217 12.508)" fill="#a1d51c"/>
          <path id="Trazado_132892" data-name="Trazado 132892" d="M15,52h6.988v6.988H15Z" transform="translate(-5.217 16.484)" fill="#7ab92d"/>
          <path id="Trazado_132893" data-name="Trazado 132893" d="M16.04,30.181l3.632-1.911V19l-1.817,3.68-4.062.591,2.939,2.865Z" transform="translate(-5.696 3.362)" fill="#fcbc04"/>
        </g>
      </g>
      <g id="Outline_copy" data-name="Outline copy" transform="translate(7 2)">
        <g id="Grupo_89018" data-name="Grupo 89018">
          <path id="Trazado_132894" data-name="Trazado 132894" d="M8.4,48.122a1.4,1.4,0,0,0,1.4-1.4V10.386H65.7V45.327a1.4,1.4,0,1,0,2.8,0V8.988a1.4,1.4,0,0,0-1.4-1.4H16.783V4.8h57.3V45.327a1.4,1.4,0,1,0,2.8,0V3.4a1.4,1.4,0,0,0-1.4-1.4h-60.1a1.4,1.4,0,0,0-1.4,1.4V7.591H8.4A1.4,1.4,0,0,0,7,8.988V46.724A1.4,1.4,0,0,0,8.4,48.122Z" transform="translate(-7 -2)" fill="#323232"/>
          <path id="Trazado_132895" data-name="Trazado 132895" d="M67.1,69.146H9.8V38.4a1.4,1.4,0,0,0-2.8,0V70.543a1.4,1.4,0,0,0,1.4,1.4H67.1a1.4,1.4,0,0,0,0-2.8Z" transform="translate(-7 11.917)" fill="#323232"/>
          <path id="Trazado_132896" data-name="Trazado 132896" d="M74.917,66.736H56.748V41.579H74.917a1.4,1.4,0,1,0,0-2.8H55.35a1.4,1.4,0,0,0-1.4,1.4v1.4h-2.53l-4.946-3.726-3.892-6.741a4.148,4.148,0,0,0-5.514-1.652,5.591,5.591,0,0,0-2.266,7.753l2.526,4.366H30.193a4.193,4.193,0,0,0-3.122,6.988,4.185,4.185,0,0,0,0,5.591,4.185,4.185,0,0,0,0,5.591,4.193,4.193,0,0,0,3.122,6.988H49.76a1.4,1.4,0,0,0,0-2.8H30.193a1.4,1.4,0,1,1,0-2.8,1.4,1.4,0,1,0,0-2.8,1.4,1.4,0,0,1,0-2.8,1.4,1.4,0,1,0,0-2.8,1.4,1.4,0,0,1,0-2.8,1.4,1.4,0,0,0,0-2.8,1.4,1.4,0,0,1,0-2.8h9.558a1.4,1.4,0,0,0,1.21-2.1l-3.73-6.463a2.8,2.8,0,0,1,1.131-3.877,1.379,1.379,0,0,1,1.8.572L44.2,39.5a1.409,1.409,0,0,0,.369.419L50.115,44.1a1.4,1.4,0,0,0,.839.28h3V68.134a1.4,1.4,0,0,0,1.4,1.4H74.917a1.4,1.4,0,0,0,0-2.8Z" transform="translate(0.555 8.736)" fill="#323232"/>
          <ellipse id="Elipse_4467" data-name="Elipse 4467" cx="1.5" cy="1" rx="1.5" ry="1" transform="translate(63 54.858)" fill="#323232"/>
          <ellipse id="Elipse_4468" data-name="Elipse 4468" cx="1.5" cy="1" rx="1.5" ry="1" transform="translate(68 54.858)" fill="#323232"/>
          <path id="Trazado_132897" data-name="Trazado 132897" d="M38.276,18.219a1.4,1.4,0,0,0-1.128-.952l-3.335-.485-1.487-3.02a1.454,1.454,0,0,0-2.5,0l-1.493,3.02-3.335.485a1.4,1.4,0,0,0-.774,2.384L26.634,22l-.57,3.321A1.4,1.4,0,0,0,28.092,26.8l2.977-1.568L34.051,26.8a1.4,1.4,0,0,0,2.028-1.473L35.509,22l2.408-2.352A1.4,1.4,0,0,0,38.276,18.219Zm-5.251,2.295a1.4,1.4,0,0,0-.4,1.238l.215,1.258-1.118-.593a1.4,1.4,0,0,0-1.3,0L29.3,23.01l.215-1.258a1.4,1.4,0,0,0-.4-1.238l-.913-.887,1.258-.183a1.4,1.4,0,0,0,1.052-.765l.559-1.142.559,1.142a1.4,1.4,0,0,0,1.052.765l1.258.183Z" transform="translate(-0.321 2.392)" fill="#323232"/>
          <path id="Trazado_132898" data-name="Trazado 132898" d="M49.276,23.219a1.4,1.4,0,0,0-1.128-.952l-3.335-.485-1.487-3.02a1.454,1.454,0,0,0-2.5,0l-1.493,3.02-3.335.485a1.4,1.4,0,0,0-.774,2.384L37.634,27l-.57,3.321A1.4,1.4,0,0,0,39.092,31.8l2.977-1.568L45.051,31.8a1.4,1.4,0,0,0,2.028-1.473L46.509,27l2.408-2.352a1.4,1.4,0,0,0,.359-1.433Zm-5.251,2.295a1.4,1.4,0,0,0-.4,1.238l.215,1.258-1.118-.593a1.4,1.4,0,0,0-1.3,0L40.3,28.01l.215-1.258a1.4,1.4,0,0,0-.4-1.238l-.913-.887,1.258-.183a1.4,1.4,0,0,0,1.052-.765l.559-1.142.559,1.142a1.4,1.4,0,0,0,1.052.765l1.258.183Z" transform="translate(4.053 4.38)" fill="#323232"/>
          <path id="Trazado_132899" data-name="Trazado 132899" d="M27.276,23.219a1.4,1.4,0,0,0-1.128-.952l-3.335-.485-1.487-3.02a1.454,1.454,0,0,0-2.5,0l-1.493,3.02-3.335.485a1.4,1.4,0,0,0-.774,2.384L15.634,27l-.57,3.321A1.4,1.4,0,0,0,17.092,31.8l2.977-1.568L23.051,31.8a1.4,1.4,0,0,0,2.028-1.473L24.509,27l2.408-2.352A1.4,1.4,0,0,0,27.276,23.219Zm-5.251,2.295a1.4,1.4,0,0,0-.4,1.238l.215,1.258-1.118-.593a1.4,1.4,0,0,0-1.3,0L18.3,28.01l.215-1.258a1.4,1.4,0,0,0-.4-1.238l-.913-.887,1.258-.183a1.4,1.4,0,0,0,1.052-.765l.559-1.142.559,1.142a1.4,1.4,0,0,0,1.052.765l1.258.183Z" transform="translate(-4.695 4.38)" fill="#323232"/>
          <path id="Trazado_132900" data-name="Trazado 132900" d="M50.543,11.4a1.4,1.4,0,0,0-1.4-1.4H18.4a1.4,1.4,0,0,0,0,2.8H49.146A1.4,1.4,0,0,0,50.543,11.4Z" transform="translate(-3.024 1.181)" fill="#323232"/>
          <path id="Trazado_132901" data-name="Trazado 132901" d="M23.783,42.4a1.4,1.4,0,0,0-1.4-1.4H15.4A1.4,1.4,0,0,0,14,42.4v6.988a1.4,1.4,0,0,0,1.4,1.4h6.988a1.4,1.4,0,0,0,1.4-1.4Zm-2.8,5.591H16.8V43.8h4.193Z" transform="translate(-4.217 13.508)" fill="#323232"/>
          <path id="Trazado_132902" data-name="Trazado 132902" d="M15.4,60.783h6.988a1.4,1.4,0,0,0,1.4-1.4V52.4a1.4,1.4,0,0,0-1.4-1.4H15.4A1.4,1.4,0,0,0,14,52.4v6.988A1.4,1.4,0,0,0,15.4,60.783ZM16.8,53.8h4.193v4.193H16.8Z" transform="translate(-4.217 17.484)" fill="#323232"/>
          <path id="Trazado_132903" data-name="Trazado 132903" d="M27.655,31.5a1.4,1.4,0,0,0-1.971-.179L18.277,37.5,16.383,35.6a1.4,1.4,0,1,0-1.976,1.976l1.811,1.807H15.4a1.4,1.4,0,1,0,0,2.8h6.988a1.4,1.4,0,1,0,0-2.8h-2.01l7.1-5.915a1.4,1.4,0,0,0,.179-1.968Z" transform="translate(-4.218 9.531)" fill="#323232"/>
        </g>
      </g>
    </g>
  </g>
</svg>
