<svg xmlns="http://www.w3.org/2000/svg" width="150" height="150" viewBox="0 0 150 150">
  <g id="Grupo_89020" data-name="Grupo 89020" transform="translate(-1015 -1198)">
    <circle id="Elipse_4465" data-name="Elipse 4465" cx="75" cy="75" r="75" transform="translate(1015 1198)" fill="#cbeeff"/>
    <g id="proceso-de-trabajo" transform="translate(1041 1224)">
      <g id="Grupo_89013" data-name="Grupo 89013" transform="translate(1.542 1.542)">
        <path id="Trazado_132866" data-name="Trazado 132866" d="M73.789,11.952h0A43.867,43.867,0,0,0,30.148,51.39l11.58-.542A32.5,32.5,0,0,1,73.789,23.376l-.052.018v4.434l11.2-9.046L73.738,8v3.971" transform="translate(-25.878 -8)" fill="#ffe27a"/>
        <path id="Trazado_132867" data-name="Trazado 132867" d="M120.566,77.67,129,70.857a32.458,32.458,0,0,0-40.837,29.852l.395-.019a32.5,32.5,0,0,1,32.061-27.472l-.052.018Z" transform="translate(-72.706 -57.843)" fill="#f9cf58"/>
        <path id="Trazado_132868" data-name="Trazado 132868" d="M185.971,162.514l-3.668-.551a17.116,17.116,0,0,0-2.7-6.51l2.2-2.985a1.313,1.313,0,0,0-.128-1.708l-1.9-1.9a1.313,1.313,0,0,0-1.708-.128l-2.985,2.2a17.114,17.114,0,0,0-6.51-2.7l-.551-3.668a1.312,1.312,0,0,0-1.3-1.117h-2.685a1.312,1.312,0,0,0-1.3,1.117l-.551,3.668a17.113,17.113,0,0,0-6.51,2.7l-2.985-2.2a1.312,1.312,0,0,0-1.708.128l-1.9,1.9a1.313,1.313,0,0,0-.128,1.708l2.2,2.985a17.114,17.114,0,0,0-2.7,6.51l-3.668.551a1.312,1.312,0,0,0-1.117,1.3V166.5a1.313,1.313,0,0,0,1.117,1.3l3.668.551a17.115,17.115,0,0,0,2.7,6.51l-2.2,2.985a1.313,1.313,0,0,0,.128,1.708l1.9,1.9a1.312,1.312,0,0,0,1.708.128l2.985-2.2a17.114,17.114,0,0,0,6.51,2.7l.551,3.668a1.312,1.312,0,0,0,1.3,1.117h2.685a1.312,1.312,0,0,0,1.3-1.117l.551-3.668a17.113,17.113,0,0,0,6.51-2.7l2.985,2.2a1.312,1.312,0,0,0,1.708-.128l1.9-1.9a1.313,1.313,0,0,0,.128-1.708l-2.2-2.985a17.115,17.115,0,0,0,2.7-6.51l3.668-.551a1.313,1.313,0,0,0,1.117-1.3v-2.685a1.312,1.312,0,0,0-1.117-1.3ZM165.39,173.84a8.685,8.685,0,1,1,8.685-8.685A8.685,8.685,0,0,1,165.39,173.84Z" transform="translate(-117.53 -117.34)" fill="#ff4755"/>
        <path id="Trazado_132869" data-name="Trazado 132869" d="M12,208.9c0,.015,0,.03,0,.045a43.868,43.868,0,0,0,39.439,43.641l-.68-11.6A32.447,32.447,0,0,1,23.42,208.94c0-.015,0-.03,0-.045h4.407l-9.046-11.2L8,208.9h3.971" transform="translate(-8 -161.125)" fill="#8bcaff"/>
        <path id="Trazado_132870" data-name="Trazado 132870" d="M208.9,306.536h.089a32.447,32.447,0,0,0,32.037-27.327l11.613-.789a43.867,43.867,0,0,1-43.65,39.54H208.9v3.954l-11.2-10.782,11.2-9.046v4.434Z" transform="translate(-161.125 -226.283)" fill="#98db7c"/>
        <path id="Trazado_132871" data-name="Trazado 132871" d="M228.555,266.735a8.722,8.722,0,0,0-.174-1.735,8.687,8.687,0,0,1-17.023,0,8.686,8.686,0,1,0,17.2,1.735Z" transform="translate(-172.01 -215.45)" fill="#fc2b3a"/>
        <path id="Trazado_132872" data-name="Trazado 132872" d="M219.834,314.491a44.063,44.063,0,0,1-8.694-.863l8.6,8.286V317.96h.089a43.867,43.867,0,0,0,43.65-39.539l-.6.62A43.875,43.875,0,0,1,219.834,314.491Z" transform="translate(-171.974 -226.284)" fill="#82d361"/>
        <path id="Trazado_132873" data-name="Trazado 132873" d="M63.9,295.342a43.884,43.884,0,0,1-35.034-39.574h-.134c0,.015,0,.03,0,.045a43.868,43.868,0,0,0,39.439,43.641Z" transform="translate(-24.736 -207.998)" fill="#6cc4ff"/>
        <path id="Trazado_132874" data-name="Trazado 132874" d="M318.2,73.3c0-.015,0-.03,0-.045A43.867,43.867,0,0,0,278.664,29.6l6.871,6.617L279.368,41.2a32.447,32.447,0,0,1,27.41,32.051c0,.015,0,.03,0,.045h-4.5l9.046,11.2,10.782-11.2Z" transform="translate(-226.479 -25.437)" fill="#ffba57"/>
        <g id="Grupo_89012" data-name="Grupo 89012" transform="translate(52.889 13.014)">
          <path id="Trazado_132875" data-name="Trazado 132875" d="M285.719,75.5l-3.4,2.75a32.449,32.449,0,0,1,27.363,30.324q.046-.866.047-1.744A32.452,32.452,0,0,0,285.719,75.5Z" transform="translate(-282.316 -75.501)" fill="#ffac3e"/>
        </g>
      </g>
      <g id="Grupo_89014" data-name="Grupo 89014" transform="translate(0 0)">
        <path id="Trazado_132876" data-name="Trazado 132876" d="M213.722,203.347a10.157,10.157,0,0,0-9.536,13.639,1.449,1.449,0,1,0,2.722-1,7.254,7.254,0,1,1,3.077,3.726,1.449,1.449,0,0,0-1.5,2.482,10.152,10.152,0,1,0,5.233-18.852Z" transform="translate(-164.322 -164.141)"/>
        <path id="Trazado_132877" data-name="Trazado 132877" d="M179.971,154.826l-2.687-.4a18.458,18.458,0,0,0-2.148-5.182l1.615-2.186a2.748,2.748,0,0,0-.269-3.6l-1.9-1.9a2.748,2.748,0,0,0-3.6-.269L168.8,142.9a18.449,18.449,0,0,0-5.182-2.148l-.4-2.687a2.747,2.747,0,0,0-2.733-2.353h-2.69a2.748,2.748,0,0,0-2.733,2.353l-.4,2.687a18.45,18.45,0,0,0-5.182,2.148l-2.186-1.615a2.747,2.747,0,0,0-3.6.269l-1.9,1.9a2.747,2.747,0,0,0-.269,3.6l1.615,2.186a18.438,18.438,0,0,0-2.147,5.182l-2.686.4a2.747,2.747,0,0,0-2.353,2.733v2.69a2.747,2.747,0,0,0,2.353,2.733l2.687.4a18.451,18.451,0,0,0,2.147,5.182l-1.615,2.186a2.747,2.747,0,0,0,.269,3.6l1.9,1.9a2.747,2.747,0,0,0,3.6.269l2.186-1.615a18.448,18.448,0,0,0,5.182,2.148l.4,2.687a2.747,2.747,0,0,0,2.733,2.353h2.69a2.748,2.748,0,0,0,2.733-2.353l.4-2.687a18.449,18.449,0,0,0,5.182-2.148l2.187,1.615a2.748,2.748,0,0,0,3.6-.269l1.9-1.9a2.748,2.748,0,0,0,.269-3.6l-1.615-2.186a18.444,18.444,0,0,0,2.148-5.182l2.686-.4a2.747,2.747,0,0,0,2.353-2.733v-2.69a2.747,2.747,0,0,0-2.353-2.733Zm-.545,5.308-3.561.535a1.448,1.448,0,0,0-1.208,1.166,15.622,15.622,0,0,1-2.475,5.972,1.449,1.449,0,0,0,.031,1.679l2.14,2.9-1.74,1.739-2.9-2.141a1.45,1.45,0,0,0-1.679-.031,15.621,15.621,0,0,1-5.972,2.475,1.449,1.449,0,0,0-1.166,1.209l-.535,3.561H157.9l-.535-3.562a1.449,1.449,0,0,0-1.166-1.209,15.622,15.622,0,0,1-5.972-2.475,1.448,1.448,0,0,0-1.679.031l-2.9,2.14-1.74-1.739,2.141-2.9a1.449,1.449,0,0,0,.031-1.679,15.619,15.619,0,0,1-2.475-5.972,1.449,1.449,0,0,0-1.208-1.166l-3.561-.535v-2.46l3.561-.535a1.448,1.448,0,0,0,1.208-1.166A15.62,15.62,0,0,1,146.085,150a1.448,1.448,0,0,0-.031-1.679l-2.141-2.9,1.74-1.739,2.9,2.141a1.449,1.449,0,0,0,1.679.031,15.625,15.625,0,0,1,5.972-2.475,1.449,1.449,0,0,0,1.166-1.209l.535-3.562h2.46l.535,3.561a1.449,1.449,0,0,0,1.166,1.209,15.618,15.618,0,0,1,5.972,2.475,1.449,1.449,0,0,0,1.679-.031l2.9-2.141,1.74,1.739-2.14,2.9a1.449,1.449,0,0,0-.031,1.679,15.62,15.62,0,0,1,2.475,5.972,1.449,1.449,0,0,0,1.208,1.166l3.561.535Z" transform="translate(-109.733 -109.547)"/>
        <path id="Trazado_132878" data-name="Trazado 132878" d="M98.6,48.835a1.449,1.449,0,0,0-1.333-.882H94.777A45.4,45.4,0,0,0,54.383,4.233L50.405.4a1.458,1.458,0,0,0-2.454,1.044V3.98a45.076,45.076,0,0,0-24.683,8.248,1.449,1.449,0,1,0,1.67,2.368A42.225,42.225,0,0,1,49.4,6.855a1.449,1.449,0,0,0,1.449-1.449V4.852l7.581,7.3L50.849,18.28V16.852A1.449,1.449,0,0,0,49.4,15.4,33.964,33.964,0,0,0,16.48,41.027l-3.105-3.843a1.458,1.458,0,0,0-2.171-.094L7.8,40.623A42.448,42.448,0,0,1,20.58,18.12a1.449,1.449,0,1,0-1.965-2.129A45.308,45.308,0,0,0,4.287,44.273L.4,48.308a1.459,1.459,0,0,0,1.044,2.454H4.023A45.4,45.4,0,0,0,44.318,94.472l3.988,3.841a1.458,1.458,0,0,0,2.454-1.044V94.738a45.049,45.049,0,0,0,25.08-8.47,1.449,1.449,0,0,0-1.69-2.354,42.207,42.207,0,0,1-24.767,7.946H49.31a1.449,1.449,0,0,0-1.449,1.449v.555l-7.581-7.3,7.581-6.126v1.426A1.449,1.449,0,0,0,49.3,83.31h.1a33.964,33.964,0,0,0,32.9-25.54l3.037,3.76a1.458,1.458,0,0,0,2.171.094l3.515-3.651A42.473,42.473,0,0,1,78.484,80.348a1.449,1.449,0,1,0,1.984,2.113A45.336,45.336,0,0,0,94.524,54.338l3.785-3.931a1.448,1.448,0,0,0,.29-1.572Zm-61.417,36.5a1.458,1.458,0,0,0-.094,2.171l3.581,3.449A42.514,42.514,0,0,1,6.9,49.362v-.05a1.449,1.449,0,0,0-1.449-1.449h-.6l7.3-7.582,6.126,7.582H16.9a1.444,1.444,0,0,0-1.449,1.444v.05a33.964,33.964,0,0,0,25.547,32.9Zm32.48-12.446a31.04,31.04,0,0,1-18.9,7.491V77.4a1.459,1.459,0,0,0-2.36-1.127l-4.515,3.648A31.065,31.065,0,0,1,18.376,50.761h2.936a1.459,1.459,0,0,0,1.127-2.36L18.82,43.923A31.064,31.064,0,0,1,47.951,18.335v2.978a1.459,1.459,0,0,0,2.36,1.127l4.532-3.662A31.065,31.065,0,0,1,80.424,47.953H77.4a1.459,1.459,0,0,0-1.127,2.36l3.692,4.569a31.072,31.072,0,0,1-10.3,18.011Zm16.9-14.46-6.126-7.582H81.9a1.445,1.445,0,0,0,1.449-1.444v-.05A33.965,33.965,0,0,0,57.739,16.439l3.79-3.062a1.458,1.458,0,0,0,.094-2.171l-3.6-3.471A42.512,42.512,0,0,1,91.9,49.352v.05a1.449,1.449,0,0,0,1.449,1.449h.51Z" transform="translate(0 0)"/>
      </g>
    </g>
  </g>
</svg>
